<svg xmlns="http://www.w3.org/2000/svg" width="288.1" height="140.276" viewBox="-66.1 -7.991 288.1 140.276"><path fill="#C52026" d="M46.6 62.116c0 2.333.033 4.583.1 6.75h17.2c.066-2.266.133-4.616.2-7.05 0-1 .017-1.983.05-2.95h-17.6c0 .967.017 1.95.05 2.95v.3zM141.65 62.116c0 2.333.033 4.583.1 6.75h17.2c.067-2.266.134-4.616.2-7.05 0-1 .016-1.983.05-2.95h-17.6c0 .967.017 1.95.05 2.95v.3zM-30.95 61.816c0-1 .017-1.983.05-2.95h-30.2c-1.367 0-2.533.5-3.5 1.5-1 .967-1.5 2.133-1.5 3.5s.5 2.55 1.5 3.55c.967.968 2.133 1.45 3.5 1.45h29.95c.1-2.266.167-4.616.2-7.05zM16.5 58.866H-.9c-.033 1.066-.05 2.167-.05 3.3v.25c-.033 2.2-.1 4.35-.2 6.45H16.7c-.066-2.1-.1-4.232-.1-6.4-.033-1.233-.067-2.433-.1-3.6zM220.55 60.366c-1-1-2.183-1.5-3.55-1.5h-27.8c-.034 1.066-.05 2.167-.05 3.3v.3c-.033 2.167-.1 4.3-.2 6.4H217c1.367 0 2.55-.483 3.55-1.45.968-1 1.45-2.184 1.45-3.55 0-1.366-.482-2.533-1.45-3.5z"/><path fill="#C52026" d="M198.25 7.016c2.066-.067 3.816-.85 5.25-2.35 1.4-1.533 2.066-3.333 2-5.4s-.85-3.8-2.35-5.2c-1.533-1.433-3.316-2.117-5.35-2.05-20.668-.467-31.05 22.85-31.15 69.95-.734 35.134-6.117 53.55-16.15 55.25-10.834-1.6-16.283-19.967-16.35-55.1v-.15c-1-46.9-11.268-70.217-30.8-69.95h-.55c-20.7-.5-31.1 22.817-31.2 69.95-.7 35.135-6.083 53.55-16.15 55.25-10.833-1.6-16.283-19.966-16.35-55.1v-.15c-1-46.9-11.267-70.216-30.8-69.95h-.55c-20.7-.5-31.1 22.818-31.2 69.95-.7 35.067-6.084 53.518-16.15 55.35-2.066.135-3.767 1-5.1 2.602-1.367 1.566-1.967 3.383-1.8 5.45.133 2.032 1 3.733 2.6 5.1 1.566 1.333 3.383 1.933 5.45 1.8 19.033-.334 29.033-23.666 30-70v-.15C-8.383 26.983-2.933 8.633 7.9 7.066c10.066 1.7 15.467 20.1 16.2 55.2.1 47.133 10.5 70.467 31.2 70h.55c19.533.267 29.783-23.066 30.75-70v-.15c.066-35.133 5.518-53.483 16.35-55.05 10.068 1.7 15.467 20.1 16.2 55.2.1 47.133 10.5 70.467 31.2 70h.55c19.5.267 29.75-23.066 30.75-70v-.15c.067-35.433 5.6-53.8 16.6-55.1z"/><path fill="#C52026" d="M111.55 58.866h-17.4c-.032 1.066-.05 2.167-.05 3.3v.25c-.033 2.2-.1 4.35-.2 6.45h17.85c-.065-2.1-.1-4.232-.1-6.4-.033-1.233-.066-2.433-.1-3.6z"/></svg>