<svg xmlns="http://www.w3.org/2000/svg" width="185.604" height="110.598" viewBox="-29.85 -0.984 185.604 110.598"><path fill-rule="evenodd" clip-rule="evenodd" fill="#C52026" d="M140.416 66.2c-1.532-.877-3.558-2.267-6.074-4.172l.03.033c-1.4-1.03-2.537-1.838-3.414-2.43h-1.937c-.94.964-2.156 2.365-3.645 4.205l.065-.033c-.7.854-1.356 1.653-1.97 2.397h16.946z"/><path fill-rule="evenodd" clip-rule="evenodd" fill="#C52026" d="M14.022 107.74c.832 1.07 1.926 1.685 3.284 1.84 1.335.15 2.54-.187 3.612-1.02 1.073-.854 1.685-1.95 1.84-3.284C24.07 94.2 25.48 83.143 26.992 72.11 32.663 30.492 36.078 9.442 37.24 8.96c-.592.526-.176 3.568 1.247 9.13 1.357 5.32 3.262 14.645 5.713 27.978 2.605 14.142 4.51 23.643 5.714 28.503l-.033-.032c2.87 11.998 6.306 17.548 10.312 16.65 3.547.81 6.896-2.79 10.048-10.805 1.117-2.845 3-8.625 5.648-17.338v-.033c2.3-7.73 4.138-13.19 5.517-16.386v-.032c1.116-2.605 1.687-4.182 1.708-4.73.48.35 1.16 1.183 2.036 2.497v-.033c1.18 1.773 2.89 4.97 5.12 9.588v-.033c2.52 5.254 4.435 8.855 5.748 10.804l.032.032c3.306 4.926 6.646 7.18 10.016 6.765 2.956.153 6.065-1.17 9.327-3.974h-.033c1.51-1.27 3.59-3.547 6.24-6.83l-.033.032c2.275-2.76 3.95-4.63 5.022-5.616l.033-.033c.897-.833 1.696-1.336 2.397-1.51.984.065 2.068.437 3.25 1.116h.065c1.095.635 2.76 1.785 4.992 3.448l-.033-.032c2.67 2.014 4.73 3.404 6.174 4.17 2.387 1.314 4.663 2.07 6.83 2.266 1.335.153 2.54-.197 3.612-1.052 1.05-.853 1.652-1.948 1.807-3.283.153-1.358-.197-2.562-1.05-3.613-.855-1.072-1.95-1.686-3.285-1.838-1.007-.155-2.08-.538-3.22-1.15-1.158-.635-2.8-1.75-4.925-3.35l-.032-.033c-2.692-2.014-4.707-3.382-6.042-4.104-.022-.022-.045-.033-.066-.033-2.89-1.642-5.583-2.43-8.077-2.364-2.847-.175-5.857 1.193-9.03 4.104l.03-.065c-1.334 1.16-3.358 3.404-6.073 6.732v.033c-2.146 2.627-3.81 4.466-4.99 5.516l-.034.034c-1.05.898-2.003 1.422-2.857 1.576-.394-.373-1.007-1.17-1.84-2.397-1.137-1.73-2.833-4.94-5.09-9.623-2.538-5.21-4.476-8.812-5.81-10.803h-.034c-3.35-4.926-6.743-7.192-10.18-6.798-3.787-.723-7.378 2.846-10.77 10.705-1.468 3.395-3.427 9.218-5.88 17.47-2.538 8.343-4.333 13.87-5.384 16.584-.197.46-.362.887-.493 1.28-.175-1.467-.547-3.403-1.116-5.812v-.032c-1.183-4.773-3.044-14.077-5.584-27.913-2.518-13.64-4.466-23.184-5.845-28.635C44.978 3.73 41.377-1.788 37.24-.888c-6.743-.637-13.41 23.248-19.998 71.65-1.533 11.1-2.956 22.222-4.27 33.364-.152 1.337.198 2.54 1.052 3.613z"/><path fill-rule="evenodd" clip-rule="evenodd" fill="#C52026" d="M41.737 59.63h-8.11c-.285 2.125-.58 4.314-.887 6.57h10.278c-.394-1.972-.82-4.16-1.28-6.57zM82.095 59.63c-.48 1.49-.974 3.087-1.478 4.796l-.033.03c-.175.593-.35 1.172-.524 1.742h11.1c-.964-1.577-2.146-3.765-3.547-6.568h-5.518zM-26.566 66.2h39.472c.307-2.234.624-4.423.952-6.57h-40.424c-.897 0-1.664.33-2.3.986-.655.635-.984 1.4-.984 2.3 0 .897.33 1.675.985 2.33.635.636 1.4.953 2.3.953z"/></svg>