<svg xmlns="http://www.w3.org/2000/svg" width="155" height="123.9" viewBox="24.55 -12.5 155 123.9"><path fill-rule="evenodd" clip-rule="evenodd" fill="#C52026" d="M111 60.9l13.95-36.8c.134-.433.134-.85 0-1.25-.134-.433-.4-.766-.8-1-.434-.232-.884-.316-1.35-.25-.5.168-.885.468-1.15.9L101.1 56c-1.767.166-3.4.767-4.9 1.8-1.567 1.034-2.75 2.4-3.55 4.1-1.267 2.6-1.45 5.267-.55 8 .967 2.767 2.75 4.784 5.35 6.05 2.633 1.3 5.3 1.484 8 .55 2.767-.9 4.816-2.683 6.15-5.35.833-1.666 1.166-3.416 1-5.25-.1-1.833-.633-3.5-1.6-5z"/><path fill-rule="evenodd" clip-rule="evenodd" fill="#C52026" d="M39.9 111.4h124.3c3.667-4.767 6.683-9.815 9.05-15.15 4.2-9.532 6.3-19.95 6.3-31.25 0-8.565-1.2-16.616-3.6-24.15-3.634-11.332-10-21.55-19.1-30.65-15.134-15.132-33.4-22.7-54.8-22.7-21.368 0-39.634 7.568-54.8 22.7C38.18 19.3 31.83 29.518 28.2 40.85 25.764 48.418 24.55 56.47 24.55 65c0 11.3 2.116 21.718 6.35 31.25 2.333 5.334 5.333 10.383 9 15.15zm5.35-64.7c.633-2 1.383-3.95 2.25-5.85 2.867-6.5 7.017-12.467 12.45-17.9l.05-.05c2.333-2.333 4.767-4.433 7.3-6.3.7-.5 1.4-.983 2.1-1.45 9.567-6.433 20.45-9.65 32.65-9.65h1c13.467.2 25.317 4.383 35.55 12.55 1.9 1.5 3.734 3.133 5.5 4.9 5.434 5.433 9.6 11.4 12.5 17.9.867 1.967 1.634 3.983 2.3 6.05 1.767 5.667 2.65 11.7 2.65 18.1 0 11.6-2.917 22.017-8.75 31.25H51.3C45.467 87.017 42.55 76.6 42.55 65c0-6.467.9-12.566 2.7-18.3z"/><path fill-rule="evenodd" clip-rule="evenodd" fill="#C52026" d="M71 54.95c1.667-3.767 4.067-7.217 7.2-10.35l.05-.05c1.333-1.333 2.733-2.55 4.2-3.65l1.2-.8c5.533-3.733 11.833-5.6 18.9-5.6h.55c2.5.033 4.9.317 7.2.85l8.8-14.4c.633-1.067 1.55-1.8 2.75-2.2.166-.067.35-.1.55-.1 1.1-.2 2.166-.017 3.2.55 0 .033.017.05.05.05 1.066.633 1.783 1.517 2.15 2.65 0 .033.016.067.05.1.3.933.3 1.933 0 3-.034.033-.067.1-.1.2l-5.8 15.3c.565.4 1.133.817 1.7 1.25 1.1.867 2.165 1.817 3.198 2.85 3.134 3.133 5.533 6.583 7.2 10.35.233.533.467 1.083.7 1.65l19.5-6.1c-.233-.835-.467-1.65-.7-2.45-.634-1.868-1.333-3.684-2.1-5.45-2.634-5.9-6.417-11.318-11.35-16.25-1.6-1.6-3.267-3.084-5-4.45-9.267-7.4-20.017-11.2-32.25-11.4H101.947c-11.067 0-20.95 2.916-29.65 8.75-.633.432-1.267.882-1.9 1.35-2.3 1.666-4.5 3.565-6.6 5.7l-.05.05c-4.933 4.932-8.7 10.35-11.3 16.25-.8 1.7-1.483 3.466-2.05 5.3-.3.933-.566 1.866-.8 2.8L70.15 57c.266-.7.55-1.383.85-2.05z"/></svg>