<?xml version="1.0" encoding="utf-8"?>
<!-- Generator: Adobe Illustrator 16.0.0, SVG Export Plug-In . SVG Version: 6.00 Build 0)  -->
<!DOCTYPE svg PUBLIC "-//W3C//DTD SVG 1.1//EN" "http://www.w3.org/Graphics/SVG/1.1/DTD/svg11.dtd">
<svg version="1.1" id="Layer_1" xmlns="http://www.w3.org/2000/svg" xmlns:xlink="http://www.w3.org/1999/xlink" x="0px" y="0px"
	 width="186.199px" height="111.15px" viewBox="-0.196 -0.048 186.199 111.15"
	 enable-background="new -0.196 -0.048 186.199 111.15" xml:space="preserve">
<path fill="#C52026" d="M136.654,98.502c1.9-1.434,2.15-2.783,0.75-4.05l-5.449-10.55c-1.4-1.566-2.934-1.95-4.601-1.15
	c-1.733,1.101-2.134,2.45-1.2,4.051l6.15,10.5C133.104,99.069,134.554,99.469,136.654,98.502z"/>
<path fill="#C52026" d="M95.554,107.952v-12.05c0-2.133-1.066-3.2-3.2-3.2c-1.933,0-2.9,1.067-2.9,3.2v12.05
	c0,2.101,0.967,3.15,2.9,3.15C94.488,111.103,95.554,110.053,95.554,107.952z"/>
<path fill="#C52026" d="M57.854,82.752c-2.066-1.066-3.5-0.684-4.3,1.15l-6,10.55c-1.1,1.567-0.7,2.917,1.2,4.05
	c1.833,0.667,3.15,0.268,3.95-1.199l6.1-10.5C60.071,85.369,59.754,84.02,57.854,82.752z"/>
<path fill="#C52026" d="M147.054,34.052v-0.075l-0.45-0.95c-2.731-6-6.673-11.558-11.825-16.675l-0.025-0.025
	C123.548,5.416,110.081-0.042,94.354-0.048c-15.732,0.003-29.166,5.461-40.3,16.375v0.025c-5.184,5.108-9.159,10.659-11.925,16.65
	l-0.475,0.975v0.075c-2.569,5.927-4.002,12.31-4.3,19.15h-37.55v12h186.199v-12h-34.625
	C151.066,46.363,149.624,39.979,147.054,34.052z M47.379,53.202c0.282-5.713,1.557-11.03,3.825-15.95l0.45-1.05
	c2.276-4.564,5.41-8.814,9.4-12.75v0.025c9.199-9.02,20.299-13.528,33.3-13.525c12.993-0.005,24.118,4.495,33.375,13.5l0.024,0.025
	c4.023,3.997,7.156,8.314,9.4,12.95l0.35,0.825c2.269,4.92,3.561,10.237,3.875,15.95H47.379z"/>
</svg>
