<svg xmlns="http://www.w3.org/2000/svg" width="161.882" height="184.701" viewBox="12.055 -35.939 161.882 184.701"><path fill="#C52026" d="M171.257-11.24l-5.45 3.2c-1 .6-1.218 1.334-.65 2.2.6.968 1.333 1.15 2.2.55l5.6-3.15c1.033-.6 1.25-1.315.65-2.15-.434-1.065-1.217-1.282-2.35-.65zM141.806 35.112h-16.4l.8 5.45h14.9M135.157-27.69v-6.55c0-1.132-.518-1.7-1.55-1.7-1.167 0-1.75.568-1.75 1.7v6.55c0 1.168.583 1.75 1.75 1.75 1.033 0 1.55-.582 1.55-1.75zM133.607-16.888c-5.666 0-10.518 2-14.55 6s-6.05 8.85-6.05 14.55c0 1.062.074 2.095.225 3.1.258 1.865.768 3.632 1.525 5.3.867 1.9 2.05 3.684 3.55 5.35.067.167.134.3.2.4.232.333.5.75.8 1.25.5.833.95 1.667 1.35 2.5.067.2.15.4.25.6.1.2.183.383.25.55.6 1.333 1.083 2.6 1.45 3.8l.3 1.15c.1.4.15.667.15.8l.05.3v4.25h21.1v-4.35l.05-.35c.034-.233.067-.383.1-.45.034-.1.085-.317.15-.65.067-.3.134-.534.2-.7.4-1.2.883-2.467 1.45-3.8.067-.167.15-.35.25-.55.067-.2.15-.4.25-.6.4-.867.8-1.633 1.2-2.3.232-.433.467-.85.7-1.25.167-.233.267-.35.3-.35 1.6-1.733 2.85-3.6 3.75-5.6.736-1.668 1.236-3.435 1.5-5.3.133-1.005.2-2.038.2-3.1 0-5.7-2.034-10.55-6.1-14.55-4.034-4-8.9-6-14.6-6zm15.675 23.65c-.36 1.926-1.068 3.692-2.125 5.3-.5.8-1.102 1.55-1.8 2.25-.167.232-.4.6-.7 1.1-.3.433-.635.916-1 1.45-.635 1.2-1.25 2.5-1.852 3.9-.1.266-.217.532-.35.8l-.2.6c-.433.966-.815 1.966-1.15 3-.366 1.332-.565 2.382-.6 3.15h-11.65c-.065-.768-.3-1.817-.698-3.15-.334-1-.717-2-1.15-3l-.2-.6c-.134-.234-.267-.5-.4-.8-.532-1.3-1.2-2.634-2-4l-.8-1.5-.85-1.05c-.6-.668-1.133-1.384-1.6-2.15-1.074-1.623-1.8-3.39-2.176-5.3-.183-.995-.274-2.03-.274-3.1 0-4.4 1.566-8.134 4.7-11.2 3.134-3.068 6.866-4.6 11.2-4.6 4.4 0 8.184 1.532 11.35 4.6 3.066 3.065 4.6 6.8 4.6 11.2 0 1.075-.092 2.108-.274 3.1zM133.607 47.712c1.3 0 2.434-.467 3.4-1.4.934-1.033 1.5-2.283 1.7-3.75h-10c.132 1.467.683 2.717 1.65 3.75.933.933 2.017 1.4 3.25 1.4zM94.056-8.44l5.7 3.15c.868.5 1.65.317 2.35-.55.6-.866.384-1.6-.65-2.2l-5.65-3.2c-1-.466-1.716-.25-2.147.65-.736.668-.604 1.385.396 2.15zM112.107-21.19c.768.868 1.6 1.084 2.5.65.934-.6 1.15-1.332.65-2.2l-3.35-5.7c-.434-.965-1.217-1.182-2.352-.65-1.033.768-1.166 1.5-.398 2.2l2.95 5.7zM157.257-29.09c-1-.366-1.717-.15-2.15.65l-3.3 5.7c-.7.768-.534 1.5.5 2.2 1.134.567 1.917.35 2.35-.65l3.25-5.7c.6-.865.383-1.6-.65-2.2zM12.055 87.96h18.65v60.802h98.702v-60.8h18.65l-68-68.06-68.002 68.06zm109.352-8v60.802h-82.7v-60.8h-7.35l48.7-48.742 48.698 48.74h-7.348z"/></svg>