<svg xmlns="http://www.w3.org/2000/svg" width="155.203" height="148.458" viewBox="15.654 -18.397 155.203 148.458"><path fill="#C52026" d="M92.805 28.01v6.55c0 1.168.583 1.75 1.75 1.75 1.033 0 1.55-.582 1.55-1.75v-6.55c0-1.132-.517-1.7-1.55-1.7-1.167 0-1.75.568-1.75 1.7zM128.306 56.96l5.6-3.15c1.033-.6 1.25-1.316.65-2.15-.434-1.066-1.217-1.282-2.35-.65l-5.45 3.2c-1 .6-1.218 1.334-.65 2.2.6.968 1.333 1.15 2.2.55zM87.155 102.81h14.9l.7-5.448h-16.4M75.555 41.71c.934-.6 1.15-1.332.65-2.2l-3.35-5.7c-.434-.966-1.218-1.182-2.35-.65-1.034.768-1.168 1.5-.4 2.2l2.95 5.7c.767.868 1.6 1.085 2.5.65zM80.006 51.36c-4.033 4-6.05 8.85-6.05 14.55 0 3.034.583 5.834 1.75 8.4.866 1.9 2.05 3.684 3.55 5.35.066.168.133.3.2.4.232.334.5.75.8 1.25.5.834.95 1.667 1.35 2.5.067.2.15.4.25.6.1.2.184.385.25.55.6 1.335 1.083 2.6 1.45 3.802l.3 1.15c.1.398.15.666.15.8l.05.3v4.25h21.1v-4.35l.05-.352c.034-.232.067-.383.1-.45.034-.1.083-.315.15-.65.067-.3.134-.532.2-.698.4-1.2.883-2.467 1.45-3.8.067-.167.15-.35.25-.55.067-.2.15-.4.25-.602.4-.866.8-1.633 1.2-2.3.232-.433.467-.85.7-1.25.167-.233.267-.35.3-.35 1.6-1.733 2.85-3.6 3.75-5.6 1.133-2.567 1.7-5.367 1.7-8.4 0-5.7-2.034-10.55-6.1-14.55-4.034-4-8.9-6-14.6-6-5.668 0-10.517 2-14.55 6zm30.5 14.55c0 3.168-.8 5.968-2.4 8.4-.5.8-1.1 1.55-1.8 2.25-.168.234-.4.6-.7 1.1l-1 1.45c-.634 1.2-1.25 2.5-1.85 3.9-.1.267-.218.534-.35.8l-.2.6c-.434.968-.818 1.968-1.15 3-.367 1.334-.566 2.385-.6 3.15h-11.65c-.067-.766-.3-1.816-.7-3.15-.334-1-.718-2-1.15-3-.067-.2-.134-.398-.2-.6-.134-.232-.267-.5-.4-.8-.533-1.3-1.2-2.633-2-4l-.8-1.5-.85-1.05c-.6-.666-1.134-1.383-1.6-2.15-1.634-2.467-2.45-5.266-2.45-8.4 0-4.398 1.566-8.133 4.7-11.2 3.133-3.065 6.866-4.6 11.2-4.6 4.4 0 8.184 1.535 11.35 4.6 3.066 3.068 4.6 6.802 4.6 11.2zM113.255 41.71c1.133.568 1.918.35 2.35-.65l3.25-5.7c.602-.866.385-1.6-.648-2.2-1-.366-1.717-.15-2.15.65l-3.3 5.7c-.7.768-.535 1.5.498 2.2zM91.305 108.56c.934.935 2.016 1.4 3.25 1.4 1.3 0 2.434-.466 3.4-1.4.932-1.032 1.5-2.282 1.7-3.75h-10c.134 1.468.684 2.718 1.65 3.75zM62.405 54.21l-5.65-3.2c-1-.466-1.716-.25-2.15.65-.732.668-.6 1.384.4 2.15l5.7 3.15c.867.5 1.65.317 2.35-.55.6-.865.383-1.6-.65-2.2z"/><path fill="#C52026" d="M15.654 59.262h20.75v70.8h113.652v-70.8h20.8l-77.6-77.66-77.602 77.66zm126.402-8v70.798h-97.65v-70.8h-9.448L93.256-7.08l58.298 58.34h-9.498z"/></svg>