<?xml version="1.0" encoding="utf-8"?>
<!-- Generator: Adobe Illustrator 16.0.0, SVG Export Plug-In . SVG Version: 6.00 Build 0)  -->
<!DOCTYPE svg PUBLIC "-//W3C//DTD SVG 1.1//EN" "http://www.w3.org/Graphics/SVG/1.1/DTD/svg11.dtd">
<svg version="1.1" id="Layer_1"
	xmlns="http://www.w3.org/2000/svg"
	xmlns:xlink="http://www.w3.org/1999/xlink" x="0px" y="0px" width="135.049px" height="93.05px" viewBox="26.102 9.061 135.049 93.05" enable-background="new 26.102 9.061 135.049 93.05" xml:space="preserve">
	<polygon fill="#F72432" points="82.502,102.112 68.652,88.311 42.602,88.311 28.752,102.112 "/>
	<polygon fill="#F72432" points="118.652,22.861 144.702,22.861 158.552,9.061 104.853,9.061 "/>
	<polygon fill="#F72432" points="85.002,63.362 79.802,58.161 71.152,66.811 71.152,85.561 85.002,99.362 "/>
	<polygon fill="#F72432" points="85.052,11.611 71.202,25.311 71.202,44.011 79.852,52.811 85.052,47.511 "/>
	<polygon fill="#F72432" points="77.302,55.561 70.352,48.661 40.852,48.661 33.952,55.561 40.852,62.511 70.352,62.511 "/>
	<polygon fill="#F72432" points="116.952,62.511 146.452,62.511 153.402,55.561 146.452,48.661 116.952,48.661 110.002,55.561 "/>
	<polygon fill="#F72432" points="102.152,47.511 107.353,52.811 116.002,44.011 116.002,25.311 102.152,11.611 "/>
	<polygon fill="#F72432" points="161.103,63.362 155.902,58.161 147.252,66.811 147.252,85.561 161.103,99.362 "/>
	<polygon fill="#F72432" points="102.152,99.161 116.002,85.511 116.002,66.761 107.353,57.961 102.152,63.311 "/>
	<polygon fill="#F72432" points="144.752,88.311 118.652,88.311 104.853,102.112 158.552,102.112 "/>
	<polygon fill="#F72432" points="161.152,11.611 147.302,25.311 147.302,44.011 155.952,52.811 161.152,47.511 "/>
	<polygon fill="#F72432" points="39.952,66.761 31.302,57.961 26.102,63.311 26.102,99.161 39.952,85.511 "/>
	<polygon fill="#F72432" points="39.952,44.011 39.952,25.311 26.102,11.611 26.102,47.511 31.302,52.811 "/>
	<polygon fill="#F72432" points="68.652,22.861 82.502,9.061 28.752,9.061 42.602,22.861 "/>
</svg>
