<?xml version="1.0" encoding="utf-8"?>
<!-- Generator: Adobe Illustrator 16.0.0, SVG Export Plug-In . SVG Version: 6.00 Build 0)  -->
<!DOCTYPE svg PUBLIC "-//W3C//DTD SVG 1.1//EN" "http://www.w3.org/Graphics/SVG/1.1/DTD/svg11.dtd">
<svg version="1.1" id="Layer_1"
	xmlns="http://www.w3.org/2000/svg"
	xmlns:xlink="http://www.w3.org/1999/xlink" x="0px" y="0px" width="202.338px" height="201.763px" viewBox="-7.634 -45.94 202.338 201.763" enable-background="new -7.634 -45.94 202.338 201.763" xml:space="preserve">
	<path fill-rule="evenodd" clip-rule="evenodd" fill="#F72432" d="M106.216,149.498l82.2-82.201c8.4-8.434,8.384-16.866-0.05-25.299
	l-82.15-82.15c-4.166-4.166-8.383-6.083-12.649-5.75c-4.333-0.333-8.55,1.584-12.65,5.75l-82.2,82.15
	c-8.467,8.434-8.467,16.883,0,25.35l82.15,82.15C89.3,157.932,97.749,157.932,106.216,149.498z M93.567-24.502l79.2,79.2
	l-79.25,79.15l-79.2-79.2L93.567-24.502z"/>
	<polygon fill-rule="evenodd" clip-rule="evenodd" fill="#F72432" points="98.866,73.649 98.866,41.498 110.366,41.498
	110.366,34.948 79.616,34.948 79.616,41.498 91.067,41.498 91.067,73.649 "/>
	<path fill-rule="evenodd" clip-rule="evenodd" fill="#F72432" d="M137.017,72.848c2.3-0.734,4.133-1.768,5.5-3.1
	c1.8-1.734,3.183-4.018,4.149-6.85c0.767-2.301,1.15-5.051,1.15-8.25c0-3.634-0.417-6.667-1.25-9.101c-0.833-2.5-2.067-4.6-3.7-6.3
	c-1.6-1.7-3.55-2.884-5.85-3.55c-1.7-0.5-4.15-0.75-7.351-0.75h-14.3v38.701h14.7C132.966,73.649,135.283,73.381,137.017,72.848z
	 M123.166,67.149V41.498h3.55c3.167,0,5.301,0.116,6.4,0.35c1.467,0.334,2.684,0.95,3.65,1.851c0.933,0.899,1.666,2.149,2.199,3.75
	c0.533,1.6,0.801,3.883,0.801,6.85c0,3.033-0.268,5.417-0.801,7.15c-0.533,1.734-1.217,2.984-2.05,3.75
	c-0.833,0.734-1.883,1.25-3.149,1.551c-0.967,0.266-2.533,0.4-4.7,0.4H123.166z"/>
	<path fill-rule="evenodd" clip-rule="evenodd" fill="#F72432" d="M68.966,59.848c-1.133-1.199-2.533-2.283-4.199-3.25
	c3.399-0.5,5.949-1.7,7.649-3.6s2.55-4.3,2.55-7.2c0-2.3-0.566-4.333-1.699-6.1c-1.134-1.8-2.634-3.033-4.5-3.7
	c-1.867-0.7-4.867-1.05-9-1.05h-16.5v38.701h7.85v-16.15h1.55c1.8,0,3.117,0.15,3.95,0.449c0.833,0.301,1.633,0.834,2.4,1.6
	c0.732,0.801,2.1,2.701,4.1,5.701l5.65,8.4h9.35l-4.75-7.551C71.499,63.098,70.033,61.014,68.966,59.848z M56.916,51.347h-5.8v-9.85
	h6.1c3.167,0,5.067,0.05,5.7,0.15c1.267,0.199,2.267,0.699,3,1.5c0.667,0.8,1,1.85,1,3.149c0,1.167-0.267,2.134-0.8,2.9
	c-0.5,0.767-1.233,1.316-2.2,1.649C62.984,51.181,60.65,51.347,56.916,51.347z"/>
</svg>
