<?xml version="1.0" encoding="utf-8"?>
<!-- Generator: Adobe Illustrator 16.0.0, SVG Export Plug-In . SVG Version: 6.00 Build 0)  -->
<!DOCTYPE svg PUBLIC "-//W3C//DTD SVG 1.1//EN" "http://www.w3.org/Graphics/SVG/1.1/DTD/svg11.dtd">
<svg version="1.1" id="Layer_1" xmlns="http://www.w3.org/2000/svg" xmlns:xlink="http://www.w3.org/1999/xlink" x="0px" y="0px"
	 width="161.882px" height="184.701px" viewBox="12.055 -35.939 161.882 184.701"
	 enable-background="new 12.055 -35.939 161.882 184.701" xml:space="preserve">
<path fill="#C52026" d="M171.257-11.239l-5.451,3.2c-1,0.6-1.217,1.333-0.648,2.2c0.6,0.967,1.332,1.15,2.199,0.55l5.6-3.15
	c1.033-0.6,1.25-1.316,0.65-2.15C173.173-11.655,172.39-11.872,171.257-11.239z"/>
<polygon fill="#C52026" points="141.806,35.112 125.407,35.112 126.206,40.561 141.107,40.561 "/>
<path fill="#C52026" d="M135.157-27.689v-6.55c0-1.133-0.518-1.7-1.551-1.7c-1.166,0-1.75,0.567-1.75,1.7v6.55
	c0,1.167,0.584,1.75,1.75,1.75C134.64-25.939,135.157-26.522,135.157-27.689z"/>
<path fill="#C52026" d="M133.607-16.888c-5.666,0-10.518,2-14.551,6s-6.049,8.85-6.049,14.55c0,1.062,0.074,2.095,0.225,3.1
	c0.258,1.865,0.768,3.632,1.525,5.3c0.867,1.9,2.049,3.684,3.549,5.35c0.068,0.167,0.135,0.3,0.201,0.4
	c0.232,0.333,0.5,0.75,0.799,1.25c0.5,0.833,0.951,1.667,1.352,2.5c0.066,0.2,0.148,0.4,0.25,0.6c0.1,0.2,0.182,0.383,0.25,0.55
	c0.6,1.333,1.082,2.6,1.449,3.8l0.301,1.15c0.1,0.4,0.148,0.667,0.148,0.8l0.051,0.3v4.25h21.1v-4.35l0.051-0.35
	c0.033-0.233,0.066-0.383,0.1-0.45c0.033-0.1,0.084-0.317,0.15-0.65c0.066-0.3,0.133-0.534,0.199-0.7c0.4-1.2,0.883-2.467,1.451-3.8
	c0.066-0.167,0.148-0.35,0.25-0.55c0.066-0.2,0.148-0.4,0.25-0.6c0.398-0.867,0.799-1.633,1.199-2.3
	c0.232-0.433,0.467-0.85,0.699-1.25c0.168-0.233,0.268-0.35,0.301-0.35c1.6-1.733,2.85-3.6,3.75-5.6
	c0.736-1.668,1.236-3.435,1.5-5.3c0.133-1.005,0.199-2.038,0.199-3.1c0-5.7-2.033-10.55-6.1-14.55
	C144.173-14.888,139.306-16.888,133.607-16.888z M149.282,6.761c-0.361,1.927-1.068,3.693-2.125,5.3c-0.5,0.8-1.102,1.55-1.801,2.25
	c-0.166,0.233-0.4,0.6-0.699,1.1c-0.301,0.434-0.635,0.917-1,1.45c-0.635,1.2-1.25,2.5-1.852,3.9c-0.1,0.267-0.217,0.533-0.35,0.8
	c-0.066,0.2-0.133,0.4-0.199,0.6c-0.434,0.967-0.816,1.967-1.15,3c-0.367,1.333-0.566,2.383-0.6,3.15h-11.65
	c-0.066-0.767-0.301-1.816-0.699-3.15c-0.334-1-0.717-2-1.15-3c-0.066-0.2-0.133-0.4-0.201-0.6c-0.133-0.233-0.266-0.5-0.398-0.8
	c-0.533-1.3-1.201-2.633-2-4l-0.801-1.5l-0.85-1.05c-0.6-0.667-1.133-1.383-1.6-2.15c-1.074-1.622-1.801-3.389-2.176-5.3
	c-0.184-0.994-0.275-2.028-0.275-3.1c0-4.4,1.566-8.133,4.701-11.2c3.133-3.067,6.865-4.6,11.199-4.6c4.4,0,8.184,1.533,11.35,4.6
	c3.066,3.066,4.6,6.8,4.6,11.2C149.556,4.737,149.464,5.77,149.282,6.761z"/>
<path fill="#C52026" d="M133.607,47.712c1.301,0,2.434-0.467,3.4-1.4c0.934-1.033,1.5-2.283,1.699-3.75h-10
	c0.133,1.467,0.684,2.717,1.65,3.75C131.29,47.245,132.374,47.712,133.607,47.712z"/>
<path fill="#C52026" d="M94.056-8.439l5.701,3.15c0.867,0.5,1.65,0.316,2.35-0.55c0.6-0.867,0.383-1.6-0.65-2.2l-5.65-3.2
	c-1-0.467-1.717-0.25-2.148,0.65C92.924-9.922,93.056-9.205,94.056-8.439z"/>
<path fill="#C52026" d="M112.107-21.189c0.768,0.867,1.6,1.083,2.5,0.65c0.934-0.6,1.15-1.333,0.65-2.2l-3.35-5.7
	c-0.434-0.966-1.217-1.183-2.352-0.65c-1.033,0.767-1.166,1.5-0.398,2.2L112.107-21.189z"/>
<path fill="#C52026" d="M157.257-29.089c-1-0.367-1.717-0.15-2.15,0.65l-3.301,5.7c-0.699,0.767-0.533,1.5,0.5,2.2
	c1.135,0.566,1.918,0.35,2.352-0.65l3.25-5.7C158.507-27.755,158.29-28.489,157.257-29.089z"/>
<path fill="#C52026" d="M12.055,87.961h18.651v60.801h98.701V87.961h18.65L80.056,19.902L12.055,87.961z M121.407,79.961v60.801
	H38.707V79.961h-7.349L80.056,31.22l48.699,48.741H121.407z"/>
</svg>
