<svg xmlns="http://www.w3.org/2000/svg" width="200.9" height="152.549" viewBox="-7.15 -20.5 200.9 152.549"><path fill-rule="evenodd" clip-rule="evenodd" fill="#C52026" d="M-.95 132.05h188.5c1.7 0 3.167-.6 4.4-1.8 1.2-1.234 1.8-2.7 1.8-4.4V-14.3c0-1.7-.6-3.167-1.8-4.4-1.233-1.2-2.7-1.8-4.4-1.8H-.95c-1.7 0-3.167.6-4.4 1.8-1.2 1.233-1.8 2.7-1.8 4.4v140.15c0 1.7.6 3.166 1.8 4.4 1.234 1.2 2.7 1.8 4.4 1.8zm40.2-17.95c0 .467-.183.867-.55 1.2-.267.3-.633.45-1.1.45H9.85c-.467 0-.833-.15-1.1-.45-.333-.333-.5-.733-.5-1.2V96.25c0-.467.167-.834.5-1.1.267-.334.633-.5 1.1-.5H37.6c.467 0 .833.166 1.1.5.367.266.55.633.55 1.1v17.85zm45.3 0c0 .467-.15.867-.45 1.2-.3.3-.667.45-1.1.45H55.2c-.434 0-.8-.15-1.1-.45-.3-.333-.45-.733-.45-1.2V96.25c0-.467.15-.834.45-1.1.3-.334.667-.5 1.1-.5H83c.433 0 .8.166 1.1.5.3.266.45.633.45 1.1v17.85zm45.9 0c0 .467-.167.867-.5 1.2-.268.3-.633.45-1.1.45H101.1c-.467 0-.834-.15-1.1-.45-.3-.333-.45-.733-.45-1.2V96.25c0-.467.15-.834.45-1.1.266-.334.633-.5 1.1-.5h27.75c.467 0 .832.166 1.1.5.333.266.5.633.5 1.1v17.85zm45.85 0c0 .467-.15.867-.45 1.2-.267.3-.633.45-1.1.45H147c-.467 0-.833-.15-1.1-.45-.333-.333-.5-.733-.5-1.2V96.25c0-.467.167-.834.5-1.1.267-.334.633-.5 1.1-.5h27.75c.467 0 .833.166 1.1.5.3.266.45.633.45 1.1v17.85zM5.25-8.1h176.1v86.8H5.25V-8.1z"/><path fill-rule="evenodd" clip-rule="evenodd" fill="#C52026" d="M99.1 42.3v13.05l9.65 9.55v-25l-3.65-3.55M79.3 57.25l-9.55 9.55H107l-9.6-9.55M130.25 42.3l-6-6.1-3.65 3.7v24.85l9.65-9.45M99.15 26.55l6 6.05 3.6-3.65V4.05l-9.6 9.5M25.2 29.75l-4.8 4.75 4.8 4.85h20.5l4.75-4.85-4.75-4.75M77.5 42.3l-6-6.1-3.6 3.7v24.85l9.6-9.45M77.5 26.55v-13l-9.6-9.5v24.9l3.6 3.65M130.25 26.55v-13l-9.65-9.5v24.9l3.65 3.65M73.35 34.5l4.75 4.85h20.5l4.75-4.85-4.75-4.75H78.1M132.05 57.25l-9.55 9.55h37.25l-9.6-9.55M151.9 42.3v13.05l9.6 9.55v-25l-3.6-3.55M97.4 11.85l9.6-9.6H69.75l9.55 9.6M126.05 34.5l4.85 4.85h20.45l4.8-4.85-4.8-4.75H130.9M151.95 26.55l6 6.05 3.55-3.65V4.05l-9.55 9.5M150.1 11.85l9.65-9.6H122.5l9.55 9.6"/></svg>