<svg xmlns="http://www.w3.org/2000/svg" width="249.6" height="166.05" viewBox="-31.55 -27.45 249.6 166.05"><path fill-rule="evenodd" clip-rule="evenodd" fill="#C52026" d="M62.55 72.4h-14.9c-.232 0-.432.116-.6.35-.166.167-.25.4-.25.7v11.4c0 .3.084.55.25.75.168.2.368.3.6.3h14.9c.268 0 .484-.1.65-.3.168-.2.25-.45.25-.75v-11.4c0-.3-.082-.533-.25-.7-.166-.234-.383-.35-.65-.35z"/><path fill-rule="evenodd" clip-rule="evenodd" fill="#C52026" d="M218.05 14.85v-8H159.5v-34.3H11.7v18.5H-15v15.8h-16.55v97.45H-15v15.85h26.7v18.45h147.8v-34.3h58.55v-8H142.2V14.85h75.85zM-7-.95h92v7.8H-7v-7.8zM-23.55 96.3V14.85h92V96.3h-92zM-7 112.15v-7.85h92v7.85H-7zm118.7 18.45h-92v-10.45h92v10.45zm0-139.55h-92v-10.5h92v10.5z"/><path fill-rule="evenodd" clip-rule="evenodd" fill="#C52026" d="M41.05 72.4h-14.9c-.266 0-.465.116-.6.35-.166.167-.25.4-.25.7v11.4c0 .3.084.55.25.75.134.2.334.3.6.3h14.9c.268 0 .467-.1.6-.3.2-.2.3-.45.3-.75v-11.4c0-.3-.1-.533-.3-.7-.133-.234-.333-.35-.6-.35zM-1.75 72.4h-14.9c-.267 0-.467.116-.6.35-.2.167-.3.4-.3.7v11.4c0 .3.1.55.3.75.133.2.333.3.6.3h14.9c.267 0 .45-.1.55-.3.233-.2.35-.45.35-.75v-11.4c0-.3-.117-.533-.35-.7-.1-.234-.283-.35-.55-.35zM19.7 72.4H4.75c-.267 0-.467.116-.6.35-.166.166-.25.4-.25.7v11.4c0 .3.083.55.25.75.133.198.333.3.6.3H19.7c.233 0 .417-.102.55-.3.233-.2.35-.45.35-.75v-11.4c0-.3-.117-.534-.35-.7-.133-.234-.316-.35-.55-.35zM30.55 45.7l-1.85-1.8-3.05 3v6.6l4.9 4.85M27.8 42.95l-2.4-2.4H15l-2.4 2.4L15 45.4h10.4M29.65 59.35L24.8 54.5h-9.2l-4.85 4.85M14.7 38.9v-6.6l-4.85-4.8v12.65l1.8 1.85M14.7 46.9l-3.05-3.1-1.8 1.9v12.6l4.85-4.8M-11.85 40.55l-2.4 2.4 2.4 2.45h10.4L1 42.95l-2.45-2.4M30.55 27.5l-4.85 4.8v6.6l3.05 3.1 1.8-1.85M24.8 31.45l4.85-4.85h-18.9l4.85 4.85M56.45 59.35l-4.9-4.85H42.4l-4.85 4.85M57.3 45.7l-1.8-1.8-3.05 3v6.6l4.85 4.85M57.3 27.5l-4.8 4.8v6.6l3 3.1 1.8-1.85M41.45 38.9v-6.6l-4.9-4.8v12.65L38.4 42M51.55 31.45l4.9-4.85h-18.9l4.85 4.85M54.6 42.95l-2.45-2.4H41.8l-2.45 2.4 2.45 2.45h10.35M41.45 46.9l-3.05-3.1-1.85 1.9v12.6l4.9-4.8"/></svg>