<svg xmlns="http://www.w3.org/2000/svg" width="263.85" height="154.8" viewBox="-38.55 -22.25 263.85 154.8"><path fill-rule="evenodd" clip-rule="evenodd" fill="#C52026" d="M2.325 88.75C3.09 89.904 4.15 90.62 5.5 90.9c1.344.276 2.594.035 3.75-.726L55.1 60H84c.695-.002 1.362-.145 2-.425.632-.28 1.183-.67 1.65-1.175L123.4 20h49.5l23.8 27.8c.91 1.046 2.05 1.622 3.425 1.725 1.37.112 2.577-.28 3.625-1.175 1.047-.906 1.622-2.048 1.726-3.425.107-1.37-.284-2.577-1.176-3.625L179 11.75c-.48-.556-1.057-.99-1.726-1.3-.66-.304-1.352-.454-2.074-.45h-53.95c-.695.002-1.362.144-2 .425-.632.28-1.183.67-1.65 1.175L81.85 50H53.6c-.992 0-1.908.275-2.75.825l-47.1 31C2.598 82.592 1.88 83.65 1.6 85c-.278 1.346-.037 2.596.725 3.75z"/><path fill-rule="evenodd" clip-rule="evenodd" fill="#C52026" d="M-23.05 112c.003 1.377.495 2.553 1.475 3.525.973.98 2.148 1.47 3.525 1.475h217.1v15.55l26.25-20.5-26.25-20.55V107h-212.1V4H2.5L-18-22.25-38.55 4h15.5v108z"/></svg>