<svg xmlns="http://www.w3.org/2000/svg" width="173.8" height="174.8" viewBox="6.301 -30.95 173.8 174.8"><path fill-rule="evenodd" clip-rule="evenodd" fill="#C52026" d="M66 88.35c.6.834 1.317 1.467 2.15 1.9s1.683.65 2.55.65c1.767 0 3.25-.7 4.45-2.1 1.233-1.367 1.85-3.334 1.85-5.9 0-2.5-.6-4.417-1.8-5.75-1.2-1.334-2.717-2-4.55-2-1.667 0-3.117.7-4.35 2.1V69.8h-4v20.75H66v-2.2zm1.2-9c.633-.766 1.434-1.15 2.4-1.15s1.767.384 2.4 1.15c.6.768.9 2 .9 3.7 0 1.634-.3 2.833-.9 3.6-.633.733-1.383 1.1-2.25 1.1-1.133 0-2.05-.532-2.75-1.6-.5-.733-.75-1.883-.75-3.45 0-1.5.318-2.616.95-3.35zM104.85-.85c11.1 2.167 20.9 7.5 29.4 16 8.6 8.6 13.967 18.567 16.1 29.9h-11.3l20.5 26.25 20.55-26.25h-11.5c-2.3-16.267-9.517-30.466-21.65-42.6C135.385-9.116 122-16.217 106.8-18.85l10.3 11.4-12.25 6.6zM126.15 48.55c2.268 0 4.15.9 5.65 2.7V45.3c-1.833-1-3.75-1.5-5.75-1.5-2.4 0-4.6.633-6.6 1.9-1.934 1.267-3.434 2.95-4.5 5.05-1.033 2.067-1.55 4.317-1.55 6.75 0 3.6 1.217 6.717 3.65 9.35 2.4 2.634 5.366 3.95 8.9 3.95 1.732 0 3.683-.517 5.85-1.55V63.3c-.733.8-1.617 1.45-2.65 1.95-1 .5-2.017.75-3.05.75-2.233 0-4.05-.85-5.45-2.55-1.367-1.767-2.05-3.784-2.05-6.05 0-2.367.683-4.434 2.05-6.2 1.367-1.767 3.2-2.65 5.5-2.65zM55.8 23.7v14.65H60v-7.4c0-.6.017-1.067.05-1.4 0-.367.067-.8.2-1.3.134-.567.367-.983.7-1.25.333-.3.75-.45 1.25-.45.4 0 .733.1 1 .3.3.233.5.467.6.7.134.233.233.583.3 1.05.067.433.1.767.1 1v8.75h4.15v-7.2c0-.467.018-.833.05-1.1 0-.233.034-.6.1-1.1.102-.5.218-.9.352-1.2.133-.3.35-.567.65-.8.3-.267.666-.4 1.1-.4.633 0 1.116.25 1.45.75.333.6.5 1.733.5 3.4v7.65h4.2v-9.1c0-4-1.55-6-4.65-6-.867 0-1.667.2-2.4.6-.8.4-1.417.95-1.85 1.65-.934-1.5-2.334-2.25-4.2-2.25-1.567 0-2.767.6-3.6 1.8H60V23.7h-4.2z"/><path fill-rule="evenodd" clip-rule="evenodd" fill="#C52026" d="M35.35 45.4c2.034-11.467 7.417-21.55 16.15-30.25 8.1-8.1 17.367-13.333 27.8-15.7V10.1l26.25-20.5L79.3-30.95v12.05C63.934-16.333 50.434-9.233 38.8 2.4l-1.2 2.8-.05.05 1.2-2.8c-12.566 12.533-19.833 27.3-21.8 44.3l12.85-11.7 5.55 10.35zM18 72.85c2.934 14.234 9.867 26.816 20.8 37.75.5.5 1.018 1 1.55 1.5 10.834 10.3 23.218 16.8 37.15 19.5l-10.2-11.25 12.5-6.7c-10.666-2.3-20.1-7.55-28.3-15.75-2.066-2.065-3.933-4.2-5.6-6.4-4.367-5.7-7.483-11.915-9.35-18.65h10.8L26.85 46.6c-3.134 4.034-6.284 8.05-9.45 12.05l-.6.8-.4-.05c0 .167.017.35.05.55L6.3 72.85H18zM84.6 81.7c-1.366.267-2.416.583-3.15.95-.732.333-1.3.85-1.7 1.55-.398.634-.6 1.384-.6 2.25 0 1.267.45 2.333 1.35 3.2.868.833 2.084 1.25 3.65 1.25.867 0 1.684-.167 2.45-.5.768-.334 1.5-.834 2.2-1.5.033.066.084.217.15.45.133.532.25.933.35 1.2h3.95c-.333-.734-.566-1.4-.7-2-.133-.635-.2-1.617-.2-2.95l.05-4.65c0-1.733-.183-2.917-.55-3.55-.333-.634-.95-1.167-1.85-1.6-.866-.434-2.183-.65-3.95-.65-1.933 0-3.4.35-4.4 1.05s-1.7 1.783-2.1 3.25l3.6.65c.234-.7.55-1.185.95-1.45.4-.3.95-.45 1.65-.45 1.067 0 1.783.167 2.15.5.4.333.6.884.6 1.65v.4c-.733.3-2.033.617-3.9.95zm3.9 2.4c0 .967-.066 1.617-.2 1.95-.133.534-.45.983-.95 1.35-.633.467-1.317.7-2.05.7-.633 0-1.15-.2-1.55-.6-.433-.434-.65-.916-.65-1.45 0-.566.268-1.033.8-1.4.334-.233 1.05-.466 2.15-.7 1.1-.232 1.917-.433 2.45-.6v.75zM86.75 15.3l-8.8 23.05h4.6l1.85-4.7h7.85l1.75 4.7h4.65L90.1 15.3h-3.35zM85.7 30.05l2.45-8.2h.1l2.8 8.2H85.7zM107.5 53c1.4 0 2.6-.5 3.6-1.5s1.5-2.2 1.5-3.6c0-1.433-.5-2.633-1.5-3.6-1-1-2.2-1.5-3.6-1.5s-2.616.5-3.65 1.5c-1 .967-1.482 2.167-1.45 3.6 0 1.4.5 2.6 1.5 3.6s2.2 1.5 3.6 1.5zm-2-7.1c.533-.533 1.184-.8 1.95-.8s1.434.267 2 .8.85 1.2.85 2c0 .767-.267 1.417-.8 1.95s-1.183.8-1.95.8c-.767 0-1.433-.25-2-.75-.533-.533-.816-1.2-.85-2 0-.8.267-1.467.8-2zM96.15 75.5v15.05h4V85.9c0-2.565.117-4.25.35-5.05.2-.8.5-1.35.9-1.65.367-.3.834-.45 1.4-.45.567 0 1.184.218 1.85.65l1.25-3.5c-.832-.5-1.7-.75-2.6-.75-.666 0-1.25.167-1.75.5-.5.334-1.066 1-1.7 2V75.5h-3.7zM105.1 132.1c15.9-2.366 29.85-9.533 41.85-21.5 5.868-5.9 10.584-12.266 14.15-19.1 3.067-5.9 5.284-12.15 6.65-18.75l-11.15 10.1-6.75-12.6c-1.8 7.733-5.15 14.816-10.05 21.25-1.7 2.166-3.55 4.283-5.55 6.35l-1.2 2.8-.05.05 1.2-2.8c-8.434 8.4-18.133 13.717-29.1 15.95V102.8l-26.25 20.5 26.25 20.55V132.1z"/></svg>