<svg xmlns="http://www.w3.org/2000/svg" width="154.251" height="154.4" viewBox="15.75 -21.5 154.251 154.4"><path fill-rule="evenodd" clip-rule="evenodd" fill="#C52026" d="M64.9 54.2c.534-.8 1.067-1.584 1.6-2.35 2.136-3.034 3.202-6.217 3.202-9.55-.066-2.034-.5-3.968-1.3-5.8-.767-1.8-1.85-3.418-3.25-4.852-1.368-1.366-2.95-2.45-4.75-3.25-1.868-.8-3.817-1.217-5.85-1.25h-.2c-1.967 0-3.852.35-5.65 1.05-1.734.7-3.3 1.685-4.7 2.95-1.567 1.434-2.784 3.117-3.65 5.05-.933 1.968-1.4 4.067-1.4 6.3 0 3.168 1.067 6.284 3.2 9.35 1.3 1.867 2.15 3.15 2.55 3.85l.05.05h-29v70.7c0 1.768.635 3.284 1.9 4.552 1.268 1.267 2.783 1.9 4.55 1.9h70.7v-29.6l-1.4 1.2c-1 .832-1.682 1.382-2.05 1.648-1.333 1.1-2.815 1.95-4.45 2.55-1.7.634-3.467.95-5.3.95-2.132 0-4.15-.417-6.05-1.25-1.867-.767-3.5-1.866-4.9-3.3-1.432-1.434-2.516-3.083-3.25-4.95-.8-1.934-1.2-3.95-1.2-6.05.034-2.033.45-3.983 1.25-5.85.802-1.8 1.9-3.4 3.302-4.8 1.398-1.367 2.982-2.434 4.75-3.2 1.898-.834 3.85-1.25 5.85-1.25h.25c1.832 0 3.6.3 5.3.9 1.634.633 3.116 1.5 4.45 2.6.367.232 1.05.783 2.05 1.65l1.4 1.2v-29.6h-29c.13-.198.463-.715.997-1.548zM163.602-21.5h-65.85v20.3c2.7-1.233 5.5-1.85 8.4-1.85 2.766 0 5.398.55 7.898 1.65 2.467 1.033 4.617 2.5 6.45 4.4 1.9 1.932 3.367 4.133 4.4 6.6 1 2.5 1.467 5.1 1.4 7.8-.034 2.666-.55 5.2-1.55 7.6-1.034 2.4-2.484 4.533-4.35 6.4-1.9 1.866-4.034 3.315-6.4 4.35-2.434 1-4.968 1.517-7.6 1.55h-.25c-2.935 0-5.734-.617-8.4-1.85v20.2h24.1c-.4.667-1.2 1.9-2.4 3.7-2.267 3.267-3.367 6.5-3.3 9.7 0 2.033.4 3.983 1.2 5.85.8 1.8 1.883 3.4 3.25 4.8 1.4 1.4 3 2.483 4.8 3.25 1.866.8 3.8 1.217 5.8 1.25.066.033.15.05.25.05 2.1 0 4.083-.416 5.95-1.25 1.833-.767 3.467-1.866 4.9-3.3 1.433-1.4 2.532-3.017 3.3-4.85.8-1.9 1.2-3.9 1.2-6 0-3.1-1.1-6.267-3.3-9.5-1.2-1.733-2.018-2.967-2.45-3.7h22.55c1.767 0 3.283-.65 4.55-1.95 1.233-1.234 1.85-2.75 1.85-4.55v-64.2c0-1.8-.616-3.316-1.85-4.55-1.265-1.266-2.782-1.9-4.548-1.9z"/><path fill-rule="evenodd" clip-rule="evenodd" fill="#C52026" d="M106.352 32.5c2.026-.034 3.977-.45 5.85-1.25h-.025c1.802-.77 3.394-1.86 4.775-3.275l.025-.024c1.415-1.382 2.507-2.974 3.274-4.774v.024c.8-1.874 1.217-3.824 1.25-5.85.075-1.805-.56-4.33-1.898-7.576l-.1-.2c-1.305-2.345-3.146-4.228-5.525-5.65-2.38-1.416-4.987-2.124-7.825-2.124-1.044-.012-2.628.263-4.75.825l-.125.024-.125.05c-1.325.534-2.775 1.284-4.35 2.25l-.025.024-.05.026-2.2 1.5h-.025c-.75.52-1.267.852-1.55 1l-.05.024V-21.45h-70.7c-2.092-.062-3.658.48-4.7 1.625-1.11 1.027-1.677 2.627-1.7 4.8V50.9h19.975L35 48.325c-.57-1.88-.854-3.823-.85-5.825-.002-2.705.498-5.288 1.5-7.75l.15-.375v-.025c1.018-2.237 2.41-4.27 4.176-6.1 2.56-2.065 4.645-3.48 6.25-4.25.033-.02.066-.034.1-.05l.3-.1c2.423-1.002 4.997-1.502 7.726-1.5h.25c2.63.033 5.154.55 7.574 1.55l.4.15c2.22 1.024 4.22 2.433 6 4.224h.025c1.874 1.846 3.325 3.98 4.35 6.4 1.003 2.426 1.52 4.942 1.55 7.55.035 2.116-.248 4.142-.85 6.075l-.8 2.6H92.9V26.75c.728.385 2.028 1.235 3.9 2.55h.025c3.06 2.116 6.16 3.184 9.3 3.2h.227zm-11.575-9.3L88.9 20.075V46.9H78.103c.287-1.532.42-3.106.398-4.726-.035-3.125-.652-6.143-1.85-9.05-1.24-2.913-2.99-5.48-5.25-7.7h.025c-2.252-2.24-4.793-3.974-7.625-5.2l-.375-.175h-.074c-2.792-1.1-5.7-1.666-8.726-1.7h-.273c-3.134 0-6.1.55-8.9 1.65h-.075l-.35.148c-1.924.807-4.482 2.506-7.674 5.1l-.1.076-.075.074c-2.238 2.313-3.973 4.896-5.2 7.75l-.175.375v.1c-1.098 2.827-1.648 5.785-1.65 8.876.004 1.494.137 2.96.4 4.398H19.8V-15c.014-.884.197-1.55.55-2 .41-.325 1.003-.476 1.774-.45H88.9v31.8l5.95-3.325-.1.075c.382-.185 1.065-.618 2.05-1.3h-.025L98.9 8.35c.025-.016.05-.032.075-.05 1.303-.793 2.503-1.418 3.6-1.875.025-.006.05-.015.075-.025 1.554-.388 2.72-.588 3.5-.6 2.095 0 4.02.525 5.774 1.575 1.716 1.022 3.05 2.372 4 4.05 1.043 2.503 1.568 4.444 1.575 5.825-.033 1.507-.35 2.956-.95 4.35v.025c-.562 1.32-1.36 2.488-2.4 3.5h-.025v.024c-1.012 1.038-2.18 1.84-3.5 2.4h-.024c-1.377.593-2.81.91-4.3.95h-.125c-2.392-.05-4.76-.885-7.1-2.5h.025c-2.063-1.44-3.504-2.374-4.323-2.8z"/></svg>