<svg xmlns="http://www.w3.org/2000/svg" width="173.8" height="174.8" viewBox="6.515 -31.539 173.8 174.8"><path fill="#C52026" d="M35.565 44.786c2.048-11.462 7.423-21.545 16.125-30.25C59.8 6.45 69.075 1.224 79.515-1.14V9.51l26.25-20.5-26.25-20.55v12.05C64.15-16.93 50.64-9.84 38.99 1.787L37.815 4.61l-.05.05 1.175-2.824c-12.55 12.55-19.818 27.318-21.8 44.3L30.015 34.46l5.55 10.326zM147.14 1.836c-11.548-11.55-24.932-18.64-40.15-21.275l10.325 11.4-12.25 6.576c11.097 2.183 20.89 7.516 29.375 16 8.612 8.617 13.978 18.592 16.1 29.925h-11.274l20.5 26.25 9.775-12.45v-.023l10.775-13.775H168.79c-2.28-16.264-9.498-30.473-21.65-42.626zM150.065 69.66c-1.785 7.732-5.144 14.816-10.075 21.25-1.666 2.184-3.517 4.292-5.55 6.326l-1.175 2.824-.05.05 1.175-2.825c-8.413 8.412-18.105 13.73-29.075 15.95v-11.024l-26.25 20.5 26.25 20.55v-11.75c15.915-2.38 29.856-9.554 41.825-21.523 5.883-5.883 10.607-12.24 14.175-19.076 3.08-5.9 5.297-12.16 6.65-18.773l-11.15 10.125-6.75-12.602zM18.19 72.26c2.937 14.223 9.87 26.798 20.8 37.727.52.52 1.046 1.03 1.575 1.524 10.82 10.305 23.194 16.797 37.125 19.477L67.515 119.76l12.475-6.7c-10.65-2.3-20.083-7.56-28.3-15.774-2.048-2.048-3.915-4.173-5.6-6.375-4.35-5.702-7.466-11.92-9.35-18.648h10.825l-20.5-26.25c-3.146 4.017-6.296 8.034-9.45 12.05l-.625.8-.375-.075c.006.184.014.367.025.55L6.515 72.262H18.19z"/></svg>