<svg xmlns="http://www.w3.org/2000/svg" width="128.6" height="155.5" viewBox="29.502 -21.989 128.6 155.5"><path fill="#C52026" d="M150.675-1.28c-2.64-1.73-5.657-2.61-8.973-2.61-3.323 0-6.33.882-8.937 2.62-.934.623-1.82 1.35-2.632 2.164-2.596 2.596-4.137 5.66-4.637 9.118H107.85l-11.777 20.59-1.95 3.41h-26.32V10.635c3.46-.5 6.5-2.06 9.056-4.646C80.072 2.814 81.7-1.08 81.7-5.59c0-4.502-1.626-8.41-4.832-11.618-3.173-3.173-7.065-4.782-11.568-4.782-4.497 0-8.402 1.605-11.63 4.793-3.165 3.206-4.77 7.11-4.77 11.607 0 4.502 1.61 8.395 4.782 11.567 2.598 2.598 5.656 4.158 9.118 4.657V34.01h-33.25v7.8h20.45l-20.5 26.15v7.8h33.3v25.126c-3.462.498-6.52 2.06-9.118 4.656-3.173 3.174-4.782 7.066-4.782 11.568 0 4.496 1.605 8.4 4.793 11.628 3.205 3.167 7.11 4.772 11.607 4.772 4.503 0 8.395-1.61 11.567-4.783 3.206-3.207 4.832-7.115 4.832-11.617 0-4.51-1.63-8.404-4.82-11.557-2.573-2.604-5.618-4.168-9.08-4.668V75.762h58.65v-7.8h-20.4l20.45-26.15v-7.8H99.884l10.868-19h14.745c.5 3.456 2.042 6.503 4.626 9.056 3.175 3.214 7.07 4.843 11.58 4.843 4.5 0 8.41-1.625 11.616-4.832 3.173-3.173 4.78-7.065 4.78-11.567 0-4.496-1.604-8.4-4.822-11.657-.823-.785-1.68-1.49-2.603-2.132zM57.22 2.445C54.986.212 53.9-2.416 53.9-5.588c0-3.178 1.09-5.826 3.307-8.072 2.266-2.24 4.914-3.328 8.092-3.328 3.173 0 5.8 1.085 8.032 3.317 2.266 2.266 3.368 4.91 3.368 8.082 0 3.167-1.098 5.79-3.38 8.043-2.23 2.26-4.853 3.357-8.02 3.357-3.172 0-5.816-1.102-8.083-3.368zM73.344 109.09c2.26 2.23 3.357 4.855 3.357 8.02 0 3.173-1.102 5.816-3.368 8.083-2.232 2.232-4.86 3.318-8.032 3.318-3.178 0-5.826-1.09-8.07-3.307-2.24-2.268-3.33-4.915-3.33-8.093 0-3.172 1.085-5.8 3.317-8.033 2.266-2.266 4.91-3.367 8.082-3.367 3.167 0 5.79 1.1 8.043 3.38zm32.557-41.13h-35.35l-20.4-26.15h35.3l20.45 26.15zm43.882-47.416c-2.267 2.266-4.91 3.368-8.082 3.368-3.167 0-5.79-1.098-8.043-3.378-2.26-2.232-3.358-4.855-3.358-8.02 0-3.173 1.102-5.817 3.37-8.084.578-.58 1.206-1.097 1.866-1.537 1.797-1.198 3.813-1.78 6.164-1.78 2.356 0 4.394.585 6.172 1.752.658.458 1.314.998 1.9 1.555 2.238 2.267 3.327 4.915 3.327 8.093.002 3.17-1.083 5.798-3.316 8.03z"/></svg>