<svg xmlns="http://www.w3.org/2000/svg" width="243.049" height="193.301" viewBox="-28.898 -40.888 243.049 193.301"><path fill="#C52026" d="M70.602-3.338h-66c-.693-.003-1.284.24-1.775.724-.485.49-.727 1.083-.725 1.776v68c-.002.69.24 1.283.725 1.773.49.486 1.082.73 1.775.727h66.2c.657-.496 1.332-.94 2.025-1.326.185-.35.276-.742.275-1.174v-68c.002-.693-.24-1.285-.725-1.775-.49-.486-1.082-.728-1.775-.725zM87.802 63.012c-2 2-3 4.416-3 7.25v4.05c-1.133-.4-2.283-.6-3.45-.6-2.833 0-5.25 1-7.25 3s-3 4.415-3 7.25v64.4c0 1.132.4 2.1 1.2 2.9.8.765 1.75 1.15 2.85 1.15h53.65c.7 0 1.334-.15 1.9-.452.6-.334 1.083-.783 1.45-1.35L176 85.11c1.567-2.367 2.083-4.934 1.55-7.7-.566-2.767-2.033-4.95-4.4-6.55-1.732-1.133-3.633-1.7-5.7-1.7-1.666 0-3.25.384-4.75 1.15-1.532.833-2.8 1.966-3.8 3.4l-11.45 17.2c-.166.266-.416.398-.75.398l-.25-.05c-.2-.032-.35-.134-.45-.3-.133-.166-.2-.35-.2-.55V23.012c0-2.832-1-5.25-3-7.25s-4.415-3-7.25-3c-2.832 0-5.266 1-7.3 3-2 2-3 4.418-3 7.25v37.2c-.666-2.065-1.883-3.75-3.648-5.048-1.8-1.334-3.817-2-6.05-2-2.834 0-5.25 1-7.25 3s-3 4.416-3 7.25v6.648c-.067-2.766-1.067-5.115-3-7.05-2-2-4.417-3-7.25-3-2.835.002-5.252 1.002-7.252 3.002z"/><path fill="#C52026" d="M97.103 52.61c1.304.145 2.554.42 3.75.826.617-.9 1.334-1.76 2.15-2.575 3.46-3.463 7.645-5.196 12.55-5.198.747 0 1.48.04 2.2.125v-4.125h-18.15c-.693-.003-1.285.24-1.775.725-.486.49-.728 1.082-.725 1.775v8.45z"/><path fill="#C52026" d="M206.652-40.888h-228.05c-2.07 0-3.837.734-5.3 2.2-1.465 1.463-2.2 3.23-2.2 5.3v134.55c0 2.07.734 3.837 2.2 5.3 1.463 1.465 3.23 2.2 5.3 2.2h85v-15h-77.5v-119.55h213.05V93.66H179.3l-10.05 15h37.398c2.07-.002 3.837-.736 5.3-2.2 1.466-1.464 2.2-3.23 2.2-5.3v-134.55c0-2.07-.734-3.837-2.2-5.3-1.46-1.466-3.228-2.2-5.298-2.2z"/><path fill="#C52026" d="M168.103-2.288c.002-.693-.24-1.285-.726-1.775-.49-.485-1.083-.728-1.774-.725h-66c-.693-.003-1.285.24-1.775.725-.486.49-.728 1.082-.725 1.775v28.4c-.003.692.238 1.284.725 1.774.49.485 1.082.728 1.775.725h18.15v-5h-15.65V.213h61v23.4h-9.8v5h12.3c.69.002 1.283-.24 1.774-.726.485-.49.728-1.082.726-1.775V-2.287zM165.603 41.662h-12.3v27c1.584-2.053 3.526-3.7 5.824-4.95.052-.02.103-.046.15-.075 2.58-1.318 5.306-1.977 8.175-1.975h.65v-17.5c.002-.693-.24-1.285-.726-1.775-.49-.486-1.082-.728-1.773-.725z"/></svg>