<svg xmlns="http://www.w3.org/2000/svg" width="135.049" height="93.05" viewBox="26.102 9.061 135.049 93.05"><path fill="#C52026" d="M82.502 102.112l-13.85-13.8h-26.05l-13.85 13.8M118.652 22.86h26.05l13.85-13.8h-53.7M85.002 63.362l-5.2-5.2-8.65 8.65v18.75l13.85 13.8M85.052 11.61l-13.85 13.7v18.7l8.65 8.8 5.2-5.3M77.302 55.56l-6.95-6.9h-29.5l-6.9 6.9 6.9 6.95h29.5M116.952 62.51h29.5l6.95-6.95-6.95-6.9h-29.5l-6.95 6.9M102.152 47.51l5.2 5.3 8.65-8.8v-18.7l-13.85-13.7M161.103 63.362l-5.2-5.2-8.65 8.65v18.75l13.85 13.8M102.152 99.16l13.85-13.65V66.76l-8.65-8.8-5.2 5.35M144.752 88.31h-26.1l-13.8 13.802h53.7M161.152 11.61l-13.85 13.7v18.7l8.65 8.8 5.2-5.3M39.952 66.76l-8.65-8.8-5.2 5.35v35.85l13.85-13.65M39.952 44.01v-18.7l-13.85-13.7v35.9l5.2 5.3M68.652 22.86l13.85-13.8h-53.75l13.85 13.8"/></svg>