<svg xmlns="http://www.w3.org/2000/svg" width="164.6" height="178.9" viewBox="11.152 -33.539 164.6 178.9"><path fill="#C52026" d="M141.527-1.614l14.8 11.15c1.987 1.495 4.204 2.07 6.65 1.725 2.458-.336 4.44-1.495 5.95-3.474 1.498-1.983 2.072-4.2 1.725-6.65-.34-2.455-1.5-4.438-3.475-5.95l-14.8-11.15c-1.986-1.495-4.203-2.07-6.65-1.725-2.458.338-4.44 1.497-5.95 3.476-1.497 1.983-2.072 4.2-1.725 6.65.34 2.455 1.5 4.438 3.475 5.95z"/><path fill="#C52026" d="M106.702-7.314v-8.225h16.6v-18h-48.2v18h16.6v8.226C73.828-5.728 58.32 1.622 45.177 14.736l-1.175 2.826-.05.05 1.175-2.825C33.01 26.903 25.82 41.077 23.552 57.31l11.1-10.048 6.75 12.575c1.752-12.333 7.244-23.116 16.475-32.35C69.327 16.07 83.103 10.36 99.202 10.362h.05c16.163 0 29.954 5.707 41.375 17.125 11.072 11.08 16.78 24.404 17.125 39.975v1.4c0 16.13-5.708 29.905-17.125 41.324l-1.175 2.826-.05.05 1.175-2.825c-1.406 1.405-2.848 2.723-4.325 3.95-10.522 8.784-22.855 13.175-37 13.175h-.05c-16.13 0-29.906-5.708-41.325-17.125-1.705-1.705-3.28-3.464-4.725-5.275-4.846-6.045-8.27-12.678-10.275-19.9h9.325l-20.5-26.25-20.55 26.25h13.175c1.444 7.036 3.86 13.67 7.25 19.9 3.5 6.42 8.035 12.41 13.6 17.975 14.948 14.95 32.957 22.426 54.025 22.426h.05c13.614 0 25.948-3.11 37-9.325 6.08-3.43 11.77-7.796 17.075-13.1 14.95-14.948 22.424-32.973 22.425-54.075v-1.5-.176c-.42-20.404-7.896-37.87-22.425-52.4-13.157-13.16-28.7-20.527-46.625-22.1z"/><path fill="#C52026" d="M148.652 67.762c0-13.667-4.833-25.317-14.5-34.95-9.633-9.668-21.283-14.5-34.95-14.5v50.7h49.45v-1.25z"/></svg>