<svg xmlns="http://www.w3.org/2000/svg" width="162.888" height="188.25" viewBox="12.607 -38.689 162.888 188.25"><path fill="#C52026" d="M111.01-1.54c-4.366-2.365-8.5-4.832-12.4-7.398l-4.55-3.1v135.1c2.566-1.567 5.75-3.9 9.55-7 7.567-6.167 14.468-13.05 20.7-20.65 8.634-10.733 15.25-22.167 19.85-34.3 5.8-15.134 8.217-30.967 7.25-47.5-13-2.6-26.466-7.65-40.4-15.15z"/><path fill="#C52026" d="M175.26 1.76c-.134-1.832-.783-3.448-1.95-4.85-1.266-1.5-2.866-2.416-4.8-2.75h.05c-15.566-3.166-31.783-9.282-48.65-18.35-5.3-2.866-10.35-5.866-15.15-9v.05c-2.932-2.033-5.032-3.366-6.3-4l.65.2c-1.5-1.166-3.183-1.75-5.05-1.75-1.9 0-3.583.55-5.05 1.65v.1c-5.633 4.168-12.566 8.484-20.8 12.95C51.777-15.154 35.56-9.104 19.56-5.84h.15c-1.933.334-3.533 1.218-4.8 2.65l-.05.1c-1.233 1.435-1.9 3.067-2 4.9v.1c-1.4 25.3 3 49.334 13.2 72.1 7.767 17.302 18.583 33.318 32.45 48.052 6.7 7.1 13.883 13.6 21.55 19.5 2.5 1.933 4.783 3.616 6.85 5.05v-.1c1.7 1.166 2.833 1.9 3.4 2.2 1.133.565 2.333.85 3.6.85h.2c1.232 0 2.4-.267 3.5-.8 0-.034.05-.05.15-.05.566-.3 1.6-.968 3.1-2l-.05.1c1.933-1.267 3.95-2.733 6.05-4.4h.1c6.566-4.967 13.017-10.6 19.35-16.9v-.05c14.6-14.666 26.05-30.8 34.35-48.4 5.6-11.8 9.6-24 12-36.6 2.434-12.6 3.3-25.45 2.6-38.55v-.15zm-20.35 54.7c-5.467 16.034-13.934 31.25-25.4 45.65-6.333 7.935-13.366 15.284-21.1 22.05-4.866 4.367-9.65 8.15-14.35 11.35-4.668-3.198-9.467-6.982-14.4-11.35-7.7-6.766-14.733-14.15-21.1-22.15-11.4-14.332-19.85-29.516-25.35-45.55s-7.95-32.766-7.35-50.2c14.2-3.232 28.6-8.532 43.2-15.898 9.133-4.566 17.483-9.517 25.05-14.85 7.7 5.333 16.116 10.3 25.25 14.9 14.666 7.366 28.982 12.634 42.95 15.8.566 17.466-1.9 34.216-7.4 50.25z"/></svg>