<svg xmlns="http://www.w3.org/2000/svg" width="176.4" height="133.79" viewBox="4.507 -11.239 176.4 133.79"><path fill="#C52026" d="M147.456 22.81c.066-.133.1-.282.1-.45v-8.8c0-.1-.016-.2-.05-.3 0-.065-.017-.116-.05-.15-.033-.1-.083-.183-.15-.25-.1-.065-.2-.132-.3-.2L123.557.963l-9.95 4.95-1.7-.85c.068-.135.102-.284.102-.45v-8.35c0-.102-.018-.2-.05-.3 0-.068-.017-.118-.05-.15-.034-.1-.084-.185-.15-.25-.1-.067-.2-.135-.3-.2l-13.25-6.6-13.85 6.898v1.25h-13.1l-66.75 33.4.5 2.1h29.15v60.15l58.95 29.5c.1.033.182.084.25.15.266.1.55.184.85.25.4.1.8.117 1.2.05l.45-.1c.032-.034.083-.05.15-.05l.198-.05c.167-.067.316-.134.45-.2l59-29.55V65.41l25.25-12.55-26.65-26.648-6.8-3.4zm-23.9-19.598l20.75 10.35-20.85 10.45-20.75-10.45 20.85-10.35zm-17.35 24.55c0-.067-.016-.118-.05-.15-.033-.1-.083-.185-.15-.25l-.3-.2-4.25-2.1v-9.85l21 10.55v15.75c0 .165.033.315.1.45l-16.3 8.148V28.06c0-.098-.016-.2-.05-.3zm-8-36.75l10.55 5.25-10.55 5.35-10.65-5.3 10.65-5.3zm-11.85 6.95l10.85 5.4v19.6c-.032-.034-.082-.067-.148-.1-3.567-1.8-7.133-3.584-10.7-5.35V-2.04zm-47.1 28.1c-.1-.067-.216-.135-.35-.2s-.282-.117-.45-.15c-.232-.067-.482-.1-.75-.1h-8.55l43.7-21.85h11.45L39.457 26.16l-.2-.1zm20.85 3.65l21.05 10.55v12.1l-21.15-10.65c.068-.133.1-.283.1-.45v-11.55zm31.4 83.9l-50.55-25.25v-53.8l50.55 25.25v53.8zm-9.35-75.1l-20.8-10.45 20.8-10.4 2.75 1.35h.05v.05c3.733 1.833 7.467 3.7 11.2 5.6l.4.2h.05l.1.05c.066.067.134.117.2.15l.9.45c.033 0 .066.017.1.05l1.05.45c.3.133.6.283.9.45.033.033.084.066.15.1l3 1.5-20.85 10.45zm68.65 21.75h-.1c-.066.033-.116.066-.15.1l-32.1 16.048-19.1-19.05 50.95-25.5 19.1 19.102-18.6 9.3z"/></svg>