<svg xmlns="http://www.w3.org/2000/svg" width="170.85" height="71.4" viewBox="7.902 19.761 170.85 71.4"><path fill="#C52026" d="M23.002 65.612c.667 1.7 1.467 3.184 2.4 4.45.934 1.233 2.133 2.282 3.6 3.15 1.467.766 3.083 1.15 4.85 1.15 1.8 0 3.433-.385 4.9-1.15 1.5-.868 2.717-1.917 3.65-3.15.9-1.267 1.667-2.75 2.3-4.45.667-1.667 1.117-3.3 1.35-4.9.267-1.633.4-3.233.4-4.8 0-1.6-.133-3.217-.4-4.85-.233-1.633-.667-3.283-1.3-4.95-.633-1.7-1.417-3.183-2.35-4.45-.933-1.267-2.133-2.317-3.6-3.15-1.5-.767-3.15-1.15-4.95-1.15s-3.433.383-4.9 1.15c-1.467.833-2.667 1.883-3.6 3.15s-1.717 2.75-2.35 4.45c-.6 1.667-1.05 3.317-1.35 4.95-.233 1.633-.35 3.25-.35 4.85 0 1.566.117 3.167.35 4.8.3 1.6.75 3.233 1.35 4.9zm5.25-13.3c.167-1.234.45-2.584.85-4.05.4-1.435 1.017-2.618 1.85-3.55.833-.934 1.8-1.4 2.9-1.4 1.167 0 2.167.466 3 1.4.8.933 1.4 2.116 1.8 3.55.4 1.465.684 2.815.85 4.05.167 1.266.25 2.432.25 3.5 0 1.1-.083 2.267-.25 3.5-.167 1.233-.45 2.583-.85 4.05-.4 1.467-1 2.666-1.8 3.6-.833.967-1.833 1.45-3 1.45-1.1 0-2.067-.483-2.9-1.45-.833-.934-1.45-2.133-1.85-3.6s-.683-2.834-.85-4.1c-.167-1.268-.25-2.418-.25-3.45 0-1.068.084-2.234.25-3.5z"/><path fill="#C52026" d="M60.252 19.76H7.902v71.4h52.35v-71.4zm-8.45 63.502h-35.55v-55.7h35.55v55.7zM67.152 91.16h52.35v-71.4h-52.35v71.4zm8.35-63.6h35.55v55.702h-35.55v-55.7z"/><path fill="#C52026" d="M98.302 61.46c1.967-2.266 3.467-4.382 4.5-6.35 1.066-1.965 1.6-4.116 1.6-6.45 0-3.2-1.1-5.882-3.3-8.05-2.166-2.166-4.866-3.25-8.1-3.25-3.5 0-6.25 1.1-8.25 3.3-1.967 2.234-3.083 5.118-3.35 8.65h7.3c-.1-1.5.233-2.866 1-4.1.8-1.266 1.917-1.9 3.35-1.9 1.333 0 2.417.6 3.25 1.8.834 1.2 1.25 2.5 1.25 3.9 0 .368-.05.784-.15 1.25-.1.467-.232.9-.4 1.3-.133.4-.332.884-.6 1.45-.3.567-.566 1.034-.8 1.4-.233.4-.55.918-.95 1.55-.433.634-.75 1.085-.95 1.35-.232.302-.6.784-1.1 1.452-.5.6-.816 1-.95 1.2-.132.166-.45.565-.95 1.2s-.766.966-.8 1l-8.95 11.3h23.75v-5.95h-11.6l5.2-6.05zM126.402 91.16h52.35v-71.4h-52.35v71.4zm20.4-7.898c.268-.9.7-1.768 1.3-2.6 1.034-1.367 2.384-2.05 4.05-2.05 1.668 0 3 .665 4 2 .634.832 1.084 1.716 1.35 2.65h-10.7zm-12.05-55.7h10.2l-1.85 9.2h1.05c1.633-1.535 3.517-2.3 5.65-2.3 1.933 0 3.55.683 4.85 2.05 1.333 1.366 2 3.016 2 4.95 0 1.9-.567 3.532-1.7 4.9-1.167 1.366-2.7 2.05-4.6 2.05-1.533 0-3-.418-4.4-1.25-1.367-.834-2.533-1.95-3.5-3.35l-2.05 5.9c2.733 3.1 6.2 4.65 10.4 4.65 3.8 0 6.9-1.168 9.3-3.5 2.366-2.334 3.55-5.368 3.55-9.1 0-3.4-1.067-6.3-3.2-8.7-2.133-2.368-4.85-3.55-8.15-3.55l-1.8.1.45-2.05h19.35v55.7h-5.8c-.267-2.5-1.2-4.684-2.8-6.55-1.934-2.3-4.45-3.45-7.55-3.45-1.1 0-2.017.166-2.75.5l-.1-.15 7.2-10.2-5-3.65-9.352 13.85c-2.3 3.435-3.666 6.65-4.1 9.65h-5.3v-55.7z"/></svg>