<svg xmlns="http://www.w3.org/2000/svg" width="80.6" height="167" viewBox="53.415 -27.639 80.6 167"><path fill="#C52026" d="M71.415 108.01c0 4.268.817 8.334 2.45 12.2 1.6 3.733 3.833 7.05 6.7 9.95 2.9 2.9 6.217 5.134 9.95 6.7 3.9 1.667 7.967 2.5 12.2 2.5 4.267 0 8.333-.833 12.2-2.5 3.732-1.566 7.05-3.8 9.95-6.7 2.9-2.9 5.133-6.217 6.7-9.95 1.633-3.866 2.45-7.933 2.45-12.2 0-4.532-.935-8.85-2.8-12.95-1.8-4-4.334-7.448-7.602-10.35V-6.74c0-2.832-.55-5.55-1.65-8.15-1.066-2.466-2.566-4.666-4.5-6.6-1.933-1.933-4.15-3.433-6.65-4.5-2.565-1.1-5.266-1.65-8.1-1.65s-5.533.55-8.1 1.65c-2.533 1.067-4.75 2.567-6.65 4.5-1.933 1.9-3.433 4.1-4.5 6.6-1.066 2.6-1.6 5.317-1.6 8.15v91.45c-3.266 2.9-5.816 6.35-7.65 10.35-1.865 4.1-2.798 8.418-2.798 12.95zm13.3-10.55c1.867-3.166 4.383-5.666 7.55-7.5v-96.7c0-2.9 1.017-5.366 3.05-7.4 2.067-2.033 4.534-3.05 7.4-3.05 2.9 0 5.366 1.018 7.4 3.05 2.032 2.034 3.05 4.5 3.05 7.4v96.7c3.166 1.834 5.684 4.334 7.55 7.5 1.933 3.268 2.9 6.784 2.9 10.55 0 2.867-.55 5.584-1.65 8.15-1.067 2.5-2.567 4.717-4.5 6.65-1.934 1.9-4.134 3.383-6.6 4.45-2.6 1.1-5.317 1.65-8.15 1.65s-5.534-.55-8.1-1.65c-2.534-1.067-4.75-2.55-6.65-4.45-1.934-1.934-3.434-4.15-4.5-6.65-1.067-2.566-1.6-5.283-1.6-8.15 0-3.766.95-7.282 2.85-10.55z"/><path fill="#C52026" d="M102.715 123.66c4.333 0 8.033-1.516 11.1-4.55 3.034-3.066 4.55-6.767 4.55-11.1 0-3.366-.982-6.417-2.95-9.15-1.933-2.667-4.45-4.533-7.55-5.6.066-.3.1-.6.1-.9V40.21c0-1.465-.516-2.7-1.55-3.7-1-1-2.233-1.5-3.7-1.5-1.433 0-2.666.5-3.7 1.5-1 1.034-1.5 2.268-1.5 3.7v52.152c0 .3.034.6.1.9-3.1 1.065-5.632 2.932-7.6 5.6-1.966 2.732-2.95 5.783-2.95 9.15 0 4.332 1.535 8.032 4.6 11.1 3.067 3.033 6.75 4.548 11.05 4.548zM56.065 2.56h5.7v5.95c0 .734.25 1.35.75 1.85.533.5 1.15.75 1.85.75.733 0 1.35-.25 1.85-.75s.75-1.116.75-1.85V2.56h5.8c.733 0 1.35-.266 1.85-.8.5-.5.75-1.116.75-1.85 0-.7-.25-1.3-.75-1.8-.5-.533-1.117-.8-1.85-.8h-5.8v-5.5c0-.732-.25-1.35-.75-1.85s-1.117-.75-1.85-.75c-.7 0-1.317.25-1.85.75-.5.5-.75 1.118-.75 1.85v5.5h-5.7c-.733 0-1.35.268-1.85.8-.534.5-.8 1.1-.8 1.8 0 .734.267 1.35.8 1.85.5.534 1.117.8 1.85.8zM56.065 78.51h16.7c.733 0 1.35-.25 1.85-.75s.75-1.115.75-1.85c0-.55-.142-1.03-.425-1.45-.09-.14-.2-.273-.325-.4-.5-.5-1.117-.75-1.85-.75h-16.7c-.733 0-1.35.25-1.85.75-.135.127-.25.26-.35.4-.3.42-.45.9-.45 1.45 0 .734.267 1.35.8 1.85.5.5 1.117.75 1.85.75z"/></svg>