<svg xmlns="http://www.w3.org/2000/svg" width="156.35" height="176" viewBox="15.052 -31.689 156.35 176"><path fill="#C52026" d="M132.103-8.69v8.45h4.75v-8.2c0-.532.016-.95.05-1.25 0-.3.032-.732.1-1.3.1-.565.233-1.016.4-1.35.166-.333.416-.633.75-.9.333-.3.75-.45 1.25-.45.733 0 1.282.284 1.65.852.4.666.6 1.95.6 3.85v8.75h4.75v-10.4c0-4.566-1.767-6.85-5.3-6.85-.967 0-1.885.233-2.75.7-.9.467-1.6 1.1-2.1 1.9-1.068-1.734-2.668-2.6-4.8-2.6-1.77 0-3.135.683-4.1 2.05h-.052v-1.5h-4.75v16.7h4.75v-8.2-.25c0-.667.018-1.2.052-1.6.033-.4.115-.9.25-1.5.133-.635.4-1.102.8-1.4.366-.334.85-.5 1.45-.5.433 0 .8.116 1.1.35.333.233.566.5.7.8.133.267.25.65.35 1.15.066.5.1.883.1 1.15V-8.69zM157.802-26.538l-10 26.3h5.25l2.1-5.4h8.95l1.95 5.4h5.35l-9.75-26.3h-3.85zm-1.2 16.8l2.8-9.3h.1l3.2 9.3h-6.1zM55.102 119.21c-1.934 1.27-3.434 2.952-4.5 5.052-1.034 2.066-1.55 4.316-1.55 6.75 0 3.6 1.217 6.717 3.65 9.35 2.4 2.633 5.367 3.95 8.9 3.95 1.733 0 3.683-.517 5.85-1.55v-5.95c-.733.8-1.616 1.45-2.65 1.95-1 .5-2.017.75-3.05.75-2.233 0-4.05-.85-5.45-2.55-1.367-1.767-2.05-3.784-2.05-6.05 0-2.367.683-4.434 2.05-6.2 1.367-1.767 3.2-2.65 5.5-2.65 2.267 0 4.15.9 5.65 2.7v-5.95c-1.833-1-3.75-1.5-5.75-1.5-2.4 0-4.6.634-6.6 1.9zM157.802 63.112h5v-11.3h7.25v-4.35h-7.25v-5.65h7.7v-4.35h-12.7M151.853 69.512c-1.8 7.732-5.15 14.816-10.05 21.25-1.7 2.166-3.55 4.283-5.55 6.35l-1.2 2.8-.05.05 1.2-2.8c-8.435 8.4-18.135 13.716-29.1 15.95v-11.05l-26.25 20.5 26.25 20.55v-11.75c15.898-2.367 29.85-9.533 41.85-21.5 5.865-5.9 10.582-12.268 14.15-19.1 3.065-5.9 5.282-12.15 6.648-18.75l-11.148 10.1-6.75-12.6zM145.502 38.31c-1 .968-1.483 2.168-1.45 3.602 0 1.4.5 2.6 1.5 3.6s2.2 1.5 3.6 1.5 2.6-.5 3.6-1.5 1.5-2.2 1.5-3.6c0-1.434-.5-2.634-1.5-3.6-1-1-2.2-1.5-3.6-1.5s-2.617.5-3.65 1.5zm6.45 3.602c0 .767-.268 1.416-.8 1.95-.534.533-1.185.8-1.95.8-.768 0-1.434-.25-2-.75-.533-.534-.816-1.2-.85-2 0-.8.266-1.467.8-2 .532-.534 1.183-.8 1.95-.8.766 0 1.433.266 2 .8.567.533.85 1.2.85 2zM154.452 6.51l-5.75 17.3h-.05l-6.15-17.3h-5.4l9.8 26.35h2.95l9.95-26.35M37.352 44.662c2.033-11.467 7.417-21.55 16.15-30.25 8.1-8.1 17.367-13.334 27.8-15.7v10.65l26.25-20.5-26.25-20.55v12.05c-15.367 2.566-28.867 9.666-40.5 21.3l-1.2 2.8-.05.05 1.2-2.8c-12.567 12.533-19.833 27.3-21.8 44.3l12.85-11.7 5.55 10.35zM33.302 80.262h5.35l-9.75-26.3h-3.85l-10 26.3h5.25l2.1-5.4h8.95l1.95 5.4zm-9.45-9.5l2.8-9.3h.1l3.2 9.3h-6.1zM42.352 113.362l9.95-26.35h-5.35l-5.75 17.3h-.05l-6.15-17.3h-5.4l9.8 26.35M41.652 117.31c-1.4 0-2.617.5-3.65 1.5-1 .968-1.483 2.17-1.45 3.603 0 1.398.5 2.6 1.5 3.6s2.2 1.5 3.6 1.5 2.6-.5 3.6-1.5 1.5-2.2 1.5-3.6c0-1.434-.5-2.635-1.5-3.602-1-1-2.2-1.5-3.6-1.5zm2 7.052c-.533.533-1.184.8-1.95.8s-1.433-.25-2-.75c-.533-.534-.816-1.2-.85-2 0-.8.267-1.466.8-2s1.184-.8 1.95-.8 1.433.266 2 .8c.566.534.85 1.2.85 2 0 .766-.267 1.416-.8 1.95z"/></svg>