<svg xmlns="http://www.w3.org/2000/svg" width="159.145" height="167" viewBox="-1.25 -20.791 159.145 167"><path fill="#C52026" d="M133.75 38.558c-.334-2.833-1.217-5.517-2.65-8.05L113.85.458c-.266-.467-.684-.7-1.25-.7-.6 0-1.033.233-1.3.7l-17.2 30.05c-1.867 3.234-2.8 6.718-2.8 10.45-.032 3.834.9 7.418 2.8 10.75 1.434 2.534 3.3 4.65 5.6 6.35 2.2 1.7 4.635 2.9 7.3 3.6 2.7.768 5.417.984 8.15.65 2.833-.366 5.5-1.266 8-2.7 2.534-1.433 4.667-3.3 6.4-5.6 1.7-2.2 2.9-4.632 3.6-7.3.733-2.7.934-5.416.6-8.15zm-29.45-6.9c-2.1 3.367-3.017 6.817-2.75 10.35.067.7-.134 1.317-.6 1.85-.433.5-1 .783-1.7.85-.7.066-1.3-.133-1.8-.6-.534-.434-.833-1-.9-1.7-.4-4.6.767-9.066 3.5-13.4.333-.6.85-.967 1.55-1.1.668-.167 1.3-.066 1.9.3.566.333.934.85 1.1 1.55.132.667.033 1.3-.3 1.9zM156.15 77.76l-10.7-18.65c-.167-.268-.417-.4-.75-.4-.366 0-.634.132-.8.4l-10.7 18.65c-1.134 2-1.7 4.165-1.7 6.5-.033 2.366.533 4.583 1.7 6.65.9 1.565 2.067 2.882 3.5 3.948 1.366 1.033 2.866 1.768 4.5 2.2 1.7.5 3.384.634 5.05.4 1.768-.2 3.434-.75 5-1.65 1.566-.9 2.883-2.066 3.95-3.5 1.067-1.333 1.817-2.833 2.25-4.5.433-1.667.55-3.35.35-5.05-.2-1.766-.75-3.433-1.65-5zm-16.6.7c-1.3 2.1-1.866 4.25-1.7 6.45.033.433-.1.815-.4 1.148-.266.3-.615.467-1.05.5-.433.034-.8-.083-1.1-.35-.333-.267-.517-.616-.55-1.05-.268-2.867.45-5.65 2.15-8.35.2-.367.516-.584.95-.65.433-.1.833-.05 1.2.15.332.232.566.566.7 1 .066.4 0 .785-.2 1.15zM53.2 100.108c.067-.3.1-.6.1-.9V47.06c0-1.465-.517-2.7-1.55-3.7-1-1-2.232-1.5-3.7-1.5-1.433 0-2.666.5-3.7 1.5-1 1.034-1.5 2.268-1.5 3.7v52.15c0 .3.034.6.1.9-3.1 1.066-5.632 2.934-7.6 5.6-1.966 2.734-2.95 5.784-2.95 9.15 0 4.334 1.534 8.033 4.6 11.1 3.068 3.034 6.75 4.55 11.052 4.55 4.333 0 8.033-1.516 11.1-4.55 3.033-3.066 4.55-6.766 4.55-11.1 0-3.366-.983-6.416-2.95-9.15-1.935-2.666-4.452-4.533-7.552-5.6z"/><path fill="#C52026" d="M76.55 101.91c-1.8-4-4.334-7.45-7.6-10.352V.108c0-2.832-.55-5.55-1.65-8.15-1.067-2.466-2.567-4.666-4.5-6.6-1.934-1.933-4.15-3.433-6.65-4.5-2.566-1.1-5.267-1.65-8.1-1.65-2.834 0-5.533.55-8.1 1.65-2.534 1.067-4.75 2.567-6.65 4.5-1.934 1.9-3.434 4.1-4.5 6.6-1.067 2.6-1.6 5.317-1.6 8.15v91.45c-3.268 2.9-5.817 6.352-7.65 10.352-1.867 4.1-2.8 8.416-2.8 12.95 0 4.267.816 8.333 2.45 12.2 1.6 3.732 3.832 7.05 6.7 9.95 2.9 2.9 6.216 5.132 9.95 6.7 3.898 1.666 7.966 2.5 12.2 2.5 4.266 0 8.332-.834 12.198-2.5 3.733-1.568 7.05-3.8 9.95-6.7 2.9-2.9 5.134-6.218 6.7-9.95 1.633-3.867 2.45-7.934 2.45-12.2.002-4.535-.932-8.85-2.798-12.95zm-9.25 21.1c-1.067 2.5-2.567 4.716-4.5 6.65-1.934 1.898-4.134 3.382-6.6 4.448-2.6 1.1-5.317 1.65-8.15 1.65-2.834 0-5.533-.55-8.1-1.65-2.534-1.066-4.75-2.55-6.65-4.45-1.934-1.933-3.434-4.15-4.5-6.65-1.067-2.565-1.6-5.282-1.6-8.15 0-3.765.95-7.282 2.85-10.55 1.866-3.166 4.383-5.666 7.55-7.5V.11c0-2.9 1.017-5.366 3.05-7.4 2.066-2.033 4.533-3.05 7.4-3.05 2.9 0 5.366 1.018 7.4 3.05 2.032 2.034 3.05 4.5 3.05 7.4v96.7c3.166 1.834 5.683 4.334 7.55 7.5 1.933 3.268 2.9 6.785 2.9 10.55 0 2.867-.55 5.584-1.65 8.15zM1.4 9.408h5.7v5.95c0 .733.25 1.35.75 1.85.533.5 1.15.75 1.85.75.733 0 1.35-.25 1.85-.75s.75-1.117.75-1.85v-5.95h5.8c.734 0 1.35-.267 1.85-.8.5-.5.75-1.117.75-1.85 0-.7-.25-1.3-.75-1.8-.5-.534-1.115-.8-1.85-.8h-5.8v-5.5c0-.733-.25-1.35-.75-1.85s-1.116-.75-1.85-.75c-.7 0-1.316.25-1.85.75-.5.5-.75 1.117-.75 1.85v5.5H1.4c-.733 0-1.35.267-1.85.8-.533.5-.8 1.1-.8 1.8 0 .733.267 1.35.8 1.85.5.534 1.117.8 1.85.8z"/><path fill="#C52026" d="M19.95 84.608c.5-.5.75-1.116.75-1.85 0-.533-.133-1.017-.4-1.45-.1-.134-.216-.267-.35-.4-.5-.5-1.116-.75-1.85-.75H1.4c-.733 0-1.35.25-1.85.75-.134.134-.25.267-.35.4-.3.434-.45.917-.45 1.45 0 .733.267 1.35.8 1.85.5.5 1.116.75 1.85.75h16.7c.733 0 1.35-.25 1.85-.75z"/></svg>