<?xml version="1.0" standalone="no"?>
<!-- Generator: Adobe Fireworks 10, Export SVG Extension by Aaron Beall (http://fireworks.abeall.com) . Version: 0.6.1  -->
<!DOCTYPE svg PUBLIC "-//W3C//DTD SVG 1.1//EN" "http://www.w3.org/Graphics/SVG/1.1/DTD/svg11.dtd">
<svg id="Page%201%20Copy%2014-Page%201%20Copy%2014" viewBox="0 0 320 320" style="background-color:#ffffff" version="1.1"
	xmlns="http://www.w3.org/2000/svg" xmlns:xlink="http://www.w3.org/1999/xlink" xml:space="preserve"
	x="0px" y="0px" width="320px" height="320px"
>
	<g id="Layer%201">
		<image visibility="hidden" x="-12" y="-12" width="345" height="344" xlink:href="Page 1 Copy 14.svg.images/image1.png"/>
		<image visibility="hidden" x="-34" y="-38" width="380" height="379" xlink:href="Page 1 Copy 14.svg.images/image2.png"/>
		<rect x="9" y="9" width="302" height="302" fill="#c52228" rx="25" ry="25"/>
		<path d="M 93 87 L 93 136 C 93 139.3138 95.6862 142 99 142 L 220 142 C 223.3138 142 226 139.3138 226 136 L 226 121 L 246 121 C 248.2092 121 250 122.7908 250 125 L 250 311 L 272 311 L 272 121 L 272 103 C 272 100.7908 270.2092 99 268 99 L 250 99 L 230 99 C 227.7908 99 226 97.2092 226 95 L 226 87 C 226 83.6862 223.3138 81 220 81 L 99 81 C 95.6862 81 93 83.6862 93 87 Z" fill="#ffffff"/>
	</g>
</svg>