<?xml version="1.0" encoding="utf-8"?>
<!-- Generator: Adobe Illustrator 16.0.0, SVG Export Plug-In . SVG Version: 6.00 Build 0)  -->
<!DOCTYPE svg PUBLIC "-//W3C//DTD SVG 1.1//EN" "http://www.w3.org/Graphics/SVG/1.1/DTD/svg11.dtd">
<svg version="1.1" id="Layer_1"
	xmlns="http://www.w3.org/2000/svg"
	xmlns:xlink="http://www.w3.org/1999/xlink" x="0px" y="0px" width="170.85px" height="71.4px" viewBox="7.902 19.761 170.85 71.4" enable-background="new 7.902 19.761 170.85 71.4" xml:space="preserve">
	<path fill="#F72432" d="M23.002,65.612c0.667,1.699,1.467,3.184,2.4,4.449c0.934,1.234,2.133,2.283,3.6,3.15
	c1.467,0.767,3.083,1.15,4.85,1.15c1.8,0,3.433-0.384,4.9-1.15c1.5-0.867,2.717-1.916,3.65-3.15c0.9-1.266,1.667-2.75,2.3-4.449
	c0.667-1.667,1.117-3.301,1.35-4.9c0.267-1.633,0.4-3.233,0.4-4.8c0-1.6-0.133-3.217-0.4-4.85c-0.233-1.633-0.667-3.283-1.3-4.95
	c-0.633-1.7-1.417-3.183-2.35-4.45c-0.933-1.267-2.133-2.317-3.6-3.15c-1.5-0.767-3.15-1.15-4.95-1.15s-3.433,0.383-4.9,1.15
	c-1.467,0.833-2.667,1.883-3.6,3.15s-1.717,2.75-2.35,4.45c-0.6,1.667-1.05,3.317-1.35,4.95c-0.233,1.633-0.35,3.25-0.35,4.85
	c0,1.566,0.117,3.167,0.35,4.8C21.952,62.311,22.402,63.945,23.002,65.612z M28.252,52.311c0.167-1.233,0.45-2.583,0.85-4.05
	c0.4-1.434,1.017-2.617,1.85-3.55c0.833-0.933,1.8-1.4,2.9-1.4c1.167,0,2.167,0.467,3,1.4c0.8,0.934,1.4,2.117,1.8,3.55
	c0.4,1.466,0.684,2.816,0.85,4.05c0.167,1.267,0.25,2.433,0.25,3.5c0,1.101-0.083,2.268-0.25,3.5
	c-0.167,1.234-0.45,2.584-0.85,4.051c-0.4,1.467-1,2.666-1.8,3.6c-0.833,0.967-1.833,1.45-3,1.45c-1.1,0-2.067-0.483-2.9-1.45
	c-0.833-0.934-1.45-2.133-1.85-3.6s-0.683-2.834-0.85-4.1c-0.167-1.268-0.25-2.418-0.25-3.451
	C28.002,54.744,28.086,53.578,28.252,52.311z"/>
	<path fill="#F72432" d="M60.252,19.761H7.902v71.4h52.35V19.761z M51.802,83.262h-35.55V27.561h35.55V83.262z"/>
	<path fill="#F72432" d="M67.152,91.161h52.35v-71.4h-52.35V91.161z M75.502,27.561h35.55v55.701h-35.55V27.561z"/>
	<path fill="#F72432" d="M98.302,61.461c1.967-2.267,3.467-4.383,4.5-6.35c1.066-1.966,1.6-4.117,1.6-6.45
	c0-3.2-1.1-5.883-3.299-8.05c-2.167-2.167-4.867-3.25-8.101-3.25c-3.5,0-6.25,1.1-8.25,3.3c-1.967,2.233-3.083,5.117-3.35,8.65h7.3
	c-0.1-1.5,0.233-2.867,1-4.1c0.8-1.267,1.917-1.9,3.35-1.9c1.333,0,2.417,0.6,3.25,1.8c0.834,1.2,1.25,2.5,1.25,3.9
	c0,0.367-0.05,0.783-0.15,1.25c-0.1,0.466-0.232,0.9-0.399,1.3c-0.134,0.4-0.333,0.883-0.601,1.45
	c-0.299,0.566-0.566,1.033-0.799,1.4c-0.234,0.4-0.551,0.917-0.951,1.55c-0.433,0.633-0.75,1.084-0.949,1.35
	c-0.233,0.301-0.6,0.783-1.1,1.451c-0.5,0.6-0.817,1-0.95,1.199c-0.133,0.167-0.45,0.566-0.95,1.2s-0.767,0.967-0.8,1l-8.95,11.3
	h23.75v-5.949h-11.6L98.302,61.461z"/>
	<path fill="#F72432" d="M126.402,91.161h52.351v-71.4h-52.351V91.161z M146.802,83.262c0.268-0.9,0.7-1.768,1.301-2.601
	c1.033-1.366,2.383-2.05,4.049-2.05c1.668,0,3,0.666,4,2c0.634,0.833,1.084,1.717,1.351,2.65H146.802z M134.752,27.561h10.2
	l-1.85,9.2h1.049c1.634-1.534,3.518-2.3,5.65-2.3c1.934,0,3.551,0.684,4.85,2.05c1.334,1.367,2,3.017,2,4.95
	c0,1.9-0.566,3.533-1.699,4.9c-1.167,1.367-2.7,2.05-4.6,2.05c-1.533,0-3-0.417-4.4-1.25c-1.367-0.833-2.533-1.95-3.5-3.35
	l-2.051,5.9c2.734,3.1,6.201,4.65,10.4,4.65c3.801,0,6.9-1.167,9.301-3.5c2.366-2.333,3.549-5.367,3.549-9.1
	c0-3.4-1.066-6.3-3.199-8.7c-2.133-2.367-4.85-3.55-8.15-3.55l-1.8,0.1l0.45-2.05h19.35v55.701h-5.8c-0.267-2.5-1.2-4.684-2.8-6.551
	c-1.934-2.3-4.45-3.449-7.551-3.449c-1.1,0-2.016,0.166-2.75,0.5l-0.1-0.15l7.2-10.2l-5-3.649l-9.351,13.85
	c-2.299,3.434-3.666,6.65-4.1,9.65h-5.3V27.561z"/>
</svg>
