<?xml version="1.0" encoding="utf-8"?>
<!-- Generator: Adobe Illustrator 16.0.0, SVG Export Plug-In . SVG Version: 6.00 Build 0)  -->
<!DOCTYPE svg PUBLIC "-//W3C//DTD SVG 1.1//EN" "http://www.w3.org/Graphics/SVG/1.1/DTD/svg11.dtd">
<svg version="1.1" id="Layer_1" xmlns="http://www.w3.org/2000/svg" xmlns:xlink="http://www.w3.org/1999/xlink" x="0px" y="0px"
	 width="186.2px" height="146.701px" viewBox="-0.146 -17.898 186.2 146.701" enable-background="new -0.146 -17.898 186.2 146.701"
	 xml:space="preserve">
<path fill="#C52026" d="M91.404,110.403c-1.933,0-2.9,1.066-2.9,3.199v12.051c0,2.1,0.967,3.15,2.9,3.15
	c2.133,0,3.201-1.051,3.201-3.15v-12.051C94.605,111.469,93.537,110.403,91.404,110.403z"/>
<path fill="#C52026" d="M131.004,101.602c-1.399-1.566-2.934-1.949-4.601-1.149c-1.732,1.101-2.133,2.45-1.199,4.05l6.15,10.5
	c0.799,1.768,2.25,2.166,4.35,1.199c1.9-1.433,2.15-2.782,0.75-4.049L131.004,101.602z"/>
<path fill="#C52026" d="M-0.146-5.898h75.45v43h-40.8v12c0.167,4.1,0.767,8.05,1.8,11.85c0.633,2.5,1.467,4.933,2.5,7.3v0.1
	l0.45,0.951c2.733,5.966,6.683,11.516,11.85,16.649v0.05c11.2,10.9,24.667,16.35,40.4,16.35s29.167-5.449,40.3-16.35v-0.05
	c5.2-5.101,9.184-10.649,11.95-16.649l0.45-0.951v-0.1c1.033-2.367,1.883-4.8,2.55-7.3c1-3.8,1.583-7.75,1.75-11.85v-12h-41.149v-43
	h78.699v-12h-186.2V-5.898z M138.504,49.102c-0.233,4.167-0.967,8.117-2.2,11.85c-0.5,1.399-1.05,2.767-1.65,4.101l-0.449,1.049
	c-2.268,4.567-5.4,8.817-9.4,12.75c-9.199,9-20.3,13.5-33.3,13.5s-24.117-4.5-33.35-13.5h-0.05c-4.034-4-7.167-8.316-9.4-12.949
	l-0.35-0.85c-0.6-1.334-1.133-2.701-1.6-4.101c-1.3-3.733-2.05-7.684-2.25-11.85H138.504z M83.304-5.898h16.051v43H83.304V-5.898z"
	/>
<path fill="#C52026" d="M56.904,100.452c-2.067-1.067-3.5-0.684-4.3,1.149l-6,10.551c-1.1,1.566-0.7,2.916,1.2,4.049
	c1.833,0.668,3.15,0.268,3.95-1.199l6.1-10.5C59.121,103.069,58.804,101.719,56.904,100.452z"/>
<path fill="#C52026" d="M29.204,72.303l-10.35,5.799c-1.9,1.134-2.3,2.467-1.2,4c0.8,1.967,2.25,2.367,4.35,1.201l10.05-5.9
	c1.833-1.1,2.233-2.45,1.2-4.051C32.154,71.553,30.804,71.202,29.204,72.303z"/>
<path fill="#C52026" d="M164.254,78.102l-10.5-5.799c-1.601-0.9-3.033-0.551-4.3,1.049c-1.1,1.601-0.7,2.951,1.199,4.051l10.4,5.9
	c1.834,0.866,3.15,0.466,3.95-1.201C166.37,80.869,166.12,79.535,164.254,78.102z"/>
</svg>
