<svg xmlns="http://www.w3.org/2000/svg" width="186.2" height="176.2" viewBox="0.504 -31.998 186.2 176.2"><path fill="#C52026" d="M92.654 8.127c-.046-5.917-1.213-11.36-3.5-16.325v.05c-1.967-4.37-4.792-8.394-8.475-12.075l-.026-.05-.024-.025c-8.066-7.8-17.74-11.7-29.025-11.7-11.298.006-20.948 3.914-28.95 11.725l-.025.025c-3.715 3.673-6.573 7.69-8.575 12.05-2.292 4.973-3.44 10.423-3.45 16.35v2.85H.505v12h134v26.575c-9.763.765-18.212 4.648-25.35 11.65v.024h-.024c-3.706 3.677-6.556 7.677-8.55 12l-.025.026-.025.05c-.273.624-.55 1.266-.824 1.925l-.05.1-.024.077c-1.383 3.61-2.2 7.47-2.45 11.574h-.126v10h82.2V87h-.175c-.26-4.12-1.103-7.995-2.524-11.624l.05.1c-.298-.805-.64-1.588-1.024-2.35l.1.176c-1.934-4.344-4.768-8.36-8.5-12.05l-.025-.026c-6.975-6.81-15.19-10.667-24.648-11.575V23h44.198V11h-94.05V8.128zm-10 2.875h-62.05v-2.85c-.01-4.406.84-8.457 2.55-12.15 1.527-3.296 3.694-6.338 6.5-9.125l.025-.025c6.06-5.906 13.367-8.856 21.924-8.85 8.583 0 15.94 2.966 22.075 8.9l-.05-.075c2.782 2.786 4.925 5.827 6.424 9.125v.05c1.71 3.697 2.578 7.747 2.6 12.15v2.85zm77.476 57.35l.023.025c2.79 2.77 4.914 5.778 6.375 9.025l.102.175c.215.438.406.888.574 1.35l.05.1c.978 2.5 1.577 5.16 1.8 7.976h-61.85c.22-2.834.813-5.51 1.775-8.025.23-.546.466-1.08.698-1.6l-.05.075c1.534-3.266 3.71-6.29 6.524-9.075l.025-.025c6.06-5.935 13.37-8.9 21.926-8.9 8.592-.005 15.933 2.96 22.027 8.9zM127.204 105.153h-5.45v21.1h-9.05l11.85 17.95 11.95-17.95h-9.3"/><path fill="#C52026" d="M61.755 31.152v30.05h-9.1l11.9 17.95 11.95-17.95h-9.35v-30.05M35.454 31.152v30.05h-9.05l11.85 17.95 11.95-17.95h-9.3v-30.05M153.454 105.153h-5.4v21.1h-9.1l11.9 17.95 11.95-17.95h-9.35"/></svg>