<svg xmlns="http://www.w3.org/2000/svg" width="186.2" height="146.701" viewBox="-0.146 -17.898 186.2 146.701"><path fill="#C52026" d="M91.404 110.403c-1.933 0-2.9 1.066-2.9 3.2v12.05c0 2.1.967 3.15 2.9 3.15 2.133 0 3.2-1.05 3.2-3.15v-12.05c0-2.134-1.067-3.2-3.2-3.2zM131.004 101.602c-1.4-1.566-2.934-1.95-4.6-1.15-1.733 1.102-2.134 2.45-1.2 4.05l6.15 10.5c.8 1.77 2.25 2.167 4.35 1.2 1.9-1.433 2.15-2.782.75-4.05l-5.45-10.55zM-.146-5.898h75.45v43h-40.8v12c.167 4.1.767 8.05 1.8 11.85.633 2.5 1.467 4.933 2.5 7.3v.1l.45.95c2.733 5.967 6.683 11.517 11.85 16.65v.05c11.2 10.9 24.667 16.35 40.4 16.35s29.167-5.45 40.3-16.35v-.05c5.2-5.1 9.184-10.65 11.95-16.65l.45-.95v-.1c1.033-2.367 1.883-4.8 2.55-7.3 1-3.8 1.583-7.75 1.75-11.85v-12h-41.15v-43h78.7v-12H-.146v12zm138.65 55c-.233 4.167-.967 8.117-2.2 11.85-.5 1.4-1.05 2.767-1.65 4.1l-.45 1.05c-2.267 4.567-5.4 8.817-9.4 12.75-9.198 9-20.3 13.5-33.3 13.5s-24.116-4.5-33.35-13.5h-.05c-4.033-4-7.166-8.316-9.4-12.95l-.35-.85c-.6-1.333-1.132-2.7-1.6-4.1-1.3-3.733-2.05-7.684-2.25-11.85h94zm-55.2-55h16.05v43h-16.05v-43zM56.904 100.452c-2.067-1.067-3.5-.684-4.3 1.15l-6 10.55c-1.1 1.566-.7 2.916 1.2 4.05 1.833.667 3.15.267 3.95-1.2l6.1-10.5c1.267-1.433.95-2.783-.95-4.05zM29.204 72.303l-10.35 5.8c-1.9 1.133-2.3 2.466-1.2 4 .8 1.966 2.25 2.366 4.35 1.2l10.05-5.9c1.833-1.1 2.233-2.45 1.2-4.05-1.1-1.8-2.45-2.15-4.05-1.05zM164.254 78.102l-10.5-5.8c-1.6-.9-3.033-.55-4.3 1.05-1.1 1.6-.7 2.95 1.2 4.05l10.4 5.9c1.833.867 3.15.467 3.95-1.2 1.366-1.233 1.116-2.567-.75-4z"/></svg>