<svg xmlns="http://www.w3.org/2000/svg" width="186.2" height="141.65" viewBox="-0.296 -15.698 186.2 141.65"><path fill="#C52026" d="M94.655 45.152h53.75v-5c.002-.818-.016-1.618-.05-2.4-.073-1.452-.182-2.87-.325-4.25v-.05c-.63-5.68-2.104-11.047-4.426-16.1h-.024c-2.767-5.99-6.74-11.542-11.925-16.65V.677c-11.135-10.914-24.568-16.372-40.3-16.375h-.75c-15.406.186-28.623 5.644-39.65 16.375l-.025.025c-5.15 5.115-9.094 10.69-11.825 16.725v-.025c-3.188 6.935-4.805 14.51-4.85 22.725l-.1 5.025h52.5v68.8H-.295v12h186.2v-12h-91.25v-68.8zm-50.125-10c.502-4.81 1.728-9.326 3.675-13.55v-.025c2.264-4.956 5.514-9.54 9.75-13.75l.024-.025c9.092-8.844 19.983-13.344 32.675-13.5H91.355c13-.002 24.1 4.506 33.3 13.525v-.025c4.282 4.225 7.574 8.808 9.875 13.75h-.025c1.87 4.065 3.063 8.382 3.575 12.95.02.216.038.433.05.65h-93.6z"/></svg>