<svg xmlns="http://www.w3.org/2000/svg" width="125.95" height="167.8" viewBox="30.329 -28.498 125.95 167.8"><path fill="#C52026" d="M127.28 20.852c3 0 5.566-1.067 7.7-3.2 2.1-2.1 3.15-4.667 3.15-7.7 0-3-1.05-5.567-3.15-7.7-2.134-2.133-4.7-3.2-7.7-3.2-3.033 0-5.617 1.066-7.75 3.2-2.1 2.133-3.15 4.7-3.15 7.7 0 3.033 1.05 5.6 3.15 7.7 2.132 2.133 4.716 3.2 7.75 3.2z"/><path fill="#C52026" d="M30.33 139.302h125.95v-167.8H30.33v167.8zm9-137.35h25.05v10.6l27.8-13.85-27.8-14v10.9l-25.05-.05v-15.05h107.95v149.8H39.33V1.952z"/><path fill="#C52026" d="M112.78 64.152h-19.8l-12.55 20.95-24.65-8.7c-1.434-.533-2.834-.466-4.2.2-.3.166-.6.35-.9.55-.866.634-1.5 1.483-1.9 2.55-.532 1.434-.466 2.834.2 4.2.434.866 1 1.567 1.7 2.1.434.3.917.55 1.45.75l33.15 11.75 17.65-29.5 30.25 55.6c.732 1.3 1.832 2.168 3.3 2.6 1.433.435 2.816.285 4.15-.448s2.216-1.817 2.65-3.25c.432-1.467.282-2.867-.45-4.2l-30.05-55.152zM127.23 23.002c0-.066-.018-.133-.05-.2-3.6-.133-6.718-1.483-9.35-4.05-.5-.533-.95-1.066-1.352-1.6l-27.15 5.6-9.35 23.3c-.533 1.267-.533 2.533 0 3.8.567 1.267 1.483 2.15 2.75 2.65 1.268.533 2.55.517 3.85-.05 1.268-.533 2.15-1.434 2.65-2.7l7.35-18.25 9.7-2-14.2 32.1h22.9l7-17.1 4.05 17.4 18.75-2.35v-10.05l-11.05 1.35-6.5-27.85z"/></svg>