<svg id="Layer_1" xmlns="http://www.w3.org/2000/svg" viewBox="24 -38.2 141.1 124.2"><style>.st0{fill:#C52026;}</style><path class="st0" d="M131.2 1.9c0 .5.2 1 .6 1.4.4.4.9.6 1.4.7.6 0 1-.2 1.4-.7l12.5-12.5 4.8 4.8 6.2-18.6-18.7 6.1 4.9 4.9L131.8.5c-.4.4-.6.9-.6 1.4zM118-11.2c.6-.1 1.1-.3 1.4-.7l12.4-12.5 4.8 4.8 6.2-18.6-18.6 6.2 4.8 4.8-12.4 12.5c-.4.4-.6.9-.6 1.5 0 .5.2 1 .6 1.4.4.3.9.6 1.4.6zM73.1 82c0 1.1.4 2 1.2 2.8.8.8 1.7 1.2 2.8 1.2 1.1 0 2-.4 2.8-1.2.8-.8 1.2-1.7 1.2-2.8V29.8h29.1V82c0 1.1.4 2 1.2 2.8.8.8 1.7 1.2 2.8 1.2 1.1 0 2-.4 2.8-1.2.8-.8 1.2-1.7 1.2-2.8V29.8h10.4l-.1-4c0-4.8-1-9.2-2.8-13.2-1.6-3.5-3.8-6.8-6.8-9.8-6.4-6.4-14.2-9.6-23.3-9.6-9.1 0-16.8 3.2-23.2 9.6-3 3-5.3 6.2-6.9 9.8-1.8 4.1-2.7 8.5-2.8 13.3v4h10.4V82zm-2-60.2c.3-2.1.9-4.1 1.8-6 1.2-2.7 3-5.1 5.2-7.4C83 3.5 88.8 1.1 95.7 1.1c6.9 0 12.7 2.4 17.6 7.2 2.2 2.3 4 4.8 5.2 7.4.9 1.9 1.4 3.9 1.8 6H71.1z"/></svg>