<svg xmlns="http://www.w3.org/2000/svg" width="186.199" height="111.15" viewBox="-0.196 -0.048 186.199 111.15"><path fill="#C52026" d="M136.654 98.502c1.9-1.434 2.15-2.783.75-4.05l-5.45-10.55c-1.4-1.566-2.933-1.95-4.6-1.15-1.733 1.1-2.134 2.45-1.2 4.05l6.15 10.5c.8 1.767 2.25 2.167 4.35 1.2zM95.554 107.952v-12.05c0-2.133-1.066-3.2-3.2-3.2-1.933 0-2.9 1.067-2.9 3.2v12.05c0 2.1.967 3.15 2.9 3.15 2.134 0 3.2-1.05 3.2-3.15zM57.854 82.752c-2.066-1.066-3.5-.684-4.3 1.15l-6 10.55c-1.1 1.567-.7 2.917 1.2 4.05 1.833.667 3.15.268 3.95-1.2l6.1-10.5c1.267-1.433.95-2.782-.95-4.05zM147.054 34.052v-.075l-.45-.95c-2.73-6-6.673-11.558-11.825-16.675l-.026-.025C123.548 5.417 110.08-.043 94.354-.048c-15.732.003-29.166 5.46-40.3 16.375v.025c-5.184 5.108-9.16 10.66-11.925 16.65l-.476.975v.075c-2.57 5.927-4.002 12.31-4.3 19.15H-.196v12h186.2v-12h-34.626c-.312-6.84-1.754-13.223-4.324-19.15zM47.38 53.202c.28-5.713 1.556-11.03 3.824-15.95l.45-1.05c2.276-4.564 5.41-8.814 9.4-12.75v.025c9.2-9.02 20.3-13.528 33.3-13.525 12.993-.005 24.118 4.495 33.375 13.5l.023.025c4.023 3.997 7.156 8.314 9.4 12.95l.35.825c2.27 4.92 3.56 10.237 3.875 15.95h-94z"/></svg>