<svg xmlns="http://www.w3.org/2000/svg" width="114.25" height="163.301" viewBox="36.554 -25.398 114.25 163.301"><path fill="#C52026" d="M150.43 23.802v-.05c-.63-5.68-2.104-11.047-4.426-16.1h-.024c-2.767-5.99-6.74-11.542-11.926-16.65v-.025c-11.134-10.914-24.567-16.372-40.3-16.375h-.75c-15.405.186-28.622 5.644-39.65 16.375l-.024.025c-5.152 5.115-9.094 10.69-11.825 16.725v-.025c-3.188 6.935-4.805 14.51-4.85 22.725l-.1 5.025h52.95v10.2c-9.664.89-18.072 4.814-25.226 11.775h-.026l-.024.024c-3.75 3.716-6.626 7.774-8.625 12.177-2.32 5.06-3.503 10.592-3.55 16.6l-.1 5.025h37.55v9.9c-7.2.85-13.483 3.89-18.85 9.125v.024c-2.962 2.914-5.23 6.105-6.8 9.576v-.025c-1.825 3.976-2.742 8.325-2.75 13.052l-.076 5h65.324v-5-1.375c-.04-.83-.098-1.62-.176-2.375v-.05c-.366-3.28-1.233-6.38-2.6-9.3h.025c-1.564-3.426-3.84-6.594-6.825-9.5l-.025-.025c-5.435-5.357-11.852-8.415-19.25-9.176v-9.85h37.9v-5c.003-.607-.013-1.216-.05-1.824-.043-1.042-.117-2.052-.226-3.024-.463-4.174-1.538-8.1-3.225-11.775l-.025-.025c-2.033-4.402-4.942-8.46-8.725-12.175v.024c-7.203-7.106-15.753-11.057-25.65-11.85V35.45h53.3v-5c.002-.817-.015-1.617-.05-2.4-.07-1.45-.18-2.867-.323-4.248zm-40.7 93.6h.024v.025c2.068 2.02 3.65 4.21 4.75 6.575h.025c.577 1.25 1.02 2.55 1.324 3.9h-44.2c.3-1.338.732-2.62 1.3-3.85v-.025c1.094-2.396 2.66-4.605 4.7-6.625v.024c4.363-4.253 9.597-6.43 15.7-6.524h.4c6.255-.008 11.58 2.16 15.976 6.5zm6.425-52.85v.024c2.884 2.82 5.108 5.895 6.675 9.226l-.025-.024c1.078 2.354 1.81 4.846 2.2 7.475h-62.55c.42-2.63 1.17-5.12 2.25-7.475 1.534-3.332 3.726-6.406 6.575-9.226l-.05.024c6.136-5.953 13.478-8.995 22.024-9.125h.5c8.765-.007 16.232 3.027 22.4 9.102zm-69.226-39.1c.502-4.81 1.728-9.326 3.675-13.55v-.025c2.264-4.956 5.514-9.54 9.75-13.75l.024-.025c9.088-8.84 19.98-13.34 32.674-13.5H93.753c13-.002 24.1 4.506 33.3 13.525v-.025c4.283 4.225 7.574 8.808 9.875 13.75h-.025c1.87 4.065 3.063 8.382 3.575 12.95.02.216.038.433.05.65h-93.6z"/></svg>