<svg xmlns="http://www.w3.org/2000/svg" width="210.274" height="107.7" viewBox="-11.871 2.352 210.274 107.7"><path fill="#C52026" d="M58.654 34.052h17.2v55.5h-17.2zM116.504 34.052h-28.45v55.5h17.2v-20.6h9.35c6.934 0 12.083-1.6 15.45-4.8 3.367-3.1 5.05-7.45 5.05-13.05 0-5.434-1.55-9.65-4.65-12.65-3.1-2.934-7.75-4.4-13.95-4.4zm-.1 21.95c-1.3 1.133-3.616 1.7-6.95 1.7h-4.2V45.35h4.85c3.2 0 5.385.616 6.55 1.85 1.168 1.166 1.75 2.632 1.75 4.4s-.666 3.233-2 4.4z"/><path fill="#C52026" d="M198.23 100.527l.024.175c-.104-2.71-.297-5.37-.575-7.975v-.025c-1.163-10.413-3.872-20.246-8.126-29.5h-.025c-5.092-11.023-12.408-21.256-21.95-30.7l-.025-.025c-20.5-20.08-45.234-30.122-74.2-30.125H91.955c-28.408.318-52.758 10.36-73.05 30.125l-.025.025C9.394 41.952 2.136 52.226-2.896 63.326v-.024c-5.854 12.7-8.82 26.607-8.9 41.725l-.074 5.025h210.274v-5c-.004-1.526-.062-3.035-.175-4.525zm-199.876-.475c.61-11.687 3.228-22.537 7.85-32.55v-.025c4.564-10.023 11.13-19.307 19.7-27.85l.025-.025c18.358-17.876 40.384-26.96 66.074-27.25h1.35c26.223-.003 48.614 9.08 67.175 27.25l.024.025c8.646 8.55 15.287 17.808 19.925 27.775h-.025c3.81 8.272 6.233 17.064 7.274 26.375.218 2.057.376 4.148.475 6.275H-1.645z"/></svg>