<svg xmlns="http://www.w3.org/2000/svg" width="186.2" height="91.701" viewBox="0.404 9.852 186.2 91.701"><path fill="#C52026" d="M95.154 98.403v-12.05c0-2.134-1.066-3.2-3.2-3.2-1.933 0-2.9 1.066-2.9 3.2v12.05c0 2.1.967 3.15 2.9 3.15 2.133 0 3.2-1.05 3.2-3.15zM52.304 87.752l6.1-10.5c1.267-1.434.95-2.783-.95-4.05-2.066-1.067-3.5-.683-4.3 1.15l-6 10.55c-1.1 1.566-.7 2.916 1.2 4.05 1.833.667 3.15.267 3.95-1.2zM136.254 88.952c1.9-1.433 2.15-2.783.75-4.05l-5.45-10.55c-1.4-1.567-2.934-1.95-4.6-1.15-1.734 1.1-2.134 2.45-1.2 4.05l6.15 10.5c.8 1.768 2.25 2.167 4.35 1.2zM22.554 56.053l10.05-5.9c1.833-1.1 2.233-2.45 1.2-4.05-1.1-1.8-2.45-2.15-4.05-1.05l-10.35 5.8c-1.9 1.133-2.3 2.467-1.2 4 .8 1.966 2.25 2.366 4.35 1.2zM161.604 56.053c1.833.866 3.15.467 3.95-1.2 1.367-1.234 1.117-2.567-.75-4l-10.5-5.8c-1.6-.9-3.033-.55-4.3 1.05-1.1 1.6-.7 2.95 1.2 4.05l10.4 5.9z"/><path fill="#C52026" d="M.404 21.852H35.03c.312 6.84 1.753 13.224 4.324 19.15v.075l.45.95c2.732 6 6.673 11.558 11.825 16.675l.024.024c11.205 10.912 24.67 16.37 40.4 16.375 15.732 0 29.166-5.46 40.3-16.374v-.024c5.185-5.11 9.16-10.66 11.925-16.65l.475-.975v-.075c2.57-5.927 4.002-12.31 4.3-19.15h37.55v-12H.405v12zm138.625 0c-.282 5.714-1.558 11.03-3.825 15.95l-.45 1.05c-2.274 4.562-5.407 8.812-9.4 12.75v-.025c-9.198 9.02-20.3 13.528-33.3 13.524-12.993.007-24.118-4.493-33.375-13.5l-.025-.024c-4.02-3.996-7.154-8.313-9.4-12.95l-.35-.825c-2.268-4.92-3.56-10.236-3.875-15.95h94z"/></svg>