<?xml version="1.0" standalone="no"?>
<!-- Generator: Adobe Fireworks 10, Export SVG Extension by Aaron Beall (http://fireworks.abeall.com) . Version: 0.6.1  -->
<!DOCTYPE svg PUBLIC "-//W3C//DTD SVG 1.1//EN" "http://www.w3.org/Graphics/SVG/1.1/DTD/svg11.dtd">
<svg id="Page%201%20Copy%206-Page%201%20Copy%206" viewBox="0 0 320 320" style="background-color:#ffffff" version="1.1"
	xmlns="http://www.w3.org/2000/svg" xmlns:xlink="http://www.w3.org/1999/xlink" xml:space="preserve"
	x="0px" y="0px" width="320px" height="320px"
>
	<g id="Layer%201">
		<path d="M 13.6425 163.3036 C 14.3502 162.0943 13.8838 161.1723 12.485 161.1727 C 10.0028 161.1733 6.5896 161.1742 6.5896 161.1742 C 4.3053 161.1742 3 162.5497 3 164.2003 C 3 165.5758 3.979 166.6762 5.9369 167.5015 L 11.7062 167.5015 C 12.1548 166.134 12.8165 164.7153 13.6425 163.3036 ZM 63.8544 161.172 L 21.5837 161.172 C 19.6857 163.1945 18.0896 165.4478 17.1261 167.5015 L 56.5919 167.5015 C 59.4567 165.5864 62.3488 162.9334 63.8544 161.172 ZM 87.2629 161.172 L 69.8126 161.172 C 69.5203 161.6684 69.2064 162.1617 68.8736 162.6499 C 66.9031 165.5403 67.6389 167.5015 71.1358 167.5015 C 75.6459 167.5015 81.6829 167.5015 86.193 167.5015 C 89.6899 167.5015 90.3806 165.592 88.3314 162.7572 C 87.9559 162.2376 87.5989 161.7088 87.2629 161.172 ZM 130.0529 161.172 L 93.5757 161.172 C 95.5951 163.5696 98.1951 165.8647 100.7305 167.5015 L 134.7827 167.5015 C 133.6835 165.3653 131.9983 163.1424 130.0529 161.172 ZM 151.4922 161.172 C 151.4922 161.172 148.0627 161.172 143.1595 161.172 C 139.6626 161.172 138.6768 163.4043 140.0493 166.6205 C 140.1754 166.916 140.2921 167.2098 140.399 167.5015 L 153.474 167.5015 C 153.5142 166.693 153.5373 165.8952 153.5373 165.1208 C 153.4978 160.9546 152.5084 161.3514 151.4922 161.172 ZM 200.4619 161.172 L 159.6791 161.172 C 158.9464 163.3464 158.6027 165.3515 158.6027 165.7556 C 158.6027 166.3389 158.588 166.9221 158.5584 167.5015 L 193.2564 167.5015 C 195.805 166.0422 198.4002 163.8132 200.4619 161.172 ZM 222.832 161.172 L 206.3758 161.172 C 205.6798 162.2597 205.3315 163.0303 205.0096 163.9133 C 204.2893 165.8891 205.4362 167.5015 207.5343 167.5015 C 211.5428 167.5015 217.8233 167.5015 221.8317 167.5015 C 223.9298 167.5015 224.7319 166.0434 223.8976 164.1147 C 223.4451 163.0688 223.0857 162.0661 222.832 161.172 ZM 268.085 161.172 L 228.4546 161.172 C 229.3053 163.6277 230.4048 165.8877 231.7851 167.5015 L 272.8148 167.5015 C 271.7156 165.3653 270.0305 163.1424 268.085 161.172 ZM 292.8738 161.172 L 276.1263 161.172 C 277.0856 164.1288 277.6751 165.4379 278.4311 167.5015 L 291.4872 167.5015 C 291.7811 165.6243 292.2211 163.3986 292.8738 161.172 ZM 298.0659 161.172 C 297.4382 163.0913 296.9752 165.2861 296.6349 167.5015 L 298.0659 161.172 Z" fill="#db2125"/>
		<g>
			<path d="M 78.4937 39.0455 C 80.7098 42.5372 81.9762 46.9811 83.5591 50.7902 C 88.3079 63.1698 93.0568 76.8191 95.906 89.1987 C 97.1724 93.96 98.4387 99.6737 99.3885 105.0699 C 100.9714 112.3707 102.2378 120.6237 102.871 128.2419 C 103.5041 132.3685 103.8207 137.2886 104.1373 142.0499 C 104.4539 146.1765 103.5041 155.3818 109.8359 155.3818 L 118.871 155.3818 C 126.4691 156.0166 135.6501 165.5394 135.9667 172.8402 L 135.9667 272.9878 C 147.3639 245.3718 154.0122 217.121 156.5449 189.505 C 156.8615 186.6482 157.6406 183.4739 157.6406 180.2997 C 157.9572 178.3951 157.9572 176.4906 157.9572 174.586 C 157.9572 173.3163 158.2738 172.0466 158.2738 170.7769 C 158.2738 169.8246 158.5904 168.3962 158.5904 167.1265 C 157.9572 163.3174 161.1231 155.3818 165.5553 155.3818 L 183.7714 155.3818 C 186.6207 154.4295 188.2037 152.8424 189.1534 150.303 L 189.1534 29.8402 C 189.7866 23.8091 194.2188 20 198.6511 20 C 207.8321 20 211.7771 32.3796 214.9429 38.4107 C 224.124 56.8213 229.506 75.8668 233.9382 94.5949 C 238.0538 113.0056 240.5865 133.162 241.5363 151.8901 C 241.5363 152.8424 242.1695 154.1121 242.8026 155.3818 L 256.9032 155.3818 C 264.5012 156.0166 273.6823 165.5394 273.9989 172.8402 L 273.9989 273.3052 C 285.0794 245.3718 292.0444 217.4384 294.5771 189.505 C 294.8936 186.6482 295.6727 183.4739 295.6727 180.2997 C 295.9893 178.3951 295.9893 176.4906 295.9893 174.586 C 295.9893 173.6337 296.3059 172.2053 296.3059 170.9356 C 296.3059 169.9834 297.2557 155.3818 304.2206 155.3818 L 316.8036 155.3818 C 313.9375 161.625 313.8125 161.125 311.5021 170.6182 C 310.869 178.5538 310.2358 186.8069 309.6026 195.0599 C 308.3362 205.535 306.7533 217.7558 304.2206 228.5483 C 299.1552 252.3551 290.9239 277.1143 276.9941 301.5561 C 275.7277 303.4606 270.833 306 268.6169 306 C 263.8681 306 258.8027 300.6038 258.8027 296.1598 L 258.8027 175.3796 C 258.4861 172.8402 255.9534 170.6182 253.4207 170.6182 L 235.5211 170.6182 C 234.5714 170.3008 233.305 169.9834 232.6718 169.0311 C 226.9733 163 225.8776 154.2708 225.561 146.97 C 224.2946 115.545 217.0131 84.1199 204.3496 52.6948 L 204.3496 153.0011 C 204.3496 153.636 203.7164 154.2708 203.7164 155.2231 C 203.3999 160.3019 194.6814 169.3485 189.2994 169.9834 C 188.6662 169.9834 188.3496 170.6182 187.3998 170.6182 L 173.47 170.6182 C 172.5202 199.5039 167.4548 229.3418 157.9572 258.8624 C 155.7411 265.8457 152.8918 273.3052 149.7259 280.606 C 147.8264 285.05 144.9771 289.4939 143.3942 294.2553 C 141.1781 299.9689 135.6501 306 130.5847 306 C 124.8862 306 120.7705 299.9689 120.7705 296.1598 L 120.7705 175.0621 C 120.4539 172.8402 117.6047 170.6182 115.3885 170.6182 L 106.9866 170.6182 C 100.3383 170.3008 89.745 160.778 89.4284 154.1121 C 87.8454 120.465 81.8303 86.6593 67.5838 53.0122 L 67.5838 153.0011 C 67.2673 153.9534 66.9507 155.0644 66.6341 156.6515 C 65.6843 162.3651 56.016 170.6182 50.634 170.6182 L 35.9251 170.6182 C 32.7592 170.6182 30.8597 173.7924 30.8597 176.3318 L 30.8597 193.9489 C 29.2768 198.3929 25.965 200.2974 22.7991 200.2974 C 20.583 200.2974 15.6635 198.0755 15.6635 194.2664 L 15.6635 172.6815 C 15.3469 166.9678 24.2114 156.3341 30.8597 155.6992 C 31.1763 155.6992 31.9554 155.3818 32.9051 155.3818 L 47.0057 155.3818 C 49.5384 155.0644 52.0711 152.8424 52.3876 150.6204 L 52.3876 29.8402 C 53.0208 23.8091 57.453 20 62.2019 20 C 71.6995 20 75.3279 33.6493 78.4937 39.0455 Z" fill="#db2125"/>
		</g>
	</g>
</svg>