<svg xmlns="http://www.w3.org/2000/svg" width="565.377" height="204.593" viewBox="-183.535 -2.692 565.377 204.593"><path fill="#C52026" d="M199.21 112.06v-24.9h-19.72c-.9-5.8-2.384-11.393-4.45-16.718l17.05-9.85-12.456-21.57-17.02 9.835c-3.647-4.5-7.732-8.608-12.255-12.244l9.846-17.033L138.64 7.128l-9.852 17.06c-5.324-2.068-10.918-3.563-16.73-4.45V0H87.157v19.735c-5.788.887-11.38 2.396-16.708 4.45L60.6 7.127 39.03 19.58l9.825 17.034c-4.5 3.635-8.608 7.746-12.23 12.243l-17.047-9.835L7.125 60.577l17.07 9.862c-2.064 5.324-3.562 10.918-4.45 16.718H0v24.898h19.747c.886 5.8 2.383 11.395 4.45 16.72l-17.072 9.85 12.45 21.567 17.048-9.834c3.624 4.497 7.733 8.603 12.23 12.243l-9.823 17.03 21.57 12.45 9.85-17.06c5.324 2.067 10.918 3.554 16.706 4.45v19.732h24.9v-19.733c5.812-.896 11.404-2.382 16.728-4.45l9.852 17.06 21.568-12.448-9.85-17.03c4.52-3.642 8.606-7.747 12.26-12.26l17.02 9.84 12.45-21.56-17.05-9.85c2.067-5.326 3.55-10.92 4.452-16.723h19.722l.003.01zm-61.12-6.61L82.547 137.3c-7.472 4.28-13.53.775-13.53-7.844V65.913c0-8.61 6.058-12.123 13.53-7.836l55.54 31.852c7.475 4.284 7.475 11.232 0 15.52z"/><linearGradient id="a" gradientUnits="userSpaceOnUse" x1="182.132" y1="99.659" x2="379.397" y2="99.659"><stop offset="0" stop-color="#C52026" stop-opacity=".5"/><stop offset=".5" stop-color="#C52026" stop-opacity="0"/></linearGradient><path fill="url(#a)" d="M264.64 5.917l3.965 15.016.874 3.308 3.402-.35c2.578-.266 5.195-.4 7.777-.4 2.832 0 5.693.16 8.503.48l3.412.39.9-3.314 4.082-15.023 16.104 4.375-4.08 15.022-.9 3.315 3.142 1.39c5.014 2.22 9.756 4.97 14.097 8.17l2.76 2.037 2.432-2.417 11.02-10.944 11.762 11.843-11.007 10.92-2.435 2.417 2.016 2.775c3.15 4.337 5.883 9.103 8.118 14.166l1.38 3.126 3.302-.874 14.98-3.962 4.264 16.14-15.01 3.97-3.315.878.36 3.41c.562 5.292.533 10.772-.083 16.29l-.38 3.406 3.307.898 15.01 4.078-4.376 16.104-15.007-4.077-3.306-.897-1.395 3.128c-2.265 5.074-5.015 9.816-8.174 14.096l-2.036 2.76L342.52 150l10.936 11.016-11.84 11.753-10.91-11-2.41-2.43-2.773 2.004c-4.477 3.233-9.245 5.966-14.174 8.12l-3.144 1.375.88 3.314 3.97 14.99-16.14 4.26-3.968-15.016-.876-3.316-3.41.36c-2.52.266-5.098.4-7.67.4-2.838 0-5.742-.164-8.63-.488l-3.407-.383-.9 3.31-4.08 15.02-16.104-4.375 4.082-15.02.898-3.308-3.13-1.396c-5.057-2.254-9.794-5-14.082-8.165l-2.76-2.036-2.434 2.415-11.02 10.942-11.768-11.844 10.992-10.926 2.423-2.41-2-2.77c-3.2-4.433-5.926-9.196-8.097-14.157l-1.373-3.14-3.312.876-15.003 3.96-4.263-16.14 15.025-3.964 3.316-.875-.36-3.412c-.562-5.362-.534-10.842.087-16.284l.39-3.412-3.315-.9-15.033-4.085 4.375-16.105 15.034 4.085 3.316.9 1.39-3.14c2.217-5.003 4.964-9.743 8.166-14.087l2.033-2.76-2.414-2.432-10.95-11.035 11.84-11.756 10.938 11.006 2.412 2.428 2.772-2.01c4.396-3.186 9.157-5.915 14.147-8.11l3.128-1.376-.87-3.305-3.953-14.988 16.144-4.263m2.844-4.888l-23.877 6.305 4.97 18.854c-5.247 2.308-10.247 5.172-14.884 8.533L219.938 20.88 202.42 38.27l13.77 13.874c-3.36 4.56-6.246 9.52-8.602 14.84l-18.895-5.133-6.473 23.826 18.894 5.134c-.66 5.78-.682 11.52-.09 17.156l-18.894 4.984 6.307 23.875 18.87-4.98c2.295 5.247 5.16 10.246 8.518 14.896l-13.828 13.746 17.403 17.518 13.858-13.76c4.557 3.362 9.523 6.235 14.828 8.6l-5.13 18.883 23.825 6.474 5.13-18.88c3.044.34 6.073.513 9.078.513 2.717 0 5.414-.14 8.088-.423l4.988 18.88 23.878-6.3-4.996-18.86c5.273-2.306 10.25-5.174 14.914-8.544l13.73 13.84 17.52-17.39-13.755-13.855c3.366-4.56 6.236-9.525 8.608-14.84l18.867 5.125 6.473-23.824-18.868-5.126c.646-5.784.683-11.52.086-17.154l18.876-4.992-6.31-23.875-18.845 4.985c-2.318-5.252-5.158-10.247-8.54-14.9l13.848-13.74-17.4-17.52-13.857 13.763c-4.558-3.362-9.52-6.248-14.85-8.608l5.13-18.88-23.825-6.474L289.615 20c-2.997-.34-5.986-.507-8.957-.507-2.75 0-5.48.143-8.188.422L267.484 1.03z"/><g><linearGradient id="b" gradientUnits="userSpaceOnUse" x1="-179.868" y1="99.605" x2="17.398" y2="99.605"><stop offset=".5" stop-color="#C52026" stop-opacity="0"/><stop offset="1" stop-color="#C52026" stop-opacity=".5"/></linearGradient><path fill="url(#b)" d="M-97.362 5.863l3.966 15.016.874 3.307 3.404-.35c2.58-.267 5.195-.402 7.778-.402 2.833 0 5.694.162 8.503.482l3.412.39.9-3.315 4.082-15.023 16.104 4.374-4.08 15.02-.9 3.316 3.14 1.39c5.014 2.22 9.757 4.97 14.097 8.17l2.76 2.037 2.434-2.417 11.02-10.944L-8.107 38.76l-11.007 10.92-2.435 2.417 2.017 2.775c3.15 4.337 5.882 9.103 8.118 14.166l1.38 3.125 3.302-.874 14.978-3.963 4.265 16.14-15.01 3.97-3.316.876.36 3.41c.56 5.292.533 10.772-.082 16.29l-.38 3.406 3.307.897 15.007 4.078L8.02 132.5l-15.006-4.077-3.306-.897-1.396 3.128c-2.265 5.074-5.015 9.816-8.174 14.096l-2.037 2.76 2.418 2.435 10.936 11.017-11.84 11.753-10.912-11-2.41-2.43-2.772 2.005c-4.477 3.233-9.246 5.966-14.174 8.12l-3.143 1.375.878 3.315 3.972 14.99-16.14 4.26-3.967-15.016-.876-3.316-3.412.36c-2.517.266-5.097.4-7.667.4-2.838 0-5.743-.164-8.63-.488l-3.407-.383-.9 3.31-4.08 15.02-16.106-4.376 4.08-15.02.9-3.307-3.13-1.396c-5.056-2.255-9.794-5.002-14.082-8.166l-2.76-2.035-2.434 2.416-11.02 10.943-11.767-11.844 10.992-10.927 2.423-2.41-2-2.77c-3.202-4.433-5.926-9.196-8.097-14.157l-1.372-3.14-3.313.876-15.002 3.96-4.264-16.14 15.025-3.964 3.316-.875-.358-3.412c-.564-5.36-.536-10.84.085-16.283l.39-3.413-3.315-.9-15.034-4.085 4.375-16.106 15.034 4.085 3.315.9 1.39-3.14c2.217-5.004 4.964-9.744 8.166-14.088l2.034-2.76-2.415-2.432-10.952-11.035 11.84-11.755 10.938 11.006 2.413 2.428 2.77-2.01c4.398-3.186 9.158-5.915 14.15-8.11l3.127-1.376-.872-3.305-3.95-14.988 16.148-4.262m2.846-4.89l-23.877 6.307 4.97 18.854c-5.247 2.31-10.247 5.173-14.884 8.534l-13.755-13.842-17.517 17.39 13.77 13.874c-3.36 4.56-6.246 9.52-8.602 14.84l-18.895-5.133-6.473 23.825 18.894 5.134c-.66 5.78-.682 11.52-.09 17.156l-18.894 4.984 6.307 23.875 18.87-4.98c2.295 5.248 5.16 10.247 8.518 14.897l-13.828 13.745 17.403 17.518 13.858-13.76c4.557 3.362 9.523 6.235 14.828 8.6l-5.13 18.883 23.825 6.474 5.13-18.882c3.044.342 6.073.514 9.08.514 2.715 0 5.413-.142 8.086-.424l4.988 18.88 23.878-6.3-4.996-18.86c5.273-2.306 10.25-5.174 14.914-8.544l13.73 13.84 17.52-17.39-13.755-13.855c3.366-4.56 6.236-9.526 8.608-14.842l18.867 5.126 6.473-23.823-18.868-5.127c.646-5.784.683-11.52.086-17.154l18.876-4.992-6.31-23.875-18.845 4.984c-2.318-5.252-5.158-10.247-8.54-14.9L-2.45 38.78l-17.4-17.52-13.857 13.764c-4.56-3.363-9.52-6.25-14.852-8.61l5.13-18.88-23.824-6.474-5.13 18.883c-2.997-.34-5.986-.508-8.957-.508-2.75 0-5.482.143-8.19.422L-94.515.974z"/></g></svg>