<svg xmlns="http://www.w3.org/2000/svg" width="203.656" height="97.938" viewBox="6.116 66.754 203.656 97.938"><path d="M23.878 73.875c.748.697 1.69 1.044 2.825 1.044h89.54c1.135 0 2.114-.335 2.94-1.007.8-.85 1.197-1.87 1.197-3.057 0-1.134-.373-2.063-1.12-2.786-.452-.452-.937-.787-1.45-1.006-.494-.206-1.02-.31-1.567-.31h-89.54c-1.083 0-2 .413-2.747 1.24-.078.05-.142.102-.194.153-.773.67-1.148 1.574-1.122 2.708 0 1.135.4 2.116 1.2 2.94.026.003.038.03.038.08z" fill="#C52026"/><path d="M180.593 103.98h-13.97l10.254-36.915h-50.61c.41 1.147.617 2.41.617 3.792 0 2.915-.98 5.444-2.94 7.585-.076.026-.143.064-.19.116-2.114 1.91-4.62 2.864-7.508 2.864H52.9l-3.832 13.775H99.72c2.914 0 5.442 1.045 7.584 3.134l.038.04c2.012 1.908 3.02 4.385 3.02 7.43 0 2.914-.98 5.442-2.942 7.583-.077.026-.142.065-.193.116-2.114 1.908-4.617 2.863-7.506 2.863H43.19l-9.52 34.322h22.52c.254-4.074 1.866-7.607 4.838-10.604 0-.023.013-.038.04-.038 3.275-3.25 7.21-4.875 11.8-4.875 4.592 0 8.527 1.64 11.803 4.914 2.972 2.975 4.584 6.508 4.836 10.605h51.813c.25-4.074 1.864-7.607 4.838-10.604 0-.023.012-.038.036-.038 3.277-3.25 7.21-4.875 11.804-4.875 4.592 0 8.524 1.64 11.803 4.914 2.975 2.975 4.586 6.508 4.84 10.605h27.686l7.447-24.688-17.412-5.417-11.767-16.6zm-18.982 18.11l3.482-12.616h12.363l9.017 12.615h-24.86z" fill="#C52026"/><path d="M81.92 142.83c-2.528-2.53-5.545-3.793-9.054-3.793-3.56 0-6.59 1.25-9.093 3.753-2.224 2.226-3.462 4.854-3.715 7.896-.026.38-.04.77-.04 1.16 0 3.533 1.265 6.564 3.793 9.094 2.503 2.502 5.522 3.752 9.056 3.752 3.508 0 6.526-1.25 9.055-3.752 2.502-2.527 3.754-5.56 3.754-9.095 0-.393-.013-.778-.04-1.16-.253-3.015-1.49-5.634-3.713-7.856zm-4.1 13.968l-.04.04c-1.367 1.366-3.005 2.05-4.914 2.05-1.96 0-3.625-.684-4.992-2.05s-2.05-3.03-2.05-4.993c0-.396.03-.786.096-1.16.217-1.44.87-2.706 1.954-3.792 1.393-1.367 3.057-2.05 4.992-2.05s3.586.683 4.953 2.05c1.084 1.086 1.736 2.35 1.953 3.793.065.373.097.763.097 1.16 0 1.933-.683 3.586-2.05 4.952zM64.314 141.514l.04-.115-.04.036v.078zM60.445 141.436l.04-.04v-.037M102.66 108.855c.8-.852 1.2-1.87 1.2-3.057 0-1.135-.374-2.064-1.122-2.786-.878-.877-1.883-1.316-3.018-1.316H10.18c-1.083 0-2 .413-2.748 1.238-.077.052-.142.104-.193.155-.775.67-1.15 1.572-1.123 2.707 0 1.135.4 2.115 1.2 2.94.025 0 .04.026.04.078.747.696 1.688 1.044 2.824 1.044h89.54c1.135 0 2.115-.334 2.94-1.005zM149.443 141.514l.037-.115-.037.036v.078zM145.574 141.436l.037-.04v-.037M167.05 142.83c-2.528-2.53-5.547-3.793-9.056-3.793-3.56 0-6.592 1.25-9.094 3.753-2.226 2.226-3.46 4.854-3.715 7.896-.024.38-.04.77-.04 1.16 0 3.533 1.267 6.564 3.794 9.094 2.5 2.502 5.52 3.752 9.054 3.752 3.51 0 6.525-1.25 9.055-3.752 2.5-2.527 3.753-5.56 3.753-9.095 0-.393-.014-.778-.04-1.16-.254-3.015-1.492-5.634-3.714-7.856zm-4.103 13.968l-.04.04c-1.366 1.366-3.005 2.05-4.913 2.05-1.96 0-3.624-.684-4.99-2.05-1.367-1.368-2.052-3.03-2.052-4.993 0-.396.032-.786.097-1.16.216-1.44.868-2.706 1.953-3.792 1.394-1.367 3.058-2.05 4.99-2.05 1.937 0 3.588.683 4.954 2.05 1.085 1.086 1.736 2.35 1.953 3.793.064.373.098.763.098 1.16 0 1.933-.684 3.586-2.05 4.952z" fill="#C52026"/></svg>