<svg xmlns="http://www.w3.org/2000/svg" width="193.683" height="200.65" viewBox="15.398 11.3 193.683 200.65"><path fill="#C52026" d="M94.592 194.8h35.738l1.68-13.073H92.673M66.766 48.24c2.24-1.44 2.76-3.2 1.56-5.277L60.29 29.29c-1.04-2.318-2.918-2.838-5.638-1.56-2.478 1.84-2.8 3.6-.958 5.278l7.074 13.672c1.84 2.08 3.84 2.6 5.998 1.56zM104.545 208.59c2.24 2.24 4.84 3.36 7.795 3.36 3.12 0 5.838-1.12 8.157-3.36 2.24-2.477 3.6-5.476 4.078-8.994h-23.987c.318 3.518 1.638 6.517 3.957 8.995zM116.06 31.09V15.377c0-2.718-1.24-4.078-3.72-4.078-2.797 0-4.197 1.36-4.197 4.078v15.71c0 2.8 1.4 4.2 4.197 4.2 2.478 0 3.72-1.4 3.72-4.2zM169.07 27.73c-2.4-.878-4.118-.36-5.158 1.56l-7.915 13.673c-1.68 1.84-1.28 3.598 1.198 5.277 2.72 1.36 4.6.84 5.64-1.56l7.795-13.672c1.438-2.078.918-3.838-1.56-5.277zM112.34 56.995c-13.59 0-25.226 4.797-34.9 14.392-9.674 9.595-14.51 21.23-14.51 34.9 0 2.547.18 5.026.537 7.436.62 4.476 1.842 8.713 3.66 12.713 2.08 4.56 4.916 8.836 8.514 12.834.163.398.322.72.48.96.56.798 1.2 1.798 1.92 2.997 1.2 1.998 2.278 4 3.24 5.998.158.48.357.96.6 1.44.238.478.437.918.6 1.32 1.437 3.196 2.597 6.232 3.476 9.112l.72 2.76c.24.957.36 1.598.36 1.918l.12.72v10.194h50.612v-10.437l.12-.84c.08-.563.16-.922.238-1.08.08-.24.2-.76.36-1.56.16-.72.318-1.28.48-1.68.957-2.88 2.117-5.918 3.478-9.114.158-.4.357-.843.6-1.32.16-.478.357-.96.602-1.438.96-2.078 1.92-3.92 2.877-5.52.56-1.04 1.12-2.037 1.68-2.997.4-.562.64-.84.72-.84 3.84-4.16 6.838-8.638 8.995-13.435 1.77-4 2.968-8.238 3.6-12.713.32-2.41.48-4.89.48-7.436 0-13.67-4.878-25.305-14.633-34.9-9.677-9.588-21.35-14.385-35.025-14.385zm37.6 56.73c-.863 4.62-2.562 8.858-5.1 12.713-1.196 1.918-2.64 3.718-4.317 5.396-.396.56-.957 1.44-1.676 2.64-.724 1.04-1.52 2.197-2.398 3.478-1.522 2.88-3 5.997-4.44 9.355-.238.64-.52 1.278-.84 1.918l-.478 1.44c-1.04 2.32-1.96 4.717-2.76 7.196-.88 3.198-1.356 5.717-1.438 7.556H98.548c-.16-1.84-.72-4.357-1.677-7.555-.8-2.397-1.72-4.796-2.76-7.195-.158-.48-.317-.96-.48-1.44-.317-.56-.64-1.2-.957-1.918-1.28-3.12-2.88-6.314-4.797-9.596l-1.92-3.597-2.04-2.52c-1.437-1.6-2.717-3.318-3.836-5.156-2.577-3.893-4.317-8.13-5.22-12.713-.437-2.386-.657-4.866-.657-7.438 0-10.554 3.757-19.51 11.273-26.864 7.515-7.357 16.47-11.034 26.863-11.034 10.555 0 19.63 3.677 27.227 11.034 7.354 7.355 11.033 16.31 11.033 26.864 0 2.582-.22 5.06-.66 7.44zM35.224 78.224L21.67 70.548c-2.398-1.12-4.117-.6-5.155 1.56-1.76 1.6-1.44 3.317.958 5.156l13.673 7.557c2.08 1.2 3.958.76 5.636-1.32 1.44-2.08.92-3.838-1.558-5.276zM202.65 70.548l-13.072 7.676c-2.398 1.438-2.92 3.198-1.56 5.276 1.44 2.32 3.197 2.758 5.275 1.32l13.435-7.557c2.48-1.438 3-3.158 1.56-5.157-1.038-2.558-2.92-3.078-5.638-1.558z"/></svg>