<svg xmlns="http://www.w3.org/2000/svg" width="205.105" height="154.19" viewBox="9.492 39.459 205.105 154.19"><path d="M43.633 61.267c2.806-.8 5.328-2.257 7.565-4.374 2.23-2.113 6.027-4.626 11.386-7.54 10.82-6 19.794-8.866 26.92-8.597 5.84.22 11.932 2.75 18.27 7.59-14.442 6.636-24.38 11.915-29.808 15.835-2.916 1.945-5.263 4.44-7.038 7.49-1.777 3.218-2.665 6.704-2.665 10.457-.003 5.832 2.443 11.018 7.34 15.558 3.824 3.54 8.047 5.248 12.667 5.127 4.612-.125 8.817-1.324 12.617-3.594 8.947-4.324 14.93-7.155 17.946-8.496 3.217-1.475 6.483-1.508 9.802-.1 1.643.736 2.95 1.625 3.922 2.664 12.082 10.023 20.176 17.672 24.28 22.948 4.1 5.27 6.94 8.957 8.52 11.06l.023.022c1.645 1.802 2.463 3.93 2.463 6.386 0 2.58-.888 4.774-2.662 6.585-1.708 1.843-3.82 2.765-6.333 2.765-2.402 0-4.488-.846-6.26-2.538l-.176-.177c-4.058-4.104-6.736-6.76-8.042-7.967-1.31-1.207-2.03-1.51-2.162-.905-.13.608.396 1.797 1.583 3.57 1.182 1.768 2.57 3.51 4.172 5.227 1.604 1.72 2.44 2.616 2.516 2.69 1.39 2.233 2.05 4.496 1.983 6.787-.133 2.378-1.02 4.422-2.664 6.13-1.708 1.71-3.752 2.598-6.132 2.666-2.38.032-4.476-.754-6.284-2.363-4.36-4.498-6.592-6.793-6.688-6.886-3.053-3.055-5.03-4.46-5.932-4.223-.892.24-.548 1.27 1.03 3.092 1.57 1.826 3.08 3.494 4.524 5 1.442 1.5 2.188 2.28 2.235 2.34 1.607 1.807 2.41 3.977 2.41 6.508 0 2.548-.887 4.742-2.663 6.586-1.71 1.844-3.817 2.766-6.333 2.766-1.854 0-3.514-.52-4.977-1.56-.44-.462-.868-.905-1.282-1.33-3.63-3.82-5.967-6.243-7.015-7.266-1.842-1.812-3.233-2.808-4.17-2.99-.94-.187-.84.534.3 2.16 1.147 1.63 2.313 3.13 3.493 4.5 1.185 1.37 1.804 2.09 1.86 2.16.025.028.052.054.075.077 1.607 1.79 2.413 3.927 2.413 6.408 0 2.58-.89 4.774-2.664 6.586-1.775 1.845-3.92 2.766-6.435 2.766-1.574 0-3.006-.368-4.296-1.104.505-3.367.346-6.62-.48-9.753-.97-3.285-2.613-6.184-4.925-8.697-2.347-2.612-5.28-4.438-8.798-5.48-.87-3.72-2.582-7.02-5.128-9.9-2.447-2.55-5.26-4.325-8.444-5.33-.837-3.417-2.48-6.4-4.927-8.945-2.312-2.515-5.094-4.29-8.344-5.33-.973-3.52-2.615-6.535-4.927-9.05-3.988-4.22-9.065-6.298-15.23-6.23-6.2.067-11.48 2.23-15.836 6.484-2.48 2.513-4.39 5.662-5.73 9.45-3.486-1.51-7.155-2.85-11.01-4.022 1.58-25.195 1.58-49.76 0-73.694l20.41 7.39c6.358 2.536 10.933 3.408 13.736 2.61zm33.077 20.56c0-2.615.736-4.994 2.21-7.14 1.442-2.01 3.302-3.468 5.582-4.372 5.898-3.72 14.192-8.697 24.883-14.93 10.188-6 18.098-10.524 23.727-13.573 3.486-1.876 6.535-2.63 9.148-2.262 3.047.405 7.303 3.313 12.77 8.72 5.475 5.403 12.746 11.042 21.816 16.917 2.146.67 3.987.872 5.53.604 5.192-.77 15.935-3.2 32.222-7.288-1.572 21.448-1.572 42.896 0 64.344-8.914 1.844-14.26 2.883-16.037 3.116-4.823.67-7.32 1.005-7.487 1.005-4.09-.066-7.456-1.408-10.104-4.02-12.32-16.77-26.864-31.63-43.634-44.587-1.006-.972-2.38-1.76-4.123-2.363-3.548-1.176-8.5.273-14.854 4.35-6.366 4.085-12.517 7.545-18.45 10.38-5.922 2.83-10.162 3.994-12.716 3.493-2.563-.495-4.95-1.844-7.164-4.046-2.215-2.212-3.32-4.994-3.32-8.348zm16.84 88.17c2.38 2.446 3.418 5.446 3.117 9-.167 3.618-1.593 6.735-4.273 9.35-2.782 2.747-6.3 4.44-10.557 5.076-4.558.704-7.943-.233-10.154-2.813-2.112-2.446-3.083-4.775-2.916-6.987.033-.904.67-2.98 1.91-6.23-2.85.902-5.144 1.27-6.887 1.103-2.58-.234-4.792-1.49-6.635-3.77-1.81-2.28-2.68-4.392-2.614-6.335 0-.637.437-2.497 1.308-5.58-3.184.704-5.245 1.022-6.183.954-2.38-.166-4.474-1.457-6.284-3.87-1.842-2.378-2.73-4.522-2.663-6.435 0-.335.452-2.178 1.357-5.53-3.217.737-5.245 1.073-6.083 1.006-2.244-.135-4.406-1.408-6.483-3.82-2.18-2.613-2.765-6.016-1.76-10.203.94-3.787 2.833-7.122 5.68-10.003 2.682-2.615 5.765-3.988 9.25-4.123 3.486-.067 6.4 1.14 8.747 3.62 2.916 3.218 3.737 7.154 2.463 11.813 4.658-1.07 8.428-.066 11.31 3.018 2.983 3.05 3.82 7.004 2.515 11.863 2.077-.47 4.122-.504 6.132-.1 2.045.535 3.787 1.558 5.228 3.063 1.608 1.71 2.598 3.754 2.966 6.133.335 2.313.05 4.658-.855 7.037 2.28-.77 4.508-.938 6.686-.502 2.245.502 4.14 1.593 5.68 3.268z" fill="#C52026"/></svg>