<?xml version="1.0" encoding="utf-8"?>
<!-- Generator: Adobe Illustrator 16.0.0, SVG Export Plug-In . SVG Version: 6.00 Build 0)  -->
<!DOCTYPE svg PUBLIC "-//W3C//DTD SVG 1.1//EN" "http://www.w3.org/Graphics/SVG/1.1/DTD/svg11.dtd">
<svg version="1.1" id="Layer_1"
	xmlns="http://www.w3.org/2000/svg"
	xmlns:xlink="http://www.w3.org/1999/xlink" x="0px" y="0px" width="155.15px" height="174.6px" viewBox="15.552 -31.589 155.15 174.6" enable-background="new 15.552 -31.589 155.15 174.6" xml:space="preserve">
	<path fill="#F72432" d="M21.065,77.612c-1.033-0.434-2.05-0.417-3.05,0.05c-1.033,0.433-1.75,1.167-2.15,2.2
	c-0.434,1-0.417,2.016,0.05,3.05c0.434,1,1.167,1.716,2.2,2.149l9.7,3.801l-8.6,4.949c-0.934,0.533-1.55,1.334-1.85,2.4
	c-0.3,1.066-0.167,2.084,0.4,3.05c0.533,0.967,1.333,1.583,2.4,1.851c1.067,0.3,2.083,0.184,3.05-0.351l8.6-4.899l-1.65,10.199
	c-0.167,1.101,0.067,2.101,0.7,3c0.667,0.9,1.55,1.434,2.65,1.601c1.067,0.167,2.05-0.067,2.95-0.7c0.9-0.633,1.433-1.5,1.6-2.6
	l2.65-16.601l9.45-5.399l-3.3,19.25c-0.167,1.066,0.066,2.05,0.7,2.949c0.633,0.9,1.5,1.45,2.6,1.65
	c1.067,0.166,2.05-0.066,2.95-0.7s1.45-1.483,1.65-2.55l4.4-25.75l8.9-5.05c0.733,0.899,1.55,1.8,2.45,2.7
	c5.2,5.199,11.317,8.217,18.35,9.05l0.05,10.75l-20.15,16.649c-0.833,0.7-1.3,1.601-1.4,2.7c-0.133,1.067,0.167,2.034,0.9,2.9
	c0.7,0.833,1.6,1.316,2.7,1.45c1.066,0.1,2.033-0.2,2.9-0.9l15.1-12.5l0.05,10.9l-13.1,10.6c-0.867,0.7-1.35,1.6-1.45,2.7
	c-0.133,1.066,0.15,2.033,0.85,2.899c0.7,0.867,1.6,1.367,2.7,1.5c1.067,0.101,2.05-0.199,2.95-0.899l8.1-6.55v9.949
	c0,1.101,0.4,2.033,1.2,2.801c0.8,0.766,1.75,1.149,2.85,1.149s2.033-0.399,2.8-1.2c0.766-0.8,1.149-1.732,1.149-2.8l-0.05-9.95
	l8.2,6.551c0.866,0.666,1.85,0.949,2.95,0.85c1.1-0.133,2-0.633,2.699-1.5c0.667-0.867,0.95-1.85,0.851-2.95
	c-0.134-1.1-0.634-1.983-1.5-2.649l-13.25-10.551l-0.05-10.85l15.199,12.3c0.834,0.7,1.801,1,2.9,0.9c1.1-0.134,2-0.616,2.7-1.45
	c0.7-0.867,1-1.85,0.899-2.95c-0.133-1.1-0.616-2-1.449-2.7l-20.25-16.449l-0.051-10.7c7.033-0.833,13.167-3.851,18.4-9.05
	c0.767-0.801,1.5-1.617,2.2-2.45l9.649,5.55l4.351,25.75c0.2,1.066,0.75,1.916,1.649,2.55c0.9,0.634,1.9,0.866,3,0.7
	c1.066-0.2,1.917-0.75,2.551-1.65c0.633-0.899,0.866-1.883,0.699-2.949l-3.25-19.25l9.4,5.35l2.65,16.65
	c0.166,1.066,0.699,1.934,1.6,2.6c0.9,0.633,1.9,0.867,3,0.7c1.066-0.167,1.934-0.7,2.6-1.601c0.634-0.899,0.867-1.883,0.7-2.949
	l-1.649-10.301l8.649,4.95c0.934,0.534,1.934,0.65,3,0.351c1.067-0.301,1.884-0.917,2.45-1.851c0.533-0.966,0.65-1.983,0.35-3.05
	c-0.3-1.066-0.916-1.867-1.85-2.4l-8.6-4.899l9.75-3.851c1-0.434,1.732-1.149,2.199-2.149c0.434-1.034,0.45-2.05,0.051-3.05
	c-0.434-1.033-1.15-1.768-2.15-2.2c-1.033-0.467-2.05-0.483-3.05-0.05l-15.75,6.199l-9.45-5.399l18.3-7c1-0.4,1.733-1.101,2.2-2.101
	c0.434-1.033,0.467-2.05,0.1-3.05c-0.399-1.033-1.1-1.783-2.1-2.25c-1.033-0.433-2.05-0.45-3.05-0.05l-24.4,9.3l-9.35-5.35
	c1.866-4.034,2.8-8.434,2.8-13.2c0-0.033,0-0.067,0-0.1c0-4.333-0.767-8.333-2.3-12l8.75-5.1l24.45,9.05
	c1.033,0.367,2.05,0.333,3.05-0.1c1-0.467,1.7-1.217,2.1-2.25c0.366-1.033,0.333-2.05-0.1-3.05c-0.467-1-1.217-1.7-2.25-2.1
	l-18.351-6.8l9.45-5.5l15.75,6.05c1,0.367,2.017,0.333,3.05-0.1c1-0.467,1.7-1.2,2.101-2.2c0.366-1.033,0.333-2.05-0.101-3.05
	c-0.467-1.033-1.199-1.733-2.199-2.1l-9.75-3.75l8.6-5c0.934-0.566,1.55-1.367,1.85-2.4c0.268-1.067,0.117-2.083-0.449-3.05
	c-0.566-0.967-1.367-1.583-2.4-1.85c-1.1-0.3-2.117-0.167-3.05,0.4l-8.601,5.05l1.5-10.4c0.167-1.1-0.083-2.083-0.75-2.95
	c-0.666-0.9-1.533-1.434-2.6-1.6c-1.1-0.167-2.084,0.083-2.95,0.75c-0.899,0.667-1.433,1.55-1.6,2.65l-2.45,16.65l-9.4,5.5
	l3.101-19.3c0.167-1.067-0.067-2.05-0.7-2.95c-0.633-0.933-1.5-1.483-2.6-1.65c-1.101-0.167-2.084,0.067-2.95,0.7
	c-0.9,0.633-1.45,1.5-1.65,2.6l-4.149,25.8l-8.75,5.1c-0.867-1.133-1.834-2.233-2.9-3.3c-5.233-5.233-11.367-8.25-18.4-9.05v-10.25
	l20.2-16.55c0.833-0.7,1.317-1.6,1.45-2.7c0.1-1.1-0.2-2.067-0.9-2.9c-0.699-0.867-1.6-1.35-2.699-1.45
	c-1.101-0.133-2.084,0.167-2.95,0.9L96.865,3.461v-10.85l13.2-10.6c0.833-0.7,1.317-1.583,1.45-2.65c0.1-1.1-0.2-2.083-0.9-2.95
	c-0.699-0.867-1.583-1.35-2.649-1.45c-1.101-0.133-2.083,0.15-2.95,0.85l-8.15,6.55v-9.95c0-1.1-0.383-2.034-1.149-2.8
	c-0.8-0.8-1.75-1.2-2.85-1.2s-2.033,0.4-2.8,1.2c-0.8,0.767-1.2,1.7-1.2,2.8v9.9l-8.15-6.5c-0.867-0.7-1.833-0.983-2.9-0.85
	c-1.1,0.1-2,0.583-2.7,1.45c-0.7,0.867-0.983,1.85-0.85,2.95c0.1,1.067,0.583,1.967,1.45,2.7l13.15,10.55v10.85l-15.1-12.4
	c-0.867-0.7-1.85-0.983-2.95-0.85c-1.1,0.1-2,0.583-2.7,1.45c-0.7,0.833-0.983,1.8-0.85,2.9c0.1,1.1,0.583,2,1.45,2.7l20.15,16.55
	v10.25c-7.033,0.8-13.15,3.816-18.35,9.05c-0.867,0.833-1.667,1.7-2.4,2.6l-8.8-5.1l-4.15-25.8c-0.167-1.1-0.7-1.967-1.6-2.6
	c-0.9-0.667-1.883-0.917-2.95-0.75c-1.1,0.167-1.967,0.7-2.6,1.6c-0.667,0.9-0.917,1.9-0.75,3l3.1,19.3l-9.35-5.45l-2.5-16.75
	c-0.167-1.1-0.683-1.967-1.55-2.6c-0.9-0.667-1.9-0.917-3-0.75c-1.1,0.167-1.967,0.7-2.6,1.6c-0.667,0.867-0.917,1.85-0.75,2.95
	l1.55,10.35l-8.6-5c-0.966-0.567-1.983-0.7-3.05-0.4c-1.067,0.267-1.883,0.883-2.45,1.85c-0.566,0.966-0.7,1.983-0.4,3.05
	c0.267,1.033,0.883,1.833,1.85,2.4l8.55,5l-9.7,3.7c-1.033,0.4-1.783,1.117-2.25,2.15c-0.434,1-0.45,2.017-0.05,3.05
	c0.367,1,1.067,1.733,2.1,2.2c1,0.467,2.017,0.5,3.05,0.1l15.8-6l9.35,5.45l-18.35,6.8c-1.033,0.4-1.783,1.1-2.25,2.1
	s-0.5,2.017-0.1,3.05s1.1,1.783,2.1,2.25s2.017,0.5,3.05,0.1l24.5-9.1l8.65,5.05c-1.8,3.9-2.717,8.184-2.75,12.85
	c0,0.033,0,0.067,0,0.1c0,4.633,0.883,8.916,2.65,12.85l-8.65,4.95l-24.4-9.3c-1.033-0.4-2.05-0.383-3.05,0.05
	c-1.033,0.467-1.733,1.217-2.1,2.25c-0.4,1-0.383,2.017,0.05,3.05c0.466,1,1.216,1.7,2.25,2.101l18.25,7l-9.45,5.399L21.065,77.612z
	 M69.215,55.361c0-4.433,1.083-8.417,3.25-11.95c0.066-0.1,0.15-0.2,0.25-0.3c0.933-1.566,2.083-3.017,3.45-4.35
	c4.567-4.6,10.1-6.917,16.6-6.95h0.2c6.5,0.033,12.05,2.35,16.649,6.95c1.5,1.467,2.75,3.05,3.75,4.75c0.033,0.1,0.084,0.2,0.15,0.3
	l0.05,0.05c1.967,3.4,2.95,7.233,2.95,11.5c0,0.033,0,0.067,0,0.1c0,6.5-2.3,12.084-6.9,16.75c-4.633,4.6-10.217,6.9-16.75,6.9
	c-6.533,0-12.1-2.301-16.7-6.9c-1.4-1.4-2.55-2.85-3.45-4.35l-0.1-0.101c-0.033-0.033-0.05-0.066-0.05-0.1
	c-2.233-3.634-3.35-7.7-3.35-12.2V55.361z"/>
</svg>
