<svg xmlns="http://www.w3.org/2000/svg" width="249.601" height="166.05" viewBox="-31.25 -28.001 249.601 166.05"><path fill-rule="evenodd" clip-rule="evenodd" fill="#C52026" d="M31.05 34.1c-.166-.1-.35-.134-.55-.1-.2.066-.35.2-.45.4l-8.3 15.55c-.733.066-1.4.35-2 .85-.633.466-1.116 1.1-1.45 1.9-.5 1.2-.566 2.432-.2 3.7.4 1.266 1.117 2.2 2.15 2.8 1.067.6 2.15.683 3.25.25 1.1-.4 1.917-1.234 2.45-2.5.367-.768.517-1.568.45-2.4-.067-.868-.283-1.65-.65-2.35l5.6-17.05c.067-.2.067-.384 0-.55-.032-.2-.133-.367-.3-.5z"/><path fill-rule="evenodd" clip-rule="evenodd" fill="#C52026" d="M22.3 19.05c-8.633 0-16.017 3.5-22.15 10.5C-5.95 36.583-9 45.05-9 54.95c0 9.933 3.05 18.4 9.15 25.4C6.25 87.382 13.634 90.9 22.3 90.9c8.6 0 15.967-3.517 22.1-10.55 6.134-7.033 9.2-15.5 9.2-25.4 0-9.9-3.066-18.367-9.2-25.4-6.1-7-13.466-10.5-22.1-10.5zM46.25 56.7c-.333 6.866-2.667 12.782-7 17.75S29.767 82.1 23.8 82.5l-1.5-6.6-1.55 6.6c-.866-.067-1.7-.168-2.5-.3-3.5-.667-6.7-2.167-9.6-4.5-1.167-.935-2.283-2.018-3.35-3.25-4.334-4.968-6.667-10.884-7-17.75l5.75-1.75-5.75-1.8c.333-6.834 2.65-12.734 6.95-17.7h.05c4.334-4.934 9.467-7.618 15.4-8.05l1.6 6.7 1.55-6.7c5.968.432 11.1 3.116 15.4 8.05 4.333 4.966 6.667 10.866 7 17.7l-5.75 1.8 5.75 1.75z"/><path fill-rule="evenodd" clip-rule="evenodd" fill="#C52026" d="M-14.7 119.6H12v18.45h147.8v-34.3h58.55v-8H142.5V14.3h75.85v-8H159.8V-28H12v18.5h-26.7V6.3h-16.55v97.45h16.55v15.85zm8-8v-7.85h92v7.85h-92zM112 130.05H20V119.6h92v10.45zM20-20h92v10.5H20V-20zM-6.7-1.5h92v7.8h-92v-7.8zm-16.55 97.25V14.3h92v81.45h-92z"/></svg>