<svg xmlns="http://www.w3.org/2000/svg" width="135.05" height="93.05" viewBox="25.95 9.949 135.05 93.05"><path fill-rule="evenodd" clip-rule="evenodd" fill="#C52026" d="M84.85 64.25l-5.2-5.2L71 67.7v18.75l13.85 13.8M68.5 89.2H42.45L28.6 103h53.75M25.95 100.05L39.8 86.4V67.65l-8.65-8.8-5.2 5.35M33.8 56.45l6.9 6.95h29.5l6.95-6.95-6.95-6.9H40.7M25.95 48.4l5.2 5.3 8.65-8.8V26.2L25.95 12.5M28.6 9.95l13.85 13.8H68.5l13.85-13.8M144.55 23.75l13.85-13.8h-53.7l13.8 13.8M146.3 63.4l6.95-6.95-6.95-6.9h-29.5l-6.95 6.9 6.95 6.95M102 48.4l5.2 5.3 8.65-8.8V26.2L102 12.5M161 12.5l-13.85 13.7v18.7l8.65 8.8 5.2-5.3M160.95 64.25l-5.2-5.2-8.65 8.65v18.75l13.85 13.8M84.9 12.5L71.05 26.2v18.7l8.65 8.8 5.2-5.3M115.85 67.65l-8.65-8.8-5.2 5.35v35.85l13.85-13.65M144.6 89.2h-26.1L104.7 103h53.7"/></svg>