<svg xmlns="http://www.w3.org/2000/svg" width="155" height="155" viewBox="15.651 -21.401 155 155"><path fill-rule="evenodd" clip-rule="evenodd" fill="#C52026" d="M114.85 11.15c-.433-.233-.883-.317-1.35-.25-.5.167-.884.467-1.15.9L91.8 45.3c-1.766.167-3.4.767-4.9 1.8-1.566 1.034-2.75 2.4-3.55 4.1-1.266 2.6-1.45 5.267-.55 8 .967 2.767 2.75 4.783 5.35 6.05 2.634 1.3 5.3 1.483 8 .55 2.768-.9 4.817-2.683 6.15-5.35.834-1.666 1.167-3.416 1-5.25-.1-1.833-.633-3.5-1.6-5l13.95-36.8c.134-.434.134-.85 0-1.25-.133-.434-.4-.767-.8-1z"/><path fill-rule="evenodd" clip-rule="evenodd" fill="#C52026" d="M147.95 110.85c15.133-15.134 22.7-33.384 22.7-54.75 0-21.4-7.567-39.667-22.7-54.8s-33.4-22.7-54.8-22.7c-21.367 0-39.634 7.567-54.8 22.7-15.133 15.167-22.7 33.433-22.7 54.8 0 21.4 7.566 39.666 22.7 54.8s33.4 22.7 54.8 22.7c21.366 0 39.616-7.566 54.75-22.7l.05-.05zm-51 4.65l-3.8-14.2-3.8 14.2c-2.1-.134-4.167-.35-6.2-.65-8.667-1.4-16.583-4.617-23.75-9.65-2.9-2.066-5.667-4.416-8.3-7.05C40.367 87.416 34.584 74.666 33.75 59.9l14.3-3.85-14.3-3.8c.867-14.767 6.634-27.5 17.3-38.2l.05-.05C61.8 3.333 74.534-2.434 89.3-3.3l3.85 14.4L97-3.3c14.767.866 27.5 6.65 38.2 17.35s16.483 23.432 17.35 38.2l-14.3 3.798 14.3 3.85c-.833 14.768-6.616 27.518-17.35 38.25s-23.483 16.518-38.25 17.352z"/></svg>