<?xml version="1.0" standalone="no"?>
<!-- Generator: Adobe Fireworks 10, Export SVG Extension by Aaron Beall (http://fireworks.abeall.com) . Version: 0.6.1  -->
<!DOCTYPE svg PUBLIC "-//W3C//DTD SVG 1.1//EN" "http://www.w3.org/Graphics/SVG/1.1/DTD/svg11.dtd">
<svg id="Page%201%20Copy%2023-Page%201%20Copy%2023" viewBox="0 0 320 320" style="background-color:#ffffff" version="1.1"
	xmlns="http://www.w3.org/2000/svg"
	xmlns:xlink="http://www.w3.org/1999/xlink" xml:space="preserve" x="0px" y="0px" width="320px" height="320px">
	<g id="Layer%201">
		<g id="automation-converters_">
			<path d="M 215.3778 70.6175 L 215.3778 85.6031 L 223.8203 85.6031 L 223.8203 71.0608 C 223.8203 70.1156 223.8487 69.376 223.9074 68.844 C 223.9074 68.312 223.966 67.5441 224.0869 66.5386 C 224.2664 65.5348 224.501 64.735 224.7961 64.1444 C 225.0929 63.5521 225.5372 63.02 226.1291 62.5483 C 226.7227 62.0163 227.4621 61.7502 228.3508 61.7502 C 229.6554 61.7502 230.6311 62.2521 231.2834 63.2595 C 231.9944 64.4406 232.3499 66.7159 232.3499 70.0872 L 232.3499 85.6048 L 240.7923 85.6048 L 240.7923 67.161 C 240.7923 59.0635 237.6535 55.0129 231.3741 55.0129 C 229.6554 55.0129 228.0238 55.4261 226.4863 56.2543 C 224.8867 57.0826 223.6408 58.2051 222.7521 59.6221 C 220.8556 56.5487 218.0119 55.0112 214.2207 55.0112 C 211.0784 55.0112 208.6505 56.2242 206.9336 58.6467 L 206.8429 58.6467 L 206.8429 55.9866 L 198.4004 55.9866 L 198.4004 85.6031 L 206.8429 85.6031 L 206.8429 71.0608 C 206.8429 71.0023 206.8429 70.8551 206.8429 70.6175 C 206.8429 69.4364 206.8731 68.4893 206.9336 67.78 C 206.9922 67.0706 207.138 66.1839 207.3779 65.1198 C 207.6143 63.9954 208.0871 63.1672 208.798 62.637 C 209.4503 62.0464 210.3106 61.7502 211.377 61.7502 C 212.1466 61.7502 212.7971 61.9577 213.3321 62.3727 C 213.924 62.786 214.3381 63.2595 214.5744 63.7915 C 214.8126 64.265 215.0188 64.9424 215.1983 65.8292 C 215.3156 66.7159 215.3778 67.3969 215.3778 67.8687 C 215.3778 68.4007 215.3778 69.11 215.3778 69.9968 C 215.3778 70.2929 215.3778 70.5004 215.3778 70.6175 L 215.3778 70.6175 Z" fill="#F72432"/>
			<path d="M 258.9232 68.7554 L 263.898 52.2623 L 264.0775 52.2623 L 269.7651 68.7554 L 258.9232 68.7554 L 258.9232 68.7554 ZM 261.0543 38.9633 L 243.2806 85.6048 L 252.6118 85.6048 L 256.3442 76.0283 L 272.2534 76.0283 L 275.7175 85.6048 L 285.2264 85.6048 L 267.8971 38.9633 L 261.0543 38.9633 L 261.0543 38.9633 Z" fill="#F72432"/>
			<path d="M 105.1796 265.5191 C 101.7422 267.7679 99.0761 270.7526 97.1815 274.4768 C 95.3437 278.1407 94.4266 282.131 94.4266 286.4475 C 94.4266 292.8319 96.5896 298.3598 100.9139 303.0292 C 105.1796 307.6987 110.453 310.0326 116.7325 310.0326 C 119.8126 310.0326 123.2785 309.1175 127.13 307.2855 L 127.13 296.7318 C 125.8272 298.1523 124.2578 299.305 122.42 300.1917 C 120.6427 301.0784 118.8351 301.5218 116.9991 301.5218 C 113.0302 301.5218 109.8007 300.0144 107.3124 296.9977 C 104.8828 293.8659 103.6688 290.2888 103.6688 286.2702 C 103.6688 282.0725 104.8828 278.4067 107.3124 275.273 C 109.7421 272.1412 113 270.5734 117.0879 270.5734 C 121.1172 270.5734 124.464 272.1695 127.13 275.3635 L 127.13 264.8098 C 123.8721 263.0363 120.4649 262.1496 116.9102 262.1496 C 112.6445 262.1496 108.7343 263.2757 105.1796 265.5191 L 105.1796 265.5191 Z" fill="#F72432"/>
			<path d="M 261.1449 184.4744 C 257.9438 198.1868 251.9915 210.7498 243.2806 222.1601 C 240.2609 226.0014 236.971 229.7558 233.4163 233.4215 L 231.2834 238.3889 L 231.1946 238.4758 L 233.3274 233.5119 C 218.3371 248.4054 201.0967 257.8348 181.6062 261.7966 L 181.6062 242.1983 L 134.9504 278.5539 L 181.6062 315 L 181.6062 294.162 C 209.8645 289.9643 234.6604 277.2558 255.9888 256.0329 C 266.4148 245.5696 274.7986 234.2763 281.1384 222.1601 C 286.5878 211.6968 290.5283 200.6128 292.9561 188.908 L 273.1403 206.8198 L 261.1449 184.4744 L 261.1449 184.4744 Z" fill="#F72432"/>
			<path d="M 293.4911 109.988 L 283.2713 140.6686 L 283.1824 140.6686 L 272.2516 109.988 L 262.6556 109.988 L 280.072 156.7182 L 285.317 156.7182 L 303 109.988 L 293.4911 109.988 Z" fill="#F72432"/>
			<path d="M 57.6352 140.4043 C 61.2485 120.0682 70.8179 102.1848 86.3396 86.7576 C 100.7362 72.3909 117.207 63.1105 135.7502 58.9145 L 135.7502 77.7999 L 182.406 41.4443 L 135.7502 5 L 135.7502 26.37 C 108.4375 30.9225 84.4431 43.5139 63.7671 64.1462 L 61.6342 69.1118 L 61.5454 69.2005 L 63.6782 64.2348 C 41.3421 86.4614 28.4278 112.6499 24.9317 142.7984 L 47.7708 122.0492 L 57.6352 140.4043 L 57.6352 140.4043 Z" fill="#F72432"/>
			<path d="M 33.6408 186.6912 L 38.6174 170.1964 L 38.7951 170.1964 L 44.4827 186.6912 L 33.6408 186.6912 L 33.6408 186.6912 ZM 50.4369 203.539 L 59.9458 203.539 L 42.6165 156.8974 L 35.7736 156.8974 L 18 203.539 L 27.3312 203.539 L 31.0636 193.9624 L 46.971 193.9624 L 50.4369 203.539 L 50.4369 203.539 Z" fill="#F72432"/>
			<path d="M 61.2788 262.24 L 61.2788 262.24 Z" fill="#F72432"/>
			<path d="M 84.8288 274.6541 C 83.8815 275.5994 82.7244 276.0746 81.3629 276.0746 C 80.0015 276.0746 78.816 275.6313 77.8082 274.7446 C 76.8609 273.7957 76.3579 272.6147 76.2975 271.1977 C 76.2975 269.7771 76.772 268.596 77.7194 267.6508 C 78.6667 266.702 79.8237 266.2303 81.1852 266.2303 C 82.5467 266.2303 83.7322 266.702 84.74 267.6508 C 85.7459 268.596 86.2507 269.7771 86.2507 271.1977 C 86.2507 272.5544 85.7761 273.7071 84.8288 274.6541 L 84.8288 274.6541 ZM 81.2741 262.1496 C 78.7858 262.1496 76.6227 263.0363 74.7867 264.8098 C 73.0093 266.5247 72.1509 268.6546 72.2095 271.1977 C 72.2095 273.6769 73.0982 275.8087 74.8756 277.5821 C 76.6529 279.3555 78.7858 280.2422 81.2741 280.2422 C 83.7624 280.2422 85.8952 279.3555 87.6726 277.5821 C 89.4499 275.8087 90.3386 273.6787 90.3386 271.1977 C 90.3386 268.6546 89.4499 266.5247 87.6726 264.8098 C 85.8952 263.0363 83.7624 262.1496 81.2741 262.1496 L 81.2741 262.1496 Z" fill="#F72432"/>
		</g>
		<path d="M 74.8756 219.9416 L 64.6557 250.6222 L 64.5669 250.6222 L 53.6361 219.9416 L 44.0401 219.9416 L 61.4565 266.6718 L 66.7015 266.6718 L 84.3845 219.9416 L 74.8756 219.9416 Z" fill="#F72432"/>
	</g>
</svg>
