<svg xmlns="http://www.w3.org/2000/svg" width="478.248" height="478.249" viewBox="-146.227 -182.981 478.248 478.249"><path fill="#C52026" d="M-146.227-182.98H332.02v478.248h-478.247z"/><path fill="#FFF" d="M206.863-57.826c-9.393-9.392-20.705-14.088-33.927-14.088H12.86c-13.222 0-24.534 4.696-33.93 14.088-9.393 9.396-14.09 20.707-14.09 33.928v160.082c0 13.222 4.697 24.534 14.09 33.927 9.396 9.395 20.708 14.09 33.93 14.09h160.076c13.222 0 24.534-4.695 33.927-14.09 9.394-9.392 14.09-20.704 14.09-33.926V-23.898c0-13.22-4.697-24.532-14.09-33.928zm-32.27 180.318c-2.337 5.117-7.583 9.564-15.758 13.343-8.164 3.788-15.42 5.676-21.754 5.676-1.778 0-3.678-.14-5.676-.42-2-.28-3.688-.55-5.076-.83-1.39-.277-3.23-.777-5.508-1.498-2.277-.73-3.916-1.28-4.915-1.67-1-.388-2.84-1.088-5.506-2.077-2.67-1.01-4.34-1.618-4.998-1.838-18.227-6.677-36.044-18.708-53.44-36.096-17.4-17.408-29.43-35.215-36.108-53.444-.22-.67-.828-2.338-1.827-5.005-1-2.668-1.7-4.498-2.09-5.498-.378-1-.938-2.64-1.657-4.917-.73-2.287-1.23-4.116-1.51-5.507-.272-1.39-.55-3.087-.83-5.084-.28-2-.418-3.89-.418-5.667 0-6.336 1.897-13.59 5.674-21.766 3.778-8.162 8.225-13.42 13.342-15.747 5.885-2.448 11.5-3.68 16.837-3.68 1.22 0 2.108.12 2.67.34.56.22 1.467 1.22 2.746 2.998 1.28 1.78 2.67 4.028 4.168 6.758 1.51 2.728 2.978 5.366 4.43 7.923 1.437 2.55 2.825 5.08 4.167 7.586 1.328 2.5 2.166 4.087 2.497 4.745.33.562 1.058 1.61 2.168 3.17 1.11 1.56 1.95 2.948 2.497 4.17.56 1.227.842 2.387.842 3.505 0 1.668-1.143 3.696-3.417 6.087-2.29 2.387-4.788 4.586-7.508 6.584-2.727 2-5.226 4.147-7.506 6.416-2.277 2.277-3.415 4.147-3.415 5.585 0 .78.188 1.697.578 2.757.39 1.06.75 1.92 1.088 2.58.332.67.86 1.62 1.58 2.84.72 1.228 1.2 1.996 1.42 2.338 6.114 11 13.14 20.477 21.096 28.43 7.943 7.946 17.416 14.98 28.428 21.097.33.22 1.11.688 2.34 1.42 1.22.718 2.167 1.237 2.827 1.578.67.328 1.53.688 2.59 1.078 1.06.39 1.967.59 2.757.59 1.77 0 4.217-1.84 7.335-5.506 3.108-3.668 6.276-7.315 9.504-10.923 3.22-3.607 5.826-5.417 7.834-5.417 1.108 0 2.278.28 3.51.83 1.218.56 2.606 1.39 4.164 2.51 1.55 1.107 2.61 1.828 3.17 2.167l8.833 4.828c5.886 3.116 10.803 5.863 14.76 8.254 3.937 2.395 6.086 4.026 6.416 4.914.22.56.33 1.448.33 2.67 0 5.336-1.23 10.953-3.68 16.828zm0 0"/></svg>