<svg xmlns="http://www.w3.org/2000/svg" width="478.248" height="478.249" viewBox="-146.227 -182.981 478.248 478.249"><path fill="#C52026" d="M-146.227-182.98H332.02v478.248h-478.247z"/><g fill="#FFF"><path d="M92.914 79.635s59.657 2.418 59.657-84.413c0-38.615-20.155-58.656-59.656-58.656-38.674 0-60.078 20.04-59.686 58.656.567 52.89 23.04 84.974 59.686 84.413zM198.435 119.78l-59.61-23.768-13.958-11.764c-3.686-3.115-9.13-2.885-12.555.514l-19.405 19.3L73.444 84.76c-3.42-3.395-8.86-3.613-12.54-.51L46.94 96.012l-59.61 23.77c-19.194 7.645-19.178 75.623-20.828 81.86h252.79c-1.646-6.224-1.654-74.226-20.857-81.862z"/></g></svg>