<svg xmlns="http://www.w3.org/2000/svg" width="100.113" height="100.113" viewBox="28.32 -9.038 100.113 100.113"><path fill="#C52026" d="M122.925-3.53c-3.672-3.672-8.094-5.508-13.262-5.508H47.09c-5.168 0-9.59 1.836-13.262 5.507C30.156.14 28.32 4.562 28.32 9.73v62.575c0 5.168 1.836 9.59 5.508 13.262 3.672 3.672 8.094 5.508 13.262 5.508h62.574c5.168 0 9.59-1.836 13.262-5.508s5.508-8.094 5.508-13.262V9.73c0-5.167-1.837-9.59-5.51-13.26zm-12.613 70.483c-.914 2-2.965 3.738-6.16 5.215-3.19 1.48-6.027 2.22-8.504 2.22-.695 0-1.438-.056-2.22-.165s-1.44-.215-1.983-.324-1.262-.306-2.152-.587c-.89-.285-1.53-.5-1.922-.652s-1.108-.425-2.15-.812c-1.044-.395-1.696-.633-1.954-.72-7.125-2.608-14.09-7.312-20.89-14.108-6.803-6.804-11.506-13.765-14.116-20.89-.086-.262-.324-.914-.714-1.957-.39-1.043-.665-1.758-.817-2.15-.15-.39-.368-1.03-.65-1.92-.284-.895-.48-1.61-.59-2.153-.105-.543-.214-1.207-.323-1.988-.11-.782-.164-1.52-.164-2.215 0-2.477.742-5.313 2.218-8.508 1.478-3.192 3.216-5.247 5.216-6.157 2.3-.957 4.496-1.438 6.582-1.438.477 0 .824.047 1.043.133.22.086.575.477 1.075 1.172s1.043 1.574 1.63 2.64c.59 1.067 1.163 2.098 1.73 3.098.562.996 1.105 1.985 1.63 2.965.518.977.846 1.598.975 1.855.13.22.414.63.848 1.24.433.608.762 1.15.976 1.628.22.48.33.933.33 1.37 0 .653-.447 1.446-1.337 2.38-.895.933-1.87 1.793-2.934 2.574-1.066.78-2.043 1.62-2.934 2.508-.89.89-1.336 1.62-1.336 2.183 0 .306.074.665.226 1.08s.293.75.426 1.007c.13.262.336.633.617 1.11.28.48.47.78.555.914 2.39 4.3 5.136 8.005 8.246 11.114 3.105 3.105 6.808 5.855 11.113 8.246.13.086.434.27.914.555.478.28.85.484 1.106.617.262.13.598.27 1.012.422s.77.23 1.078.23c.69 0 1.648-.72 2.867-2.152 1.215-1.433 2.453-2.86 3.715-4.27 1.258-1.41 2.277-2.116 3.063-2.116.435 0 .892.11 1.372.324.477.22 1.02.543 1.63.98.604.434 1.02.715 1.237.848l3.452 1.887c2.3 1.22 4.223 2.292 5.77 3.226 1.54.94 2.38 1.575 2.508 1.923.086.22.13.566.13 1.043 0 2.085-.48 4.28-1.438 6.577zm0 0"/></svg>