<?xml version="1.0" encoding="utf-8"?>
<!-- Generator: Adobe Illustrator 16.0.0, SVG Export Plug-In . SVG Version: 6.00 Build 0)  -->
<!DOCTYPE svg PUBLIC "-//W3C//DTD SVG 1.1//EN" "http://www.w3.org/Graphics/SVG/1.1/DTD/svg11.dtd">
<svg version="1.1" id="Layer_1"
	xmlns="http://www.w3.org/2000/svg"
	xmlns:xlink="http://www.w3.org/1999/xlink" x="0px" y="0px" width="80.6px" height="167px" viewBox="53.415 -27.639 80.6 167" enable-background="new 53.415 -27.639 80.6 167" xml:space="preserve">
	<path fill="#F72432" d="M71.415,108.011c0,4.267,0.817,8.333,2.45,12.2c1.6,3.732,3.833,7.05,6.7,9.949
	c2.9,2.9,6.217,5.134,9.95,6.701c3.9,1.666,7.967,2.5,12.2,2.5c4.267,0,8.333-0.834,12.2-2.5c3.732-1.567,7.05-3.801,9.949-6.701
	c2.9-2.899,5.134-6.217,6.7-9.949c1.634-3.867,2.45-7.934,2.45-12.2c0-4.533-0.934-8.851-2.8-12.95c-1.8-4-4.333-7.449-7.601-10.35
	v-91.45c0-2.833-0.55-5.55-1.649-8.15c-1.067-2.467-2.567-4.667-4.5-6.6c-1.934-1.934-4.15-3.434-6.65-4.5
	c-2.566-1.1-5.267-1.65-8.1-1.65s-5.534,0.55-8.101,1.65c-2.533,1.066-4.75,2.566-6.649,4.5c-1.934,1.9-3.434,4.1-4.5,6.6
	c-1.067,2.6-1.6,5.316-1.6,8.15v91.45c-3.267,2.9-5.817,6.35-7.65,10.35C72.348,99.16,71.415,103.478,71.415,108.011z
	 M84.715,97.461c1.867-3.167,4.383-5.667,7.55-7.5v-96.7c0-2.9,1.017-5.367,3.05-7.4c2.067-2.034,4.534-3.05,7.4-3.05
	c2.899,0,5.366,1.017,7.399,3.05c2.033,2.033,3.051,4.5,3.051,7.4v96.7c3.166,1.833,5.684,4.333,7.55,7.5
	c1.933,3.267,2.899,6.783,2.899,10.55c0,2.866-0.55,5.583-1.649,8.149c-1.067,2.5-2.567,4.717-4.5,6.65
	c-1.934,1.9-4.134,3.383-6.601,4.45c-2.6,1.101-5.316,1.649-8.149,1.649s-5.534-0.549-8.101-1.649
	c-2.533-1.067-4.75-2.55-6.649-4.45c-1.934-1.934-3.434-4.15-4.5-6.65c-1.067-2.566-1.6-5.283-1.6-8.149
	C81.865,104.244,82.815,100.728,84.715,97.461z"/>
	<path fill="#F72432" d="M102.715,123.66c4.333,0,8.033-1.516,11.1-4.549c3.034-3.067,4.55-6.768,4.55-11.101
	c0-3.366-0.982-6.417-2.949-9.149c-1.934-2.668-4.45-4.534-7.551-5.601c0.066-0.3,0.101-0.601,0.101-0.899V40.211
	c0-1.466-0.517-2.7-1.55-3.7c-1-1-2.234-1.5-3.7-1.5c-1.434,0-2.667,0.5-3.7,1.5c-1,1.033-1.5,2.267-1.5,3.7v52.151
	c0,0.299,0.033,0.6,0.1,0.899c-3.1,1.066-5.633,2.933-7.6,5.601c-1.967,2.732-2.95,5.783-2.95,9.149c0,4.333,1.534,8.033,4.6,11.101
	C94.732,122.145,98.415,123.66,102.715,123.66z"/>
	<path fill="#F72432" d="M56.065,2.561h5.7v5.95c0,0.733,0.25,1.35,0.75,1.85c0.533,0.5,1.15,0.75,1.85,0.75
	c0.733,0,1.35-0.25,1.85-0.75s0.75-1.117,0.75-1.85v-5.95h5.8c0.733,0,1.35-0.267,1.85-0.8c0.5-0.5,0.75-1.117,0.75-1.85
	c0-0.7-0.25-1.3-0.75-1.8c-0.5-0.534-1.117-0.8-1.85-0.8h-5.8v-5.5c0-0.733-0.25-1.35-0.75-1.85s-1.117-0.75-1.85-0.75
	c-0.7,0-1.317,0.25-1.85,0.75c-0.5,0.5-0.75,1.117-0.75,1.85v5.5h-5.7c-0.733,0-1.35,0.267-1.85,0.8c-0.534,0.5-0.8,1.1-0.8,1.8
	c0,0.733,0.267,1.35,0.8,1.85C54.715,2.294,55.332,2.561,56.065,2.561z"/>
	<path fill="#F72432" d="M56.065,78.511h16.7c0.733,0,1.35-0.25,1.85-0.75s0.75-1.116,0.75-1.851c0-0.549-0.142-1.031-0.425-1.449
	c-0.09-0.141-0.199-0.274-0.325-0.4c-0.5-0.5-1.117-0.75-1.85-0.75h-16.7c-0.733,0-1.35,0.25-1.85,0.75
	c-0.135,0.126-0.251,0.26-0.35,0.4c-0.3,0.418-0.45,0.9-0.45,1.449c0,0.734,0.267,1.351,0.8,1.851
	C54.715,78.261,55.332,78.511,56.065,78.511z"/>
</svg>
