<?xml version="1.0" encoding="utf-8"?>
<!-- Generator: Adobe Illustrator 16.0.0, SVG Export Plug-In . SVG Version: 6.00 Build 0)  -->
<!DOCTYPE svg PUBLIC "-//W3C//DTD SVG 1.1//EN" "http://www.w3.org/Graphics/SVG/1.1/DTD/svg11.dtd">
<svg version="1.1" id="Layer_1" xmlns="http://www.w3.org/2000/svg" xmlns:xlink="http://www.w3.org/1999/xlink" x="0px" y="0px"
	 width="186.2px" height="176.2px" viewBox="0.504 -31.998 186.2 176.2" enable-background="new 0.504 -31.998 186.2 176.2"
	 xml:space="preserve">
<path fill="#C52026" d="M92.654,8.127c-0.046-5.917-1.213-11.359-3.5-16.325v0.05c-1.967-4.369-4.792-8.394-8.475-12.075
	l-0.025-0.05l-0.024-0.025c-8.066-7.799-17.741-11.699-29.025-11.7c-11.298,0.006-20.948,3.914-28.95,11.725l-0.025,0.025
	c-3.715,3.673-6.573,7.689-8.575,12.05c-2.292,4.973-3.441,10.423-3.45,16.35v2.85h-10.1v12h134.001v26.575
	c-9.764,0.765-18.213,4.648-25.352,11.649v0.025h-0.023c-3.707,3.676-6.557,7.676-8.551,12l-0.025,0.025l-0.025,0.05
	c-0.273,0.624-0.549,1.266-0.824,1.925l-0.051,0.1l-0.023,0.076c-1.383,3.611-2.199,7.471-2.451,11.574h-0.125v10h82.201v-10h-0.176
	c-0.262-4.121-1.104-7.996-2.525-11.625l0.051,0.1c-0.299-0.805-0.641-1.588-1.025-2.35l0.1,0.176
	c-1.934-4.344-4.768-8.361-8.5-12.051l-0.025-0.025c-6.975-6.809-15.191-10.667-24.648-11.575v-26.65h44.199v-12h-94.05V8.127z
	 M82.654,11.002h-62.05v-2.85c-0.009-4.406,0.841-8.457,2.55-12.15c1.527-3.296,3.694-6.338,6.5-9.125l0.025-0.025
	c6.06-5.906,13.368-8.856,21.925-8.85c8.583,0,15.941,2.966,22.075,8.9l-0.05-0.075c2.783,2.786,4.926,5.827,6.425,9.125v0.05
	c1.711,3.697,2.578,7.747,2.6,12.15V11.002z M160.13,68.352l0.023,0.025c2.789,2.77,4.914,5.778,6.375,9.025l0.102,0.175
	c0.215,0.438,0.406,0.888,0.574,1.351l0.051,0.1c0.977,2.5,1.576,5.158,1.799,7.975h-61.85c0.221-2.834,0.813-5.51,1.775-8.025
	c0.232-0.546,0.467-1.079,0.699-1.6l-0.049,0.075c1.533-3.266,3.709-6.29,6.523-9.075l0.025-0.025
	c6.061-5.935,13.369-8.901,21.926-8.899C146.695,59.448,154.036,62.414,160.13,68.352z"/>
<polygon fill="#C52026" points="127.204,105.153 121.755,105.153 121.755,126.252 112.704,126.252 124.554,144.202 136.505,126.252 
	127.204,126.252 "/>
<polygon fill="#C52026" points="61.755,31.152 61.755,61.202 52.654,61.202 64.554,79.153 76.505,61.202 67.154,61.202 
	67.154,31.152 "/>
<polygon fill="#C52026" points="35.454,31.152 35.454,61.202 26.404,61.202 38.254,79.153 50.204,61.202 40.904,61.202 
	40.904,31.152 "/>
<polygon fill="#C52026" points="153.454,105.153 148.054,105.153 148.054,126.252 138.954,126.252 150.855,144.202 162.804,126.252 
	153.454,126.252 "/>
</svg>
