<svg xmlns="http://www.w3.org/2000/svg" width="203.868" height="48.676" viewBox="11.447 83.324 203.868 48.676"><g fill="#969697"><path d="M11.447 83.324h40.31v10.393H26.52v7.736h23.41v9.928H26.52v9.597h25.966V132h-41.04V83.324zM60.688 83.324h14.045l18.328 26.93v-26.93h14.18V132H93.06l-18.228-26.727V132H60.688V83.324zM117.432 83.324h22.346c4.404 0 7.965.598 10.677 1.793 2.71 1.195 4.95 2.91 6.726 5.146 1.77 2.236 3.056 4.837 3.853 7.803.797 2.966 1.195 6.11 1.195 9.43 0 5.202-.595 9.236-1.776 12.104-1.185 2.866-2.828 5.27-4.93 7.205-2.105 1.938-4.362 3.228-6.774 3.867-3.3.887-6.287 1.328-8.965 1.328h-22.346V83.324h-.005zm15.04 11.024v26.595h3.69c3.144 0 5.378-.35 6.706-1.045 1.326-.697 2.367-1.916 3.12-3.652.75-1.737 1.13-4.554 1.13-8.45 0-5.157-.844-8.688-2.52-10.592-1.686-1.903-4.475-2.855-8.368-2.855l-3.757-.002zM197.13 123.965h-17.077L177.68 132h-15.357l18.297-48.676h16.404L215.314 132h-15.752l-2.433-8.035zm-3.12-10.526l-5.373-17.5-5.316 17.5h10.69z"/></g></svg>