<svg id="Layer_1" xmlns="http://www.w3.org/2000/svg" viewBox="-22 23.3 210 210.7"><style>.st0{fill:#C52127;} .st1{fill:#FFFFFF;} .st2{fill:#FDFDFD;}</style><path class="st0" d="M25.5 189.7c-23.9-.1-44.3-20-45.4-44-.2-4 1-7.4 3.1-10.6C-5.2 116.9 6.3 98.6 18 80.4c5.4-8.4 10.6-8.2 16.2.5 10.6 16.6 20.7 33.7 31.9 49.9 5.9 8.5 6 16.8 3.5 25.8-5.4 19.5-23.9 33.2-44.1 33.1zM185.8 176.1c-1.1 24.5-20.7 43.5-44.8 43.8-23.2.3-43.9-18.5-45.9-41.6-.4-4.5.4-8.6 2.9-12.5 11.5-18 22.7-36.2 34.1-54.2 6.1-9.7 11-9.7 17.3 0 11.2 17.5 22.1 35.1 33.3 52.5 2.4 3.9 3.9 7.8 3.1 12zM19.2 38.9c10.5 2.9 21.1 5.6 31.6 8.6 5.1 1.5 8.9 1.3 13.7-2.4 16.8-13.2 39-6.7 47.1 13.3 1.8 4.4 3.9 6.4 8.4 7.4 9.7 2.2 19.3 5.1 29 7.8 7.8 2.2 11.7 7.1 10 15.4-1.5 7.1-7.6 10.3-16.2 8.2-10-2.4-20.1-4.9-29.9-7.9-4.1-1.2-6.6-.6-9.9 2.2-17 14.1-39.7 8.4-47.8-12.1-2.1-5.2-5.4-7.1-9.9-8.3-10-2.7-20-5-29.9-8.1-6.5-2-9.7-7.1-8.2-13.9 1.2-6.1 5.7-9.3 12-10.2z"/><path class="st1" d="M25.9 94.8c9.9 15.7 19.1 30.2 28.8 45.6H-2.9c9.7-15.4 18.9-30 28.8-45.6zM140.7 125c9.8 15.5 18.9 29.9 28.7 45.4h-57.1c9.6-15.3 18.7-29.9 28.4-45.4z"/><path class="st2" d="M73.7 68.5c.5-6.1 3.6-9.3 9.6-9.2 6.4.1 10 3.7 9.6 10-.3 5.6-3.8 9.2-9.7 9.2-6.5-.1-9.4-3.9-9.5-10z"/></svg>