<svg xmlns="http://www.w3.org/2000/svg" width="320" height="320" viewBox="-66.68 -103.929 320 320"><path fill="#8a8a8a" d="M93.312-103.93c-88.22 0-159.992 71.778-159.992 160 0 88.226 71.773 160 159.992 160 88.227 0 160.008-71.774 160.008-160 0-88.222-71.782-160-160.008-160zm0 299.018c-76.648 0-139.008-62.365-139.008-139.018 0-76.652 62.356-139.015 139.008-139.015 76.66 0 139.023 62.363 139.023 139.015 0 76.653-62.363 139.018-139.023 139.018zm0 0"/><path fill="#8a8a8a" d="M167.087-12.69c-5.67-5.675-14.86-5.675-20.53 0L94.606 39.26 42.653-12.69c-5.67-5.675-14.86-5.675-20.53 0-5.67 5.666-5.67 14.86 0 20.53l51.94 51.947-51.952 51.947c-5.668 5.67-5.668 14.86 0 20.535 2.84 2.83 6.554 4.253 10.272 4.253 3.714 0 7.427-1.422 10.26-4.254l51.962-51.952 51.953 51.95c2.832 2.84 6.545 4.255 10.266 4.255 3.713 0 7.426-1.414 10.264-4.254 5.67-5.665 5.67-14.858 0-20.53l-51.95-51.953 51.95-51.946c5.67-5.67 5.67-14.858 0-20.53zm0 0"/></svg>