<svg xmlns="http://www.w3.org/2000/svg" width="320" height="320" viewBox="-66.321 -104.314 320 320"><g fill="#8a8a8a"><path d="M93.675-104.314c-88.226 0-159.996 71.777-159.996 160 0 88.224 71.77 160 159.995 160 88.227 0 160.004-71.775 160.004-160 0-88.222-71.778-160-160.005-160zm0 299.017c-76.65 0-139.012-62.365-139.012-139.017S17.023-83.33 93.675-83.33c76.656 0 139.02 62.365 139.02 139.017s-62.368 139.016-139.02 139.016z"/><path d="M166.245-8.423L61.76 96.06 19.52 53.83c-5.192-5.183-13.597-5.188-18.787.006-5.194 5.19-5.194 13.6 0 18.793l51.632 51.622c2.592 2.592 5.99 3.887 9.394 3.887 3.397 0 6.806-1.296 9.4-3.894.003-.01.012-.02.022-.033L185.034 10.366c5.19-5.19 5.19-13.604 0-18.79-5.19-5.188-13.603-5.188-18.79 0z"/></g></svg>