<svg id="Layer_1" xmlns="http://www.w3.org/2000/svg" viewBox="-15.7 383 113.1 27"><style>.st0{fill:#C20012;}</style><path class="st0" d="M-15.7 383H6.6v5.8h-14v4.3h13v5.5h-13v5.3H7.1v6.1h-22.8v-27zm27.3 0h7.8l10.2 15v-15h7.9v27h-7.9l-10.1-14.8V410h-7.9v-27zm31.5 0h12.4c2.5 0 4.4.3 5.9 1s2.7 1.6 3.7 2.8c1 1.2 1.7 2.7 2.1 4.3.5 1.6.7 3.4.7 5.2 0 2.9-.3 5.1-1 6.7-.7 1.6-1.6 2.9-2.7 4-1.2 1.1-2.4 1.8-3.8 2.2-1.8.5-3.5.8-5 .8H43.1v-27zm8.3 6.1v14.8h2c1.7 0 3-.2 3.7-.6.8-.4 1.3-1 1.7-2 .4-.9.6-2.5.6-4.7 0-2.8-.5-4.8-1.4-5.9-.9-1-2.5-1.6-4.6-1.6h-2zm35.9 16.4h-9.5l-1.3 4.5H68l10.1-27h9.1l10.1 27h-8.7l-1.3-4.5zm-1.7-5.8l-3-9.7-2.9 9.7h5.9z"/></svg>