<?xml version="1.0" standalone="no"?>
<!-- Generator: Adobe Fireworks 10, Export SVG Extension by Aaron Beall (http://fireworks.abeall.com) . Version: 0.6.1  -->
<!DOCTYPE svg PUBLIC "-//W3C//DTD SVG 1.1//EN" "http://www.w3.org/Graphics/SVG/1.1/DTD/svg11.dtd">
<svg id="Page%201-Page%201" viewBox="0 0 320 320" style="background-color:#ffffff" version="1.1"
	xmlns="http://www.w3.org/2000/svg" xmlns:xlink="http://www.w3.org/1999/xlink" xml:space="preserve"
	x="0px" y="0px" width="320px" height="320px"
>
	<path d="M 161.5 59 C 113.5316 59 74.5 97.9757 74.5 145.8747 C 74.5 167.4081 84.321 187.1062 93.8366 206.1445 C 101.7907 222.11 109.2995 231.1768 109.2995 244.1253 C 109.2995 253.728 117.0837 261.4987 126.7005 261.4987 L 196.2995 261.4987 C 205.9186 261.4987 213.7005 253.728 213.7005 244.1253 C 213.7005 230.5326 221.2966 221.3969 229.3493 205.3969 C 238.764 186.6664 248.5 167.2888 248.5 145.8747 C 248.5 97.9757 209.4684 59 161.5 59 L 161.5 59 ZM 196.2995 244.1253 L 126.7005 244.1253 C 126.7005 209.9168 91.9014 180.624 91.9014 145.8747 C 91.9014 107.4932 123.0631 76.3763 161.5 76.3763 C 199.9369 76.3763 231.0989 107.4932 231.0989 145.8747 C 231.0989 180.624 196.2995 208.8325 196.2995 244.1253 L 196.2995 244.1253 ZM 196.2995 111.1257 C 196.2995 117.0988 210.9818 200.7148 161.5 198.0003 L 161.5 232.7493 L 144.0986 232.7493 C 144.0986 232.7493 152.2549 173.5668 170.2005 156.1905 C 169.6563 155.1065 144.0986 163.251 144.0986 198.0003 C 144.0986 198.0003 95.1611 135.0153 196.2995 111.1257 L 196.2995 111.1257 ZM 196.2995 291.936 C 201.1077 291.936 205 295.8227 205 300.624 C 205 305.4253 201.1077 309.312 196.2995 309.312 L 178.9011 309.312 C 174.7884 314.7761 168.3473 318 161.5 318 C 154.6527 318 148.2116 314.7735 144.0986 309.312 L 126.7005 309.312 C 121.8926 309.312 118 305.4253 118 300.624 C 118 295.8227 121.8926 291.936 126.7005 291.936 C 121.8926 291.936 201.1077 291.936 196.2995 291.936 Z" fill="#c52228"/>
	<path d="M 162 10 L 269.847 71.7585 C 274.9021 74.6534 276.5376 81.0294 273.5 86 C 270.4624 90.9706 263.9109 92.6382 258.8665 89.7246 L 152 28 L 162 10 Z" fill="#c52228"/>
	<path d="M 161 10 L 53.153 71.7585 C 48.0979 74.6534 46.4624 81.0294 49.5 86 C 52.5376 90.9706 59.0891 92.6382 64.1335 89.7246 L 171 28 L 161 10 Z" fill="#c52228"/>
	<path d="M 161.5 59 C 113.5316 59 74.5 97.9757 74.5 145.8747 C 74.5 167.4081 84.321 187.1062 93.8366 206.1445 C 101.7907 222.11 109.2995 231.1768 109.2995 244.1253 C 109.2995 253.728 117.0837 261.4987 126.7005 261.4987 L 196.2995 261.4987 C 205.9186 261.4987 213.7005 253.728 213.7005 244.1253 C 213.7005 230.5326 221.2966 221.3969 229.3493 205.3969 C 238.764 186.6664 248.5 167.2888 248.5 145.8747 C 248.5 97.9757 209.4684 59 161.5 59 L 161.5 59 ZM 196.2995 244.1253 L 126.7005 244.1253 C 126.7005 209.9168 91.9014 180.624 91.9014 145.8747 C 91.9014 107.4932 123.0631 76.3763 161.5 76.3763 C 199.9369 76.3763 231.0989 107.4932 231.0989 145.8747 C 231.0989 180.624 196.2995 208.8325 196.2995 244.1253 L 196.2995 244.1253 ZM 196.2995 111.1257 C 196.2995 117.0988 210.9818 200.7148 161.5 198.0003 L 161.5 232.7493 L 144.0986 232.7493 C 144.0986 232.7493 152.2549 173.5668 170.2005 156.1905 C 169.6563 155.1065 144.0986 163.251 144.0986 198.0003 C 144.0986 198.0003 95.1611 135.0153 196.2995 111.1257 L 196.2995 111.1257 ZM 196.2995 267.936 C 201.1077 267.936 205 271.8227 205 276.624 C 205 281.4253 201.1077 285.312 196.2995 285.312 L 126.7005 285.312 C 121.8926 285.312 118 281.4253 118 276.624 C 118 271.8227 121.8926 267.936 126.7005 267.936 C 121.8926 267.936 201.1077 267.936 196.2995 267.936 Z" fill="#c52228"/>
</svg>