<svg xmlns="http://www.w3.org/2000/svg" width="159" height="129.201" viewBox="14.144 -9.251 159 129.201"><path fill-rule="evenodd" clip-rule="evenodd" fill="#C52026" d="M151.544 59.45c.233.132.483.183.75.148l9.25-1.85c.268-.067.483-.217.65-.45.133-.233.184-.483.15-.75-.067-.267-.217-.467-.45-.6-.233-.167-.483-.217-.75-.15l-9.25 1.85c-.267.033-.468.167-.6.4-.167.233-.218.483-.15.75.033.268.168.484.4.65zM172.595 71.7c.366-.4.55-.885.55-1.452 0-.566-.184-1.033-.55-1.4-.4-.398-.884-.6-1.45-.6h-18c-.567 0-1.034.2-1.4.6-.4.367-.6.834-.6 1.4 0 .567.2 1.05.6 1.45.366.367.833.55 1.4.55h18c.566 0 1.05-.182 1.45-.55zM115.744 17c.5.2 1.017.2 1.55 0 .5-.2.85-.55 1.05-1.05l6.9-16.7c.2-.534.2-1.05 0-1.55-.233-.534-.6-.9-1.1-1.1-.5-.2-1-.2-1.5 0-.534.2-.9.566-1.1 1.1l-6.9 16.7c-.2.5-.2 1.016 0 1.55.234.5.6.85 1.1 1.05zM93.644 12.75c.567 0 1.05-.184 1.45-.55.367-.4.55-.884.55-1.45v-18c0-.567-.183-1.034-.55-1.4-.4-.4-.883-.6-1.45-.6-.566 0-1.033.2-1.4.6-.4.366-.6.832-.6 1.4v18c0 .566.2 1.05.6 1.45.367.366.834.55 1.4.55zM142.994 38.15c.267.032.517-.018.75-.15l7.85-5.25c.233-.168.384-.384.45-.65.033-.268-.017-.518-.15-.75-.166-.234-.383-.368-.65-.4-.266-.067-.516-.018-.75.15l-7.85 5.25c-.232.132-.366.332-.4.6-.066.266-.016.516.15.75.134.232.334.382.6.45zM105.144 12.8c.268.032.518-.018.75-.15.234-.168.384-.385.45-.65l1.85-9.3c.034-.268-.017-.518-.15-.75-.165-.234-.382-.368-.65-.4-.265-.068-.515-.018-.75.15-.23.132-.365.332-.398.6l-1.85 9.3c-.067.266-.017.516.15.75.13.232.332.382.598.45zM150.445 15.45c0-.534-.184-1-.55-1.4-.4-.4-.884-.6-1.45-.6-.533 0-1 .2-1.4.6l-12.75 12.75c-.4.366-.6.832-.6 1.4 0 .532.2 1 .6 1.4.367.4.834.6 1.4.6.533 0 1-.185 1.4-.55l12.75-12.75c.4-.4.6-.885.6-1.45zM151.294 82.45c.133.23.334.382.6.448l9.25 1.85c.268.033.518-.016.75-.148.234-.168.384-.385.45-.65.034-.268-.017-.518-.15-.75-.166-.234-.382-.367-.65-.4l-9.25-1.85c-.266-.066-.516-.018-.75.15-.23.133-.366.332-.4.6-.067.265-.016.515.15.75zM167.294 41.25c.2-.5.2-1 0-1.5-.232-.534-.6-.9-1.1-1.1-.5-.2-1-.2-1.5 0l-16.65 6.95c-.533.232-.9.6-1.1 1.1-.2.5-.2 1.016 0 1.55.232.5.6.85 1.1 1.05.5.2 1.018.2 1.55 0l16.65-6.95c.5-.235.85-.6 1.05-1.1zM148.044 94.95l16.65 6.9c.5.198 1 .198 1.5 0 .5-.202.867-.552 1.1-1.052.2-.533.2-1.05 0-1.55s-.55-.866-1.05-1.1l-16.65-6.9c-.532-.2-1.05-.2-1.55 0s-.867.565-1.1 1.1c-.2.5-.2 1 0 1.5.2.502.567.867 1.1 1.1zM81.144 12c.033.266.167.482.4.65.233.132.483.182.75.15.267-.068.483-.218.65-.45.133-.234.183-.484.15-.75l-1.85-9.25c-.067-.268-.217-.467-.45-.6-.233-.168-.483-.217-.75-.15-.267.033-.466.166-.6.4-.167.232-.217.482-.15.75l1.85 9.25z"/><path fill-rule="evenodd" clip-rule="evenodd" fill="#C52026" d="M140.244 89.55c1.267-3.034 2.233-6.185 2.9-9.45.6-3.168.917-6.45.95-9.852v-.4c0-3.3-.268-6.465-.8-9.5-.6-3.3-1.518-6.465-2.75-9.5-1.268-3.065-2.85-5.982-4.75-8.75-1.834-2.666-3.95-5.215-6.35-7.65l2.55-21.65-18.9 10.55c-3.033-1.232-6.2-2.15-9.5-2.75-.5-.1-.984-.182-1.45-.25-2.634-.4-5.35-.6-8.15-.6h-.35c-2.667.035-5.25.234-7.75.6-.7.1-1.384.218-2.05.35-3.3.634-6.468 1.6-9.5 2.9-3 1.268-5.85 2.85-8.55 4.75l-.05.05c-2.534 1.734-4.934 3.734-7.2 6-.134.134-.25.268-.35.4-2.368 2.4-4.435 4.934-6.2 7.6-1.868 2.768-3.4 5.668-4.6 8.7-1.234 3-2.134 6.135-2.7 9.4-.535 3-.8 6.117-.8 9.35v.4c.032 3.367.35 6.602.95 9.7.6 3.233 1.532 6.35 2.8 9.35 1.266 2.968 2.832 5.817 4.7 8.552 1.766 2.566 3.832 5.033 6.2 7.398l.05.05c9.8 9.767 21.6 14.65 35.4 14.65 13.633 0 25.316-4.767 35.05-14.3.1-.133.216-.266.35-.4 2.267-2.266 4.282-4.648 6.05-7.148 1.9-2.735 3.5-5.584 4.8-8.55zm-7.8-19.302c-.032 2.635-.282 5.168-.75 7.602-.5 2.5-1.25 4.916-2.25 7.25-1 2.266-2.232 4.45-3.7 6.55-1.332 1.866-2.865 3.65-4.6 5.35-.133.134-.25.267-.35.4-7.434 7.267-16.367 10.9-26.8 10.9-10.567 0-19.617-3.75-27.15-11.25l-.05-.052c-1.8-1.8-3.383-3.684-4.75-5.648-1.433-2.068-2.633-4.234-3.6-6.5-.967-2.3-1.684-4.684-2.15-7.15-.466-2.4-.716-4.884-.75-7.45v-.4c0-2.433.2-4.783.6-7.05.434-2.533 1.117-4.95 2.05-7.25.9-2.333 2.066-4.55 3.5-6.65 1.333-2.067 2.917-4.017 4.75-5.85.1-.133.216-.267.35-.4v-.05c1.7-1.7 3.5-3.2 5.4-4.5 2.1-1.5 4.3-2.733 6.6-3.7 2.333-1 4.784-1.75 7.35-2.25 2.4-.467 4.9-.717 7.5-.75h.35c2.5 0 4.934.216 7.3.65 2.534.433 4.968 1.133 7.302 2.1 2.332.966 4.582 2.183 6.75 3.65 2.033 1.4 3.967 3.017 5.8 4.85l.05.05c1.867 1.867 3.5 3.833 4.9 5.9 1.467 2.133 2.683 4.383 3.65 6.75.932 2.3 1.633 4.733 2.1 7.3.4 2.3.6 4.7.6 7.2v.398zM55.544 11.95c-.267-.067-.517-.018-.75.15-.233.132-.367.332-.4.6-.066.266-.017.516.15.75l5.25 7.8c.133.232.333.383.6.45.267.032.517-.018.75-.15.233-.168.383-.384.45-.65.033-.268-.017-.518-.15-.75l-5.25-7.8c-.166-.235-.383-.368-.65-.4zM26.294 55.85c-.267-.067-.517-.018-.75.148-.233.135-.367.334-.4.6-.066.268-.017.518.15.75.133.234.333.385.6.45l9.1 1.8c.267.035.517-.016.75-.148.233-.167.383-.384.45-.65.033-.267-.017-.517-.15-.75-.167-.233-.383-.367-.65-.4l-9.1-1.8zM39.294 49.25c.5-.234.85-.6 1.05-1.1.2-.5.2-1 0-1.5-.2-.535-.55-.9-1.05-1.1l-16.65-6.9c-.533-.2-1.05-.2-1.55 0-.533.232-.9.6-1.1 1.1s-.2 1.016 0 1.55c.2.5.567.85 1.1 1.05l16.65 6.9c.5.2 1.017.2 1.55 0zM14.744 68.85c-.4.365-.6.832-.6 1.398 0 .567.2 1.05.6 1.45.367.367.833.55 1.4.55h18c.567 0 1.05-.183 1.45-.55.367-.4.55-.883.55-1.45 0-.566-.183-1.033-.55-1.4-.4-.398-.883-.6-1.45-.6h-18c-.566 0-1.033.2-1.4.6zM51.594 30.2c.566 0 1.05-.185 1.45-.55.367-.4.55-.885.55-1.45s-.184-1.034-.55-1.4l-12.75-12.75c-.4-.4-.883-.6-1.45-.6s-1.033.2-1.4.6c-.4.366-.6.832-.6 1.4s.2 1.05.6 1.45l12.75 12.75c.367.365.834.55 1.4.55zM62.044-2.3c-.2.5-.2 1.016 0 1.55l6.9 16.7c.2.5.566.85 1.1 1.05.5.2 1.017.2 1.55 0 .5-.2.85-.55 1.05-1.05.2-.534.2-1.05 0-1.55l-6.9-16.7c-.2-.534-.55-.9-1.05-1.1-.534-.2-1.05-.2-1.55 0s-.866.566-1.1 1.1zM35.744 81.1c-.233-.168-.483-.217-.75-.15l-9.05 1.8c-.267.032-.467.167-.6.4-.167.233-.217.483-.15.75.033.267.167.483.4.65.233.132.483.183.75.15l9.05-1.802c.267-.066.483-.217.65-.45.133-.233.184-.483.15-.75-.066-.266-.216-.465-.45-.598zM44.294 38.15c.267-.068.483-.218.65-.45.133-.234.183-.484.15-.75-.067-.268-.217-.468-.45-.6l-7.75-5.2c-.233-.168-.483-.218-.75-.15-.267.033-.467.166-.6.4-.167.232-.216.482-.15.75.033.266.167.482.4.65l7.75 5.2c.234.133.484.182.75.15zM21.094 101.85c.5.2 1.017.2 1.55 0l16.7-6.9c.5-.2.85-.55 1.05-1.05.2-.534.2-1.05 0-1.55s-.55-.867-1.05-1.102c-.533-.2-1.05-.2-1.55 0l-16.7 6.9c-.533.2-.9.566-1.1 1.1-.2.5-.2 1 0 1.5s.567.867 1.1 1.102z"/><path fill-rule="evenodd" clip-rule="evenodd" fill="#C52026" d="M85.594 73.7v7.25l5.35 5.35V72.4l-2-2.05M73.494 64.9v-7.25l-5.35-5.3v13.898l2 2.05M74.544 82.05l-5.4 5.35h20.85l-5.4-5.35M71.195 69.35l2.65 2.7h11.4l2.7-2.7-2.7-2.65h-11.4M85.594 64.9l3.35 3.4 2-2.052v-13.9l-5.35 5.3M84.594 56.7l5.4-5.35h-20.85l5.4 5.35M73.494 73.7l-3.35-3.4-2 2.05v13.898l5.35-5.3M115.044 64.9l3.35 3.4 2.05-2.052v-13.9l-5.4 5.3M102.945 64.9v-7.25l-5.35-5.3v13.898l2 2.05M102.945 73.7l-3.35-3.4-2 2.05v13.898l5.35-5.3M100.644 69.35l2.65 2.7h11.45l2.7-2.7-2.7-2.65h-11.45M114.044 56.7l5.4-5.35h-20.8l5.35 5.35M115.044 73.7v7.25l5.35 5.35V72.4l-2-2.05M103.994 82.05l-5.35 5.35h20.8l-5.35-5.35"/></svg>