<svg xmlns="http://www.w3.org/2000/svg" width="173.8" height="174.8" viewBox="6.2 -32.351 173.8 174.8"><path fill-rule="evenodd" clip-rule="evenodd" fill="#C52026" d="M75.8 50.5V39.6c0-4.8-1.85-7.2-5.55-7.2-1.033 0-2 .25-2.9.75-.933.466-1.666 1.116-2.2 1.95-1.133-1.8-2.816-2.7-5.05-2.7-1.866 0-3.3.716-4.3 2.15h-.05v-1.6H50.7V50.5h5.05v-8.85c0-.734.017-1.3.05-1.7 0-.435.083-.95.25-1.55.167-.668.45-1.168.85-1.5.4-.368.9-.55 1.5-.55.468 0 .867.116 1.2.35.334.3.567.582.7.85.167.3.283.716.35 1.25.1.533.15.933.15 1.2v10.5h4.95v-8.6c0-.567.017-1.018.05-1.35 0-.268.05-.7.15-1.3.1-.6.233-1.084.4-1.45.166-.368.433-.684.8-.95.333-.334.767-.5 1.3-.5.767 0 1.35.3 1.75.9.4.732.6 2.1.6 4.1v9.15h5zM102.05 50.5L91.8 22.9h-4L77.25 50.5h5.5L85 44.85h9.4l2.1 5.65h5.55zm-15.5-9.95l2.95-9.8h.1l3.35 9.8h-6.4zM116.05 94.2l13.7-34.45h-9.4l-6.5 17.6c-.366.967-.7 1.933-1 2.9-.133.466-.433 1.45-.9 2.95l-8.4-23.45h-9.6l13.9 34.45h8.2zM16.85 45.35l12.85-11.7L35.25 44C37.285 32.53 42.67 22.45 51.4 13.75 59.5 5.65 68.768.415 79.2-1.95V8.7l26.25-20.5L79.2-32.35v12.05C63.833-17.736 50.333-10.635 38.7 1l-1.2 2.8-.05.05 1.2-2.8c-12.567 12.533-19.833 27.3-21.8 44.3zM17.9 71.45c2.934 14.23 9.867 26.815 20.8 37.75.5.5 1.018 1 1.55 1.5C51.085 121 63.47 127.5 77.4 130.2l-10.2-11.25 12.5-6.7c-10.666-2.3-20.1-7.55-28.3-15.75-2.066-2.068-3.933-4.2-5.6-6.4-4.366-5.7-7.483-11.918-9.35-18.65h10.8L26.75 45.2c-3.133 4.033-6.283 8.05-9.45 12.05l-.6.8-.4-.05c0 .167.017.35.05.55L6.2 71.45h11.7z"/><path fill-rule="evenodd" clip-rule="evenodd" fill="#C52026" d="M161 90.1c3.066-5.9 5.283-12.15 6.65-18.75l-11.15 10.1-6.75-12.6c-1.8 7.732-5.15 14.816-10.05 21.25-1.7 2.166-3.55 4.283-5.55 6.35l-1.2 2.8-.05.05 1.2-2.8c-8.434 8.4-18.134 13.717-29.1 15.95V101.4l-26.25 20.5L105 142.45V130.7c15.9-2.368 29.85-9.534 41.85-21.5 5.867-5.9 10.584-12.268 14.15-19.1zM106.7-20.25L117-8.85l-12.25 6.6c11.1 2.166 20.9 7.5 29.4 16 8.6 8.6 13.967 18.566 16.1 29.9h-11.3l20.5 26.25L180 43.65h-11.5c-2.3-16.268-9.517-30.468-21.65-42.6-11.567-11.567-24.95-18.667-40.15-21.3z"/></svg>