<svg xmlns="http://www.w3.org/2000/svg" width="135.456" height="128.95" viewBox="25.744 -8.801 135.456 128.95"><path fill-rule="evenodd" clip-rule="evenodd" fill="#C52026" d="M49.25 38.2c6.433 0 11.966-2.317 16.6-6.95 4.6-4.6 6.9-10.118 6.9-16.55 0-6.6-2.3-12.134-6.9-16.6-4.633-4.6-10.167-6.9-16.6-6.9-6.467 0-12.067 2.3-16.8 6.9-4.6 4.466-6.833 10-6.7 16.6 0 6.433 2.3 11.95 6.9 16.55 4.6 4.633 10.133 6.95 16.6 6.95zm-9.2-32.75C42.483 3.015 45.467 1.8 49 1.8c3.533 0 6.617 1.216 9.25 3.65 2.6 2.466 3.9 5.55 3.9 9.25 0 3.533-1.233 6.516-3.7 8.95-2.433 2.465-5.417 3.7-8.95 3.7-3.534 0-6.617-1.15-9.25-3.45-2.434-2.468-3.733-5.535-3.9-9.2 0-3.7 1.233-6.784 3.7-9.25zM135.15 17.7c10.434 0 19.117 4.132 26.05 12.4V2.7c-8.466-4.6-17.3-6.9-26.5-6.9-11.065 0-21.2 2.916-30.4 8.75C95.4 10.38 88.485 18.13 83.55 27.8c-4.732 9.532-7.1 19.9-7.1 31.1 0 16.6 5.6 30.966 16.8 43.1 11.034 12.1 24.7 18.15 41 18.15 7.967 0 16.95-2.367 26.95-7.1V85.6c-3.4 3.7-7.483 6.7-12.25 9-4.6 2.3-9.267 3.45-14 3.45-10.3 0-18.683-3.918-25.15-11.75-6.266-8.135-9.4-17.418-9.4-27.85 0-10.9 3.135-20.418 9.4-28.55 6.3-8.134 14.75-12.2 25.35-12.2z"/></svg>