<svg id="Layer_1" xmlns="http://www.w3.org/2000/svg" viewBox="33 -81.7 210 210.7"><style>.st0{fill:#C52026;}</style><path class="st0" d="M162.4-9.2h8.8v19.9l-26.8 12.6v-70.1h17.8l-24.9-34.8-24.9 34.8h17.9v84.2l-26.8-12.5V1.4c2.9-1.3 5.2-3.4 7-6.1 1.8-2.8 2.8-5.8 2.8-9.1 0-4.6-1.6-8.5-4.9-11.8s-7.2-4.9-11.8-4.9c-4.6 0-8.6 1.6-11.8 4.9-3.3 3.3-4.9 7.2-4.9 11.8 0 3.3.9 6.3 2.7 9.1 1.8 2.7 4.2 4.8 7 6.1v27.9c0 1.4.4 2.6 1.1 3.8.7 1.2 1.7 2 2.9 2.6l36.7 17.2v27.3c-5.3 1.6-9.6 4.5-12.9 8.9-3.4 4.5-5.1 9.5-5.1 15.1 0 6.9 2.4 12.7 7.3 17.6 4.8 4.9 10.7 7.3 17.6 7.3 6.9 0 12.7-2.4 17.6-7.3 4.9-4.9 7.3-10.7 7.3-17.6 0-5.6-1.7-10.6-5.1-15.1-3.3-4.3-7.6-7.3-12.9-8.8V38.7l36.7-17.2c1.2-.6 2.2-1.4 2.9-2.5.7-1.2 1.1-2.4 1.1-3.8V-9.2h8.7v-31.4h-31.4v31.4z"/></svg>