<svg xmlns="http://www.w3.org/2000/svg" width="282.6" height="156.85" viewBox="-47.935 -22.539 282.6 156.85"><path fill-rule="evenodd" clip-rule="evenodd" fill="#C52026" d="M83.966 14.16l-30.7 78.85h16.85l6.5-17.9h31.55l6.85 17.9h17.3l-31.55-78.85h-16.8zm-2.4 47.65l10.6-29.2 10.85 29.2h-21.45z"/><path fill-rule="evenodd" clip-rule="evenodd" fill="#C52026" d="M147.915.41c-15.332-15.3-33.816-22.95-55.45-22.95-21.633 0-40.117 7.65-55.45 22.95-4.833 4.834-8.9 10-12.2 15.5-6.666 11-10.25 23.284-10.75 36.85h-62v10h62.25c.934 12.1 4.434 23.15 10.5 33.15 3.3 5.435 7.367 10.567 12.2 15.4 15.3 15.335 33.783 23 55.45 23 21.567 0 40-7.616 55.3-22.85l.1-.15c.034 0 .05-.017.05-.05 13.668-13.666 21.234-29.832 22.7-48.5h64.05v-10h-63.85c-.7-20.3-8.333-37.75-22.9-52.35zm-5.35 113.1l.052-.05h.1l-.15.05zm-.05-15l.102-.05-.05.05h-.052zm13.35-40.75c-.433 16.6-6.567 30.867-18.4 42.8l-.15.1c0 .034-.017.052-.05.052-12.365 12.398-27.3 18.6-44.8 18.6-17.532 0-32.482-6.2-44.85-18.6-3.966-3.967-7.3-8.168-10-12.602l.05.05c-5.5-9.1-8.366-19.282-8.6-30.55v-.25c-.033-.5-.05-1-.05-1.5-.033-11.932 2.85-22.666 8.65-32.2 2.667-4.466 5.983-8.683 9.95-12.65 12.4-12.365 27.35-18.55 44.85-18.55s32.45 6.185 44.85 18.55c12.367 12.4 18.55 27.35 18.55 44.85v1.9z"/></svg>