<svg xmlns="http://www.w3.org/2000/svg" width="295.1" height="221.3" viewBox="-53.985 -54.589 295.1 221.3"><path fill-rule="evenodd" clip-rule="evenodd" fill="#C52026" d="M100.465-37.54c-.83 0-1.538.29-2.125.876-.585.587-.876 1.295-.875 2.125v181c0 .83.29 1.538.875 2.126.587.584 1.296.875 2.125.875s1.538-.29 2.125-.874c.585-.588.876-1.295.875-2.125v-181c0-.83-.29-1.537-.875-2.124-.587-.585-1.296-.876-2.125-.875zM69.04-9.115l.1.2c-.774-1.39-2.008-2.988-3.7-4.8-3.163-3.396-6.905-6.137-11.225-8.226h-.025c-1.67-.82-4.013-1.553-7.025-2.2-.074-.02-.14-.035-.2-.05-.76-.124-1.526-.225-2.3-.3v-13.6c0-1.105-.393-2.046-1.175-2.826-.78-.782-1.722-1.174-2.825-1.175h-62.1c-.686-2.888-2.144-5.446-4.375-7.676-3.21-3.213-7.103-4.82-11.675-4.825-4.573.003-8.464 1.61-11.675 4.824-3.213 3.21-4.82 7.102-4.825 11.675.004 4.572 1.612 8.464 4.825 11.674 3.21 3.213 7.102 4.82 11.675 4.825 4.573-.005 8.465-1.613 11.675-4.826 2.23-2.23 3.69-4.788 4.375-7.675h58.1v13.398c0 1.104.393 2.046 1.175 2.825.78.782 1.722 1.174 2.825 1.175 1.71 0 3.378.134 5 .4l-.2-.05c2.254.484 4.013 1.018 5.275 1.6h-.025c3.413 1.646 6.37 3.804 8.875 6.476 1.174 1.255 2.04 2.354 2.6 3.3.032.06.065.127.1.2 2.59 4.02 3.882 8.545 3.875 13.574.01 3.382-.556 6.523-1.7 9.426-.982-.684-2.066-1.366-3.25-2.05-6.278-3.616-13.128-5.425-20.55-5.426-7.437-.003-13.503.997-18.2 3h.025c-6.402 2.648-9.443 6.35-9.125 11.1-.424 4.565 2.884 8.148 9.925 10.75 4.85 1.798 10.64 2.698 17.375 2.7 9.6-.003 17.54-2.428 23.825-7.274 1.12 2.874 1.68 5.966 1.675 9.274.01 3.382-.556 6.523-1.7 9.426-.983-.684-2.066-1.367-3.25-2.05-6.278-3.616-13.128-5.425-20.55-5.426-7.437-.003-13.503.997-18.2 3h.025c-6.402 2.648-9.443 6.35-9.125 11.1-.424 4.565 2.884 8.147 9.925 10.75 4.85 1.798 10.64 2.698 17.375 2.7 9.597-.004 17.54-2.428 23.825-7.275 1.12 2.873 1.68 5.965 1.675 9.275.01 3.38-.556 6.523-1.7 9.426-.982-.684-2.066-1.367-3.25-2.05-6.278-3.616-13.128-5.425-20.55-5.427-7.437-.002-13.503.998-18.2 3h.025c-6.402 2.648-9.443 6.35-9.125 11.102-.424 4.563 2.884 8.145 9.925 10.75 4.85 1.796 10.64 2.696 17.375 2.698 9.608-.004 17.56-2.428 23.85-7.275 1.11 2.857 1.66 5.95 1.65 9.275.007 5.03-1.284 9.555-3.875 13.574-.035.074-.068.14-.1.2-.56.946-1.426 2.046-2.6 3.3-2.504 2.672-5.462 4.83-8.875 6.477h.025c-1.262.58-3.02 1.112-5.275 1.6l.2-.052c-1.622.268-3.29.4-5 .4-1.103.002-2.045.393-2.825 1.176-.782.78-1.174 1.72-1.175 2.824v13.4h-58.1c-.686-2.887-2.144-5.445-4.375-7.676-3.21-3.213-7.103-4.82-11.675-4.824-4.573.004-8.464 1.61-11.675 4.824-3.213 3.21-4.82 7.102-4.825 11.676.004 4.572 1.612 8.465 4.825 11.674 3.21 3.213 7.102 4.822 11.675 4.826 4.573-.004 8.465-1.613 11.675-4.826 2.23-2.23 3.69-4.787 4.375-7.674h62.1c1.104-.002 2.045-.393 2.825-1.176.782-.78 1.174-1.72 1.175-2.824v-13.6c.774-.078 1.542-.178 2.3-.3.06-.017.126-.032.2-.052 3.012-.648 5.354-1.38 7.025-2.2h.025c4.32-2.087 8.062-4.83 11.225-8.224 1.692-1.813 2.925-3.412 3.7-4.8l-.1.2c3.41-5.314 5.118-11.29 5.125-17.926-.014-5.77-1.297-11.02-3.85-15.75 2.553-4.727 3.836-9.977 3.85-15.75-.006-5.754-1.29-11.012-3.85-15.775 2.553-4.713 3.836-9.955 3.85-15.724-.006-5.752-1.29-11.01-3.85-15.774 2.553-4.716 3.836-9.957 3.85-15.726-.007-6.632-1.716-12.608-5.125-17.92zM-28.985-37.99c-.02 2.318-.845 4.293-2.475 5.925-1.656 1.654-3.665 2.48-6.025 2.476-2.36.005-4.37-.82-6.025-2.475-1.654-1.656-2.48-3.664-2.475-6.024-.004-2.36.82-4.368 2.475-6.024 1.656-1.653 3.665-2.48 6.025-2.475 2.36-.003 4.37.822 6.025 2.476 1.63 1.633 2.455 3.607 2.475 5.925v.2zm69.65 68.3c-5.665.003-10.54-.73-14.625-2.2h.025c-2.75-1.015-4.315-2.1-4.7-3.25.296-1.438 1.688-2.672 4.175-3.7h.025c3.903-1.596 8.937-2.395 15.1-2.4 5.98 0 11.495 1.458 16.55 4.376.872.502 1.67 1.002 2.4 1.5-5.01 3.787-11.328 5.678-18.95 5.674zm0 31.5c-5.665.003-10.54-.73-14.625-2.198h.025c-2.75-1.016-4.315-2.1-4.7-3.25.296-1.44 1.688-2.673 4.175-3.7h.025c3.903-1.598 8.937-2.397 15.1-2.4 5.98-.002 11.495 1.456 16.55 4.374.872.502 1.67 1.002 2.4 1.5-5.01 3.786-11.328 5.68-18.95 5.675zm0 31.5c-5.665.003-10.54-.73-14.625-2.198h.025c-2.75-1.016-4.315-2.1-4.7-3.25.296-1.44 1.688-2.674 4.175-3.7h.025c3.903-1.597 8.937-2.397 15.1-2.4 5.98 0 11.495 1.456 16.55 4.374.872.502 1.67 1.002 2.4 1.5-5.01 3.786-11.328 5.68-18.95 5.675zm-69.65 57c-.02 2.32-.845 4.294-2.475 5.927-1.656 1.652-3.665 2.48-6.025 2.475-2.36.004-4.37-.822-6.025-2.475-1.654-1.656-2.48-3.666-2.475-6.025-.004-2.36.82-4.37 2.475-6.025 1.656-1.654 3.665-2.48 6.025-2.475 2.36-.004 4.37.82 6.025 2.475 1.63 1.633 2.455 3.607 2.475 5.926v.198zM146.465-.69c1.103 0 2.045-.393 2.825-1.175.78-.78 1.174-1.722 1.175-2.825v-29.4h58.1c.686 2.888 2.144 5.446 4.376 7.676 3.21 3.213 7.103 4.82 11.675 4.825 4.573-.003 8.465-1.61 11.676-4.824 3.214-3.21 4.82-7.102 4.825-11.675-.004-4.572-1.61-8.464-4.824-11.674-3.21-3.213-7.102-4.82-11.675-4.825-4.572.005-8.465 1.613-11.674 4.826-2.23 2.23-3.69 4.788-4.374 7.675h-62.1c-1.105.002-2.047.394-2.826 1.176-.782.78-1.174 1.722-1.175 2.825v29.55c-.98.088-1.913.205-2.8.35-.06.017-.127.033-.2.052-3.013.647-5.354 1.38-7.024 2.2h-.024c-4.32 2.088-8.063 4.83-11.225 8.225-1.692 1.812-2.925 3.41-3.7 4.8l.1-.2c-3.408 5.313-5.117 11.288-5.124 17.925.013 5.767 1.296 11.008 3.85 15.726-2.56 4.765-3.843 10.022-3.85 15.775.013 5.77 1.296 11.02 3.85 15.75-2.553 4.727-3.837 9.977-3.85 15.75.007 6.637 1.716 12.61 5.125 17.926l-.1-.202c.775 1.39 2.008 2.988 3.7 4.8 3.163 3.396 6.905 6.138 11.226 8.226h.025c1.67.818 4.013 1.55 7.025 2.2.073.02.14.034.2.05.89.15 1.822.25 2.8.3v29.1c0 1.105.393 2.046 1.175 2.825.78.782 1.722 1.173 2.825 1.175h62.1c.686 2.887 2.144 5.445 4.376 7.674 3.21 3.212 7.103 4.82 11.675 4.825 4.573-.004 8.465-1.613 11.676-4.826 3.214-3.21 4.82-7.103 4.825-11.675-.004-4.574-1.61-8.465-4.824-11.676-3.21-3.214-7.102-4.82-11.675-4.825-4.572.004-8.465 1.61-11.674 4.824-2.23 2.23-3.69 4.788-4.374 7.675h-58.1v-29.15c-.005-.742-.205-1.434-.602-2.074-.387-.64-.91-1.132-1.574-1.476-.674-.35-1.383-.498-2.125-.45-1.917.146-3.65.095-5.2-.15l.2.052c-2.255-.486-4.014-1.02-5.275-1.6h.025c-3.414-1.646-6.37-3.805-8.875-6.477-1.175-1.255-2.04-2.355-2.6-3.3-.033-.06-.066-.127-.1-.2-2.592-4.02-3.883-8.546-3.876-13.575-.01-3.328.54-6.43 1.65-9.3 6.29 4.862 14.24 7.296 23.85 7.3 6.734-.002 12.526-.902 17.375-2.7h.023c7.033-2.603 10.333-6.185 9.9-10.75.318-4.75-2.723-8.452-9.125-11.1h.025c-4.697-2.003-10.764-3.003-18.2-3-7.422 0-14.272 1.81-20.55 5.425-1.185.684-2.268 1.367-3.25 2.05-1.145-2.9-1.71-6.044-1.7-9.425-.005-3.312.554-6.404 1.675-9.275 6.283 4.847 14.225 7.27 23.825 7.274 6.734-.002 12.526-.902 17.375-2.7h.024c7.033-2.602 10.333-6.185 9.9-10.75.318-4.75-2.723-8.45-9.125-11.1h.025c-4.697-2.003-10.764-3.003-18.2-3-7.422 0-14.272 1.81-20.55 5.425-1.185.683-2.268 1.366-3.25 2.05-1.145-2.902-1.71-6.044-1.7-9.426-.007-5.03 1.284-9.555 3.875-13.574.034-.073.067-.14.1-.2.56-.945 1.426-2.045 2.6-3.3 2.505-2.672 5.462-4.83 8.876-6.476h-.025c1.262-.582 3.02-1.115 5.275-1.6l-.2.05c1.642-.27 3.475-.403 5.502-.404zm69.65-37.5c.02-2.317.846-4.292 2.476-5.925 1.657-1.653 3.666-2.48 6.025-2.475 2.36-.004 4.37.82 6.025 2.475 1.654 1.656 2.48 3.665 2.475 6.025.004 2.36-.82 4.368-2.475 6.024-1.656 1.654-3.664 2.48-6.025 2.476-2.36.004-4.368-.82-6.024-2.476-1.63-1.632-2.454-3.606-2.475-5.925v-.2zm0 188.302c.02-2.318.846-4.293 2.476-5.926 1.657-1.654 3.666-2.48 6.025-2.475 2.36-.003 4.37.82 6.025 2.476 1.654 1.656 2.48 3.664 2.475 6.025.004 2.36-.82 4.37-2.475 6.026-1.656 1.652-3.664 2.48-6.025 2.475-2.36.005-4.368-.82-6.024-2.474-1.63-1.633-2.454-3.607-2.475-5.926v-.198zm-86.7-79.477c5.055-2.918 10.57-4.375 16.55-4.375 6.163.004 11.196.805 15.1 2.4h.025c2.487 1.027 3.878 2.262 4.175 3.7-.377 1.15-1.936 2.235-4.675 3.25-4.085 1.47-8.96 2.202-14.625 2.2-7.622.004-13.938-1.89-18.95-5.676.728-.497 1.528-.997 2.4-1.5zm0-31.5c5.055-2.918 10.57-4.376 16.55-4.375 6.163.004 11.196.804 15.1 2.4h.025c2.487 1.027 3.878 2.26 4.175 3.7-.377 1.15-1.936 2.234-4.675 3.25-4.085 1.47-8.96 2.202-14.625 2.2-7.622.003-13.938-1.89-18.95-5.676.728-.497 1.528-.997 2.4-1.5zM85.465-37.54c-.83 0-1.538.29-2.125.876-.584.587-.876 1.295-.875 2.125v181c0 .83.29 1.538.875 2.126.587.584 1.295.875 2.125.875s1.538-.29 2.125-.874c.584-.588.876-1.295.875-2.125v-181c0-.83-.29-1.537-.875-2.124-.587-.585-1.295-.876-2.125-.875z"/></svg>