<?xml version="1.0" encoding="utf-8"?>
<!-- Generator: Adobe Illustrator 16.0.0, SVG Export Plug-In . SVG Version: 6.00 Build 0)  -->
<!DOCTYPE svg PUBLIC "-//W3C//DTD SVG 1.1//EN" "http://www.w3.org/Graphics/SVG/1.1/DTD/svg11.dtd">
<svg version="1.1" id="Layer_1"
	xmlns="http://www.w3.org/2000/svg"
	xmlns:xlink="http://www.w3.org/1999/xlink" x="0px" y="0px" width="159.145px" height="167px" viewBox="-1.25 -20.791 159.145 167" enable-background="new -1.25 -20.791 159.145 167" xml:space="preserve">
	<path fill="#F72432" d="M133.75,38.558c-0.334-2.833-1.217-5.517-2.65-8.05l-17.25-30.05c-0.266-0.467-0.684-0.7-1.25-0.7
	c-0.6,0-1.033,0.233-1.299,0.7L94.1,30.509c-1.867,3.233-2.799,6.717-2.799,10.45c-0.033,3.833,0.898,7.417,2.799,10.75
	c1.434,2.533,3.301,4.65,5.6,6.35c2.201,1.7,4.635,2.9,7.301,3.6c2.699,0.767,5.416,0.983,8.15,0.65c2.832-0.367,5.5-1.267,8-2.7
	c2.533-1.434,4.666-3.3,6.4-5.6c1.699-2.2,2.898-4.633,3.6-7.3C133.883,44.009,134.084,41.292,133.75,38.558z M104.301,31.658
	c-2.102,3.367-3.018,6.817-2.75,10.35c0.066,0.7-0.135,1.317-0.602,1.85c-0.432,0.5-1,0.783-1.699,0.85
	c-0.699,0.066-1.301-0.133-1.801-0.6c-0.533-0.434-0.832-1-0.898-1.7c-0.4-4.6,0.766-9.066,3.5-13.4c0.332-0.6,0.85-0.967,1.549-1.1
	c0.668-0.167,1.301-0.066,1.9,0.3c0.566,0.333,0.934,0.85,1.1,1.55C104.732,30.425,104.633,31.058,104.301,31.658z"/>
	<path fill="#F72432" d="M156.15,77.759l-10.701-18.65c-0.166-0.267-0.416-0.4-0.75-0.4c-0.365,0-0.633,0.133-0.799,0.4
	l-10.701,18.65c-1.133,2-1.699,4.166-1.699,6.5c-0.033,2.367,0.533,4.584,1.699,6.65c0.9,1.566,2.068,2.883,3.5,3.949
	c1.367,1.033,2.867,1.768,4.5,2.2c1.701,0.5,3.385,0.634,5.051,0.4c1.768-0.2,3.434-0.75,5-1.65c1.566-0.899,2.883-2.066,3.949-3.5
	c1.068-1.333,1.818-2.833,2.25-4.5c0.434-1.667,0.551-3.35,0.352-5.05C157.6,80.992,157.051,79.325,156.15,77.759z M139.551,78.459
	c-1.301,2.1-1.867,4.25-1.701,6.45c0.033,0.434-0.1,0.816-0.4,1.149c-0.266,0.3-0.615,0.467-1.049,0.5
	c-0.434,0.034-0.801-0.083-1.1-0.35c-0.334-0.267-0.518-0.616-0.551-1.05c-0.268-2.867,0.449-5.65,2.15-8.351
	c0.199-0.366,0.516-0.583,0.949-0.649c0.434-0.101,0.834-0.051,1.201,0.149c0.332,0.233,0.566,0.567,0.699,1
	C139.816,77.709,139.75,78.093,139.551,78.459z"/>
	<path fill="#F72432" d="M53.2,100.108c0.067-0.3,0.101-0.6,0.101-0.899v-52.15c0-1.466-0.518-2.7-1.551-3.7
	c-1-1-2.232-1.5-3.699-1.5c-1.434,0-2.667,0.5-3.7,1.5c-1,1.033-1.5,2.267-1.5,3.7v52.15c0,0.3,0.033,0.6,0.1,0.899
	c-3.1,1.066-5.633,2.934-7.6,5.601c-1.967,2.733-2.95,5.783-2.95,9.149c0,4.334,1.533,8.033,4.6,11.101
	c3.067,3.033,6.75,4.55,11.051,4.55c4.333,0,8.033-1.517,11.1-4.55c3.033-3.067,4.55-6.767,4.55-11.101
	c0-3.366-0.983-6.416-2.95-9.149C58.817,103.042,56.3,101.175,53.2,100.108z"/>
	<path fill="#F72432" d="M76.55,101.909c-1.801-4-4.334-7.45-7.601-10.351V0.109c0-2.833-0.55-5.55-1.649-8.15
	c-1.067-2.467-2.567-4.667-4.5-6.6c-1.934-1.934-4.15-3.434-6.65-4.5c-2.566-1.1-5.267-1.65-8.1-1.65
	c-2.834,0-5.533,0.55-8.101,1.65c-2.533,1.066-4.75,2.566-6.649,4.5c-1.934,1.9-3.434,4.1-4.5,6.6
	c-1.067,2.6-1.601,5.316-1.601,8.15v91.45c-3.267,2.9-5.816,6.351-7.649,10.351c-1.867,4.1-2.801,8.416-2.801,12.949
	c0,4.268,0.817,8.334,2.45,12.2c1.601,3.733,3.833,7.05,6.7,9.95c2.9,2.9,6.217,5.133,9.95,6.7c3.899,1.667,7.967,2.5,12.2,2.5
	c4.267,0,8.333-0.833,12.199-2.5c3.733-1.567,7.051-3.8,9.95-6.7c2.9-2.9,5.134-6.217,6.7-9.95c1.633-3.866,2.45-7.933,2.45-12.2
	C79.35,110.325,78.416,106.009,76.55,101.909z M67.3,123.009c-1.067,2.5-2.567,4.717-4.5,6.65c-1.934,1.899-4.134,3.383-6.601,4.449
	c-2.6,1.101-5.316,1.65-8.149,1.65c-2.834,0-5.533-0.55-8.101-1.65c-2.533-1.066-4.75-2.55-6.649-4.449
	c-1.934-1.934-3.434-4.15-4.5-6.65c-1.067-2.566-1.601-5.283-1.601-8.15c0-3.766,0.95-7.283,2.851-10.55
	c1.866-3.167,4.383-5.667,7.55-7.5v-96.7c0-2.9,1.017-5.367,3.05-7.4c2.066-2.034,4.533-3.05,7.4-3.05
	c2.899,0,5.366,1.017,7.399,3.05c2.033,2.033,3.05,4.5,3.05,7.4v96.7c3.167,1.833,5.684,4.333,7.551,7.5
	c1.933,3.267,2.899,6.784,2.899,10.55C68.95,117.725,68.4,120.442,67.3,123.009z"/>
	<path fill="#F72432" d="M1.4,9.408h5.7v5.95c0,0.733,0.25,1.35,0.75,1.85c0.533,0.5,1.149,0.75,1.85,0.75
	c0.733,0,1.351-0.25,1.851-0.75s0.75-1.117,0.75-1.85v-5.95h5.8c0.733,0,1.35-0.267,1.85-0.8c0.5-0.5,0.75-1.117,0.75-1.85
	c0-0.7-0.25-1.3-0.75-1.8c-0.5-0.534-1.116-0.8-1.85-0.8h-5.8v-5.5c0-0.733-0.25-1.35-0.75-1.85s-1.117-0.75-1.851-0.75
	c-0.7,0-1.316,0.25-1.85,0.75c-0.5,0.5-0.75,1.117-0.75,1.85v5.5H1.4c-0.733,0-1.35,0.267-1.85,0.8c-0.533,0.5-0.801,1.1-0.801,1.8
	c0,0.733,0.268,1.35,0.801,1.85C0.05,9.142,0.667,9.408,1.4,9.408z"/>
	<path fill="#F72432" d="M19.95,84.608c0.5-0.5,0.75-1.116,0.75-1.85c0-0.533-0.133-1.017-0.399-1.45
	c-0.101-0.134-0.217-0.267-0.351-0.399c-0.5-0.5-1.116-0.75-1.85-0.75H1.4c-0.733,0-1.35,0.25-1.85,0.75
	c-0.134,0.133-0.25,0.266-0.351,0.399c-0.3,0.434-0.45,0.917-0.45,1.45c0,0.733,0.268,1.35,0.801,1.85c0.5,0.5,1.116,0.75,1.85,0.75
	h16.7C18.833,85.358,19.45,85.108,19.95,84.608z"/>
</svg>
