<?xml version="1.0" standalone="no"?>
<!-- Generator: Adobe Fireworks 10, Export SVG Extension by Aaron Beall (http://fireworks.abeall.com) . Version: 0.6.1  -->
<!DOCTYPE svg PUBLIC "-//W3C//DTD SVG 1.1//EN" "http://www.w3.org/Graphics/SVG/1.1/DTD/svg11.dtd">
<svg id="Page%201%20Copy%202-Page%201%20Copy%202" viewBox="0 0 320 320" style="background-color:#ffffff" version="1.1"
	xmlns="http://www.w3.org/2000/svg" xmlns:xlink="http://www.w3.org/1999/xlink" xml:space="preserve"
	x="0px" y="0px" width="320px" height="320px"
>
	<g id="Layer%201">
		<g>
			<path d="M 276.0585 266.4653 L 276.1681 266.4653 C 276.9357 266.4378 277.6484 266.1084 278.1693 265.532 C 294.1235 247.6074 305.911 225.9497 312.2707 202.9469 C 312.49 202.2057 312.3804 201.4372 311.9966 200.7784 C 311.6128 200.1196 310.9823 199.6529 310.2422 199.4608 L 253.8816 185.5438 C 252.3739 185.187 250.9484 186.0379 250.5098 187.4653 C 246.7817 200.0647 240.559 211.5112 232.0336 221.5577 C 231.0741 222.6832 231.1564 224.385 232.2255 225.4007 L 274.1122 265.6967 C 274.6604 266.1908 275.3457 266.4653 276.0585 266.4653 ZM 209.1439 308.82 C 209.3358 308.9024 209.5551 308.9847 209.8018 308.9847 C 209.9389 308.9847 210.1034 308.9573 210.2404 308.9024 C 232.7463 301.3263 253.58 288.425 270.5211 271.5709 C 270.7952 271.3239 270.9323 270.9396 270.9323 270.5827 C 270.9323 270.1984 270.7678 269.8416 270.4937 269.5671 L 228.6344 229.2985 C 228.0862 228.777 227.2364 228.777 226.6881 229.2985 C 216.984 238.6863 205.6899 245.7957 193.1349 250.3798 C 192.4496 250.6269 192.0658 251.368 192.2577 252.0817 L 208.4312 307.9416 C 208.5683 308.3259 208.7876 308.6279 209.1439 308.82 ZM 227.6476 232.2631 L 267.5331 270.5827 C 251.4144 286.3113 231.8417 298.4441 210.7339 305.7731 L 195.3279 252.5483 C 207.3621 247.9917 218.2176 241.1567 227.6476 232.2631 ZM 314.5734 193.5042 C 316.8487 182.744 318 171.7092 318 160.702 C 318 147.7423 316.4101 134.8101 313.285 122.2691 C 313.0931 121.5314 312.6271 120.8966 311.9692 120.5123 C 311.3113 120.1589 310.5163 120.0491 309.7762 120.2653 L 253.9912 136.4365 C 252.5383 136.8482 251.6885 138.3031 252.0175 139.7579 C 253.58 146.6718 254.4024 153.7298 254.4024 160.702 C 254.4024 166.6036 253.8267 172.5876 252.6754 178.4893 C 252.4013 179.9441 253.3333 181.399 254.7588 181.7558 L 311.1468 195.6727 C 311.3661 195.7276 311.6128 195.7551 311.8321 195.7551 C 312.353 195.7551 312.8738 195.5904 313.3124 195.3159 C 313.9635 194.9042 314.4089 194.2728 314.5734 193.5042 ZM 120.3849 311.7846 C 120.4911 311.812 120.6316 311.8395 120.7344 311.8395 C 120.9811 311.8395 121.2346 311.7571 121.4505 311.6473 C 121.7795 311.4552 122.0262 311.1258 122.1119 310.769 L 136.0067 254.3326 C 136.1746 253.5914 135.7326 252.8503 134.9958 252.6307 C 121.7521 248.9799 109.6905 242.5841 99.1365 233.6904 C 98.5609 233.1964 97.7385 233.2513 97.2177 233.8002 L 56.9997 275.7433 C 56.729 276.0177 56.5954 276.3746 56.5954 276.7589 C 56.6228 277.1432 56.7838 277.5 57.0854 277.7745 C 75.2052 293.8325 97.108 305.6084 120.3849 311.7846 ZM 98.369 236.6824 C 108.6214 245.1095 120.2444 251.2582 132.9673 254.9639 L 119.7235 308.7102 C 97.8516 302.6713 77.2612 291.6091 60.0459 276.6216 L 98.369 236.6824 ZM 129.7532 313.9531 C 139.8171 315.9844 150.1825 317 160.5103 317 C 174.2201 317 187.8716 315.2158 201.0572 311.6748 C 201.4135 311.565 201.7151 311.3179 201.907 310.9885 C 202.0989 310.6866 202.1263 310.2748 202.0166 309.918 L 185.8705 254.113 C 185.6786 253.3718 184.9111 252.9601 184.1983 253.1522 C 171.3143 256.4462 157.7759 257.05 144.1449 254.6894 C 143.3807 254.5522 142.7228 255.0188 142.5618 255.7325 L 128.6292 312.2512 C 128.5539 312.6081 128.6018 313.0198 128.828 313.3492 C 129.0439 313.6512 129.3728 313.8982 129.7532 313.9531 ZM 144.9672 257.6814 C 158.1048 259.7676 171.1224 259.1911 183.5678 256.1991 L 198.919 309.3141 C 177.119 314.9687 153.8798 315.7099 131.7303 311.4826 L 144.9672 257.6814 ZM 195.3827 6.8709 C 171.7529 1.5217 146.7011 1.7104 123.0919 7.4748 C 122.3551 7.643 121.7247 8.1336 121.3374 8.7958 C 120.9605 9.4546 120.8474 10.2507 121.0667 10.9884 L 137.2403 66.8723 C 137.6001 68.0835 138.6931 68.9105 139.9301 68.9105 C 140.1186 68.9105 140.3345 68.883 140.5332 68.8556 C 153.6605 65.9939 167.2024 65.9939 180.3057 68.8007 C 181.8134 69.1301 183.2663 68.1934 183.6227 66.7385 L 197.4935 10.3056 C 197.6854 9.561 197.5758 8.7958 197.1646 8.1336 C 196.7534 7.5023 196.1229 7.0391 195.3827 6.8709 ZM 178.798 62.7618 C 166.5925 60.48 154.0991 60.5075 141.9004 62.8132 L 127.2894 12.2785 C 148.2602 7.5846 170.3549 7.4234 191.3531 11.7604 L 178.798 62.7618 ZM 204.7853 9.3139 C 204.0452 9.0978 203.2502 9.1801 202.5923 9.5884 C 201.9344 9.9487 201.4409 10.6075 201.2765 11.3452 L 187.3508 67.8365 C 186.9944 69.2639 187.8168 70.7462 189.2149 71.1888 C 201.8796 75.2788 213.3381 81.8633 223.2615 90.7878 C 223.8098 91.2785 224.4677 91.5255 225.153 91.5255 C 225.8931 91.5255 226.6333 91.2236 227.1541 90.6471 L 267.3686 48.759 C 267.8895 48.21 268.1636 47.4723 268.1362 46.7278 C 268.1088 45.9626 267.8073 45.2455 267.2316 44.7514 C 249.4681 28.3091 227.8669 16.0665 204.7853 9.3139 ZM 51.0854 271.5984 C 51.3013 271.5984 51.8221 271.4337 52.0962 271.1591 L 92.3142 229.2436 C 92.8316 228.6946 92.8316 227.8437 92.2868 227.2947 C 82.6855 217.4403 75.2052 205.3899 70.6581 192.4611 C 70.4045 191.7749 69.6404 191.3906 68.9311 191.5827 L 13.1393 207.778 C 12.7898 207.8878 12.4608 208.1349 12.2929 208.4643 C 12.1284 208.7937 12.0736 209.2054 12.2073 209.5622 C 19.78 232.6199 32.8799 253.9208 50.0951 271.1866 C 50.3418 271.4337 50.6982 271.5984 51.0854 271.5984 ZM 68.4617 194.6571 C 73.0156 207.0643 80.2217 218.6481 89.3228 228.2554 L 51.058 268.1671 C 34.9941 251.7523 22.6858 231.7141 15.3357 210.0563 L 68.4617 194.6571 ZM 6.5088 127.4811 C 4.1787 138.382 3 149.554 3 160.702 C 3 174.2346 4.727 187.7124 8.1228 200.696 C 8.3181 201.4372 8.7841 202.0685 9.442 202.4254 C 9.8772 202.6724 10.3466 202.7822 10.84 202.7822 C 11.0833 202.7822 11.3575 202.7547 11.611 202.6998 L 67.3652 186.5046 C 68.818 186.0928 69.6952 184.6105 69.3389 183.1283 C 67.5262 175.7718 66.6216 168.2231 66.6216 160.702 C 66.6216 154.6356 67.2247 148.5143 68.376 142.5269 C 68.6775 141.0721 67.7729 139.6172 66.2995 139.2604 L 9.932 125.3469 C 9.1953 125.1787 8.4037 125.2885 7.7732 125.7037 C 7.1393 126.112 6.6699 126.7434 6.5088 127.4811 ZM 11.4157 131.523 L 62.4034 144.0949 C 61.4714 149.5814 61.0088 155.1537 61.0088 160.702 C 61.0088 167.784 61.773 174.8934 63.2532 181.8382 L 12.8378 196.4688 C 10.0451 184.8302 8.6196 172.7798 8.6196 160.702 C 8.6196 150.9265 9.5551 141.1304 11.4157 131.523 ZM 274.167 51.5349 C 273.6187 50.9859 272.906 50.6565 272.1385 50.6565 C 271.3709 50.6565 270.6308 50.9859 270.1031 51.5349 L 229.8954 93.4779 C 228.8537 94.545 228.8263 96.2194 229.8406 97.3208 C 238.7223 107.062 245.3562 118.3472 249.5229 130.8608 C 249.9341 132.0446 251.0306 132.7823 252.2094 132.7823 C 252.4561 132.7823 252.7302 132.7514 252.9769 132.6759 L 308.7619 116.4772 C 309.4746 116.2885 310.1051 115.791 310.4615 115.1082 C 310.8179 114.4459 310.8727 113.6533 310.6534 112.9362 C 303.4164 90.1256 290.7791 68.883 274.167 51.5349 ZM 113.7441 10.0585 C 90.4741 17.2778 68.818 30.1207 51.1608 47.1978 C 50.5851 47.7194 50.2836 48.4571 50.2836 49.2291 C 50.2836 49.9943 50.616 50.7114 51.1608 51.2604 L 93.0509 91.5255 C 93.5992 92.0505 94.2845 92.325 94.9938 92.325 C 95.6825 92.325 96.3713 92.0745 96.8887 91.5804 C 106.8121 82.4122 118.8189 75.3851 131.6207 71.2437 C 133.0461 70.7736 133.8651 69.2364 133.4573 67.7816 L 117.3112 11.9491 C 117.0919 11.2388 116.6019 10.6075 115.9406 10.2507 C 115.2552 9.8904 114.4911 9.8355 113.7441 10.0585 ZM 127.2894 66.7694 C 115.5294 70.9692 104.482 77.413 95.052 85.6787 L 57.1676 49.2291 C 73.091 34.4303 92.2011 23.0936 112.7059 16.2861 L 127.2894 66.7694 ZM 9.113 120.2378 C 9.4968 120.8966 10.1307 121.3632 10.8675 121.5588 L 67.2555 135.4723 C 67.4782 135.5272 67.6941 135.5581 67.9134 135.5581 C 69.147 135.5581 70.2435 134.7621 70.5999 133.5543 C 74.5165 120.5946 81.3457 108.3556 90.4193 98.1717 C 91.4096 97.0395 91.3513 95.3136 90.2582 94.2739 L 48.4264 54.0294 C 47.8781 53.5078 47.1345 53.151 46.3704 53.2333 C 45.6268 53.2608 44.9175 53.5936 44.3898 54.1391 C 27.7503 72.3417 15.442 94.4352 8.8389 118.0727 C 8.6196 118.8104 8.7258 119.5756 9.113 120.2378 ZM 46.6137 60.0991 L 84.4399 96.4939 C 76.2983 106.1562 69.9968 117.4414 66.0185 129.3785 L 15.0616 116.8066 C 21.3083 95.9724 32.1637 76.4866 46.6137 60.0991 Z" fill="#c52228"/>
			<g>
				<path d="M 111.9302 209.78 C 111.0318 208.8945 109.5986 208.8945 108.7085 209.78 L 103.0204 215.4466 C 101.0776 217.3945 100 219.9733 100 222.7181 C 100 225.4629 101.0776 228.0527 103.0204 229.9896 C 104.966 231.9264 107.5656 233 110.3207 233 C 113.0773 233 115.6644 231.9264 117.6183 229.9896 C 121.64 225.9831 121.64 219.4642 117.6183 215.4466 L 111.9302 209.78 ZM 111.9302 209.78 L 111.9302 209.78 Z" fill="#c52228"/>
				<path d="M 218.7496 120.5853 C 223.86 115.4928 224.4377 107.3276 220.0717 102.004 C 217.461 98.8276 213.6059 97 209.4732 97 C 205.8182 97 202.3964 98.4056 199.8301 100.9719 L 191.798 108.9656 C 189.2539 111.4987 184.8212 111.4987 182.2771 108.9656 L 180.9551 107.6471 C 179.0442 105.7435 175.7225 105.7435 173.8228 107.6471 L 164.8685 116.5663 C 163.9131 117.5195 163.3909 118.7826 163.3909 120.1204 C 163.3909 121.4596 163.9131 122.7214 164.8685 123.6732 L 169.3456 128.1321 L 132.3398 165 C 128.7848 168.5417 126.1393 172.9355 124.6173 177.8939 C 124.0299 179.8086 123.1953 181.6458 122.1857 183.3724 C 122.1288 183.4831 122.0871 183.591 122.0191 183.7044 C 121.9649 183.7819 121.908 183.8594 121.8538 183.9368 C 121.3414 184.7669 120.7956 185.5638 120.2068 186.3275 C 119.5528 187.1686 118.8417 187.9655 118.0849 188.7181 L 108.0433 198.7233 L 120.9178 211.5508 L 130.872 201.6341 C 133.9521 198.5684 137.7724 196.2884 141.9495 195.0599 C 144.8811 194.1966 147.6376 192.8464 150.1831 191.1641 C 151.8815 190.0352 153.5021 188.7956 154.9463 187.3457 L 191.8646 150.5663 L 196.3418 155.0266 C 197.2972 155.9784 198.5637 156.5 199.9079 156.5 C 201.2633 156.5 202.5186 155.9784 203.4741 155.0266 L 212.4283 146.1074 C 214.3947 144.1498 214.3947 140.9623 212.4283 139.002 L 211.1063 137.6835 C 209.8398 136.4121 209.1399 134.7284 209.1399 132.9382 C 209.1399 131.1439 209.8398 129.4616 211.1063 128.1999 L 218.7496 120.5853 ZM 173.2228 162.7311 L 141.0511 162.7311 L 172.5563 131.3431 L 188.654 147.3678 L 173.2228 162.7311 ZM 173.2228 162.7311 L 173.2228 162.7311 Z" fill="#c52228"/>
			</g>
		</g>
	</g>
</svg>