<?xml version="1.0" encoding="utf-8"?>
<!-- Generator: Adobe Illustrator 16.0.0, SVG Export Plug-In . SVG Version: 6.00 Build 0)  -->
<!DOCTYPE svg PUBLIC "-//W3C//DTD SVG 1.1//EN" "http://www.w3.org/Graphics/SVG/1.1/DTD/svg11.dtd">
<svg version="1.1" id="Layer_1"
	xmlns="http://www.w3.org/2000/svg"
	xmlns:xlink="http://www.w3.org/1999/xlink" x="0px" y="0px" width="100.704px" height="122.4px" viewBox="42.71 -5.839 100.704 122.4" enable-background="new 42.71 -5.839 100.704 122.4" xml:space="preserve">
	<path fill="#F72432" d="M85.102,34.411c-1.333,1.967-4.05,5.467-8.15,10.5c-2.767-1.7-4.684-3.7-5.75-6
	c-0.733-1.6-1.15-3.716-1.25-6.35c0-1.434-0.017-2.5-0.05-3.2c-0.033-1.233-0.133-2.267-0.3-3.1c-0.4-2.333-1.4-4.3-3-5.9
	c-0.033,4.633-1.033,8.65-3,12.05c-0.767,1.333-1.8,2.767-3.1,4.3c-0.466,0.566-1.7,1.95-3.7,4.15c-3.4,3.733-5.967,7.2-7.7,10.4
	c-2.733,4.967-4.667,10.934-5.8,17.9c-0.967,4.667-0.75,9.384,0.65,14.15c1.367,4.667,3.783,9.116,7.25,13.35
	c3.5,4.267,7.85,8.101,13.05,11.5c5.367,3.467,11.35,6.267,17.95,8.4c-1.967-2-3.5-4.55-4.6-7.65c-1.033-3-1.55-6.116-1.55-9.35
	c0.033-3.333,0.616-6.317,1.75-8.95c1.233-2.867,3.017-5.017,5.35-6.45c4.1-2.3,6.55-7.033,7.35-14.2
	c0.267-2.266,0.333-4.633,0.2-7.1l-0.2-3c4.634,5.733,7.517,11.467,8.649,17.2c1.034,5.399,0.635,11.533-1.199,18.399
	c6.834-4.232,10.75-11.783,11.75-22.649c0.334-3.767,0.3-7.784-0.1-12.05c-0.268-2.934-0.667-5.617-1.201-8.05
	c3.701,5.267,6.584,10.85,8.65,16.75c2.1,5.967,3.217,11.801,3.35,17.5c0.135,5.967-0.832,11.417-2.899,16.351
	c-2.167,5.267-5.517,9.683-10.05,13.25c14-5.667,23.949-14.017,29.85-25.05c4.834-9.066,6.801-19.601,5.9-31.601
	c-0.733-9.5-3.1-18.9-7.1-28.2c-1.601-3.7-3.268-6.934-5-9.7c-1.601-2.566-2.967-4.267-4.101-5.1c1.333,2.934,1.417,5.6,0.25,8
	c-0.899,1.867-2.983,4.25-6.25,7.15c-3.733-12.9-10.683-23.083-20.851-30.55c-3.199-2.333-6.516-4.267-9.949-5.8
	c-1.067-0.467-2.1-0.867-3.1-1.2l-1.1-0.35c2.3,7.133,3.75,13.117,4.35,17.95c0.566,4.667,0.383,8.8-0.55,12.4
	C89.002,27.678,87.436,30.978,85.102,34.411z"/>
</svg>
