<svg xmlns="http://www.w3.org/2000/svg" width="243.05" height="149.55" viewBox="-28.683 -18.127 243.05 149.55"><path fill-rule="evenodd" clip-rule="evenodd" fill="#C52026" d="M102.366 44.673l1.3 6.75h5.1l1.15-6.75v-6.1h-7.55"/><path fill-rule="evenodd" clip-rule="evenodd" fill="#C52026" d="M-26.483-15.927c-1.467 1.467-2.2 3.233-2.2 5.3v134.55c0 2.066.733 3.833 2.2 5.3s3.232 2.2 5.3 2.2h228.05c2.066 0 3.833-.733 5.3-2.2s2.2-3.233 2.2-5.3v-134.55c0-2.067-.733-3.833-2.2-5.3-1.467-1.466-3.233-2.2-5.3-2.2h-228.05c-2.068 0-3.833.733-5.3 2.2zm12.8 12.8h213.05v119.55h-213.05V-3.127z"/><path fill-rule="evenodd" clip-rule="evenodd" fill="#C52026" d="M74.216 45.523h15.7c-3.233 4.066-5.816 8.7-7.75 13.9-1.967 5.166-3 10.25-3.1 15.25h6.65c0-3.167.532-6.784 1.6-10.85 1.033-4.034 2.566-7.85 4.6-11.45 2-3.6 3.983-6.35 5.95-8.25v-5.05h-23.65v6.45zM66.166 68.273l-56.2 31.5-13.6-7.65v18.7h33.35l-13.6-7.65 53-29.7M171.267 9.273l-39.25 22.05 2.9 5.25 42.5-23.9 13.5 7.6v-18.7h-33.35M114.366 44.673l1.3 6.75h5.1l1.15-6.75v-6.1h-7.55"/></svg>