<svg xmlns="http://www.w3.org/2000/svg" width="243.05" height="149.55" viewBox="-28.634 -19.227 243.05 149.55"><path fill-rule="evenodd" clip-rule="evenodd" fill="#C52026" d="M139.316 32.973l38.15-21.35 13.5 7.55V.473h-33.35l13.7 7.7-34.9 19.55M80.266 66.673h6.95v6.9h-6.95zM104.366 68.473c-1.334 0-2.467-.45-3.4-1.35-.934-.934-1.5-2.25-1.7-3.95l-6.7.85c.334 3.034 1.584 5.483 3.75 7.35 2.134 1.867 4.834 2.8 8.1 2.8 3.468 0 6.35-1.116 8.65-3.35 2.3-2.233 3.45-4.934 3.45-8.1 0-2.166-.616-4.017-1.85-5.55-1.233-1.567-2.884-2.567-4.95-3 3.467-1.867 5.2-4.384 5.2-7.55 0-2.233-.85-4.25-2.55-6.05-2.033-2.167-4.75-3.25-8.15-3.25-2 0-3.8.383-5.4 1.15-1.6.733-2.833 1.767-3.7 3.1-.9 1.3-1.583 3.033-2.05 5.2l6.4 1.1c.167-1.6.667-2.8 1.5-3.6.833-.833 1.85-1.25 3.05-1.25s2.15.367 2.85 1.1c.733.7 1.1 1.667 1.1 2.9 0 1.434-.5 2.583-1.5 3.45-.966.833-2.382 1.233-4.25 1.2l-.75 5.65c1.234-.367 2.284-.55 3.15-.55 1.334 0 2.483.516 3.45 1.55.934 1 1.4 2.383 1.4 4.15 0 1.833-.483 3.282-1.45 4.35-1 1.1-2.217 1.65-3.65 1.65zM64.316 73.573h6.7v-7.25h4.5v-6.1h-4.5v-22.9h-5.8l-15.65 22.95v6.05h14.75v7.25zm-8.3-13.35l8.3-12.3v12.3h-8.3z"/><path fill-rule="evenodd" clip-rule="evenodd" fill="#C52026" d="M212.216-17.027c-1.467-1.467-3.233-2.2-5.3-2.2h-228.05c-2.067 0-3.834.733-5.3 2.2s-2.2 3.233-2.2 5.3v134.55c0 2.067.732 3.834 2.2 5.3 1.466 1.467 3.232 2.2 5.3 2.2h228.05c2.066 0 3.833-.733 5.3-2.2 1.467-1.466 2.2-3.232 2.2-5.3v-134.55c0-2.067-.733-3.833-2.2-5.3zm-12.8 132.35h-213.05V-4.227h213.05v119.55z"/><path fill-rule="evenodd" clip-rule="evenodd" fill="#C52026" d="M16.166 102.073l34.8-19.55-2.95-5.2-38 21.35-13.6-7.65v18.7h33.35M127.366 50.323l1.15-6.75v-6.1h-7.55v6.1l1.3 6.75M139.316 50.323l1.15-6.75v-6.1h-7.55v6.1l1.3 6.75"/></svg>