<?xml version="1.0" encoding="utf-8"?>
<!-- Generator: Adobe Illustrator 16.0.0, SVG Export Plug-In . SVG Version: 6.00 Build 0)  -->
<!DOCTYPE svg PUBLIC "-//W3C//DTD SVG 1.1//EN" "http://www.w3.org/Graphics/SVG/1.1/DTD/svg11.dtd">
<svg version="1.1" id="Layer_1" xmlns="http://www.w3.org/2000/svg" xmlns:xlink="http://www.w3.org/1999/xlink" x="0px" y="0px"
	 width="125.95px" height="167.8px" viewBox="30.329 -28.498 125.95 167.8" enable-background="new 30.329 -28.498 125.95 167.8"
	 xml:space="preserve">
<path fill="#C52026" d="M127.28,20.852c3,0,5.566-1.067,7.699-3.2c2.101-2.1,3.15-4.667,3.15-7.7c0-3-1.05-5.567-3.15-7.7
	c-2.133-2.133-4.699-3.2-7.699-3.2c-3.033,0-5.617,1.066-7.75,3.2c-2.101,2.133-3.15,4.7-3.15,7.7c0,3.033,1.05,5.6,3.15,7.7
	C121.662,19.785,124.246,20.852,127.28,20.852z"/>
<path fill="#C52026" d="M30.329,139.302h125.95v-167.8H30.329V139.302z M39.329,1.952h25.05v10.6l27.8-13.85l-27.8-14v10.9
	l-25.05-0.05v-15.05h107.95v149.8H39.329V1.952z"/>
<path fill="#C52026" d="M112.78,64.152H92.979l-12.55,20.95l-24.649-8.7c-1.434-0.533-2.834-0.466-4.2,0.2
	c-0.3,0.166-0.601,0.35-0.9,0.55c-0.866,0.634-1.5,1.483-1.899,2.55c-0.533,1.434-0.467,2.834,0.199,4.2
	c0.434,0.866,1,1.567,1.7,2.101c0.434,0.3,0.917,0.55,1.45,0.75l33.15,11.75l17.649-29.5l30.25,55.6c0.733,1.3,1.833,2.167,3.3,2.6
	c1.434,0.434,2.817,0.284,4.15-0.449s2.217-1.817,2.65-3.25c0.433-1.467,0.283-2.867-0.45-4.2L112.78,64.152z"/>
<path fill="#C52026" d="M127.229,23.002c0-0.066-0.017-0.133-0.05-0.2c-3.6-0.133-6.717-1.483-9.35-4.05
	c-0.5-0.533-0.95-1.066-1.351-1.6l-27.149,5.6l-9.351,23.3c-0.533,1.267-0.533,2.533,0,3.8c0.567,1.267,1.483,2.15,2.75,2.65
	c1.268,0.533,2.551,0.517,3.851-0.05c1.267-0.533,2.149-1.434,2.649-2.7l7.351-18.25l9.7-2l-14.2,32.1h22.899l7-17.1l4.051,17.4
	l18.75-2.35v-10.05l-11.051,1.35L127.229,23.002z"/>
</svg>
