<svg xmlns="http://www.w3.org/2000/svg" width="703.561" height="419.402" viewBox="0 0 703.561 419.402"><g fill="#CCC"><path d="M425.522 299.762c-.278.662-.063 2.07-.41 2.482-1.11 1.323-3.253 4.472-4.843 5.554-2.006 1.41-4.5 1.158-4.5 5.216 0 1.328 1.045 3.4 1.045 4.312 0 .16-1.38 3.723-1.38 3.723-.143 0-1.388 1.334-1.388 1.662 0 1.245 0 2.57.828 3.315.068.578-.137.998-.137 2.073 0 2.148 1.518 4.545 3.25 4.545 4.216 0 4.843-5.54 6.083-9.273 1.525-4.72 3.112-8.872 3.112-14.908.135 0 .827.246 1.18.412v-1.244c-.69-2.155-.486-7.54-2.84-7.87zM486.03 253.938c0 1.163.758 2.32 1.732 2.32 1.306 0 2.205-1.898 2.205-3.395 0-2.646-2.005-3.648-2.975-5.63 0 2.486-.963 4.307-.963 6.705zM537.33 282.775c0-.83-.342-1.985.356-2.317v-3.57c0-.83-.977-1.075-1.39-1.566-.76-.913-1.594-1.404-1.594-3.15-.76 0-1.31-.247-1.31-1.324l.275-.83c-.14-.332-.354-.748-.623-.748h-.547c0-.086.13-.334.13-.405 0-1.248-1.174-1.662-2.21-2.078-1.94-.75-2.7-1.818-4.014-3.396-.686-.83-1.176-1.824-2.21-2.235-.276-.08-.624 0-.754-.417-.56-1.32-1.046-2.564-2.564-3.144h-2.278c-.56-.338-.695-.753-1.386-.753h-.417v.668c.206.832 1.313 3.15 1.867 3.318.622.154 1.314 0 1.587.74.42.992.626 1.494 1.038 2.485.484 1.16 2.075.832 2.56 2.736.137.67.618 2.643.97 2.9.198.168 1.035.25 1.104.42.14.25 0 .74.21.74.206 0 1.034 1.65 1.17 2.07.765 1.904 1.318 3.396 2.7 5.05 1.24 1.492 2.495 2.155 3.8 3.73.07.077 1.318 2.238 1.658 2.238.49 0 1.87-.246 1.87-1.16zM543.768 268.195c0 .407.692 3.39 1.032 3.475.352.082.76.082.9.502 0 .08-.07.328-.07.415.902 1.655-.21 4.558 2.354 4.558.556 0 .898-.506 1.455-.417.06.326 0 1.24.134 1.24.205 0 .342.413.55.413.833 0 1.176-.904 1.728-.904 1.177 0 1.94.983 3.046 1.327 0 .497.205 1.157.892 1.157.904 0 1.043-.995 2.15-1.33 0-.916.828-2.144.828-2.817 0-.41-.34-.577-.34-1.15 0-.503.684-1.746 1.516-1.912 0-1.405.558-1.902.905-3.728l.338-.826c.21-.086.492-.165.695-.165.752 0 1.31.406 1.52-.83-1.24 0-3.11-4.14-3.11-5.387 0-.25.27-.5.482-.58-.07-.254-.21-.497-.273-.75 0 0 1.868-.905 2.003-1.157-.135 0-.275-.246-.275-.416 0-.738 1.527-.246 1.527-.995 0-1.654-2.907-.66-2.907-2.398 0-1.24.132-2.07-1.043-2.07-1.104 0-2.627 3.147-3.182 4.47-.27.666-1.864.256-2.485.994-.14.17-.21.588-.424.67-.334.158-.268.33-.687.58 0 0-.752.666-.48.994-.56.66-.56 1.492-1.593 1.74-.758.166-1.458.166-1.938.738-.965 1.168-.692 3.735-2.832 3.735-.966 0-2.42-.582-2.42.828zM568.095 269.183c1.178 0 1.666-.32 2.638-.32.894 0 1.52.565 2.42.565 1.383 0 1.864-1.397 2.072-2.643.21 0 .275-.41.345-.666h-.413c-.84.665-1.797 1.41-2.21 1.91h-.56l-4.836-1c-1.795 0-2.623 2.745-2.623 4.722 0 .5-.556.91-.625 1.25-.484 1.902-1.244 2.652-1.244 4.47 0 .993.96.993 1.38 1.074v3.978c0 .496.553 1.074 1.1 1.074.773 0 1.044-2.9 1.044-3.307 0-1.08-.614-1.654-.614-2.734 0-.583.55-.996 1.036-.996.2 0 .344.083.548 0l-.277 1.743c0 1.07 1.108 1.488 1.108 2.562 0 .247.068.502 0 .75h.89c0-.916 1.526-.824 1.526-1.738-.278-.085-.965-.993-.965-1.495 0-.17.21-.324.273-.493-.408-.253-1.726-3.228-1.726-3.48 1.93 0 2.07-1.82 3.664-2.4v-.664c-.42-.086-4.082 1.243-4.152 1.483l.146-.333c-.28.42-.35.833-.767.833-1.038 0-1.45-1.576-1.45-2.813 0-1.654 1.104-1.334 2.272-1.334zM554.827 290.144c.832 0 .764.582 1.452.582.14 0 .624-.582.755-.91-.482-.24-.482-.494-1.102-.755-.62-.242-1.175.43-1.655-.152-.14-.16-.14-.745-.564-.745-1.24 0-2.138-.18-2.894-1.078.136.074 2.49-.166 2.56-.58h-.555l-2.076.327c-1.252 0-1.732-1.49-3.116-1.49-.824 0-1.03 1.24-2.074 1.24-2.277 0-3.18-2.646-5.254-2.646-.417 0-.69.5-1.105.5-.204 0-.346-.338-.554-.338-.415 0-1.657 1.496-1.73 1.742 1.038 0 1.6.992 2.284 1.82.688.838 1.73 0 2.76.425 1.392.487 2.5.574 3.81.574.687 0 .903 1.074 1.73 1.074 2.698 0 5.05.162 7.327 1.246-.068-.254-.207-.836 0-.836zM569.35 291.228c.896-.33 1.515-.576 2.004-1.652-.62.32-.968.823-2.003.823-1.04 0-1.52-.583-2.77-.583-.483 0-1.248-.086-1.248.582 0 .905 1.04.828 1.524.828h2.495zM561.88 289.896c0 .252-.07.426-.07.668-.34-.168-.693-.328-1.312-.328-.627 0-1.18-.088-1.18.822 0 .33.833.586 1.385.586.692 0 .976-.502 1.665-.83l.55.328h.62c-.137-.162 0-.578 0-1.246h-1.66zM565.822 292.217h-.692c-.486 0-1.313-.16-1.313.51 0 .82 1.113.904 1.798.904 0 .252.066 1.075.41 1.075h.28c.212 0 .55-.322.55-.582 0-.988-1.033-.744-1.033-1.906zM558.352 289.816h-.625v.835c0 .247.35.577.56.577.34 0 .62-.33.695-.83-.277-.162-.277-.58-.63-.58zM575.436 292.392c1.102 0 3.387-.668 4.08-1.91-.624-.486-3.67-.16-4.36.668-.134.16-.134.654-.347.743-1.037.407-2.35.407-2.35 2.23 0 .343.21.75.485.75.758 0 1.938-.99 2.28-1.407.21-.255-.14-1.074.21-1.074zM594.52 284.097c0-.574-.137-.24-.278-.9-.482.07-.413.823-.413 1.413 0 .48-.695.567-.695 1.396 0 .252.2.663.41.663.56 0 .423-.916.423-1.75.343 0 .55-.31.55-.823zM577.444 277.797c0 .668.82 1.577 1.235 1.577.21 0 .697-.91.697-1.07 0-.828-1.933-1.498-1.933-.507zM581.032 277.797s.97.34 1.244.34h1.595c.968 0 1.448.828 2.418.828.142 0 .415 0 .415-.162 0-.666-.76-.836-.83-1.495l-.21.082c-.41 0-.895.246-1.033-.336h-3.112c-.135.175-.486.336-.486.743zM580.76 264.63c-.555.337-.62 1-.62 1.662 0 1.083.55 1.406.55 2.31v1.083c0 .497.206 1.573.895 1.573-.347-.575-.487-.907-.758-1.404v-.585c.547 0 1.31-.087 1.588-.165-.066-.664-.553-.825-.553-1.25 0-.48.69-.567.69-1.07-1.178-.332-1.656-.992-1.792-2.155zM621.9 283.196c.186.96 1.2.863 1.814 1.435.017.018.02.027.04.05.053.05.108.1.152.165l-.13-.148c.304.262.828.564 1.027.564 1.446 0 2.07-.91 3.318-1.24 0-1.496 1.455-1.16 1.455-2.908 0-.49-.208-1.235-.62-1.235-.973 0-.56 1.82-1.525 2.4-.623.32-1.66.247-2.7.664 0 0-.62.326-.76.257h-2.07zM618.44 283.935c-1.657-.994-1.59-3.232-3.805-4.06-.343-.082-.9-.162-.9-.827-.824 0-1.24-1.16-2.07-1.16-1.54 0-3.66-.854-4.698-1.74v-.09c-.033-.01-.093-.028-.14-.044-.068-.065-.15-.133-.206-.2l.155.184c-.348-.108-.907-.334-1.196-.676h-1.874c-.406-.255-.96-1.247-1.794-1.573-.207-.09-.76 0-.82-.42-.83.164-1.664 1.655-2.287 1.906-.968.337-1.107.42-1.656 1.077-.14.167-.77 1.4-1.244 1.4-.422 0-1.387-1.31-1.387-1.654-.623 0-1.04-.325-1.04-.738v-2.982c-1.245-.334-2.15-1.656-3.32-1.656-1.245 0-1.728 1.41-2.557 1.41-.417 0-.97.246-.97.734 0 1.168 1.662.666 2.145 1.834.064.243.21.66.42.74.34.082.616.253.96.253.763 0 1.246-.082 2.003-.333h.488c-.487.99-2.557.825-3.525 1.406.138.662.897.326 1.243.986.345.667 0 1.002.345 1.832.07.247.485.247.694.247.552 0 .83-.828 1.038-1.49v.745c1.103-.417 1.526 1.736 2.562 1.736 1.104 0 2.97.415 3.73.83.693.418 2.633 1.326 2.898 2.32.35 1.242-.064 2.407.91 3.563-.42.25-1.733.665-1.733 1.655 0 .664.62.664 1.102.664h1.46c0-.413.757-.495 1.033-.495 1.794 0 2.278 2.572 4.074 2.572h2.634c0-.588.618-.913.344-1.997.972-.574.828-2.065 2.56-2.065 2.286 0 3.524 2.313 4.908 3.974.137.168.69.32.69.67 0 .905 1.59 1.813 2.628 2.062h1.8c.14.17 1.174.998 1.312.998h.41c0-.58.485-.998.903-1.33-.2-.08-1.25.083-1.377-.324-.146-.334-.28-.835-.695-.997-.274-.08-.685.252-.826-.16-.143-.338-.35-.92-.558-.92-.487 0-1.314-.414-1.518-.823-.557-.993-.418-1.576-1.11-2.408-.133-.164-1.315-1.568-1.315-1.99 0-.742 1.317-.406 1.317-1.32 0-1.828-1.45-.91-2.146-1.327zM629.99 278.546c-.764-.91-1.382-1.903-2.697-2.4.206.666.69.577 1.244 1 .894.65.766 1.58 1.664 2.066-.14.82-.14 1.415.693 1.578.13.158.272 0 .41 0-.065-.163 0-.42 0-.586 0-1.156-.757-.992-1.313-1.658zM634.482 282.94c-.135.838.146 1.67.968 1.823v.666c0 .248.212.575.416.575s.484-.413.484-.666c0-.252-1.45-2.074-1.868-2.4zM647.827 294.043c-.064.493.415 1.734 1.11 1.734-.07-.162 0-.326 0-.487 0-.668-.555-.83-1.11-1.247zM644.787 292.723c0 .988 1.104 1.314 1.932 1.314.072 0 .28-.157.35-.157-.488-.835-1.178-1.157-2.283-1.157zM645.137 289.49c.07.653 1.31 2.635 2.006 2.635-.355-1.23-1.043-1.98-2.006-2.636zM641.054 287.747h-.137c0 .91 1.59 1.574 2.14 1.574.208 0 .417-.082.554-.168-.415-.742-1.798-1.243-2.423-1.655l-.133.25zM637.802 285.43l.347.25c0 .074-.28.074-.348.074l1.038.828h.623c-.42-.743-.9-.493-1.66-1.152zM617.816 372.83c-.064 0-3.798-1.325-3.798 0 0 1.745 2.285 7.87 4.35 7.87 1.393 0 3.255-4.382 3.255-6.207 0-.998-.552-1.484-.764-2.48-.974.326-2.143.818-3.044.818zM621.278 371.173c.07-.41.21-.573.21-1.4-.21.08-.557.08-.9 0 0 .66.06 1.158.69 1.4zM598.114 358.995c.62.747 1.66.583 2.42 0-.974-.58-1.106-.744-2.42 0zM587.257 298.264h.686v-1.237c-1.028-.075-1.513.087-2.763.415.278.334 1.25.822 2.077.822z"/><path d="M629.99 330.497c-1.313-1.575-3.94-2.987-3.94-6.292-.9 0-2.005 0-2.28-1.082-.285-1.158-.42-2.732-1.248-3.727-1.172-1.41-4.153-2.156-4.705-4.144-.552-2.078-1.104-3.142-1.723-5.383-.35-1.338-.35-3.978-1.182-4.642-.273-.164-1.588-.668-2.28-.913-.763-.666-.415-2.157-.69-3.31-.42-1.584-1.314-3.07-1.52-5.313-1.178.75-.838 1.827-1.94 2.82v7.467c-.337 1.89-.764 6.787-2.903 6.787-1.315 0-1.66-1.824-2.627-2.24-1.726-.826-2.764-1.245-4.636-2.065-.27-.08-.27-1.333-.688-1.658-.407-.332-1.39-.17-1.39-.824l.837-4.15c.552-.495 1.582-.573 1.582-1.654 0-.667-.967-1.5-1.377-1.5-.76 0-1.043.67-1.94.67-2.485 0-3.87-1.165-6.22-2.32.14.91.822 1.155 1.242 1.906-.206.074-.756.577-1.243.577-1.18 0-3.943.746-3.943 1.902 0 1.166-1.036 1.753-1.036 2.904 0 .75.206 1.326-.206 2.064-.14-.076-.693-.654-1.034-.654-.628 0-1.177.326-1.52.91-.146-1.49-.842-3.147-2.078-3.147-1.453 0-1.8 1.656-3.662 1.656-.145 1.906-1.52 2.234-1.52 4.556-.562 0-.902-.33-1.452-.662-.353.913 0 2.15-.764 2.73-.28-.58-.69-.91-1.043-1.65-.687.408-.898 1.23-.898 2.07v1.402c0 2.822-5.66 5.138-8.156 5.64-1.31.244-3.806.41-4.63 1.41-.76.9-2.356 2.975-3.66 3.146 0-.252 0-.583-.078-.83-.28.166-.762.33-.762 1v4.796c0 2.07.84 3.07.84 4.313 0 .413.195.745 0 1.074-.21-.247-.494-.66-.626-1.073-.214.413-.28.745-.42 1.074-.337 1.246 1.046 1.663 1.384 2.908.902 3.23 1.11 4.392 1.932 8.038.356 1.485 1.39 2.815 1.39 5.218 0 1.907-1.587 2.484-1.587 3.728 0 1.157 3.318 2.895 4.492 2.895 3.11 0 4.146-2.728 6.568-2.728.828 0 .828-.666 1.936 0 1.52 0 2.698-.424 4.147-.59.55-4.22 4.907-2.73 8.432-4.14 1.526-.577 2.01-1.897 4.495-1.897 2.28 0 6.363.82 7.47 2.483.55.913 2.08 4.97 2.56 4.97 0 0-.277 1.49.55 1.49 1.452 0 3.186-4.305 4.433-5.804.062 1.244-.283 5.553-2.015 5.973 0 .416.35.82.698.82 1.034 0 1.11-1.484 1.733-1.82 0-.254.137-.574.137-.823.274.327.687.656.687 1.655 0 .833-.28 1.32-.486 1.818h.83c.558-.16.903-.25 1.38-.576 0 .076.073.416.073.416.07 1.072.973 2.066.973 3.31 0 3.397 4.422 5.547 7.118 5.547 1.73 0 1.187-1.652 2.768-1.82.07.5 2.904 2.397 3.454 2.49.553-3.983 6.224-2.235 6.99-6.05v.16c0-2.9 1.454-5.462 2.004-7.457.695-2.646 1.94-3.477 3.185-5.797.345-.658.137-.987.48-1.653v-2.32c.62-.75 1.032-3.317 1.032-5.137 0-2.486-.69-6.97-1.797-8.705l.07-.248zM671.2 373.25c-.342.166-.69.744-1.173.744-.417 0-.35-.578-.35-1.163-.21 0-.483-.25-.483-.816-.623.325-1.656 1.48-1.656 2.728 0 .167-.07.33-.07.498-.548.08-.97.246-1.244.91-.073.245-.073.826-.073.826s-.973 1.826-1.308 1.988c-1.176.663-2.212 2.74-3.877 2.74-.483 0-.83.496-1.104 1.075-.692 1.233-2.764 2.398-2.764 4.554 0 .166.208.33.345.33 0 .41 2.693 1.656 3.112 1.656.412 0 1.24.414 1.52.414.763 0 2.006-1.24 2.634-1.984 0 0 1.93-4.8 2.14-5.805.55 0 2.216-.413 2.55-.413.145-.995-.2-1.318 0-2.568 1.115 0 2.49-3.065 2.703-4.144-.275-.163-.41-.582-.41-1.247-.218 0-.42-.078-.49-.322zM680.052 363.558c-1.113 0-1.035.83-2.35.83-1.658 0-2.562-1.243-2.562-3.403h-.41c-.35 0-.622.332-.622.827h-.415c-.353-.41-1.182-2.233-1.182-2.644 0-.25.21-.33.285-.588-.413-.246-.413-.822-.838-1.32-.687-.833-1.865-.91-2.625-2.317.418 1.985 1.378 4.72 2.975 5.053-.07.246-.21.578-.21.825 0 .664.55.915.763 1.575v-.052c.104.425.28 1.106.28 1.622 0 1.245-.14 2.406-.833 3.232-.35.416-.973.498-.973 1.33 0 1.49 2.56.824 2.56 2.485 0 .998-.824 1.407-.824 2.403 0 .666.414 1.077 1.038 1.077 1.448 0 1.863-1.662 2.554-2.906.136-.245.968-1.068.968-1.65 0-.248-.275-.585-.275-.825 0-.665.69-.908 1.383-1.083.065 0 .13-.246.2-.246l.29.422c.688-1.25.406-2.992 1.38-4.144-.137-.255-.35-.5-.556-.5zM680.258 313.175v-.986c-.343-.078-.63-.337-.83-.744-.62.252-1.585.488-1.585 1.568 0 .335.895.502 1.453.502.545 0 .545.15.962-.34zM680.606 310.118c0 .24.206.74.414.74.692 0 .898-.827 1.725-1.074v-.744c-.416 0-2.14.085-2.14 1.078zM576.266 246.768c-.062.213-.015 1.22-.21 1.726-.196.426-1.322.116-1.346 1.122-.375.06-.572.426-.582.93-.126-.004-.244-.01-.377-.01-.438-.016-.296-1.164-1.113-1.172-1.135-.033-.85 1.57-2.173 1.537-.136.72-.393 1.142-.4 1.86-.006.223.245.51.236.724 0 .295-.527 1.657-.026 1.662.7.01.607-2.36 1.247-3.07 0 0 .44.586.623.662.063-.074.195-.36.195-.36.12.147.25.366.627.37-.055-.216.01-.432.014-.647l.875.03c.063.21.185.5.243.722-.19.132-.317.354-.326.85-.02 1.38.72 2.54 1.604 2.56.187.002.433.075.63-.05-.003.204.12.583.31.583.443.005.702-.425.705-1 .01-.794-.737-1.024-.73-1.533.003-.426.32-.565.584-.998.123.22.304.368.36.586l-.03-.175c.103.405.55 1.637.768 1.704.02-1.224.784-1.64.8-2.436.003-.644-1.008-4.92-1.5-5.516-.252-.284-.562-.654-1.006-.66zM561.528 249.628l.44.018c.765-.564 1.975-1.476 2.255-3.128.507.008.948-.125 1.084-.765.313 0 .383-.22.635-.42-.247-.3-.56-.452-.55-1.168-.19.204-.2.565-.33.923-.712 1.57-2.873 2.397-3.534 4.54zM565.03 234.427c-.01.43 1.114 1.31 1.367 1.32.19.002.318-.285.453-.492l.37.004-.007.72c-.126.147-.383.353-.387.785-.012.368.488 1.02.924 1.032.383.01.642-.417 1.018-.412.886.015.922 1.6 1.808 1.624-.18-.587-.366-.884-.043-1.374.367.65 1.873 1.332 2.237 2.21.063.214.12.577.312.587.123.003.252-.287.255-.432 0-.215.007-.354.007-.573-.434-.01-.816-.304-.806-.885-.124.068-.438.135-.438-.003.006-.375.316-.43.388-.863-.122-.003-.245-.152-.37-.152-.26 0-.33.5-.576.487-.385-.002-.55-1.658-1.306-1.68-.374-.008-.695.272-.697.56-.005.072-.005.294-.01.355-.688-.373-1.542-2.194-1.524-3.273.015-1.506 1.152-1.62 1.18-3.215.016-1.226-.792-2.32-.773-3.26.004-.14-.125-.368-.125-.505.008-.077-.115-.3-.115-.36-.25.13-.453.704-.83.7-.565-.015-.423-1.307-1.12-1.325-.505-.002-.64.71-.642 1.43-.022.863.285 1.45.273 2.315-.008.65-.15 1.655-.408 2.15-.63-.155-.4 1.362-.416 2.522zM575.593 240.92c-.5-.018-.875-.313-1.38-.324-.19 0-.377.213-.57.272.11.588 1.504 1.115 1.48 2.123 0 .154-.197.426-.316.426-.07 0-.508-.006-.826-.013l-.005.434c.064.21.497.954.94.958l-.012.43c-.256.422-.14 1.007.302 1.02.185 0 .38.008.565.008l.005-.434c-.247-.15-.492-.876-.54-1.45l.942.012c.063-.285.192-.496.27-.926-.07 0-.493-.664-.493-.664s.066-.72.01-1.145c-.126-.01-.252-.01-.378-.01.068-.22.007-.503.007-.718zM570.174 242.328c-.082-.11-.18-.233-.27-.24-.127 0-.392.2-.392.35-.006.658.23 2.03.21 3.257.57-.42 2.04-1.04 2.05-2.27.008-.55-1.102-.81-1.598-1.097zM572.077 244.444c-.317.067-.66 1.863-.67 2.073-.185 0-.564.204-.564.428-.01.502 1.11 1.897 1.362 1.9.118 0 .382-.213.382-.353.004-.437-.314-.298-.31-.946.017-.865.722-1.422.737-2.284.003-.43-.3-1.03-.937-.818z"/><path d="M572.67 247.272h.31c.02-1.084.848-1.423.865-2.723-.197 0-.39-.003-.57-.003-.025 1.296-.406 1.87-.604 2.725zM574.63 246.37c-.19.285-.502.132-.805-.02-.207.435-.59.64-.595 1.066 0 .15.245.367.37.367.567.027 1.024-.612 1.03-1.412zM573.306 242.38c.014-.93-.804-1.168-.987-1.82l-.564-.02c-.01.3-.01.577-.02 1.086.315.01.566-.055.888.02-.012.357.678 1.1.682.733zM568.275 241.056c.255 0 .578-.856.463-1.438-.182-.87-.87-.74-1.622-1.332l-.63-.008s1.412 2.767 1.79 2.778zM568.942 238.754c.12.146.498.088.63.018-.123-.143-.5-.085-.63-.018zM568.04 208.788c-.97 0-2.425 3.23-2.425 4.967 0 1.243-.212 2.324 1.036 2.324 1.59 0 3.11-7.292 1.39-7.292zM547.634 222.87c0-.49-.476-1.238-.824-1.238-.898 0-3.252 2.07-3.81 2.07-.342 0 0 .747 0 1.247 0 1.073.484 1.647 1.53 1.647 1.03 0 3.104-2.57 3.104-3.728zM537.813 275.405c.073.25.352 1.154.487 1.154.28 0 .486.493.9.493h.48c-.065-.242-.065-.567-.065-.824-.97 0-1.385-1.57-1.73-2.814-.487.076-1.452.657-1.452 1.075 0 .665 1.106.246 1.38.915zM541.96 277.556c.42 0 .698-.497.77-.996-.205-.08-.42-.413-.633-.413h-.684c-.07 0 0 .333 0 .413 0 .413.14.996.548.996zM524.408 272.495h-.558v.332c0 .587.9 1.91 1.244 1.993.057-.822-.265-1.307-.687-1.914v-.41zM521.703 267.454l-.34.16h.063c.07.495.97 1.814 1.245 1.814.554 0-.544-1.653-.967-1.974zM584.49 188.662c0 .41.348.91.69.91.21 0 .482-.34.83-.34-.138-.24 0-.494 0-.742.066.416.14.914.552 1.08l-.274 1.154s-.69 1.166-.69 1.338c0 .33.412 1.314.965 1.314v-.495c0 .252 0 .744.21.744.97 0 1.522-2.566 1.73-4.054.206.162.41 0 .62 0-.135-.256 0-.58 0-.833l-.62-.662c-.208 0-.07-.587-.07-.83-.83 0-1.247-.66-1.8-.66-.203 0-2.144 1.574-2.144 2.077zM590.856 189.315c.897 0 1.038-1.323 1.654-2.07.208.083.488.583 1.034.583.693 0 1.526-2.898 0-2.898-.964 0-1.17 1.41-2.35.986 0 .088-1.31 1.253-1.31 1.253 0 .403.135.572.55.9-.068.42.07 1.245.422 1.245z"/><path d="M598.317 179.21c-.623 0-1.033 2.562-2.21 2.562h-4.288c-1.805 0-2.425 2.083-3.878 3.237-.266.164-.894.33-.894.583 0 .323.487.323.97.323 1.45 0 2.692-.655 3.592-1.15.547-.34.97.074 1.523-.25.2-.09.276-.66.694-.66.83 0 1.243.494 2.077.742 0 .332-.213.91-.213 1.406 0 .246-.212.667 0 .667.488 0 .416.653.97.82.35-.82 1.176-2.15 1.656-2.15.208 0 .483 0 .693-.08-.072 0-.694-.998-.694-1.328 0-.245.208-.66.418-.66.623 0 .56 1.41 2 1.41.557 0 .97-.507 1.388-.995h.69c0 .168.215.41.347.41.275-1.156.9-1.24 1.865-1.984-.066.576-.344.66-.066 1.32.825-.322.825-1.153 1.663-1.66-.147-.495-.354-.82-.354-1.574 0-1.066.765-1.57.765-2.32 0-.91-.21-3.476.478-3.723.204-.085.42.084.632-.166v-.493c0-1.078.963-1.248.963-2.572 0-1.163-.963-1.737-.963-2.897 0-.576.064-1.07-.143-1.653-.07-.253-.343-.418-.832-.418-.204 0-.072.752.14.752.072 0 .143.078.203.078-.83.825-.753-.25-.89-.25-.905 0-1.598 2.065-1.598 3.062 0 .416.272.416.272.995 0 2.652-2.346 6.134-3.797 6.717-.827.333-.968 1.15-2.01 1.15-.134 0-.346-.24-.346-.413 0-.334.148-.658.345-.913-.195.088-1.104 2.073-1.173 2.073zM606.135 160.733c-.138.58-1.245 1.163-1.245 2.074 0 .33.35.496.35.826v1.898h.4c.56-.66 1.12-.323 1.664-1.237-.268-.327-1.307-.327-1.307-1.157 0-1.404 1.172-.577 2.07-.577 0-.257.28-.586.48-.664 1.187.91 1.873 1.074 2.973 1.905.557-.993 1.045-2.893 2.496-2.893 1.033 0 1.52-.252 2.147-.752-.278-.08-.835-.578-.835-1.075 0-.42.28-.578.416-1-.416-.323-.902.168-1.45.168-2.696 0-3.528-2.65-5.393-4.14-.14.247-.422.498-.422 1.078 0 .328.355.49.355.826 0 1.076-.486 4.308-1.666 4.308-.202 0-.485.08-.692 0l.145.164c-.216-.164-.353-.25-.486-.41v.66zM616.094 158.25c-.144.25-.205.737 0 .737.618 0 1.45-1.23 1.723-1.737l-.232-.218c-.543.074-1.23.752-1.49 1.217zM617.473 156.927l.11.105c.034-.006.068-.03.098-.03l-.207-.075zM621.35 153.937c-.83 0-1.527 1.826-1.527 1.826 0 .085-.062.414 0 .414.97 0 .97-1.66 2.562-1.66v-.58c-.28.087-.624 0-1.035 0zM624.598 153.198c.55 0 1.108-1.16 1.175-1.66-.144 0-.968 0-1.105.5-.07.24.138.66-.07.66-.137 0-.137.5 0 .5zM611.458 130.076c-.275-1.074-.83-2.152-.83-3.808h-.48v1.745c0 .41-.28.577-.28 1.07-1.032.246-1.457 2.485-1.457 4.227 0 1.24 1.05 1.738 1.05 2.985v4.89c0 .994-.355 1.322-.355 2.57 0 .99.42 1.148.42 2.317 0 1.24-.28 2.23-.28 3.73 0 .404-.2 2.398 0 2.398.834 0 .834-1.83 1.662-1.83h.687c.073.337.42.917.693.84.072 0 .21-.087.21-.087-.556-1.415-2.01-2.32-2.01-4.228 0-2.15.215-4.807 2.08-4.807.613 0 1.108.5 1.452 1.086-.413-1.99-1.317-3.653-1.872-5.722-.136-.495-.622-1.415-.48-2.236v-1.99c-.485-1.163.064-1.99-.21-3.15zM431.68 63.218s1.862-.083 2.075 0c1.17.413.554 1.743 1.038 2.9.13.416 1.243 0 1.724 0 .21 0 .347.504.48.583h5.4c-.066-.16-.146-.275-.226-.403-1.53-1.643-3.785-2.394-3.785-5.398 0-5.3 4.772-10.854 8.3-12.013 1.24-.414 1.588-2.245 3.317-2.245.83 0 1.108-1.656 1.524-1.902 2.277-1.326 4-.66 6.427-2.064 1.73-.994 7.05-1.494 7.05-4.316 0-.907-1.936-2.07-2.765-2.07-3.456 0-6.71 4.724-10.375 4.724-.827 0-1.24-.995-2.07-.995-1.317 0-1.317.994-2.21.994-2.56 0-4.497 3.973-6.225 3.973-1.04 0-1.728.585-2.762.585-.487 0-.692.495-.692.834 0 .492.48.823.48 1.487 0 2.322-3.593 3.56-3.593 4.97 0 .663.968.83 1.034 1.822-1.106.333-3.318.915-3.318 2.326v1.238c0 1.49-2.072 1.328-2.072 3.315.002.99 1.247 1.655 1.247 1.655z"/><path d="M442.12 66.202c.018.027.035.066.052.094.072.08.157.152.226.237l-.278-.33z"/><path d="M689.038 76.063c-5.462-3.815-12.72-7.87-20.742-7.87-2.207 0-3.75.55-3.455 1.65 2.138 8.044-3.185-.08-4.504 0l-15.897-.406c-.9-4.312-3.253-5.807-7.95-5.807-2.564 0-6.43 1.163-7.952-.412-1.38-1.408-1.453-3.4-3.462-4.146-4.216-1.652-8.77-2.892-14.175-2.892-5.394 0-6.147 3.39-6.57 6.625h-11.058c-1.938 0-2.21-1.907-4.493-2.073-.218 1.163-.623 3.73-1.73 3.73-2.904 0-4.145-4.307-4.145-6.627 0-.583 5.58-4.8-8.647-6.214-1.79-.186-2.77.743-2.77 3.308h-7.604c-2.28-.74-14.247-2.402-15.766-5.382-9.075 8.87-7.053 3.316-7.053 3.316 2.14-3.228 23.042-9.983 5.88-14.916h-7.268c-.688-2.317-2.207-4.557-5.18-4.557-3.597 0-5.05 3.23-6.916 4.97-1.38 1.245-10.318 5.555-9.54 1.655-2.28.83-12.017 1.626-17.075 7.05-1.066 1.132-1.388 4.555-2.98 4.555-2.278 0-10.853-.996-10.853 3.73 0 .99.77 1.98 1.032 3.31-1.52 1.156-2.065 0-6.908 0-4.103 6.586-3.732-.995-4.702-2.482-.354 2.646-1.794 3.807-3.596 4.966.553 2.325 3.5 4.734 1.378 7.46-1.454 1.877 2.817 8.04.566 8.04-2.903 0-3.678-12.518-3.678-15.084 0-2.82 3.85-3.97-2.07-5.38-2.98-.71-8.645 5.134-8.645 8.282 0 3.812 1.45 6.3 3.113 8.284 3.845 7.212-5.35-.836-8.772-1.9-9.47-2.94-6.416.912-6.437 1.486-.306 6.382-2.564 1.243-3.81 1.243-2.143 0-6.526 3.484-9.682 1.657-1.585-4.884-11.954 6.216-14.512 6.216-.83 0-2.032-.73-1.728-1.66 1.068-3.348-.48-10.602-3.462.413-.193.71 1.035.997 1.035 2.484 0 2.905-3.593.914-5.53 1.658-1.936.75-.99 8.665-8.987 4.563v3.315c-3.94-.422-3.456-5.473-4.84-7.878 2.973 0 4.597-.11 7.474.794 3.84 1.208 11.58-4.556-.216-9.074-3.38-1.296-10.856-5.8-13.136-5.8-.208 0-.278-.332-1.868-.085-.214 0-1.662-.247-2.285-.335 0-.494-.48-.57-1.172-1.236 1.59-.667 2.14 0 2.766-1.99-.554-.337-2.073-1.324-2.417-1.324-.555 0-.834.578-1.042 1.24-.762-.087-.622-.83-.69-1.908-1.105.826-1.65 1.16-2.627 2.32-.07-.5-.07-.91-.347-1.494-1.18.752-1.59 2.654-2.973 2.49.28-1.155 1.456-1.496 1.456-2.648 0-1.08-2.627.987-3.67.987-.62 0-1.035-.66-1.453-1.24-.207.493-1.445.83-1.445 1.24 0 .582.483.748 1.035.997-1.25.828-2.424.333-3.322 2.322v-1.41c-1.447.083-1.66 1.987-2.56 2.232v-.986c-1.04.24-2.276.163-2.967.986.27.34.204.248.544.667-.48.327-.893.162-1.38.162-.693 0-1.24.667-1.59 1.33.62-.083.62 0 1.108.165-.14.083-.904 2.068-1.252 2.068-.886 0-1.17-.828-2.273-.828.204-.577.138-.997-.21-1.487-.21.247-.414.578-.624 1.072-.204 0-.34-.242-.552-.242-.545 0-.9.49-1.037 1.32 0 0 .694.25 1.038.25-.273.166-1.037.58-1.388 1.164 1.665 0 2.355-1.08 4.083-1.497-.345 1.74-2.283 4.56-3.732 5.222-1.446.66-2.416 1.82-3.25 3.48 0 .08-.69 1.9-.69 1.9-.552 0-.417 2.57-1.244 3.314-2.075 1.995-3.25 4.888-6.292 5.803.622.168.9.333 1.66.58-2.488-.333-2.76 1.66-4.008 2.072-1.522.49-2.286 1.492-3.115 2.9-.414.75-1.515.665-1.515 1.906 0 2.32.132 4.394 1.172 5.886-.346.575-1.108 1.57-1.108 2.146.832-.408.832-.408 1.8-.408v1.238c-.276.17-1.18.584-1.18 1.247 0 .327 2.7 2.32 3.115 2.32 2.904 0 5.12-3.145 6.568-5.636.453.776.628 1.47 1.384 1.962-.15.31-.347.784-.347 1.19 0 1.484 1.04 1.823 1.383 3.055.484 1.826.35 2.987 1.523 4.397 0 .247-.135.578-.135.836 0 .408.964 3.885 1.52 3.885 1.727 0 2.142-2.654 3.322-2.654h1.865c.204-1.57 1.865-1.733 2.078-3.97-.42-.09-1.04-.422-1.04-1.407 0-1.743.55-4.143 1.934-4.143.687 0 2.765-2.075 2.765-3.317 0-1.57-1.87-3.063-3.116-3.316 0-.58-.204-1.16-.544-1.483v-1.663c1.032-.58.34-2.153.894-3.312.688-1.487 1.934-1.825 3.11-2.65 1.45-.998 4.634-2.654 4.634-4.558.208-.51 0-.91 0-1.908 0-2.318 1.865-3.313 4.146-3.313 1.736 0 4.01.412 4.01 2.482 0 1.41-1.655 1.828-2.623 2.486-1.794 1.244-3.32 5.8-6.224 5.8.137.576 0 1.078 0 1.66 0 .907.618 2.813 1.313 3.148-.205.41-.97.992-.97 1.828 0 1.736 1.525 2.888 2.978 2.888 0 .917.624 1.083 1.516 1.083 1.177 0 2.767-.743 4.15-1.242 1.314.246 4.497 0 5.186-1.66.557.913 1.25 1.33 1.73 2.9-.83.664-2.903 1.827-3.8 1.827-1.18 0-1.94-.585-3.456-.585-1.523 0-5.003 1.683-3.942 2.867 3.49 3.91 1.66 5.42.825 5.42-1.38 0-1.584-2.073-2.767-2.073-1.242 0-2.77 3.81-2.77 5.8 0 3.23-2.213 2.792-2.35 5.69-.8.096-1.646.19-2.486.19 0-.16.14-.584.278-.91-.483-.248-1.454-.332-2.352-.332-.835 0-1.936 1.24-2.562 1.57-1.03.585-1.934.336-3.105 1.005-.35.164-.42.738-1.177.738 0 0-1.174-.992-1.174-1.157 0-.25.34-.496.41-.914-1.588-.243-2.903 1.66-4.77 1.66-.206 0-.344-.582-.484-.996-.622 0-.898-.337-1.665-.337.08-.242 0-.407 0-.91-.408-.08-.754-.66-.754-1.48 0-1.496.833-2.243 1.522-3.067.208-.253.832-.42.832-.83v-.662c-.556 0-1.316-.078-1.316-.914 0-.827.07-1.323.416-2.15v-.998c-1.733 1.49-4.43 1.738-4.43 5.215 0 1.992 1.107 2.653 1.388 4.887 0 .085.48 1.662.48 2.08 0 .66-1.107 1.406-1.522 1.406-.622 0-1.243-.5-1.728.086-.14.163-.348.824-.554.573-.482.25-.066 0-.966 0-1.586 0-2.56 1.33-3.525 2.485-.074.088-.693.583-.693.913 0 .993.21 1.99-.348 2.655-.274.33-3.037 1.653-3.45 1.815-.348.088-.56.17-.97.17-.42 1.986-.967 3.813-3.046 3.813-.136.66-.62 1.236-1.176 1.236-.828 0-1.52-.407-2.073-1.076h-.694v.67c.074.248-.134 1.49.35 1.658v.575c-.276.083-1.04.416-1.587.416-.56 0-1.662-.333-1.872-.832-.69.25-2.624.752-2.624 1.492 0 .084 0 .33.067.33 0 1.246 3.045 1.907 4.148 2.324.344.078.415.5.827.58 0 1.325.415 2.81 1.798 2.81 0 .67.416.503.416 1.253 0 .327-.14.91-.276 1.237l.134-.128c0 .498.07 1.948.07 2.285 0 1.572-.893 2.06-.893 3.73-.208 0-1.248.404-1.73.404-.69 0-1.105-.577-1.937-.325h-3.32c-.34-.08-.897-.17-1.175-.503h-3.11c-.412.166-.764-.33-1.04-.33-.41 0-2.763 1.743-2.763 2.233 0 .75.757 1.907.757 3.162 0 2.15-.62 4.298-.62 6.373 0 .575-.757.83-.757 1.898 0 .67.55 1.16 1.107 1.16v3.315c0 .253.134.662.547.662 1.04 0 1.8-.57 2.974-.57 1.59 0 1.66 3.06 2.694 3.06 1.523 0 2.423-1.653 4.08-1.653.35 0 1.522-.412 2.147-.173v-.075c1.382.493 1.523-1.584 2.35-2.076 1.452-.83 1.866-1.826 2.766-3.48-.344-.172-.692-.42-.692-1.077 0-1.82 2.006-5.216 3.25-5.55 1.455-.41 2.977-.996 3.392-2.654l-.415-1.817c0-1.252 1.102-2.077 2.14-2.077 1.387 0 2.35.908 3.875.908 1.523 0 2.418-1.486 3.733-2.232.624-.337.696-1.41 1.936-1.41 2.628 0 3.043 3.396 4.282 5.303.142.58 1.18.908 1.667 1.49 1.172 1.41 1.654 2.16 3.8 2.733 0 .498 1.036.848 1.313.848.07.5 1.732 2.476 1.93 2.476.145.742.694 1.074.694 2.31 0 .997-.338 2.24-1.172 2.24 0 .333.28.577.763.577.964 0 .828-1.74 1.447-2.487 0 0 .902 0 .902-.412 0-1.075-1.245-1.318-1.245-2.398 0-.824.688-1.33 1.517-1.33 1.113 0 1.525 1.082 2.223 1.24.2-1.737-1.458-2.396-2.843-3.227-.418-.24-2.078-.66-1.794-1.664.132-.16.132-.4.132-.66-1.035 0-1.727.43-2.764-.164-.555-.325-1.04-1.65-1.31-2.813-.21-.745-.765-2.155-1.802-2.566-.83-.34-1.453-.828-1.453-2.077 0-.487.14-.992.28-1.487-.14 0-.35-.334-.35-.496 0-.91 1.52-.91 2.284-1.49.41.502 0 2.237.902 2.237h2.074c0 1.904 1.72 4.724 3.244 4.724h.97c0 1.156 1.108 1.237 2.077 1.822.967.577 2.49 2.313 2.49 3.478v2.16c0 1.73 1.1 2.486 1.94 3.476.622.74 1.166 1.496 1.446 2.647 0 .173.14.914.413.914h1.178c-.207.415-.896.668-.896 1.245 0 1.398.965 2.73 2.075 2.73h.962c-.693-.413 0-1.41 0-1.9 0-.668-.206-.917-.41-1.408v-.668c.342.415 1.036 1.078 1.793 1.245h.14c.138-.578.826-.254 1.176-.5-.14-.17-.274-.5-.274-.746-.553 0-2.426-2.064-2.426-2.32 0-.247.212-.5.274-.99l-1.304-1.824c0-.41.406-.916.757-.916.625 0 .76 1.24 1.795 1.24.14-.662.14-1.152 0-1.82.903-.33 1.177-1.073 2.285-1.073 1.24 0 1.865 1.654 2.9 1.654.897 0 1.108-1.074 2.007-1.57.624-.33 1.104 0 1.727-.252.35-.08.625 0 .905-.333-.42-.745-2.288-1.898-2.288-3.557 0-1.164 1.246-2.815 1.938-3.646v-2.156c.207-.49.175.18.438-1.167 0-.83.74-1.234 1.433-1.4-.075-.415 0-.822-.075-1.242 1.52-.497 1.663-2.65 3.187-2.65 1.245 0 4.422 6.216 5.39 6.216.972 0 4.29-1.746 4.84-2.574-.137 0-1.935-.33-1.935-.33-.274 0-1.174-.24-1.174-1.245 0-.656 5.044-2.895 6.915-3.722 0 0-.896 1.24-1.245 1.41.134.494 1.943 2.74-2.076 3.974 1.732 4.884 9.683 4.057 9.683 10.596l.274-.05c.025-.01.058-.018.08-.03-1.227.618-2.045 1.908-3.47 1.908h-3.936c-.768-.08-3.46-.653-3.46-1.647-1.593 0-1.518-1.25-3.39-1.25-1.176 0-3.113.08-4.01.745-.763.578-2.006 1.653-2.838 1.653h-2.14c-.35 0-1.663-.326-1.663.42 0 .577.417.33.55.992-1.236.745-6.22.253-6.22 2.812 0 .507.69.42 1.176.42-.14.416 0 .416 0 .996 0 1.57-.76 1.41-1.446 2.237.96.578 1.72.494 2.343 1.572-.69.827 1.31 2.076 1.73 2.57-.065.16-.345.416-.55.49h.758c1.316-.743 2.01 1.495 3.323 1.495 1.24 0 .96-1.902 2.417-1.902 1.455 0 2.003 2.065 3.456 2.065 2.01 0 2.355-1.075 3.458-2.065.275.333.692.658 1.386.658.552 0 .762-.49 1.31-.742v.83c-.138.158-.48.33-.48.83 0 .99.342 2.147.342 3.556 0 1.907-1.38 2.316-1.798 3.974-.41 1.663-.617 2.576-1.104 4.398-.068.333-.555.333-.555.908l.378 1.09c-.082-.192-.168-.38-.235-.59-.91.246-.91.658-1.938.658-1.524 0-2.286-1.07-3.598-1.07-2.144 0-2.837 1.235-5.046 1.235-2.42 0-5.537-1.234-7.743-2.23-1.104-.5-2.698.164-3.32-.838-.273-.493-1.04-.74-1.04-1.898h-1.518l-.208-.162c-2.146.823-3.808.823-3.808 3.474v1.654c0 .413-.757 1.244-1.383 1.244-5.11 0-6.703-6.63-11.193-6.63h-1.94c-1.32 0-3.116-1.825-3.116-3.89 0-1.25.902-1.904.902-3.145 0-.748-.9-1.08-.9-1.826 0-1.08.97-.908 1.04-2.153-.414.088-.62.497-1.04.497-1.1 0-.758-1.486-2.07-1.486-1.317 0-1.383 1.235-2.763 1.235-.766 0-1.184-.574-2.078-.574-1.037 0-2.15 1.238-2.91 1.238-.55 0-1.448-.822-2.417-.822-3.113 0-8.225 2.315-10.923 3.892-.832.492-1.106 1.486-2.56 1.486-2.35 0-4.152-.58-5.878-2.07-.692.66-.83 1.415-1.384 2.236h.142c-1.73 2.563-4.083 5.14-5.88 7.87-1.38 2.076-.346 3.4-1.176 6.463-.344 1.33-2.073 2.983-3.11 3.73-1.246.833-3.043.664-4.008 2.234-1.662 2.74-3.737 7.126-4.634 10.356-.345 1.323-1.94 2.323-1.94 3.986 0 3.302 1.382 5.627 1.382 9.277 0 2.07-1.38 6.543-2.903 7.456.486 1.148 1.037 1.566 1.037 2.73 0 .742.35 1.4.35 2.65h-.212c.348.504.557.66.9 1.157 0 .332 3.666 4.222 4.152 4.642 1.727 1.653 2.14 3.644 3.453 6.043 1.455 2.65 5.46 5.467 7.402 7.213.28.25 1.242.656 2.07.656 2.698 0 3.878-1.653 6.573-1.653 1.377 0 3.11 1.246 4.15 1.246 1.035 0 1.38-1.085 2.417-1.492 2.63-.996 5.19-2.896 8.64-2.896 2.84 0 3.322 4.795 5.398 4.795h2.906c2.342 0 3.595 1.66 4.353 3.483-.694.664-.694 3.146-.694 4.146 0 .323-.276.495 0 1.238-.485.332-1.59 2.406-1.59 3.318 0 3.893 3.94 6.787 5.743 9.532.895 1.403.624 3.31 1.17 4.965.694 2.068 1.244 3.314 1.73 6.875.21 1.818.903 2.65.903 4.717 0 4.395-4.36 5.807-4.36 11.604 0 5.386 2.073 8.54 4.01 12.433.556 1.163 1.383 1.57 1.383 2.73v2.24c0 7.283 3.18 12.174 5.674 17.233.34.737 2.277 3.227 2.277 4.553 0 .91-.347 1.575-.898 2.24.552.667 1.24 2.488 1.24 4.145.147-.09.28-.337.694-.424.422.92 1.042 1.67 2.218 1.67 2.626 0 4.354-2.492 7.256-2.492.763 0 1.182.823 1.937.823.625 0 1.176-.486 2.07-.568.214-1.493 1.943-.83 3.117-1.493 2.84-1.66 3.6-3.98 5.328-6.627 1.1-1.656 1.238-3.574 2.768-5.385.823-1.01 2.758-2.825 2.758-5.142 0-.745-.42-1.33-1.033-1.736.83-2.078 1.8-2.9 3.454-3.9.48-.24 1.66.08 2.072-.584.42-.746.56-3.47.56-4.8 0-2.483-1.94-3.727-1.94-5.552 0-.913 1.113-2.317 2.073-2.485.76-5.46 9.888-4.718 9.888-11.178 0-.678-.135-1.173-.555-1.664 0-2.322.205-3.893.205-5.222v-2.068c.07-.166.49-.744.49-1.25 0-1.57-2.564-2.973-2.564-5.79 0-2.49-.55-3.645-.55-6.208 0-2.338 1.802-2.914 2.28-4.976 1.733-7.383 6.643-8.697 11.202-13.015 2.563-2.4 3.455-5.39 5.53-8.7 1.73-2.82 4.843-8.947 4.843-13.673 0-.49-.277-.745-.483-1.238-2.487.747-4.98 1.986-7.607 2.486-1.038.168-1.728-.424-2.768 0-.896.325-.967 1.402-2.077 1.402-1.167 0-2.074-2.65-2.967-3.48.69-.986.032-1.194.032-2.607-2.27 0-2.865-3.434-3.972-4.433-1.253-1.075-2.01-1.153-3.11-2.484-1.246-1.483-.486-3.646-1.732-5.63-1.036-1.665-2.42-1.665-3.112-3.894v-4.397c-1.036-.986-3.107-4.643-2.76-6.374l-6.576-13.92v-1.41c1.176 1.41 2.354 5.135 3.81 5.39.218-.808.97-2.93 1.26-4.124-.143 1.01-.362 2.065-.362 2.63 0 .246.963 1.57 1.176 1.982.754 1.41 1.454 2.658 2.274 4.146.278.495.764 1.154.968 1.992.146.494 0 1.736.42 2.238.205.24 1.103.08 1.38.41.207.25.56.75.9 1.074.28 1.575 1.177 1.992 1.177 3.895 0 3.15.576 4.848 2.99 5.506 0 1.992 1.916 4.853 2.75 5.842.76.913 1.923 1.653 1.578 3.485-.143.743-.677 2.315.08 2.39 0 1.585.498 2.943 1.216 4.243.454.82-.088.822.083.926.19.11 1.95 1.14 2.16 1.14l.434-.31c1.452 0 1.636-.68 2.815-1.678h2.142c.9-.5 3.665-2.825 4.493-3.07 1.664-.497 3.807-1.075 5.39-1.985-.133-.167-.267-.5-.267-.744 0-1.826 4.21-2.744 6.084-3.155 0-.99 1.31-2.396 1.93-2.396 1.044 0 .965-2.403 2.01-2.403.83 0 .756-1.41 1.034-2.408.28-.994.967-1.325 2.004-1.325 0-1.99 2.007-2.65 2.007-4.553 0-.747-.968-.585-1.318-1.332v.084c-.48-.334-.548-1.743-1.31-1.983-2.004-.748-3.32-1.167-4.286-3.566v-3.063c-2.49 2.237-2.837 5.636-7.47 5.636-1.04 0-2.83-.58-2.83-1.74 0-.997.48-1.658.48-2.655 0-.33 0-.578-.07-.908-.692.164-.555 1.242-1.38 1.49-.07-.746-.48-.998-.48-1.904-1.59-.42-3.53-3.975-3.944-5.96-.146-.67-.146-1.08-.146-1.912 0-1.16.417-2.647 1.385-2.647 1.94 0 3.462 2.57 4.226 4.388.137.333-.07.995.34 1.492.762.908 1.868.407 2.693 1.41.693.824 1.25 1.9 2.358 2.32h3.458c.412-.498.69-1.246 1.453-1.246 1.444 0 1.444 2.49 2.132 3.313.075.087 2.078.745 2.427.745 1.86 0 4.907.998 6.22.998.07 0 .35.08.35 0l2.42-.167c.138-.162.34-.41.614-.58l1.797.58c.702 0 .906-.656 1.734-.656.767 0 1.314-.175 2.075.075.828.33 1.24 2.238 1.8 3.316.687 1.244 2.697 2.894 4.074 2.894.554 0 1.047 0 1.597.172-.28.33-.35 1.072-.898 1.24-.625.255-1.106-.168-1.727.332 1.03 1.24 1.865 3.81 4.01 3.81 1.79 0 1.864-2.812 2.763-3.887h.547c0 .322-.41.906-.41 1.148 0 1.085.69 2.074.69 3.403 0 1.034-.307 1.256-.334 2.364l-.052-.06c0 .24.106.928.106 1.172 0 1.577.767 3.157 1.177 4.805.49 1.835 1.738 4.568 2.076 5.81.28 1.066.28 1.567.833 2.65.55.982.208 2.066.758 3.392.28.664 1.246 1.5 1.527 2.646.48 1.74 1.238 3.396 1.792 5.394.07.244.278.83.62.83.075.578.487.91 1.04.832.554 0 .623-1 .896-1.662.354-.824.487-.505 1.312-1 .558-.332.35-2.484 1.32-2.814.207-.08.692-.08.692-.326l.34-.088-.34-2.156c0-1.572.83-2.9.83-4.966 0-1.33-.49-2.157-.49-3.645 0-1.744 1.457-1.985 2.7-2.487.486-.165 1.25-1.162 1.8-1.832 1.315-1.565 2.55-3.233 3.94-4.885 1.108-1.318 3.108-1.733 4.356-3.227.62-.745.555-1.658.823-2.82.215-.736 1.662-.826 2.15-2.07.554.42.554.827 1.66.827 1.797 0 3.73-.496 3.73-2.98 1.04.25 2.216.746 2.49 1.906.274.988.137 2.316.69 3.314.558 1.077 1.316 1.734 2.283 2.65.69 1.327 1.524 2.645 2.002 4.392.068.41.416.668.416 1.075 0 .91-.348 1.406-.348 2.487 0 1.075.072 2.073 1.105 2.073 1.94 0 2.426-2.408 3.6-3.812.418.492.21.827.617 1.326.14.17.698 0 .903.412.694 1.243-.484 3.728.412 3.728 0 2.66 1.8 4.8 1.8 8.456 0 .905-.555 2.8-.003 3.147h-.345c-.208 1.16-.344 1.98-.344 3.14 0 .174-.138.504 0 .504.63.5.21 0 .896 0 1.112 0 1.592 2.98 2.076 4.144.764 1.91.903 3.645 1.52 6.048.765 2.735 2.7 5.22 4.846 6.05.415.162.48.742 1.17.742.214 0 .278-.333.483-.333.282 0 .35 0 .9-.075-.337-.913-.337-1.325-.618-2.408-.283-.992-1.314-1.493-1.314-2.98 0-.745.274-.745.274-1.578 0-4.142-4.08-4.642-5.95-6.88-.485-.573-.548-2.07-.822-2.645h.132c0-2.41-2.35-1.412-2.35-3.982 0-2.232 2.008-2.89 2.008-5.38 0-.666-.28-.824-.28-1.578 0-.406-.136-.902.42-.902.76 0 1.586.16 1.794 1.072 0 0 .21 1.072.35 1.072 1.102.42 2.072.503 3.037 1.654.835 1.008.07 2.24 1.596 2.24 0 1.252 1.386 1.65 2.415 1.65.07.43.21 1.088.485 1.254-.276.166-.276.49-.276 1.156 0 .508.275 1.662.558 1.662.27 0 1.65-1.242 1.65-2.07v-.914c0 .252 0 .75.212.75.83 0 .687-1.327 1.522-1.838 1.796-1.07 2.005-1.975 4.22-2.643 0-1.485.832-2.233.832-4.144 0-2.73-1.114-6.377-2.77-7.702-1.734-1.32-2.424-3.478-4.016-5.39-.274-.32-.62-.49-.62-1.234 0-3.56 3.39-4.148 4.768-6.72 1.183.67 2.01.17 3.326.914-.065.423-.28 2.075.343 2.075.76 0 .345-1.077.902-1.74.48-.58 1.86-.82 2.42-1.157 1.312-.75 2.624-.417 3.453-1.41 0 0 .693-1.577.832-1.577.69 0 1.04.67 1.73.67 3.184 0 3.94-2.32 5.88-3.653.548-.324.902-.657 1.034-1.488 1.656 0 2.133-3.067 2.764-4.64.417-1.003 2.284-4.308 3.32-4.558 0-1.818 1.035-2.65 1.035-5.05 0-3.565-.69-4.884-1.93-7.127-.215-.41-.215-1.41-.836-1.826l.074-.078h-.145s-.07-1.333-.07-1.576c-.56-.086-1.868-.912-1.868-2.075 0-.996 1.177-1.078 1.457-2.068.624-2.232 3.588-2.232 4.973-3.896-.552-.91-1.59 0-2.56-.747-.48-.328-.753-.99-1.523-.99-.552 0-.552 1.826-.966 1.826-.548 0-1.24.243-1.793-.175-.83-.66-.558-1.484-1.38-2.232-.276-.257-1.457-.586-1.457-1.408 0-1.742 2.007-1.16 2.973-1.986.83-.755 2.42-1.988 2.978-3.065.142-.257.417-1.08 1.107-1.08.55 0 1.314 1.08 1.314 1.567 0 1.332-1.313 1.907-1.313 3.403 1.93 0 3.518-2.486 5.736-2.486.83 0 1.173.905 2.216.905-.345.836 0 .836 0 1.826 0 .825-.764.742-.764 1.736 0 .418.21 1.407.688 1.407.212 0 .484-.398.97-.398.835 0 1.866.656 1.866 1.643 0 .585-.55 1.078-1.106 1.078v.837c.142.162.28.494.693.575 0 .502.343.912.343 1.408 0 .25-.617 1.32-.617 1.91 0 .33 0 .745.347.822-.073.418-.418.666-.418 1.084h1.042c.416-.5.548-.5 1.37-.755 0-.744 1.732-.822 2.15-.99.972-.33 1.385-1.242 1.385-3.146 0-3.235-1.034-5.148-2.556-6.963-.625-.745-1.32-1.49-1.178-2.898.827 0 1.52-.577 2.07-1.247.49-.575 1.732-1.407 2.004-2.067.9-2.244 1.46-3.562 3.11-5.14l.003-.002c.015.003 2.704.836 4.842.836 3.943 0 7.658-9.975 10.43-13.292 1.105-1.322 2.642-4.02 3.055-6.18.48-2.406-.33-3.95.752-6.247.4-.86 1.21-2.73 1.21-4.56 0-2.236-2.998-6.6-4.38-5.358-4.098 3.705-6.223-1.98-6.223-2.478 0-2.324 3.732-4.89 5.18-6.63 2.148-2.57 4.977-6.872 7.955-7.872 2.63-.826 10.86-1.656 13.14-1.656 2.83 0 4.147 1.656 5.87 1.656h3.805c1.11-5.465 3.188-8.7 7.958-8.7 1.245 0 1.8-.416 4.152 0-1.183 1.08-1.67 8.255 5.874-2.896.762-.173 4.377 1.62-1.042 5.8-1.887 1.458-3.592.74-4.832 2.894-1.455 2.49-2.77 5.638-4.842 7.05-1.733 1.156-4.154 3.064-4.154 6.626 0 3.064.832 13.088 2.768 14.914 1.387-2.493 2.352-7.043 5.188-7.875-.347-2.317 2.768-2.812 2.768-4.55 0-2.737 2.414-3.488 2.414-4.973 0-1-.667-2.007 0-3.728 5.594-14.327 10.718-6.628 12.8-6.628 6.152 0 10.51-9.408 15.896-9.53 10.268-.242 2.077-4.888 2.077-6.21 0-3.57 4.012-2.994 4.838-4.973.35-.83-.336-2.905 1.04-2.905 4.35 0 7.946 7.046 11.06 7.046 1.39 0 1.66-3.063 2.42-4.14 1.184-1.66 2.295-1.5 4.15-2.242-2.476-3.984-10.57-6.22-14.515-8.95zm-312.603 55.004c0-.245-.028-.536-.054-.82.026.284.055.57.055.82zm-2.358 13.763v-.002c0 1.563.638 1.838 1.535 1.86-.897-.02-1.535-.295-1.535-1.858zm1.26-4.994c.432-.404 1.435-.77 1.435-1.637 0-1.377-1.003-2.375-1.252-3.77.25 1.395 1.254 2.393 1.254 3.768 0 .868-1.005 1.234-1.437 1.638zm11.53-58.637c0-1.41 1.252-2.072 1.252-3.482 0-1.82-2.424-1.74-2.424-3.313 0 1.574 2.428 1.492 2.428 3.313 0 1.41-1.25 2.07-1.25 3.48 0 1.572 1.382 2.485 1.382 4.14 0-1.655-1.388-2.568-1.388-4.14zM398.116 197.8c-.005-.07-.02-.133-.03-.2l.037.1c-.004.03-.007.067-.007.1zm31.49-38.727c1.31 2.73 3.175 3.813 3.175 7.045.558-.33 1.873-1.154 2.353-1.248.074 1.248 1.176 1.914 1.176 3.154h-2.067c-.627 0-1.247.823-1.388 2.072 1.454.24 2.423 1.903 2.423 3.473 0 .922-.484 1.17-.484 1.91 0 .745.62 1.654.683 1.744v1.484c-.822.256-2.07.5-3.248.5-.893 0-2.624.163-3.178-.5-.413-.488-.552-1.32-1.175-1.487-.766-.167-1.66.332-2.006-.58-.41-.992.206-1.663-.347-2.65-.34-.666-.9-.575-.9-1.41 0-.162-.067-.332 0-.496-.27-.326-.27-1-.484-1.49-.475.09-.414 0-.964.253-1.038.41-.97 1.9-2.487 1.9h-.002c1.52-.002 1.45-1.49 2.483-1.9.556-.254.493-.163.97-.254.212.492.212 1.165.486 1.49-.07.165 0 .335 0 .498l.972.168c.827-1.332.827-3.314 1.93-3.974-1.86-1.245-4.694-6.215-4.694-9.036 0-.83-1.526-2.074-1.526-3.318 0-.406 1.31-3.474 1.663-3.97.343.25 2.42-1.16 2.63-1.243 1.79-.828 2.9-1.408 5.18-1.408 3.74 0 4.355 2.155 5.742 4.64-1.044.995-2.417.078-3.665.078-1.87 0-4.628 2.163-4.844 2.07.07 1.66 1.174 1.574 1.59 2.487zm8.14 16.54c.105-.126.23-.255.497-.38l.004-.002c-.266.127-.393.256-.5.383zm2.182-.824c.48-.093.923-.228 1.44-.675-.515.447-.96.583-1.44.676zm8.833 12.037v-.003c.042-.03.062-.08.074-.133-.013.055-.032.104-.074.137zm2.277 6.963c0 .243-.032.44-.088.616.055-.175.087-.373.087-.616zm-.344-11.76c-.205 0-.205.408-.352.49-.357.25-1.067 1.99-1.398 2.917.33-.928 1.04-2.668 1.4-2.92-.24-.437-.205-1.05-.197-1.728.015.47.048.97.21 1.5.777-1.033 1.376.397 2.063.397-.692 0-1.03-.658-1.725-.658zm6.93-4.843c.335-.426.745-.708 1.365-.708h.005c-.623 0-1.035.283-1.37.707zm5.997.86c-.552 0-.76-.902-1.313-.902-.413 0-2.072.656-2.217-.34.146.996 1.808.33 2.217.33.552 0 .76.91 1.315.912h-.002zm3.39-2.068c-.067 0-.136.02-.204.028.066-.01.133-.03.2-.03.26 0 .465-.346.715-.748-.248.403-.45.75-.71.75zm3.802 2.32c-.396 0-.6-.27-.7-.675.102.406.306.675.702.675h-.002zm1.997-.812c.456-.314.91-.6 1.528-.6h.007c-.626 0-1.08.286-1.536.6zm5.546 1.062c-1.043-.412-1.664 0-1.664-1.405-.852-.244-1.405-.256-2.223-.256.82 0 1.37.01 2.222.245l.067-.408-.068.412c0 1.405.62.998 1.664 1.405.242.082.366.252.444.46-.077-.206-.2-.376-.444-.455zm7.395 15.328c-.277-.088-.974 0-1.105-.5.132.5.828.412 1.114.5.206.08.36.2.53.31-.17-.11-.33-.23-.54-.31zm-.62-13.255c.63 0 2.21 1.49 2.21 2.317 0-.828-1.59-2.317-2.21-2.317zm2.696-25.435c0 9.274-4.358 13.256-10.716 13.256-1.11 0-2.56 3.724-2.766 5.383.186.053.35.107.51.16-.16-.053-.33-.108-.517-.16.213-1.66 1.662-5.39 2.772-5.39 6.356 0 10.715-3.975 10.715-13.255 1.06-.172 1.815-.755 2.418-1.478-.6.723-1.357 1.306-2.417 1.484zm41.275-20.335c-1.413-.764-4.033-1.21-4.97-1.21.932 0 3.557.446 4.97 1.21zm-7.05 76.255c0-3.07 1.8-3.15 1.8-6.467 0 3.318-1.8 3.404-1.8 6.468zm-19.707-9.358h-2.898c-1.593 0-2.218-1.246-3.25-2.076 1.032.83 1.653 2.07 3.25 2.07h2.898c.626 0 .83-.41 1.252-.41-.422 0-.626.416-1.252.416zm6.222-62.307c-3.393 2.4-7.6 2.487-10.37 5.387-1.102 1.158 1.085 5.77-4.497 4.973-.864-.125-1.413.648-1.996 1.643.583-.997 1.132-1.77 1.996-1.646 5.582.8 3.394-3.81 4.496-4.97 2.77-2.902 6.982-2.984 10.37-5.39.117-.075.268-.232.447-.42-.178.187-.328.344-.445.423zm10.375.413c-2.9 0-5.81-2.482-7.61-2.482-.676 0-1.378.652-1.935 1.235.557-.586 1.26-1.24 1.936-1.24 1.802 0 4.705 2.484 7.61 2.484 2.09 0 2.804-1.88 3.38-3.57-.576 1.69-1.29 3.572-3.38 3.572zm2.695 86.09c0-1.035.21-1.897.56-2.604-.35.71-.56 1.57-.56 2.603zm.147.87c.272.663.857.803 1.166 1.36.493.91.558 2.65.558 3.643 0 .663-.558 1.578-.693 1.734v-.003c.136-.164.69-1.062.69-1.73 0-.994-.064-2.733-.557-3.64-.306-.56-.893-.7-1.164-1.363zm1.724 19.26h-.002c.11-.284.202-.537.292-.79-.088.253-.18.506-.29.79zm-.763-11.854c0-.25.066-.496.066-.75v.023c-.004.248-.067.482-.067.727 0 .916.763 1.328 1.244 1.907-.485-.58-1.244-.99-1.244-1.908zm1.25 10.495c.26-.78.492-1.523.893-2.54-.4 1.017-.632 1.764-.894 2.54zm1.257-3.016c.1-.123.19-.266.19-.43 0-.27-.164-1.07-.38-1.964.22.893.38 1.695.38 1.965 0 .17-.088.307-.19.43zm2.697-23.382c.195-.294.39-.62.6-.99-.413 0-.617.165-1.105.165-1.03 0-1.755-1.02-2.053-2.23.297 1.203 1.02 2.225 2.058 2.225.482 0 .687-.16 1.1-.16-.208.37-.405.696-.6.99zm1.02-.99c0 .357.08.586.18.73-.1-.142-.18-.37-.18-.73zm10.58-2.74c-.882 0-1.49-.52-2.206-.778.716.258 1.327.777 2.21.777 0 .71.158 1.246.393 1.67-.237-.424-.396-.96-.396-1.67zm6.71-72.242c-4.5 0-5.736-4.147-10.033-4.147 4.297 0 5.54 4.145 10.032 4.145 2.854 0 6.423-2.456 10.12-2.72-3.697.265-7.266 2.72-10.12 2.72zm19.81-8.148c1.06-2.47 2.622-4.697 6.118-4.697-3.494 0-5.06 2.23-6.117 4.698zm19.596 8.98c-1.174-1.42-4.28-1.584-5.183-3.32-1.67-3.177-2.06-7.054-4.34-9.04 2.28 1.986 2.67 5.86 4.34 9.037.894 1.735 4.014 1.904 5.183 3.318.252.3.503.768.774 1.27-.27-.503-.522-.97-.774-1.266zm2.08 13.247c-.12-.094-.175-.178-.182-.257.008.077.065.16.182.252.718.576.955 1.32.938 2.066.012-.746-.22-1.488-.938-2.06zm7.26-11.595c-1.627 0-2.453.806-3.29 1.5.837-.695 1.663-1.502 3.29-1.502v.002zM681.645 64.874c.757 0 6.216-.41 6.216-1.492 0-1.24-2.62-2.066-3.657-2.066-1.178 0-3.25 1.49-3.25 2.732 0 .417.276.826.692.826z"/><path d="M662.072 70.012c.347 0 .694-.414.694-.824 0-.5-.417-.665-.485-.995h-2.284c.413.995 1.106 1.82 2.076 1.82zM596.246 43.75c.5 0 .6-.61.67-1.096l.022.016-.02-.026.02-.137h-.135l-.558-.664c-.28.413-.554.744-.554 1.247.002.493.215.66.556.66zM550.75 47.893c-.69 0-1.52.413-1.52 1.24 0 .742.762 1 1.52 1 .56 0 1.002-.222 1.442-.503.084-.137.147-.29.147-.498 0-.992-.626-1.24-1.59-1.24zM552.34 49.547c-.048.032-.1.052-.147.083-.12.197-.287.35-.407.502l.554-.585zM524.82 30.657c0 .83.202 1.242 1.035 1.242l3.663-1.243s2.146-.418 2.417-.418c1.25.253 4.845-.08 4.845-2.068 0-1.16-2.838-3.31-3.8-3.31-.48 0-.762.66-1.252.826.565-.663.207-.663.207-1.826h-.9c-2.763 0-3.383 3.065-4.972 4.972-.417.498-1.243.498-1.243 1.823zM508.088 20.716c0 .745.967 2.073 1.38 2.073.827 0 3.11-.167 3.246-1.658-.48-.162-2.42-1.243-2.764-1.243-.41 0-1.862 0-1.862.826z"/><path d="M517.555 20.465c-2.21.83-2.9 1.74-5.183 2.65 1.035.663 2.836 2.985 3.667 2.985 2.486 0 4.7 1.49 7.743 1.49.625 0 1.38-.5 1.38-1.238 0-.58-.55-.83-1.037-1.002.414-.163 1.387-.244 1.387-1.073 0-.83-.138-.996.55-1.653-.9-1.08-.9-1.653-2.28-1.653h-1.386c-.83 0-1.245-.83-2.08-.83-.546 0-.754-.25-1.444 0 .553-.334 1.316-1 1.316-1.496 0-.416.062-.662 0-1.658.27.084.128.25.83-.08-1.112-.994-2.216-3.232-4.155-3.232-3.318 0-4.35 3.896-7.26 4.887 1.796 1.08 3.114 1.747 5.05 1.747.415 0 2.21.158 2.9.158zM517.42 37.285c.83 0 1.24-.495 1.384-1.655h-1.04c-.28.25-.62.58-1.038.828.072.412.35.827.694.827zM509.122 14.746l-.208-.656h-2.56c.416 1.08 1.734.826 2.768.656zM540.38 31.316c.48 0 .826-.657.894-1.24-.623.336-.824-.082-2.283.246.203.418.557.994 1.39.994zM428.01 18.644c-.17.16-.328.258-.483.332v.333l.484-.666z"/><path d="M420.755 16.985c.624 0 .97.5 1.587.748-.345.33-.695.495-1.036.75.282.078.62.16 1.24.16-.55.162-.9.332-1.446.667.206.743.897.997 1.934.997h-.064c.2.326.41.74.756.826.626.08.764-1.412 1.385-1.823.943-.638 1.54.1 2.418-.333v-.493c.21.078.484.078.7 0 .824-.75 1.72 0 1.86-1.497-.41-.162-1.245-.828-2.076-.828-1.035 0-1.518 1.076-2.55 1.076-1.323 0-2.29-1.077-4.017-1.077-1.45 0-4.702.247-5.323 1.574.555.085.965.33 1.52.33 1.042-.002 2.353-1.08 3.113-1.08zM453.602 16.574c.48 0 3.177-.663 3.662-1.08l-.97-2.647c-1.03 0-3.873 1.325-3.873 2.483 0 .826.346 1.244 1.182 1.244zM449.793 18.644l-.342-.992c.618 0 1.313.33 1.73-.416 0-.33.063-.49 0-1.242-.625.162-1.798.086-2.21 0 .137 0 .55-.248.688-.664h-2.283c0 .158-.07.416 0 1.078-.83.337-1.38.992-1.38 2.235 0 .413 3.387.25 3.798 0zM442.533 18.482c-.69 0-3.453.495-3.453 1.658 0 .325.345.576.688.576.62 0 .9 0 1.037-.827.418 0 .968.826 1.383.826.968 0 .9-1.242 2.282-1.242-.343-.582-1.035-.992-1.937-.992zM442.188 16.823c.762 0 1.52.162 2.074-.332-1.517-.744-2.003-.913-3.943-1.242.693-.828 2.078-1.33 3.182-2.16 0-.414.345-.827.626-1.07 0-.25-.07-1-.21-1-.618 0-1.103.666-1.172 1.41-2.007 0-2.078 1.657-4.147 1.657v1.085c.687-.503.41-.17 1.17.16h-2.902c-.35.325-.488.498-.897.916.14.08 2.968 1.57 3.457 1.57.827 0 1.932-.993 2.76-.993zM351.954 25.937c.21 0 .346.243.55.33-.274 1.325.766 1.99 1.94 2.734-.21 0-.344.087-.55.174.338.825 1.1 1.315 2.207 1.315 1.453 0 1.453-1.822 2.075-2.233h.56c.274.245.89.744 1.033.744h1.795c-.756.745-2.624 1.742-3.522 2.07-.35.083-1.938.083-1.938.83 0 1.99 1.796 1.076 2.633 1.076.48 0 2.693.087 3.104.416-.83.245-1.586 0-2.278.667 0 0-1.59-.25-2.56-.084 0 2.815 3.736 3.89 5.392 5.216.973-1.156.828-3.48 2.004-4.56.35-.326.9-.164 1.048-.656.688-2.154 1.447-5.804 3.793-5.804 0 0 .55 1.077 1.66 1.247-.346 0-.618.077-.967.16.276.66.902 2.156 1.38 2.32-.13 1.244-.894.83-1.03 2.32.9.086 2.348 0 3.175.162-.205.42-.205.83-.07 1.498 1.733-.667 2.49-2.07 4.36-2.817-.62-1.077-2.627-.42-2.627-2.985h-2.212c.21-.333.14-.83 0-1.244-.485.084-.69.167-1.24 0 .2 0 .478 0 .687-.086-.688-.986-4.354-3.476-5.533-3.476-.21 0-.483-.086-.688-.086.135-.662.273-1.983-.836-1.983-.552 0-.69.742-1.236 1.073 0-.577.2-1.073.2-1.653 0-.825-1.868-1.653-2.764-1.653-.897 0-1.38 0-1.38 1.236 0 1.572.406 2.32.826 3.65-1.73-.754-1.246-3.65-3.118-3.65-.616 0-1.17.663-1.17 1.406 0 .503.21.913.48 1.08-.48-.577-1.167-.577-1.863-1.24.204-.42.486-.663.83-1.162-1.59-.328-2.35-.328-3.46-.328-.687 0-2.14 1.57-2.415 1.982.48.58 1.24 1.993 1.726 1.993zM365.646 21.46c-.142 1.907 1.245.91 2.42.91.136 0 2.972.253 3.25.253-.348.166-1.11.166-1.73.41-.138 0-.903 0-1.385.082.075.663.275 1.085.9 1.33h3.938c.486.992 1.18 1.492 2.42 1.492 2.003 0 5.466-2.904 7.126-4.227-.412-.994-1.732-2.237-3.116-2.237h-2.272c-1.044 0-1.457.832-2.078.832-.144-.584 0-.994 0-2.073h-.828c-.346.332-.904 1.91-1.73 1.91-.346 0-2.354-1.17-2.77-1.663h-1.93l.342.83h-1.168v.41c-.423.252-.975.08-1.388-.247h-1.04c.066.832.487 1.497 1.04 1.987zM352.574 30.49c-.47-1.77-1.392-2.14-2.27-3.447-1.03.777.95 3.054 2.27 3.446zM350.433 26.927c-.055.03-.076.074-.12.11l.12.14v-.25z"/><path d="M350.225 26.927c.026.043.055.075.08.116l.01-.007-.09-.11zM310.05 134.634c0 1 .896 1.905 1.728 1.905.415 0 .973-.08 1.313-.324.558-.42 1.383-1.826 2.496-1.826.685 0 1.377.08 1.797-.413.55-.665.066-1.663.066-2.324v-2.813c0-.66 1.246-.577 1.246-1.245 0-1.412-.764-3.396-2.353-3.396h-1.176c-.693 0-2.075.993-2.075 1.572 0 .41.14.576.416 1.072-.416.5-1.59.915-2.003.915-.205 0-.764-.166-.764.912 0 .83.628 1.326 1.317 1.737-.28 1.99-2.006 2.153-2.006 4.224zM316.27 115.578c.767 0 1.318-.99 1.318-1.898-.55 0-1.726.41-1.726.91 0 .33.2.988.407.988z"/><path d="M318.484 117.984v.662c0 .08-.482.665-.482 1.073 0 .338.622.584 1.034.668v.74c-.204.17-.276.33-.276.584v1.33h.556c-.135-.334-.346-.582 0-1.25.21.167.624.414 1.176.414-.21.662 0 .835 0 1.577 0 .658-.69 1.08-.69 1.74 0 .658.48.658 1.105.658.555 0 .9-.406 1.59-.406.206 0 .412.077.622.077-.14.33-.485.497-.485 1.157 0 .835.962 1.006 1.662.913v1.245c-.346.832-1.872 1.57-3.114 1.57 0 .916.556 1.33.556 2.414 0 1.234-1.938 1.32-1.938 2.563 0 .163.204.414.342.414.347 0 .278-.414.695-.414.756 0 1.035.993 1.932.993.486 0 .965-.33 1.248-.83 0 .163.14.418.14.583 0 1.152-1.388.75-2.353 1.072-.21.08-2.282 2.733-2.424 3.066v.498h.483c.278-.33.483-.66.973-.66h.967c0-.67.412-1.41 1.102-1.41.487 0 .764.498 1.25.498 1.034 0 2.9-.744 3.592-.744h2.764c.83 0 1.318-.5 1.936-1.248v-.574c-.412 0-.688-.09-1.385-.334.555-1.077 2.22-1.822 2.22-3.314 0-.823-.628-1.57-1.452-1.57-.56 0-.42-.09-.904.326l.346-.327c-.275.16-.345.41-.827.576v-.577c.208-.09.34-.336.34-.587 0-.653-.755-1.078-.755-1.74 0-1.98-1.8-2.57-2.902-3.892-.837-.994-.623-2.98-1.938-3.48-.555-.165-.897.165-1.597-.082.076-.323.284-.578.562-.662 0-1.748 2.136-2.732 1.863-5.057h-4.08c-.134-.245-.203-.408-.203-.663.203-1.154 1.724-.99 1.724-2.145 0-.168-.415-.75-.69-.75h-2.003c-.42 0-1.11.662-1.11 1.072 0 .418-.276.745-.276 1.41-.477 0-.964.328-.964.996 0 .162.204.417.34.497 0 .165-.136.49-.275.49-.135 0-.482-.24-.482-.735h-1.105c0 1.075.553 1.32 1.586 1.572z"/><path d="M320.838 127.345c-.414.25-.486.58-.486.995h.762c0-.414.068-.746.068-.995h-.344zM302.93 89.397l.137-.17c0-2.31-2.562-1.733-2.562-4.132 0-.254.21-.58.417-.75-.618 0-1.038.42-1.657.42-.693 0-1.247-.087-1.247-1.083-.275.25-.275.165-.76 0-.14.33-.274.583-.274 1.24-.624-.745-1.455.248-2.352.248-.626 0-1.175-.247-2.215-.247 0 .247-.068.584 0 .825-.274-.158-.416-.413-.967-.578l-1.66.504c-.413 0-.624-.418-.9-.75-.204.332-.135.498 0 1.077-.343.087-.763.5-1.242.5-.485 0-1.11-1.078-1.037-1.66-.073-.498-.346-.744-.412-1.242h-.555c-.55 0-.692.916-1.243.916v.656c-.42-.247-.767-.407-1.383-.163.135.91 2.693 1.82 3.52 1.82 0 .253.074.497.28.666-.76.334-2.557.745-3.597.745.695.833 1.873 0 2.98.333-.142.91-.35 1.414-.35 2.486-.206 0-.412.245-.62.41 1.523 0 2.074 1.162 3.04 1.498 1.866.746 3.667 1.492 6.22 1.492 2.355 0 3.667-1.407 5.328-2.075.898-.33 2.562-1.818 3.113-2.983zM183.65 222.87c-.485-.244-.827-1.406-1.59-1.658l-1.037-.08c-.068-.158 0-.41 0-.58-1.59 0-3.316-.91-4.29-2.07-.134-.165-.69-.993-1.176-.993-2.275 0-3.733-2.07-6.773-2.07-3.113 0-4.567 1.406-5.67 3.645h.624c.687-.822 2.558-1.99 3.87-1.99.345 0 .69-.085.967.255-.207.244-.276.577.14.913h2.003c.968 0 1.453 1.233 2.423 1.233.552 0 .9-.247 1.454.087.274.164.203.743.76.743.203 1.25 1.313 1.16 2.352 1.745-.066.408-.352.742-.692.742v.502c1.312 0 2.42.574 4.01.574.83 0 2.14 0 2.626-1z"/><path d="M166.573 218.573v.57c-.207 0-.623.167-.623.745 0 .163.9 0 .966 0 .143-.414.07-.823 0-1.24l-.204-.075h-.14zM176.25 227.432c0 .666.56 1.24 1.105 1.24.832 0 1.455-.327 2.285-.49-.07-.33-.206-.588-.622-.75l.14.162c-.413-.162-1.382-.664-2.21-.664-.28 0-.697.173-.697.502zM198.034 227.268c0 .83.898.913 1.727.913.418 0 .9 0 1.11-.5-.21-.497-1.87-.92-2.07-.92-.213 0-.766.08-.766.508zM183.79 226.93c0 .502.417 1.25.83 1.328 0-.243.068-.407.068-.664.348.257.348 0 .83 0 .832 0 2.49-.248 3.112.257.345.248.206 1.068.827 1.068.76 0 .696-1.486 1.593-1.486.346 0 .277.42.69.42.485 0 .76-.34 1.247-.67h2.557c-.485-.825-1.172-1.158-1.862-1.825l.34.337c-1.24-.744-1.66-2.154-3.868-2.154-.76 0-1.178.332-2.073.332-.62 0-1.038-.578-1.665-.578-.206 0-.554.323-.554.578 0 .49.49.912.902.912 0 .652.07 1.24.48 1.738-.828.5-1.518.074-3.108.074-.068.09-.205.334-.343.334zM208.75 247.563c0 .252.416 0 .626 0 .413 0 .693-.744.825-1.075v-.583h-.618c-.416 0-.832.83-.832 1.658zM231.64 270.928c-.832 0-1.383.824-1.383 2.075 0 .745 1.8 2.232 2.833 2.232.832 0 1.87-1.907 1.87-2.648 0-.167-.208-.75-.484-.75-.346 0-.968.913-1.11-.162-.547 0-1.038-.417-1.45-.747 0 .074-.208 0-.276 0zM184.966 382.282h.62v-2.487c.07-.25.277-.418.277-.918 0-.654-.208-1.322-.83-1.322-.416 0-.828 2.486-.828 2.486v1.085c0 .333.345 1.075.76 1.157zM87.468 144.583v.002-.002"/><path d="M260.194 283.266c-.966-.325-1.59.168-2.557-.156-1.104-.42-3.25-2.74-3.873-3.976-.758-.418-1.938-.997-3.25-1.34l-2.625.43c-1.387 0-1.66-1.335-3.11-1.335-.624 0-.902.582-1.524.905h-.487c0-.736.07-1.315-.136-2.06-.137-.67-.76-.5-1.312-.915-.9-.66-3.39-2.233-4.63-2.233-1.11 0-1.94 1.733-2.628 3.067-.212.404-.488.988-.764.988-.208 0-.345-.657-.345-.908h-1.66c-.137-.83-.49-1.492-1.176-1.91-.35-.166-.968-.076-.968-.908 0-2.487 2.005-3.318 3.11-4.976 0-.83-.895-.83-1.244-1.655-.347-.912-1.248-3.563-1.248-4.55-1.176-.343-2.623-3.072-3.733-3.072h-.41v-.16c-.695 0-1.805-.67-2.285-.91h-1.8c-1.867-.426-4.77-.165-5.252-2.49-.35 0-.9-.174-1.04-.508-.827-2.063-1.45-1.81-2.763-3.387h-1.938c-.28-1.076-.07-2.324-.97-2.644-1.035-.423-2.49-.665-2.97-1.83v-.667c.208.167.756.09 1.034-.163 0 0-1.248-.258-1.936-.258-.21.172-1.66.172-1.728.42-.418 1-1.105 1-2.14 1.163-.553 0-1.387-.164-1.387-.913h-3.735c-.414-.083-.83-.67-.83-1.484-1.04-.26-2.594-.722-2.868-2.054l-1.21-.022c0 .992 1.034.58 1.31 1.57h-1.655c-.626.505-1.728.342-1.728 1.576 0 .996.83 1.58.83 2.572 0 .333-.38 1.345-.66 1.345-.76 0-1.14-1.597-1.14-2.51 0-.744.417-2.15.624-3.386.272 0 .69-.34.69-.997 0-.08-.28-.993-.625-.993-.896 0-1.1 1.232-2 1.567-1.733.664-2.84 1-4.498 1.66-.9.332-1.523.573-1.865 1.905-.14.665-.208 1.743-.627 2.075-.41.328-1.105.577-1.105 1.404-.14 0-.415.25-.415.41v.494c-.48.174-.276.174-.83 0-.098.198-.292.376-.51.566.24-.31.432-.57.46-.64-1.105-.992-1.96-2.652-3.89-2.652-1.66 0-2.56 1.652-4.357 1.652-1.18 0-1.18-1.567-1.936-1.988-1.102-.657-2.558-1.402-2.558-3.23v-5.055c.415-.83.48-2.894.48-3.644v-1.244c-1.237-.32-1.654-1.743-3.315-1.743-2.422 0-4.293.497-6.566.497-.416 0-.834-.327-.834-.9v-.42c.418-.495 1.246-.83 1.246-1.653v-3.977h.55v.58c.42-.835.834-1.412.834-2.735 0-1.572 1.176-3.07 1.176-4.226v-.75c-.415 0-1.315-.08-1.59-.164-.276-.164-.76-.25-1.382-.25-1.87 0-4.15.83-4.15 3.227 0 1.247-1.18 2.32-1.454 3.32-.07.336-.417 1.322-.968 1.322-.277 0-.556-.505-1.316-.505-1.38 0-2.488 1.174-3.8 1.174-.556 0-.556-.746-1.174-.993-1.803-.66-1.803-2.07-3.042-3.564-.488-.587-1.385-1.737-1.665-2.416-.274-.735.073-1.23-.205-1.975-.14-.33-.693-1-.553-1.662v-4.635c.207-1.244.69-1.82.69-3.317 0-.493-.138-.827-.278-1.324l-.042-.197.182.028c0-.246-.346-.58-.346-.82 0-2.496.896-4.734 2.42-5.388.687-.34 1.31.246 1.867-.416.833-.992 1.798-3.068 3.804-3.068.76 0 1.174.828 1.935.828.414 0 .62-.66 1.037-.66 1.383 0 3.043 2.816 4.98 1.66-.833-.662-.21-1.406-.14-2.653-.417.246-.28.246-.967 0 1.17-.49 2.63-.328 3.734-.665 0 .256.273.665.482.665.555 0 .76-.665 1.728-.665 1.662 0 2.42 1.912 3.666 1.912.62 0 .9-1.085 1.52-1.085 3.04 0 2.21 5.06 3.32 7.713.55 1.322 1.244 1.733 2.075 3.062.41.742.345 2.068 1.382 2.068 1.172 0 1.52-1.572 1.52-3.308 0-1.5-.62-2.334-.83-3.32v-.412c0-2.657-1.936-3.483-1.936-6.216 0-6.022 4.144-7.597 7.384-9.782l-.188-.16c.41-.502.346-.752 1.175-1.075.55-.168.91-.813 1.726-.998.382-.09.605-.582.812-.912l-.812-.575v-.662c.62 0 .936.075 1.074-.837-.348-.077-.676-.145-.95-.718.345 0 .912-.352.912-1.017v-.83h-.48c-.418-.49 0-.412 0-1.234 0-.835-.348-2.332-.348-2.907 0 0-.07-.657.063-1.078.146.83.764 2.16.764 2.74v.903c0 .18.144.503.28.503.207 0 1.593-2.9 1.593-3.395 0-.663-.485-.915-.625-1.584l.346-.403c.138.155.28.657.485.657.483 0 1.796-2.902 1.936-3.562 0 0-.62-.58-.62-1.002 0-.244.202-.488.414-.577.207 0 .415.09.623.09.966 0 1.66 0 2.628-.413-.486-.42-1.11 0-1.732 0h-.692c1.385-1.08 3.736-.586 5.12-1.827.275.326 1.45 0 2.282-.252v-.57s-.617.57-.76.57c-.416 0-.693-1.074-.693-1.486-.206-.09-.28-.502-.28-.75 0-3.138 2.353-4.05 3.46-5.385.69-.413.76 0 1.586 0 .975 0 1.735-.5 2.22-1.412-.13-.195-.226-.413-.317-.635l-.03-.19v-.252c.14.086.485 0 .69 0 .42 0 2.147.334 2.765-.158.622-.498.622-1.573 1.663-1.652 0 1.154-.068 1.24 1.04 1.24-1.596.16-4.08 1.488-4.08 3.306 0 .748.97 2.08 1.378 2.08.553 0 1.838-2.227 3.217-2.724.35-.08 5.085-2.25 5.085-2.918 0-.905-1.802-.984-2.215-.984-2.008 0-5.186-2.324-5.186-4.4 0-.492.55-1.156.69-1.99-.346 0-1.11-.244-1.73-.244.416-.656 2.905-1.08 2.905-2.735 0-1.572-2.146-1.236-3.598-1.236-3.04 0-4.425 2.563-6.495 2.894.898-2.232 2.35-1.495 3.87-3.317.966-1.15.277-1.895 1.728-2.48 2.628-.992 4.15-.41 6.775-.41 3.458 0 5.348 1.355 7.4-1.825.996-1.547 6.568-1.91 6.568-4.556 0-1.91-.55-2.74-1.175-3.978-.556 0 .243-.813-.556-1.244v-.997c-1.588 1.077-4.907 2.486-6.564 2.486-.213 0-.622-.163-.694-.327 1.384-.915 5.227-1.544 5.64-3.12.068-.412-.522-.533-.59-.94-1.662.243-5.187-.668-5.187-3.48v-.253c-1.52 0-2.42-1.158-3.318-1.987.342-.24 1.035-.498 1.035-1.493 0-.826-.62-1.49-.485-2.316-.623-.248-2.867-1.96-2.28-3.48.723-1.88-2.215-2.32-2.42-4.554-.207 0-.897-.743-1.175-1.08-.484.417-1.59 1.16-1.59 2.32 0 1.242-2.214 4.306-3.94 4.306-1.243 0-1.453-1.817-2.284-1.817-1.177 0-1.66-4.064-1.86-5.798-.283-2.325-4.018-.667-4.018-3.735-1.936-.325-2.352-3.143-4.287-3.143-.898 0-.898.824-1.933.824-2.01 0-3.25-1.408-5.19-1.408-1.035 0-2.072.583-2.072 2.07 0 .83 2.44 2.04.207 3.727-.875.668 1.26 2.497 1.387 3.733.243 2.45-1.718 3.065-2.616 3.486 1.59 3.237 3.995 4.3 3.995 9.77 0 1.49-4.146 5.215-5.532 5.55 2.404 1.46 1.453 5.97 2.42 7.376-.276.498-1.175 1.078-1.245 1.982-.83 0-1.426 1.624-2.077.995-1.71-1.643-4.145-4.223-4.145-6.63 0-2.643.41-4.723-1.52-6.206h-4.496c-2.56-2.24-5.462-3.57-8.507-4.978-.55-.246-2.142-1.654-3.11-1.654-1.037 0-1.517 1.24-2.56 1.24 0-1.99-1.104-6.624-2.625-6.624-.69 0-1.04.662-1.728.83.276-.998 0-1.333 0-3.734 0-3.317.83-5.3 2.418-7.208.554-.66 1.73-3.886 2.283-4.14 1.174-.492 3.25.335 3.25-1.658 0-1.245-2.648-1.336-3.613-2.003.62.253-1.472-1.445 4.147.624 1.454.537.572-1.77 1.4-1.77h1.525c1.657 0 2.557-2.066 3.66-3.06v-1.25c-2.35-.66-4.698-.24-5.737-2.73h1.247c.897.667 1.798 1.902 3.11 1.902 1.105 0 3.115-1.735 3.115-2.735 0-.32-1.04-1.816-.49-1.816 1.522 0 2.076 1.66 3.043 1.66.62 0 1.04-.666 2.28-.666-.345-.5-.015-1.965.833-.414.454.833 4.01-2.817 4.01-3.892 0-.746-1.588-1.574-1.588-2.077 0-.572-.932-1.896 1.244-3.15.275-.745 0-.656 0-2.063-2.212 0-1.663-2.08-4.498-2.08-.618-.082-1.106-.582-1.727-.582-.83 0-1.73.67-1.73 1.665 0 1.078 1.04 1.488 1.04 2.233 0 .825-1.595.825-1.94 1.655-.548 1.415-.364 2.52-1.364 4.05-1.556 2.376-3.608-1.48-3.608-2.392 0-1.074 1.174-.827 1.174-2.062 0-.583-2.008-2.908-2.56-2.908-2.007 0-.626 3.568-2.765 3.568 0-1.41-.137-2.404-1.59-3.23.206-.42.343-.663.69-.993-1.105-.835-2.627 0-3.46-1.248.484-.337 1.73-.91 1.73-1.988 0-1.573-2.044-1.512-2.077-2.74-.066-2.58-1.588-4.225-4.284-4.306-1.318-.04-.763.998-.695 1.823-.828.25-1.93 0-1.93 1.244 0 .832.55 1.24.55 2.07 0 .83-.896.75-.896 1.908 0 2.738 4.7 1.08 4.7 3.89 0 .504-.556 2.485-.556 2.485.488-.326.9-.49 1.458-.825.898 3.404-3.667 1.742-3.667 5.797-2.268.736-.487-1.987-1.038-2.897-.205-.415-2.074-.99-3.11-.99-1.243 0-1.728.91-1.728 2.655-1.174-.176-1.938 0-5.88 0-3.736 0-8.09-1.578-8.99-4.97-1.24.405-5.395.486-5.395 2.314 0 .576.323.897.88.897 1.106 0 2.927-.654 3.756-1.31.276 2.73-3.255.496-3.255 3.316 0 .57.766 2.478.42 2.478-1.382 0-1.658-2.07-2.833-2.725l-1.04-.59h-4.424c-1.385 0-2.28.67-3.803.748-2.74.157-2.74-1.047-2.74-1.3 0-.74 2.117-.434 2.533-.936-1.926-3.206-1.58-2.684-5.534-2.315-4.205.39-6.295-3.732-10.51-3.732-1.315 0-1.87 1.078-2.972 1.078-.762 0-1.526-1.575-1.66-2.238-1.314.335-1.314 2.157-2.7 2.157-1.315 0-3.18-3.728-3.595-3.728-1.383 0-.9 2.394-2.35 2.394-.553 0-1.042-.487-1.25-1.148-2.137.577-2.9.748-4.833 1.648-.764.17-2.576 1.758-3.18 1.085-1.812-2.032-1.496.552-2.148.573-4.5.196-1.383 2.157-2.005 2.157-1.728 0-4.83-.41-7.675-2.485-.114-.083-.97-.826-.97-1.08-.48.337-.136.172-.823 0v35.874h-.003v-35.79c-1.726-.662-2.352-1.66-4.358-1.66-1.245 0-2.007.58-3.253.58-2.143 0-6.43-.413-7.81-2.07H31.66c-.968-.58-1.24-.994-2.076-1.654H26.13c-.625-.254-.835-.498-1.595-.83-.345.663-1.034 1.238-1.727 1.073.21-.41.278-.577.62-1.073-.893-.334-1.238-1.246-2.14-1.246-1.175 0-1.87 1.82-2.977 2.32-.965.416-1.59-.158-2.556.164-3.66 1.414-6.774 4.564-8.85 7.875H3.11c-.072.25-1.034 2.32-1.034 2.32 0 .58 2.835 1.24 3.662 1.83.688.49 1.52 2.978 2.074 3.3 2.006 1.166 3.46 1.33 4.147 3.985-.826.25-.967 0-1.936 0-1.453 0-2.563.75-2.563-1.904H6.22c-1.656 1.324-4.494 2.4-6.22 3.64.342.83.966 1.327 2.076 1.327-.076.252-.21.58-.21.828 0 .75.83 1.082.9 2.32h3.66c1.036-.246 1.522.584 2.91.584 1.448 0 1.863-1.412 2.972-1.412.413 0 .413-.085 1.038 0v1.247c-.483-.333-.343-.418-1.038.08.07.245 1.175 1.406 1.175 1.99 0 1.074-4.702 3.317-5.326 3.317-1.452 0-5.184 2.07-5.184 4.55 0 1.33 2.215 1.74 2.765 3.564-.344 0-.69.253-1.04.253.49.744 3.736 3.807 4.637 3.807.274 0 .83-1.405 1.382-1.405.62 0 .554.995.554 1.24v1.662c0 .66.273 2.07.688 2.07.278 0 .623-.66 1.043-.66h.828c0-.342-.07-.75.064-1.247 1.18 1.078 1.662 1.57 3.323 2.322.07-.587.274-.835.484-1.5.69.254 1.034.665 1.87.665 1.03 0 1.516-.583 2.55-1.072h1.043c-1.662 1.238-1.662 3.727-3.248 4.966-1.664 1.328-4.36 2.737-5.53 4.555-.832 1.245-2.147.412-3.323 1.245-.758.5-1.38 2.154-2.214 2.73-1.172.833-2.49.166-3.317 1.744 2.905.99 4.288-2.487 6.777-2.983 2.004-.327 4.492-1.244 5.53-2.48 1.107-1.332 3.458-2.16 4.498-3.735.55-.826.828-1.653 1.73-2.068 1.583-.747 3.105-1.407 3.105-3.313v-1.24c0-2.735 4.565-7.297 6.225-7.297h.833c0 .25-.07.583-.07.824-2.006.75-3.043 2.166-3.043 3.982 0 .415-.27.415.068.994-.138.082-.552.17-.552.664 0 .332.416.588.694.588 1.593 0 6.014-2.993 6.914-4.642-.347-.333-.485-.583-.69-1.165.62-.42 2.003-.83 2.837-1.244 1.17 2.905 4.216 3.232 6.497 4.145h3.807c2.07 1.41 4.424 1.324 6.215 2.908.83.74 1.8 3.14 3.253 3.14.552 0 .827-.825 1.035-1.484.555.66 1.037 1.232 2.078 1.232.274-.572.9.173 1.243.583-.207.415-.69.747-.69 1.742 0 .497.76 1.244 1.035 1.244.9 0 .557-.997 1.87-1.08v1.08c0 .662-1.037.74-1.037 1.404 0 .5.278 1.243 1.243 1.243 1.244 0 2.075 0 2.075 1.242v1.245c0 .912 1.73 2.485 2.905 2.485.348 0 .348-.085.693-.085 0-.578.966-.745.966-1.653 0-1.588-.978-2.076-1.62-2.716.645.64 1.62 1.13 1.62 2.717 0 .912-.965 1.072-.965 1.653 0 .417.412.668.412 1.156 0 1.086-.28 3.317.69 3.654.548.162 1.104.162 1.518.656.624.75-.136 1.832.693 2.49 0 0 1.802 1.32 1.866 1.575.487 1.904.627 4.144 2.98 4.144.342 1.66 2.765.578 3.313 2.73.212.833 1.94.995 2.628 1.823.135.164.485.34.76.504v.003c.28.825.902 1.08.902 1.898 0 .746-.626 1.738-.97 2.244-.35-.756-.968-1.412-2.005-1.412-.276 0-1.04.08-1.04.58 0 1.815 1.727 2.566 1.727 4.384 0 2.57-1.816 7.27-1.173 9.285.667 2.088-.068 5.145.694 6.964-.416.323-1.037.854-.695 1.572 1.187 2.456 2.7 6.133 4.152 6.38-.348 3.39 1.59 4.39 2.555 7.287.21.66 0 1.583.554 1.827 2.49 1.152 6.016 2.897 7.054 5.383h-.14v.574c.487 1.916 1.104 2.41 1.73 3.897.414.994.366 3.306 1.186 3.934 1.21.932 2.348 2.705 3.372 4.45.605 1.035-1.03.734-1.377.734.695 1.24 2.214.99 3.18 2.153.694.827 1.25 1.736 2.006 2.65v2.155c.21.41.283.41.697.745.757.575 1.43 2.542 2.668 2.542.072.342.994 1.77 1.13 1.77.21 0 .483-.832.483-1.25 0-.658-.825-2.064-1.384-1.402-1.24-.998-1.658-3.148-2.21-5.14-.482-1.74-1.866-2.653-2.35-4.56-.346-1.4-.485-2.233-1.45-3.393-.692-.833-1.598-.84-2.084-2.078-.555-1.408-1.24-2.48-1.24-4.216 0-.253-.068-.753.14-1.077.9 1.078 2.01.988 3.183 1.657.548.325.412 2.153 1.037 2.9.625.74.413 2.148 1.035 2.9.763.905 1.45 1.82 2.354 2.894.204-.243.135-.164.756 0 0 1.99 2.148 2.16 2.765 3.647.35.914-.135 1.744.415 2.4.694.826 1.8 1.163 2.493 1.99 1.522 1.82 3.87 4.226 4.7 7.212.138.574.695.822.695 1.907 0 .9-.694 1.406-.694 2.32 0 .74.417 1.655 1.036 1.655.208 1.074 2.35 1.646 3.184 2.65.206.248.345.326.76.58.898.492 1.383.332 2.28.826.964.583 1.173 1.575 2.142 1.902.76.25 1.246-.246 2.01.167.69.41 3.04 2.397 3.87 2.397.554 0 1.038-.16 1.586.17.277.168.836.75 1.383.75 1.178 0 1.385-1.66 2.63-1.66.556 0 .97.253 1.523.662h.417c1.867 1.077 2.14 2.98 4.283 4.232 1.387.824 2.354.41 3.667 1.153.898.493 1.586 1.41 2.903 1.41.485 0 .833-.417 1.318-.417h.414c.414 1.984 1.587 2.73 2.696 4.064.343.404.69.585.897 1.41.347 1.24-.346 2.402.694 3.23h.694c-.14-.166-.14-.497 0-.745.065 0 2.414 1.738 2.625 2.23.275.665.275 1.488 1.244 1.746 0 .165.21.492.343.492.485 0 1.59-.492 2.077.09.552.658 1.247 2.235 2.35 2.235.552 0 .898-.414 1.04-1.25-.142-.08-.558-.412-.558-.744 0-.49 1.94-2.153 2.425-2.153.76 0 .968 1.073 1.726 1.496-.138.327-.416.492-.416.826 0 .248.642.48.78.645.027.018.09-.025.167-.088-.063.158-.112.33-.112.52 0 1.486 1.247 1.24 1.247 2.99 0 .824-.35 1.147-.35 2.142 0 .667.415 1.17.415 1.825v.417l-.278.66c0 .25.348.668.69.832-.414 2.236-2.21 1.657-2.973 3.475-.55 1.334-1.038 3.564-2.906 3.564.295 3.652-1.45 3.318-1.45 5.22 0 1.154.138 2.81 1.107 2.81.486 0 .416-.406 1.034.08-.27 1.34-1.518 1.664-2.142 2.908-.277.332-.76 1.495-.76 2.494 0 1.49.97 3.146 1.728 4.058.28.33.832.16 1.042.655.207.587.346 1.74.83 2.325.208.237.69.086.896.58.623 1.576 1.035 2.65 1.52 4.548.485 1.82 1.87 3.313 2.423 5.31.278 1.158 1.31 1.822 1.31 3.145 0 .99-.273 1.91.28 2.563 1.245 1.49 2.21 2.66 4.15 3.404.963.334 1.377.665 2.208 1.66.766.91 1.525.744 2.56 1.324 1.244.747 2.354 1.986 2.98 3.97.203.912.547 5.803.547 6.633 0 1.327-.62 3.562-.62 4.73v3.635c-.14.833-.485 2.32-.485 2.902v.748c0 2.816-1.593 4.89-1.593 8.038 0 1.326-.757 2.484-.346 3.978l.072 6.21c-.417 1.996-.417 3.395-.9 5.303-.067.335-.416.256-.622.58-.348.576-.483 1.75-.764 2.32-.617 1.157-1.588 3.07-1.588 4.976 0 .584.07 2.9.347 2.9 0 0 .412.408.412.91 0 .25-.205.495-.69.495-.207 1.486-.688 2.156-.688 3.726 0 .917.413 2.822.967 2.822.482 0 .552-.666 1.038-.916.203-.075.418 0 .62 0v1.248l-2.28 12.266c-1.037 0-.553-1.5-1.8-1.5-.343 0-.62.412-.62.91h-.07v.84c.138.904.97 2.238.97 2.893 0 1.325-1.594 1.913-1.594 3.396 0 1.406 1.036 4.31 1.036 6.13v1.158c0 1.74 1.867 1.415 1.867 3.408 0 .49-.274.99-.48 1.4.206.166.348.332.552.417-.07.743-1.31.665-1.31 1.402 0 .166.414.58.62.836.898 1.08 1.452 2.23 3.39 2.23.066.417.207 1.087.76 1.087h1.31c0 1.485 1.526 1.485 2.56 1.897 1.11.416.55 2.657 2.147 2.657h1.932c.21 0 .486-.34.69-.34h.764c.624 0 2.35-1.57 3.387-1.57.414 0 .83.246 1.105-.242-1.867-1.08-3.73-1.832-5.256-3.658-.898-1.064-.827-4.88-2.073-5.715-.418-.08-1.04-1.07-1.04-1.906 0-1.57.35-2.728 1.18-3.723.623-.747 1.728-.247 2.21-1.406.417-1.082.208-2.16.762-2.82.968-1.156 2.693-1.403 2.693-3.714 0-2.576-3.107-1.423-3.107-4.656 0-1.41.965-2.566 2.072-2.898.485-.08 1.728-.16 1.867-1.077.416-2.07.416-3.564 1.658-5.05-.342-.166-.756-.33-.756-1.248.69 0 .968.747 1.794.747.142 0 .69-.578.69-1.077 0-.406-.343-.497-.618-.824-.21.07-.626.58-.975.58-.616 0-1.448-2.152-1.448-3.317 0-.415.21-.992.694-.992 1.38 0 1.656 1.157 3.112 1.157.48 0 1.586-.58 1.586-.992v-.827c.485-1.164-.207-3.652.69-4.718.625-.758 2.907.152 4.014-.243 1.658-.667 3.112-.263 4.286-1.666.692-.836 1.178-1.36 1.804-2.525.344-.658.338-1.2.338-2.208 0-.9-1.104-.9-1.31-1.82-.278-.988-.278-1.9-.832-2.567-.207-.248-1.243-.653-1.243-1.4 0-.254.344-.42.55-.42 1.04 0 1.94.998 2.905.998.488 0 2.03.904 3.135.904 3.18 0 3.714-4.135 5.095-6.63 1.174-2.147 2.558-2.396 3.804-4.63.553-1.08.486-1.653.967-2.733v.084c.69-1.75 1.38-3.153 2.768-3.98v-3.888c0-1.576-.138-2.74.76-3.82.552-.655 1.447-.655 2.005-1.745 1.24-2.31 2.974-1.152 4.63-3.14.21-.246.28-.658.695-.92 1.03-.573 2.074-.486 3.386-.486 1.173 0 2.628-1.164 3.038-2.164.14-.326.076-1.327.352-1.816 1.034-1.655 1.384-2.488 2.42-4.396.136-.323.346-1.986.346-2.814 0-.66.623-1.494.9-1.91.064-.242.34-.574.34-.987 0-1.075.473-2.464.473-3.952 0-1.985-1.02-4.668.012-5.907.69-.826 1.452-.993 2.146-2.235.414-.747.713-.952 1.13-1.694 1.862-3.395 4.674-5.02 4.674-11.145 0-1.736-.344-3.472-1.728-3.984zM196.567 149.56c.135.28.236.58.32.887-.083-.308-.185-.605-.32-.886-.115-.24-.27-.337-.438-.373.167.036.322.13.437.372zm-5.655 5.137c.083-.103.148-.224.223-.338-.074.114-.14.235-.223.337-.125.15-.14.318-.206.457.067-.138.08-.305.206-.457zm-7.834 1.287c.013-.012.04-.018.055-.03-.014.013-.04.02-.055.03-.13.127-.463.508-.857.96.395-.452.728-.833.858-.96zm-9.59 5.078c1.52-.576 4.77-1.57 6.498-1.57.017-.01.073-.066.145-.144-.07.076-.126.133-.143.145-.018 3.112-4.43 2.313-6.437 2.313-.34 0-.34.092-.824.092.07.138.146.324.226.526-.114-.25-.364-.413-.364-.694 0-.417.69-.576.9-.668zm-.07 2.82c0 .003.002.005.002.005-.287.17-.667.403-1.085.65.423-.253.795-.487 1.083-.654zm-1.11.672c-1.598.95-3.905 2.232-5.323 2.232-.688 0-.968-1.254-.968-2.08.21.424.624 1.003 1.04 1.003.622 0 .69-.502.97-.838.615-.738 1.655-.656 2.627-.656.9 0 1.308.58 1.653.338zM144.51 145.66h3.46c1.384 1.652 3.184 1.652 5.74 1.652.897-.332 1.035 0 1.798-.412.69-.417.416-1.748 1.106-1.748.828 0 1.378 1.495 1.655 1.828.14-.333.075-.997.075-1.16h.553c.41 0 3.318 2.818 3.457 3.147.415.993 0 1.825.552 2.488 1.59 1.904 3.734 1.49 5.46 2.818h1.8c.83.66 1.868 1.488 1.868 2.727 0 .587-.28 1-.694 1-.83 0-1.66-1.074-1.934-1.41-.277 1.327-.897 5.303-1.866 5.303-.69-.663-.69-1.24-.967-2.566-.692.25-.556.578-1.383.578.208-1.16.76-1.905.76-3.063 0-.998-2.558-2.486-3.113-2.486-1.14 0 .02 2.01-2.5 2.19-.767.06-.748 2.567-.748 3.61v2.65c0 1.08-.35 3.565-1.39 3.565-.76 0-1.584-.75-1.584-1.665 0-2.147.547-6.374 1.728-8.2-.692 0-.967.677-1.663 1.162.145-1.655 2.91-3.976 4.428-3.976.554 0 2.074.417 3.11 0v-.99c-1.452 0-2.28-1.075-3.94-1.075-.76 0-1.036.825-1.934.825-.484 0-1.11-.412-1.18-.994h-1.382c.28-.67.762-.912.762-2.07-1.034.248-2.28 1.82-3.04 1.82-.624 0-.692 1.072-1.87 1.072-.553 0-.758-.076-1.04-.822-.48.08-.756.33-1.24.582h-1.038c1.59-2.404 3.525-3.233 5.393-4.724-2.558 0-4.356 0-5.74-1.653h-3.458c-.7-.454-.825-.958-1.263-1.548.438.59.564 1.094 1.262 1.55zm-1.727-2.076v.998-.998zM59.67 111.86c-.582 0-1.172-.395-1.713-.924.542.53 1.132.92 1.715.92.726 0 .906-.98 1.36-1.607-.45.627-.635 1.61-1.363 1.61zm3.25-2.49c1.424 1.71 2.366 2.688 3.395 4.17-1.03-1.483-1.972-2.458-3.395-4.17zm5.808 7.867c-.183-.668-.634-.875-.828-1.146.198.27.647.48.83 1.147.278.995.622 2.238 1.385 3.15.087.107.194.18.312.24-.118-.06-.225-.133-.315-.24-.76-.91-1.106-2.156-1.384-3.15zm1.708 3.392c.35.166.792.188 1.12.465-.327-.277-.77-.3-1.12-.466zm33.143 70.346h.002l7.39 2.902-7.393-2.902zm14.523 1.904c2.353.743 3.662 1.08 4.837 3.483-1.177-2.404-2.484-2.74-4.837-3.483zm7.95 7.46c.66 0 .884-.576 1.134-1.156-.25.58-.475 1.157-1.133 1.157zm2.42-2.32c2.038 0 3.04 1.515 3.81 3.356-.77-1.84-1.773-3.352-3.81-3.355z"/><path d="M175.63 210.857c0 .667 0 1.574.69 1.574.14 0 .35-.245.35-.41 0-.578-.21-1.073-.76-1.163-.076 0-.28-.077-.28 0zM175.558 206.136c-.34 0-.826.332-.963.668.41 0 1.105.08 1.8 0-.144-.254-.35-.668-.837-.668zM177.705 207.138c-.063.24.135.744.346.655l-.345-.655zM186.07 220.305v-.743c-.276.498-.83.91-1.38.743v.498c0 .082.204 0 .275 0 .346 0 .83-.163 1.106-.498zM69.144 126.766c.353 0 .554-.246.554-.833 0-1.82-1.87-2.067-1.66-4.302-1.452-.333-1.796-.333-1.796 1.66.83-.668.416-.25 1.52 0-.206.41 0 1.073 0 1.656-.002.08.76 1.82 1.382 1.82zM64.168 118.48c-.138.085-.694.246-.694 0-.345-1.332 0-1.332 0-3.48-.97.668-.345 0-1.59 0-.276 0-.828.165-.828.833 0 1.24.827 2.317 1.866 2.484 0 1.324.272 2.317 1.107 3.314.692-.83 0-1.99.138-3.15zM128.127 70.842c1.244 0 1.52.326 2.77-.66-1.317-1.246-7.125-3.073-7.125-5.717 0-2.158-1.865-4.067-1.865-7.045 0-.75 1.518-1.492 1.518-2.736 0-1.24-1.172-1.823-2.42-1.823-1.103 0-2.07.584-2.07 1.415 0 .253 0 .577.07.82-1.11.667-.695 0-1.94 0-.554 0-1.245.416-1.245 1.085 0 .744 1.04 4.635 1.592 5.715-.347.324-.347.66-.9.66-1.243 0-.76-2.068-1.174-3.062-.346-.912-1.314-1.993-2.288-2.324h-1.515c.14.5.277.745.345 1.49-.765.25-1.313.41-2.075.585-.488-1.492-1.174-2.488-3.113-2.488-1.105 0-1.59 1.083-2.143 1.488-.278-.492-.208-2.894-1.18-2.894-2.49 0-8.782 2.977-8.782 7.04 0 .415 1.317 1.657 2.077 1.657.9 0 1.314-.25 2.42.083-.76.578-2.764-.083-2.764 1.74 0 2.322 3.803 1.49 5.327 1.49h3.66c.693 0 1.246.503 1.73.832-.832.078-1.243.166-2.28.166-2.903 0-5.05.412-6.707 1.902.482.993 1.727 2.905 3.25 2.905.97 0 3.04-.257 3.8.407.83.747.07 2.075 1.248 2.075h6.217c1.457-1.243 3.185-.583 4.98-1.66 1.04-.576.557-1.487 1.796-1.487 2.01 0 2.978 2.483 5.676 2.483 1.728 0 3.32.08 3.94-1.49-.275-.25-.62-.503-.69-1.157-.278 0-1.04 0-1.04-.664 0-.582.35-.83.9-.83z"/><path d="M84.566 62.805c.206.413.69 1.66 1.037 1.66.35 0 .55.823 1.034.823.552 0 5.324-2.07 5.324-2.73 0-1.912 3.045-5.388 5.19-6.216.687-.247 4.352-.91 4.352-1.814 0-1.914-3.388-3.57-4.838-3.57-.896 0-1.726.995-2.353.25-1.52-.17-2.21-1.16-3.726-1.66-1.247-.413-1.936.584-2.773.584-1.656 0-2.416-.834-4.145 0 .07.905 1.034 2.237 1.034 2.893 0 2.99-3.455 5.306-3.455 8.122 0 .996 2.766.75 3.32 1.658zM101.473 41.027c-.06-.006-.105-.017-.175-.017-.555 0-1.11.422-1.38.912.227.177.47.298.72.39-.177-.03-.322-.056-.376-.056 0 0-.623-.08-1.176 0v1.24c.245.115.5.233.766.35-.237-.052-.48-.097-.766-.097-.692 0-1.035.66-1.727.828.27.584 0 .41 0 1.24 0 .667.478 1.248 1.033 1.248.488 0 1.524.57 2.42.57.835 0 1.733-.408 2.905-.57 0-.5.345-1 .764-1.084.138.83.762 1.246 1.174 1.91-.898 0-1.938-.255-1.938.995 0 .49 1.108 1.245 1.938 1.245 1.73 0 3.11-.585 4.497-1.245.204-.08 4.628-1.25 4.628-1.412 0-.247 4.082.336 4.5.162.62-.245 2.28-2.73 2.28-3.888 0-.996-.76-2.074-1.59-2.074-.897 0-1.247.994-1.865.994-1.318 0-2.63-1.823-2.63-3.063 0-.167-.07-.415 0-1.076-.483 0-.9-.253-1.314-.582-.69.664-2.486 1.325-2.486 2.656 0 .742 1.242 1.15 1.727 1.24v1.08c-.204 0-.62.166-.69.33.275.16.624.243 1.382.243-.278.75-.623 1.08-1.523 1.08-3.04 0-4.492-3.144-6.57-3.144h-1.587c-.067-.996-.905-1.248-1.18-1.248-.616 0-1.034-.25-2.28 0 0 .41.215.67.52.842zm1.897 1.812c-.23-.03-.632-.106-1.066-.194.344.046.697.1 1.066.193zM93.9 44.165c0 .575.622.994 1.173.994.897 0 1.94-1.746 2.076-2.903-.688-.08-3.25.582-3.25 1.908zM103.58 39.192h1.522v-1.078h-2.42c0 .748.55 1.078.898 1.078zM88.85 42.256c.693 0 1.105.498 1.942 0 .133.333.616 1.242 1.17 1.242.76 0 1.31-.91 1.453-1.822 1.173.167 2.21-1.156 2.354-2.568.618.412.55 2.325 1.724 2.325l2.972-2.656c0-.662-.48-.83-.55-1.655.48-.167.896-.743.896-1.33 0-1.485-4.147-.16-4.147-.16-.62-.085-.694-.168-1.247-.168-1.933 0-2.28 2.15-3.592 3.067-1.175.822-2.21.99-3.32 1.654-.276.172-1.522 1.327-1.522 1.492 0 .246.556.665.69 1.242.556-.08.76-.662 1.176-.662zM108.557 31.318h2.977c.828 0 1.31-.497 1.862-.825-.274-1.075-1.45-2.073-2.902-2.073-.897 0-5.044 1.82-5.044 2.898.55-.083.827-.66 1.38-.66.693 0 .898.66 1.727.66zM111.323 31.735c-1.448 0-5.668.164-5.668 2.075 0 .74 1.174 2.228 2.212 2.228 1.52 0 3.803-.743 3.667-2.482h-1.938c1.037 0 2.212-.25 2.97-.994-.204-.33-.48-.827-1.243-.827zM103.717 34.382c.485 0 .694-.492.97-.99-.415-.248-2.352-2.322-2.352-.248 0 .412.763 1.238 1.382 1.238zM138.085 58.25c0-.83.207-.09.207-1.24 0-.915-2.01-.17-2.562-.086.487-.744 2.216-1.414 2.216-3.065 0-.417-.487-.835-.69-.835h-2.765c-1.523 0-3.042-.33-4.152.996-.068.25-.484.415-.484.667 0 1.075 1.315.912 2.215 1.075V58h-1.04c-1.176 0-2.21-.99-3.11-.99v1.406c2.005 2.398 4.148 2.07 6.086 4.39.416.497.553 1.406 1.52 1.406.618 0 .758-.995 1.38-1.242 2.216-.998 2.437.214 2.77-4.31-.418-.165-1.317-.33-1.59-.41zM124.46 39.353h-.828c0 .413.103.724.24.984l-.1-.152v1.492c.55.5 1.038 1.078 1.727.83l.205.82h1.04c0 .502.343 1.002.83 1.002 1.384 0 3.8-.833 5.046-.833.277 0 .62.086.83.252-.414.498-1.73.498-1.73 1.238-.063.25-.063.587 0 .83-.272.164-.48.5-.48.826 0 .748 1.796.422 2.21.422.21 0 1.73 0 2.766-.422-.276-2.315.556-3.316.556-5.21 0-1.25-.142-2.08-1.383-2.08-.555 0-.83.665-1.383.665-1.313 0-2.008-.827-3.11-.827-.486 0-.766-.172-1.25.08.28 1.165 1.25 1.165 2.422 1.165v1.82c-1.727 0-2.282-1.82-3.802-1.82v.996c.272.41.83.993 1.38 1.406-2.146.743-3.18-3.487-5.188-3.487zM135.18 73.33c-.276.08-1.52-.252-1.52.41 0 .25 5.11 2.48 6.014 2.48.76 0 1.038-.824 1.73-1.32-.414-1.162-3.25-4.232-4.288-4.232-1.385 0-1.107 2.322-1.936 2.662zM144.513 51.208c-1.448 0-1.87 1.155-1.87 1.24 0 .25-.136.743 0 .823h-1.582v1.413c.48 1.658 0 2.65 1.102 3.98-.064.408-.064 1.405-.064 2.482h1.375c.834-.99 1.39-1.244 1.598-2.73h-.9c.415-1.66.415-.58 1.937-.58 2.076 0 3.042-1.82 3.938-3.312 0 0 1.248-1.082 1.248-1.253 0-.408-.072-.658 0-1.07-2.494 0-4.43-.992-6.78-.992zM122.736 36.87c.48 0 .896-.412.963-.99-1.448-.585-1.586-2.325-3.388-2.325 0 1.078 1.66 3.315 2.424 3.315zM122.388 46.98c.552-.078.695.086 1.384.086.415 0 1.04-.087 1.04-1.084 0-.58-.35-.82-.49-1.242-.967.422-1.662.833-1.934 2.24zM122.388 27.176c-.07.333-.274.663-.484.83.55.496.9 0 2.42 0-.137.25-.137.743 0 .995-.83.333-1.452.25-2.072 1 .62.742.9.658 1.865.658 1.035 0 1.937-.418 2.284.334 1.245-.17 2.002.327 3.246.327 1.593 0 1.45 2.072 3.112 2.072.553 0 1.25-.246 1.25-1.08 0-.908-1.387-1.57-1.94-2.234.137-.25.414-.583.553-.83-.342-.414-1.107-1.906-2.075-1.906-.415 0-.62.663-1.033.663-.76 0-.69-1.906-2.077-1.906-.55 0-.825.666-1.38.666-.834 0-1.178-1.492-2.63-1.492-.83 0-1.384.503-2.21.664 0 .99.204 1.238 1.173 1.238z"/><path d="M128.127 32.313c-.274 0-1.866 1.243-.625 1.243 1.036 0 1.87 0 2.216-.58-.622-.247-.832-.663-1.59-.663zM154.058 48.306h.826c-.137 1.406 2.007 1.654 3.46 1.24h5.53c.626-.5.764-.905 1.73-1.073.138.575.48 1.24 1.383 1.24 2.42 0 5.532 0 5.74-2.904 0 0-.414.092-.9-.077.077-.33.204-.568.347-.77.2-.022.44-.078.553-.146-.973-2.15-2.768-2.318-5.532-2.318-3.597 0-4.843 2.073-8.645 2.073-1.727 0-3.107-.5-4.772-.99-.273.24-1.107.745-1.107-.418 0-.25.35-.25.487-.42-.97-.906-2.697.333-3.112-1.9h2.768c-.624-1.08-3.804-.584-3.25-2.492h-1.245c-.278.5-.69.664-1.387.664-2.346 0-2.9-2.897-6.016-2.897-.823 0-2.07 0-2.07 1.24 0 .75 4.22 2.9 4.977 2.9.554 0 .97-.334 1.385-.823 1.176 1.407 1.52 2.734 2.768 4.222-.275.164-.832.742-.832 1.325 0 1.652 3.458 3.727 4.98 3.727.624 0 1.658-.99 1.938-1.406zM145.207 46.644c0-1.07-1.66-2.728-2.904-2.728-1.59 0-1.31 1.9-2.074 1.9-.136 0-.9.42-.9 1.25 0 0 4.008 2.23 4.495 2.23.967.002 1.382-1.24 1.382-2.652zM145.415 34.633v-1.077c-.692.168-.14 0-.9 0-1.314 0-3.8.168-4.492.996 0 0 4.006.91 4.352.91.626 0 1.04-.412 1.04-.83zM138.153 31.736c-.206.085-.693.412-.693.825 0 .995 2.423.665 4.842 0-.204-.91 0-1.49 0-2.068 0-1.744-2.42.087-2.42-1.907-.76 0-2.212-.58-2.422-1.244-.688.087-1.585.42-1.585 1.245 0 1.654 1.45 2.155 2.278 3.15zM134.695 23.453h1.178v-1.655c-.486 0-1.526-.088-2.427 0 0 .99.834 1.155 1.25 1.655zM143.474 21.8c-.616 0-1.727-.504-2.07-.83h-1.036c.202 2.397 1.66 2.643 4.006 2.643-.413.664-.9.75-1.59 1.08 0 .494.073.83.553.83.555 0 .76-.336 1.454-.66.21.487.277 1.074.967 1.074.83 0 1.037-.664 2.073-.664 1.042 0 1.798.332 2.836.664-.967.243-5.252.082-5.252 1.653 0 1.245 1.935 2.075 3.112 2.075-.21.252-.42.498-.9.575.136 1.165 1.66 1.494 2.764 1.494 1.04 0 1.66-.417 1.66-1.904.623.497 1.865 1.575 2.49 1.487V30.24h1.242c-.206-.66-.485-.82-.9-1.653.35-.414.492-.83.833-1.242.208.913.208 1.656 1.106 1.656.9 0 1.87-2.484 3.25-2.648.554-.083 1.316.08 1.59-.415.21-.333.072-.664.072-1.244-.903-.086-2.698-1.08-3.39-1.08-.14 0-1.178.75-1.178 0 0-.498.488-.663.488-1.24 0-.572-.83-.664-.83-1.24 0-.992.067-1.414-.898-1.414h-.69l.344.583v1.074h-.832c-.623-.745-.206-1.817-1.243-2.32-1.038-.493-1.728.332-2.765-.165-1.11-.497-.83-2.898-2.21-3.56-1.25-.585-2.628-.75-4.36-.91.07 1.156 1.247 1.237 2.074 1.735h-1.174c-1.248-.33-1.797.166-2.628.75 0 .08.625 1.322.897 1.322.417 0 1.246-.496 1.938 0-.208.253-.346.827-.762.827-.552 0-.9-.574-1.87-.574-.615 0-1.583-.088-1.583.828 0 .91 2.14 1.487 3.038 1.822 0 0-.343.668-.624.668zM168.715 93.047c-.346-.335-.137-.912-.482-1.49-1.246-1.995-3.46-1.16-4.91-3.318-.21.157-.415.332-.62.67-.35-.83-.69-1.08-1.04-2.326-1.937.246-2.283 3.56-2.283 4.972v1.242c0 .492-.343.75-.688 1.08-.14.41-.968.245-1.038 1.654.55-.08 1.867-.338 2.972 0-.138.83-.348 1.655.48 1.655.347 0 .347-.245.557-.66.968.49 3.253-1.24 3.253-3.075.41.168 2.625 2.08 2.625 2.08h1.867c.9 0 1.52-.338 2.283-.907-.62-1.004-1.868-.582-2.975-1.578zM181.854 79.38c0-2.737-4.284-3.317-4.284 0 0 .984.688 1.818 1.724 1.818.828 0 2.56-.747 2.56-1.82zM166.296 97.77c-.07.49-.97 1.238-1.524 2.07v1.072c1.11-.164 2.835-1.82 3.46-2.813-.836-.415-.553-.415-1.936-.33zM173.766 57.835c1.173 0 1.793-.828 2.555-.828.765 0 1.177.577 2.077.577.623 0 1.04-.577 1.243-1.328-1.243-.747-2.83-2.564-4.7-2.564-1.452 0-1.935-.663-3.455-.663-.558 0-1.18.413-1.18 1.244 0 .91.763 1.324 1.385 1.74-.488 1.403.692 1.82 2.076 1.82zM172.17 102.57c.69 0 .834-1.16 1.25-1.822-.693-.99-2.285-.91-2.285.582 0 0 .9 1.24 1.036 1.24zM184.828 78.792c-.21-.323-.76-1.325-1.382-1.325-.143 0-.9.582-.9.835 0 .49.413.66.9.66.686 0 .484.084 1.382-.17zM175.145 72.663c-.826 0-2.417 1.904-1.593 1.904.835 0 1.388-.912 1.593-1.904z"/><path d="M190.01 65.043c.207-1.413-1.52-1.66-2.272-1.66h-1.734c-2.284 0-2.765-2.82-4.29-4.137-.895-.75-3.87-1.246-5.185-1.246-1.246 0-1.59 2.07-2.765 2.07-.624 0-.832-.824-1.592-.824-.687 0-.968.823-1.383.823-.343 0 0-1.326 0-1.654 0-1.828-.967-4.724-2.762-4.724-2.768 0-7.404.994-7.404 4.143 0 .823.692 1.41.692 2.234 0 .666-.966 1.66-1.38 1.66-.83 0-.692-.75-.692-1.408 0 0-.14-.91 0-1.497-.347 0-.554-.33-.554-.825 0-2.402 2.28-2.57 2.973-4.308-.07 0-2.28-.83-2.28-.83-2.35 0-4.147 1.412-5.534 3.063-.28.332.067 1.83-.485 2.324-1.036.907-1.384 1.408-1.384 3.723 0 .748 1.04 2.24 1.04 2.24s3.18.333 3.804.83v1.077c-1.175-.164-2.215-.667-3.112-.248.137 1.158 1.172 1.32 1.523 2.482h3.315c.416.665 1.52 1.662 2.074 1.662 3.115 0 8.37-.25 10.513 0-.068.572-.347 1.904.55 1.904 1.246 0 2.355-3.15 3.254-3.15.76 0 4.495 3.813 5.116 4.56-.416.082-1.66.247-1.66 1.075 0 .163.276.993.552.993.9 0 1.314-.993 2.21-.993 1.456 0 5.88 4.064 5.88 6.216 0 1.157-1.453 2.98-2.073 3.725-.484.58-1.727-.166-1.727 1.247 0 .662.896 1.49 1.242 1.734-.83.667-2.49 1.16-3.11 1.16h-2.976c-.965 0-2.764 1.413-2.764 2.24 0 1.157 2.212 2.324 2.972 2.324.832 0 1.246-1.248 2.08-1.248.62 0 .477.58 1.17.58.618 0 1.038-.664 1.386-1.244 2.002 1.405 3.112 2.985 5.39 4.148-1.173 2.65 2.974 2.57 4.636 3.722 1.728 1.245 3.042.75 5.046 1.904.207.087.343 1 .69 1 .276 0 .693-.417.693-1 0-2.312-3.872-4.054-5.05-5.795h1.04c.758 1.164 5.187 3.142 6.43 3.315.273-.918 1.037-2.483 1.037-3.315 0-.913-1.244-1.323-1.244-1.905-.072-.327-.072-.327 0-1.655h-1.176c-.14-1.41-.623-.42-1.933-.995-.558-.25-1.388-2.078-1.523-3.152h-.9v-1.24c.28.25.623.165 1.036 0v-1c-.622.167-.757.253-1.378-.162.066 0 .965-.91 1.378-.91 3.32 0 3.46 5.634 6.914 5.634.762 0 .898-1.405.898-2.323 1.314 0 1.525-.742 1.525-.99 0-.418.068-.167 0-1.084.896 0 2.074-.328 2.074-1.404 0-1.324-.554-1.908-1.87-1.908-.34 0-.897 0-1.244-.408-.552-1.58-.895-.417-2.418-.417-1.04 0-1.382-1.41-1.522-2.902-1.453-.167-3.315-.99-3.456-2.9-.9 0-1.315-.252-1.938-.66.623-1.245 1.176-1.245 2.28-1.908-.202-.497-.687-.745-1.036-.745-.622 0-.9 0-2.074-.166.554-1 1.453-.915 2.423-1.158-.417-1.162-.97-1.993-1.936-1.993h-1.18v-1.41c-1.93-.252-2.972-1.576-4.84-2.317zM175.284 96.277c.692.662.9.662 1.594 0-.833-.497-.902-1.08-1.594 0zM163.738 86.168c-.073.58.48 1.238 1.38 1.323-.48-.74-.48-1.815-1.38-1.322zM151.083 12.675h2.074c-.83.34-1.243.582-1.933 1.41.133.088.898.66 1.242.66 1.312 0 1.385-1.487 2.77-1.487.548 0 .757 0 1.382.172-1.798.655-3.53.414-4.29 2.564.556-.083 1.938 0 3.25 0-.897.086-1.378.498-1.866.91.488.748 2.42 1.74 3.806 1.74.62 0 1.034-.412 1.518-.827h.9c-.416 1.075 1.383 1.656 2.768 1.656.554 0 .826-.83 1.38-.83.69 0 1.108.668 2.42.668 2.212 0 3.803-.585 5.188-1.905h1.036c-.83 1.24-2.007 1.65-3.317 2.315h-3.455c-.14.25-.488.498-.488.83 0 .497 2.212 2.153 2.562 2.565-1.94.252-2.563-2.145-4.287-2.81-1.384-.504-2.907-.165-3.67-.165-.342 0-.688-.17-1.035 0 .142.66.274.993 1.036.993-.69 0-1.725-.164-1.725.665 0 1.485 4.7 1.485 4.7 4.14 0 2.32-2.077 1.573-3.804 2.234-1.04.414-1.52 1.325-2.076 2.735v.992h1.037c.282-.328.282-.328.696-.578h1.036c0 1.983 2.142 2.984 3.11 4.14h-1.242c-1.315-.91-2.077-2.318-4.287-2.318-.692 0-1.733-.33-1.733.832 0 1.485 1.45 1.736 2.287 2.483-1.453 1.24-5.05 0-5.05 3.315 0 .244.206.662.692.662.346 0 .62-.418.832-.83 2.418.915 4.286 1.654 6.564 1.654 1.04 0 1.456-.823 2.074-.823h5.19c1.382 0 .69 1.245 2.28 1.245 1.59 0 5.53-1.497 5.53-2.903 0-.743-.828-.665-1.036-.665h-1.726c0-2.82 2.9-1.244 2.9-3.895 0-.496-.343-.664-.485-1.244h3.457c1.175-.99 1.66-2.98 3.115-3.802-.417-1.17-1.176-1.5-2.006-1.996 1.312.163 2.145.332 2.006-1.49h-1.94c1.11-1.083 2.835-1.25 4.36-1.826 1.105-.41 2.63.578 3.594-.25 2.075-1.814 3.666-5.13 6.428-6.208 2.49-1 6.362-2.156 7.956-4.062-1.733-.085-4.495.576-5.188-.255 3.663-2.14 7.056-.66 9.818-3.146.485-.41 1.728-.162 1.728-1.235 0-1.492-3.667-1.08-4.49-2.08-.417-.49-.417-1.157-1.178-1.398-.483-.167-.76-.334-1.245-.665l-5.532 1.904c.555-.165.762-.333 1.247-.913-1.382-1.658-7.333-1.41-8.992-1.41h-1.934c-.626 0-1.038-.58-2.074-.58-.968 0-1.246 1.413-2.217 1.413-1.035 0-1.377-.994-2.626-.994-.347 0-.69.247-.83.58h-7.95c-.692 0-1.246.25-1.59 1.073-.902.91-.208.165-1.382.165-2.005 0-2.838 1.745-3.454 3.73-.623-.25-3.324-1.82-4.636-1.82-1.45 0-.553 1.82-2.763 1.82 0 .334-.282.666-.555.666h-1.518c-2.01 0-6.504.987-6.916 3.06h1.52c.203-.168.616-.41 1.033-.58z"/><path d="M286.126 68.852c-1.452-.577-7.608-.244-7.608-2.733.346-.085 1.522-.336 1.522-1.077 0-.66-.69-.912-.69-2.075.342.25.69 0 1.035 0 2.834 0 2.147 4.14 5.396 4.14.756 0 1.868-.08 1.868-.99 0-4.73-4.43-6.132-6.917-9.11v-1.247c.142 0 .348.088.898 0 .418 1.572 2.558 3.733 3.808 3.733.826 0 1.035-1.33 1.035-2.324 0-2.242-3.107-1.493-3.802-3.728h1.038c.554.913 1.313 1.327 2.075 1.91.555-1.744 3.32-.667 3.8-3.152-.344-.166-.69-.668-.69-1.245 1.314-.167 2.698-.908 3.112-2.23-.83-.34-2.766-.256-2.766-1.66 0-1.084 1.108-1.084 2.214-1.084-.348-.487 0-1.156 0-1.816 0-1.242-1.033-1.74-1.033-3.56-.97 0-2.215 0-2.215-1.413 0-.58.622-1.243 1.38-1.243 1.247 0 4.844.743 4.844-1.242 0-1.984-2.7-1.575-2.976-2.896.416 0 .9-.255 1.244-.506-.692-.657-1.66-1.57-2.766-1.57-.758 0-1.312.417-2.07 0 .412-.83.344-2.814 1.17-3.563 1.316-1.156 2.766-1.738 2.766-3.478 0-.33.072-.33 0-1.24 1.312-.42 3.11-.75 3.11-2.074 0-.828.485.083 0-1.073 1.247-.333 3.11-.333 3.11-2.653-.55.493-.618.493-1.447 0 3.112 0 4.563-2.404 6.845-3.31.414-.173 1.73-.912 1.73-1.915 0-1.075-3.25-2.898-4.15-2.898-.69 0-1.177.08-1.383 1.074h-3.32c-1.11.665-1.313 1.08-2.562 1.657-.272.086-1.585-.242-1.585-.242h-4.635c-1.108.997-4.606 6.46-6.4 7.038.205-.825 4.672-6.46 4.672-7.203 0-1.25-.484-2.485-1.728-2.485-2.286 0-6.406 4.723-8.132 4.723-.556 0 2.46-3.486 2.596-4.15-1.237-.572-12.833 1.078-14.008 0l15.183-.988c1.87-.833 6.57-.415 6.92-3.317-1.733-.495-4.152.082-6.02-.824C277.344 3.15 274.304 0 270.226 0h-10.03c-3.525 0-6.223 2.323-9.542 2.323-1.04 0-1.73-.168-2.766 0v.992h-1.385c-1.524-.664-2.624-.577-4.283-.577-2.287 0-4.015.577-5.882 1.652.352.586.904.67 1.384 1.245-.623.163-2.764-.243-2.764.99 0 1.576 2.836 2.66 3.938 3.316h-3.112c-1.723-.988-3.386-2.894-6.224-2.894-.688 0-1.722.082-1.722 1.073 0 .665.34 1.164.552 1.82h-1.037c-1.385-.656-2.562-.494-3.322-2.063l-.69.827c0 .58.347 1.074.347 1.658-1.314 0-1.662-2.485-2.907-2.485-1.87 0-3.247 1.32-5.184 1.9-2.63 0-3.664.827-6.43 1.24-2.214.334-.347 4.153-2.767 4.153-.694 0-1.245-.17-1.797-.668-1.384 1.654-4.497 3.643-6.846 4.554-.347.082-1.384.5-1.384 1.25 0 1.57 3.94 1.492 5.19 1.657 0 2.067-.763 3.56-1.87 4.39-1.52 1.074-4.01-.173-5.878.575-1.313.5-2.077 1.41-3.323 1.907-1.516.585-3.94-.333-3.94 2.236 0 1.332 6.636 3.564 6.913 3.564h2.42c.35 0 .555-.413.696-.823h2.766c-.207.913-.207 1.24-.896 1.82h-3.944c-.345.58-.555.666-1.242.666h-1.73c-.554 0-1.94.496-2.08 1.653 1.316.582.898 0 2.422 0 .83 0 1.66.914 2.767 1.404-.274.746-.758.832-1.38 1.33.824 1.24 3.04 1.987 4.493 1.987.554 0 .48.254.897-.243-.204-.083-.48-.417-.69-.672.347-.162.623-.32 1.383-.32.826 0 1.454.66 2.074.66.896 0 1.314-1.083 2.213-1.083h2.072c7.745 0 12.583 7.21 14.52 14.34v1.238c.626.085 1.73.17 1.73 1.412 0 1.9-1.518 1.736-1.518 3.56 0 1.245.618 1.408 1.864 1.408.9 0 1.107-1.407 1.73-1.407 2.286 0 2.904 3.89 5.044 4.718-.065.508 0 1.25-.685 1.25-1.663 0-2.702-1.25-4.152-1.25-.624 0-.553-.324-1.25 0 .28 2.33 5.328 2.74 7.47 3.564-.62 2.323-1.656 3.147-2.07 5.636-.973-.496-.973-.413-1.937.168v.167c-1.383 1.323-1.798 2.978-2.764 4.55v1.915c.415-.428.898-.337 1.38 0-.206.826-.69 1.236-.69 2.065 0 2.237 1.866 3.15 2.283 4.727.203.827.415 2.396.692 2.73 1.17.742 1.52-1.322 2.555.248-.483.58-1.037.494-1.037 1.572 0 2.404 2.63 6.136 4.01 7.463.206.164.07 1.323.48 1.654 1.11.992 1.802.415 2.286 2.318.83-.085 1.937-1.08 2.9-1.08 1.734 0 1.597 3.736 3.324 3.736.417 0 .553-.496 1.382-.585.138.503.345.833.834.833 1.862 0 1.033-4.31 2.623-5.224-.142-.907 0-3.066 0-4.555 0-2.408 3.246-1.495 3.246-4.306 0-.914-.827-1.335-.827-1.907 0-.415.274-.67.48-1 0-.246-.135-.576-.135-.826 0-2.737 3.732-1.988 5.183-3.728.624-.745.346-1.58 1.387-2.076v1.658h1.037c1.454-1.238 3.8-.83 5.183-2.487 1.035-1.236 1.112-2.895 2.42-4.135l1.732-1.5c0-.662.688-.907 1.38-1.402h3.25c2.626-1.332 4.632-1.08 7.124-2.074 2.003-.75 2.697-3.065 4.977-3.98 1.253-.494 1.944-.58 2.98-1.572z"/><path d="M223.203 72.5h1.523c1.173 0 2.624-.25 2.762-1.658-1.798-.66-2.35-2.9-4.148-2.9-.625 0-1.52.412-1.52 1.656.002.99.756 2.817 1.383 2.902zM293.175 44.74c-.204.248-.692.588-.692 1.077 0 .42.42 1.25.902 1.25.695 0 1.865-1 2.212-1.25h-1.174V44.74h-1.248zM220.3 137.287c0-.327-.207-.826-.478-.826-1.113 0-1.532 1.41-2.08 2.484-1.036 1.905-1.8 5.64-3.736 6.79.07.25.345.42.552.42v.493c0 .084-1.24 1.247-1.24 1.573 0 .25.344.832.688.832.83 0 1.11-.493 2.145-.493.76 0 1.176.575 2.076.575.482 0 .898-.17 1.377-.408.35.824 1.25.325 1.94.325-.205.5-.76.5-.76 1.326 0 .164.277 0 .415 0 .828 0 1.456-1.243 2.005-2.246.554.67.137 2.246.69 2.246.21 0 .348.164.553.164 0 .33.143.992.625.992.688 0 1.103-.992 1.103-1.983 0-.823-.48-.75-.48-1.74-.416.322-.21.493-.9.493 0-.577-.484-.91-.484-1.323 0-.333.62-.497.692-1.247-.275 0-.627.086-.76.25 0-1.24.067-1.99.067-2.732-.346.255-1.243.255-2.008 0l-.83.334v-.41h-1.244v-.754l.35-.404c-.277-.34-.69-.422-1.108-.422-.48 0-.48.497-1.037.66v-.738c.41-1.503 1.868-2.4 1.868-4.23zM602.814 47.066c.688 0 1.037-.748 1.518-1.248.35.5.628.824 1.247.824.69 0 1.103-.657 1.52-.657.56 0 .833-.583 1.384-.583.485 0 .76.832 1.25.832.824 0 1.173-.832 1.725-.832h1.867c0-.658.97-1.572 1.24-2.73-1.445-.493-5.528-2.234-6.772-2.234-.827 0-1.17.996-1.17 2.233-1.872 0-2.014-2.65-4.154-2.65-1.453 0-3.11 1.414-3.11 3.31-.002 1.995 1.656 3.736 3.454 3.736zM170.446 133.15c.065 0 .342.074.342 0 0-1.164-1.174-1.41-2.35-1.41.07.16.07.41 0 .577.413.5 1.385.833 2.008.833zM80.625 143.754c1.106.83 3.523 3.063 5.114 3.063h.623v-.747c-1.796-2.153-3.457-4.14-6.43-5.303-.487-.167-1.106-1.16-1.87-1.16-.34 0-.687.25-.966.41h.28s.687.25 1.036.336c-.074.247-.35.582-.69.742.274.995 2.21 1.828 3.593 1.828-.208.254-.552.254-.69.83zM70.25 132.488c0-.42-.344-.587-.344-.995 0-.83.142-1.33 0-1.824-.135.406-.41 1.067-.9 1.067-.413 0 .415-.904.415-.988-.62-.08-.967-.584-1.59-.584v.667c.28.497.556 1.485.83 1.485.417 0 .555.917 1.112 1.08 0 .165-.275.418-.275.913 0 .666.41 1.573.962 1.573.69 0-.553-1.242-.553-1.572 0-.326.344-.494.344-.822zM25.58 117.9v.994c.49.414.836.496 1.452 1.085 1.04-1.002 1.456-1.583 2.698-2.33v-.993h-.828c-1.244 0-2.142.83-3.322 1.243zM359.427 175.768c-1.043-.254-1.457.547-2.355.547-.97 0-1.596-1.08-3.044-.26v.587c.205.412.762.327.966.412 1.108.414 2.008 1.827 3.182 2.156 0 .246.347.338.554.338.21 0 .415-.338.415-.583 0-.66-.348-.744-.348-1.33 0-.334.348-.908.348-.908l.282-.96zM347.735 166.535c.207-.498.412-2.32.623-3.31-.21-.09-.282-.502-.282-.918-.34.084-.616.83-1.1.83-.138 0-.35.166-.485.166.348.657.555 3.07 1.245 3.232zM346.697 169.938c0 .577-.344.986-.415 1.655 0 .664 0 1.73.693 1.73.55 0 1.81-1.164 1.81-2.32 0-1.33.176-2.073-.428-3.392-.21 0-.417-.49-.898-.49-.623 0-.692.82-1.453 1.077.072.653.69 1.066.69 1.74zM336.326 171.758c0-.252-.347-.75-.347-.91-.416.076-.69.322-1.105.58.07.078.623.74.9.74.204 0 .55-.166.55-.41zM350.986 124.864c0-.837-.484-.67-.484-1.662h-1.317v.825c0 .837.763 1.083 1.59 1.083v.66c.07-.417.21-.248.21-.906zM351.813 125.693l-.134-.338c-.078.083-.28.25-.35.416.07.08.483.498.97.498 1.522 0 .97-2.904 2.143-3.318-.343-1.4-.416-2.15-1.797-2.15-.482 0-1.316 2.15-1.316 2.49 0 .493.762 1.15 1.453 1.324 0 .414-.483.99-.97 1.08zM366.68 114.746c-1.236.09-1.587 1.578-1.587 2.072 0 .417-.214.75 0 1.083.486-.75 1.04-1.155 1.04-2.067 0-.425.405-.748.546-1.087zM372.905 114.344c.274 0 1.172-.59 1.172-.832v-.997c.142-.085.49-.66.556-1.08-.27-.165-.414-.33-.762-.825 0 0-.615.418-.615.826 0 .42.27.667.48.993-.556.084-.973.58-1.522.66 0 .505.067 1.254.692 1.254zM380.854 183.766c-1.175-.414-2.836-.825-4.356-.494.763.494 2.074.66 2.626.66.487 0 .833.418 1.73-.166zM397.175 182.28c-1.176.24-2.974 1.075-4.01 1.65 0 .166.206.42.346.42 0 .247.275.414.485.414.625 0 1.936-.415 2.15-.91.062-.262-.08-.744.133-.83.413-.253.76.086.897-.745zM434.927 241.68c.55 0 1.105-.66 1.24-.99-.89 0-1.374.16-2.003.41.078.41.556.58.763.58zM424.423 71.672c-.14 0-.9 1.572-.9 1.9 0 .833.403.994 1.244.994 1.174 0 2-.828 2.9-1.402v-1.082c-.968-.16-1.452-1.24-2.423-1.24-.345 0-.477.83-.82.83zM444.262 68.192c0 .995 1.52 2.075 2.423 2.075 0 0 .9.156.9-.422 0-1.653-3.323-3.31-3.323-1.653zM469.702 54.852c-.688-.664-.893-1.58-1.72-1.58-.623 0-1.04.916-1.04 1.66 0 .252-.2.83 0 .83.828 0 2.422-.58 2.76-.91zM609.866 54.102h2.074c-.07-1.9-1.453-3.312-3.247-3.312-1.595 0-2.494 1.17-3.324 2.482l.35-.408c1.316.58 2.904.407 4.146 1.238zM623.555 46.81c1.112 0 3.114-.324 3.114-1.237 0-.414-.277-.833-.692-.833-.27 0-7.536-1.073-8.16-1.65l.69.656c0 2.07 3.256 3.063 5.047 3.063zM607.1 49.71c0-1.157-1.86-1.326-1.86 0 0 .754.06 1.08.825 1.08.486 0 1.034-.41 1.034-1.08zM208.127 143.994c-1.45-.99-2.765-2.563-4.908-1.98.83.742 2.834 2.48 3.94 2.48.552 0 .762-.08.967-.5zM203.84 150.958c-.138.086-.276.328-.276.58 0 .576 2.56 2.155 3.046 2.155.135 0 .827-.42.827-.913v-.502h-2.074c-.69-.164-1.176-.492-1.523-1.32zM211.795 153.693v-.58c-1.594 0-.553-.496-.553-1.244 0-.332-.348-.496-.485-.826-.625.242-1.59 2.32-1.59 2.82 0 .492.416.906 1.106.906.757 0 1.522-.496 1.522-1.077zM2.973 107.96c-.554 0-.765-.164-1.04.578H.898c.137.328.55.585.828.832h2.286c-.143-.832-.21-1.41-1.04-1.41z"/></g></svg>