<svg xmlns="http://www.w3.org/2000/svg" width="124.895" height="92.646"
    viewBox="40.46 13.577 124.895 92.646">
    <path fill="#C52026"
        d="M98.364 96.958c-20.466 0-37.058-16.592-37.058-37.06 0-20.465 16.592-37.057 37.058-37.057 10.955 0 20.798 4.755 27.582 12.312-8.21-12.966-22.68-21.575-39.162-21.575-25.584 0-46.323 20.74-46.323 46.323 0 25.584 20.74 46.323 46.324 46.323 16.48 0 30.952-8.61 39.162-21.575-6.785 7.555-16.627 12.31-27.582 12.31z" />
    <path fill="#C52026"
        d="M149.35 51.486l-9.89-13.614V54.7l-4.233 1.375-11.772 3.825 11.772 3.825 4.233 1.375v16.828l9.89-13.614 16.005 5.2-9.89-13.614 9.89-13.614" />
</svg>