<svg xmlns="http://www.w3.org/2000/svg" width="1500" height="1000" viewBox="0 0 1500 1000"><path fill-rule="evenodd" clip-rule="evenodd" fill="#CCC" d="M450.1 624.9l-1.05-4.1-.7-.35-1.25-.352h-.5l-.85-1.05c-.3-.467-.6-1.05-.9-1.75l-1.05-2.3-3.85-5.5-9.35 2.7-.15 2.3 3.3 6.5 4.4 5.65.7 8.65h-2.75v.55l.8.6h.05l2.85 2.25v4.65l-1.75 3.95 2 1 2.8.7 2.45-3.8 2.8-2.45 11.2-1.75v-3.4l-.7-2.95-2.45-1.95-.85-4.65-3.15.25-2.05-3.398zm-54.85-35.2l5.25-5.7-5.7-.65-3.7 6.5V593l5 2.25h4.05l-2.8 14.75 3.85 1.75 4-6.55-3.5-11-6.45-4.5zm171.45-53.25l-2.3 5.7 4.55 4.6 1.05 4.6c.333.7.533 1.1.6 1.2.4.467.633.75.7.85.167.134.333.2.5.2.567 0 1.65.15 3.25.45 1.7.367 2.833.783 3.4 1.25 1.733 1.4 3.483 2.983 5.25 4.75l1.35.6 3.15 1.85 5.75 5.5 1.05 4.65v2.45l2.45 2.8 3.95.2-.35-1.6-.75-1.7 1.25-2.45h3.6l2.35-5.15 3-3.5 4.4-3.5.6-2.9-6.2-2.25-.2-4.85.15-.1-.05-.05-2.65-3.8.75-3.55-1.05-2.9-3.45-4.4-2.2-1.2-1 5.7-4.5-2.2-3.2-4.2-.55-8.4 1.6-1.6 1.1-4.9-1.45-3.75-3.2-4.898-3.25-2.2-.2-1.6-2.3-.7-1.05 1.6v.3l-2.65 2.45 4.9 9.6.95 2.65-3.7 4.25-4.6-.55-.45-1.35-.25-.35c-.433.065-1.1.35-2 .85l-2 1.15-2.55.2-1.95 4.9v1.1h-.4l-1.2 4.198zm-373.15-169.1l-.9-2.65-2.4-.9 3.3 3.55zM179.6 335.9l2.25 1.05c.833.3 1.583.483 2.25.55 1.533.133 2.75.8 3.65 2 .367.633.617 1.267.75 1.9l.35 2.1-6.85 1.05-4.35 2.6c-.467.2-.816.3-1.05.3s-.483-.05-.75-.15l-.9-.35c-.4-.2-.867-.534-1.4-1l-2.1-1.9-.3-7.25 6.25.9 2.2-1.8zM31.1 372.35l6.1-4.5 12.5-3.7 7.5 2.05-1.25 5.95-4.35 5.8-11.3.35-.65.15-.65-.6-7.9-5.5zM152.45 199.9l6.4 1.45 6.85-1.8 2.8 1.75c.467.2.717.3.75.3l-.25 1.3.75-1.1.7.5 1.1 1.1c.7.667 1.133 1.117 1.3 1.35l.2.2.05.25 1.55 4.15 2.65 3.85 5.75 2.1 2.95 2.6 4.6-2.9 6.8-1.05 5.6 1.55 5.15-1.2 6.4 1.4h3.55l2.9 4.55-1.55 3.1-4.05 1.55-.35 5.6 3.75 10.05 2.8 4.15.35 5.75 2.6 3.7.9.85-.4.45.75 1.75 3.8 3.85 6.3 4.7 20.55 13 20.25 10.3h.2l.3.2 5.65 2h7.4l-1.75 4.05-2.3 3.15-1.45.9 1.05 3.3-1 1.4-1 4.2-4.1 2.95-1.8-2.8h-1.35l-.2 2.1L279 312l-5.45 2.9-4.55.35-2.6 1.4-1.7-1.4h-10.75l-1.6-.2-1.15-.35-.05-1c0-.233-.1-.867-.3-1.9l-.2-1.1-2.45.15v2.1l-7.05-5.2-3.6-1.6-.85-.2v-1.35l-.35 1.25-.35-.05-4.75-1.4v.05l-5.7-2.25-9.1 1.3-7.25 2.1-2.35 4.25-5.95 1-6.25-4.65-4.7-1.05-4.6.15-3.2 1.25-9.4.15-2 5.2v.35l-.15.1-1.55 7-3.65 2.1-5.85 5.75-2.4 3.45-6.3 4.65-5.75 3.4-7.4.55-5.3 4.25h-2.9v.1l-11.2 4.65-6.1 1.7-1.8 1.1.2 2.55-3.85.95-1.75 2.05-1.45 4.15-2.95 2.5-4.15 1.2-3.6 3.05-5.35 3.35-3.15.3-1.4 2.15 1.85 2.55-1.95 3L77 382.3v-.15l-3.15 1.65-5.1 2 8.05-13.05 1.4-4.05-1.4-5.5 1.4-5.4 7.55-2.95 6.95-4.6 5.05-.95 7-3.5 6.55-.35 2.25-2.2 5.8-1.55 2.9-4.5-2.1-4.95-4.15-1.2-.35.4-8 2.1-4.1.25-4.55 1.45-3.8-2.1-2.95 1.55-3.95-1.55-3.8 1.35-4.9-1.3-8.25-.2-3.5-2.35-.4-9 6.15-3.25 4.1-7 7.25-5.1 1.8-2.9 4.8-2.25 1-5.3-2.45-5.4.85-9-1.25-2.6 3.5-6.3 7.45-1.15 5.25-3.4 1.75-2.15 5.15 1.45 2.8-1.45-.45-7.65-1.55-2.05 1.05-12.5.7-2.45-4.75-1.05-2.8-5.05-2.8-2.3-4.2-.8-3.55-4.9 2.25-4.4 1.05-3.05h7.05l2.4 1.65 2.5-.75 2.45-2.75 1.55-6.15 4.7-4.45 3.35.95 5.75.15 1.6-1.55 3.65 1.85 2.15-1.55h4.7l2.65-.8 3.4-3.55 4-2.8zM993.9 518.7v-.5l.05-.15-1.05.35-.9.7 1.9 2.5v-.2c-.1-1.567-.1-2.466 0-2.7zm-37.8 118.8l-2.45 2.95-2.1 4-6.3.85v1.9l4.55 3.8-1.75 3.75 5.45 4.6.8 4.5 1.95.55h.35l.15.15 2.2.4.15.05 1.85.45 1.05.4-.6 1.25.85-1.1.65.2 1.25.2c1.2.1 2.134.315 2.8.648.734.267 1.45.95 2.15 2.05l.25.2c.834.934 1.434 1.533 1.8 1.8.667.467 1.117 1.034 1.35 1.7l.35.7.552-.8 1.1-2.1 5.95.5-3.3-1.8-1.5-.35-.35-1.25c-.067-.3-.05-.885.05-1.75l.7-3.05 4.75.85v-1.65l-1.3-1.2-2.8-3.35h4.898l-.85-1.9 2.35-4.7 5.9-1.55c.7-.067 1.6.166 2.7.7l.85.45c.334.133.783.482 1.35 1.05l.15.2.35.35 2.5-.55-1.2-1.4-.75-1.9 2-.05 2.8-2.05 1.05.2c.534.1.935.1 1.2 0h.5l5.1.8c.468.066 1.285.483 2.45 1.25l1.25.75v-.9l1.5-.05.2-1.2c.234-.566.35-1.2.35-1.9l-.05-.35-2.05-1c-1.633-.7-2.815-1.116-3.55-1.25l-2.25-1.05 1.2-1.3c0-.1.067-.2.2-.3l.25-.3 5.2-1.3-.3-1.35-2.8-.25-3.2-4 2.8-1.25.35-1.5-2.6-.15c-.6-.034-1.083-.234-1.45-.6-.333-.335-.55-.8-.65-1.4-.133-.768.018-2.034.45-3.8.167-.8.367-1.385.6-1.75l.85-1.05 1 .648 3-2.2-.5-1.45c-.198-.433-.25-1.133-.148-2.1l.1-1.1c0-.667.316-1.333.95-2 .434-.4 1.066-.816 1.9-1.25.666-.366 1.15-.55 1.45-.55l.8.15.35.15 1.25.05 4.5.65h.2l4.25 1.3 3.35-5.3-.1-.3 1.05-.602c.233-.1.417-.383.55-.85l-3.35.95-3.65-3.35-.45-1.65-2 .55-.15.15c-1.6 1.466-2.532 2.4-2.8 2.8l.15.35.2.05 1.45 1.05-3 2.6-5.65 1.25-5.25.35-.2 1.95 1.5 1.85 1.4 2.802-5.35 4.2-2.05 4.55-3.8 1.15-1.3 6.45-2.3 3.25-4.852 3.55-1.1-4.95-2.6-2.4-2.65-1.2-.65-.5 1-.95-1.25.6v-.05l-.35-.7-1.05-2.95-1.75-1.45.4 2.65 1.4 2.65.2 6.4 6.1 8.3L979.7 645l-3 1.9c-.533.366-.816.6-.85.7-.434.5-1.484 1.6-3.15 3.3l-.3.25-5.75 3.95v-3.05l.85-3.9 3.7-5.15-.95-.45-1.25-2.35-3.6 3.5-1.6-2.9-3.45 3.3-2.3-3.1-1.95-3.5zm8.25-143.95l-.75.55 1.1 1.75v.35l.1.45c.034.267.102.45.2.55l4 1.4 3.55 4.25 2.4 1.15.2-.2c.5-.467 1.268-.7 2.3-.7 1.3 0 2.484.467 3.55 1.4l.5.4v11.9l-5.1-3.65v.2l1.4 2.9-.5 1.6c-.233.467-.467.817-.7 1.05-.333.4-.75.6-1.25.6s-.983-.133-1.45-.4h-.1c-.1.468-.467 1.45-1.1 2.95l-.9 1.9.1 2.5 2.4 2.45c.434.434.684.834.75 1.2l2.25 4.45h.15l-.05-.95c-.067-.767-.067-1.333 0-1.7l.05-.4.3-1h2l-.95-2.3-.1-.05-2.65-3.5.35-4.65 2.3-2.85 3.7 2.45h1v.6l1.1.7c.3.233.5.45.6.65l.95 1.4-1.9.85c-1.066.466-1.966 1.183-2.7 2.15l3.35 5.8-1.55 2.25 2.3 2.8 1-1.65c.5-.867.918-1.434 1.25-1.7l1.2-1.25 1.1 1.65c.468.766.885 1.35 1.25 1.75l.7.8 2.602-4.2.8-1.05 3.5 1.95 4.65-.7 5.35 4.6.25.1.65-5 3-.25 2.95 1.9c.032.066.315.434.85 1.1.1.233.267.534.5.9l2.65-2.65 6.15 4.6h4.148l1.25 2.7c.5-.533.9-.8 1.2-.8l.8-.35.35-.05.45.05c.167 0 .434.1.8.3.768.367 1.268.85 1.5 1.45l1.1 6.8-7.25 5.75-.648 1.45 1.2 1.8h1.35l.95-.6 6.45-1.15 3.5-2.75 5.1-1.85 7.75-.35 3.4 4.5 4.25-1.6 2.3-1.55.8-2.75v-2.5l-.95.148-.8 2.1-5.05.75-4.3-1.55h-2.45l-1.5 1.6-1.65-1.85-2.3.75-1.2.2c-.4.1-.75.1-1.05 0-.5-.133-.85-.333-1.05-.6-.134-.2-.367-.4-.7-.6l-3.95-1.85-.8-5.95 2.1-2.95 4.5-3.8 7.05-.9c1.768-.467 3.217-.7 4.35-.7 1.367 0 3.067-.25 5.1-.75l.45-1.2-1.9.05-4.698.7-9.45.2.65-8.25v-.05l-.25-.5c-.3-.334-.534-.5-.7-.5l-3.6-.05 1.5 1.45.15.2.898 2.1.65 1.65.05.1.15.6c-.233-.634-.667-.95-1.3-.95v1.35l1.4.3-.3 1.85c-.268 1.168-.834 2.3-1.7 3.4-1.3 1.534-2.817 2.667-4.55 3.4l-.25.15-.1.15-.352.75c-.167.233-.517.5-1.05.8l-.7.05c-.366 0-.667-.05-.9-.15-1.066-.166-1.916-.45-2.55-.85l-2.6-1.5c-.8-.434-1.65-1.017-2.55-1.75-1.3-1-2.267-1.566-2.9-1.7l-.15-.048v.05h-.8l-.6.15-.2-.15h-1l.15-1-1.55-1.75c-.335-.366-.5-.8-.5-1.3l-.052-1.25-1.05.7-3.65.25c-1.133.1-1.966.15-2.5.15h-1.55l-.15-.05c-.433-.1-1.232-.417-2.4-.95l-2-.8c-.665-.334-1.466-.6-2.398-.8l-.4-.05-1.7-.852v-.75l-.2-.35-1.4-1.3-4.05 2.55-.7 1.1-1.9 2.1-.648-2.6c-.134-.4-.2-.866-.2-1.4l-.05-1.8-3.1-.2c-.5 0-.917-.032-1.25-.1h-2.45l-.6-6.2-3.3-3.85-.3-2.65.148-1.85c0-.066.066-.316.2-.75l1.05.5-.7-1 .2-.15c.167-.033.267-.216.3-.55l.7-3-1.1.3h-.3l-2.95.45h-5.6l-4-4.1-1.15-2.2-4.55-2.45-.8-.548zm466.95 149.9h-.15l.3 1.35.05-1.25-.2-.1zm-91.75-142.1l-.65-.15-4.25-.3-1.75-.5c-1.2-.366-2.116-.55-2.75-.55-.767-.1-1.732-.1-2.9 0l-1.75.1-13.4 6.75h-.8l.2.1-6.4.05-.448.45-3.85 2.55 1.5 4.302 7.8.95-5.1 4.9-3.85 1.75-.45.1-9.7.7-3.5.7v.2h-1.05l-.15.05-.3-.05h-1.1l-.102-.3-4.8-1.25-1.15.148-5.45 1.2-17.15 7.1-.35 4.65 1.65 2 1.1 3.65-3.15.65-.55 2.7-1.95 1.75-1.4 3.8-2.398.75-1.35 1.65v1.95l6.8.05 1.55-.2h.05l2.6-.7 1.6 1.9.35.6-1.25.7 1.4-.25c0-.168-.066-.284-.2-.35h.85l1.2-.25 2.352-1.302c.2-.1.467-.316.8-.65l.7-.7 6.2.45 1.05.2.4.15.3.35c.5.7.982 1.884 1.45 3.55 0 .134.2.25.6.35.467.102 1 .102 1.6 0l3.75-.648 3.05-3.4c.934-.667 1.867-1.033 2.8-1.1.634-.067 1.25.083 1.85.45l.5.35c.067.066.3.267.7.6.567.367.917.733 1.05 1.1l.1.15v.25l.102.9c.1.9.416 1.566.95 2 1.232 1 1.85 2.717 1.85 5.15l.1.8.6.35c.233.167.75.366 1.55.6l1.35.3v1.2l.25-1.15.65.15 1.1.5c.935.367 1.602.55 2 .55h6l2.852-1.45.45-.3-.35-.5-1.15-.85 2.05-3.6v-.1l-.15-.15 4.85-3.9.2-.2.35-.148 4.8-1.55.6-4.4c.068-.4.102-1.283.102-2.65v-1.95l-1.1-2.6c-.268-.366-.5-.6-.7-.7-.233-.133-.768-.2-1.6-.2h-1.15v.05h-1.1v-1.4l-.6 1.25-1.75-1.05-1.15-.95h-.05l-2.25-3.148-.05-.1.55-1.15-1.15.45-.1-.35-.15-.95v-2.2c.1-.5.3-.967.6-1.4l1.7-1.85-.3-5.2 2.35-1.1 3.6-.7-.05-2c0-1.867.083-3.1.25-3.7.3-1.034 1.1-1.617 2.4-1.75l.4-.05.5-.15.8.55 1.75 1.75.2-.6.05-.45.35-.4 1.4-1c.3-.233.683-.467 1.15-.7l.05-.05 5.25-2.05c.2-.033.683-.467 1.45-1.3l.148-.15 1.05-1.25 8.25-3.25-.7-1.5-3.908-2.454zm-42.95-206.5l11.8-1.6 5.6 4-.2 5.75 1 4.75.75 1.95 8.05 1.6 6.15 4.65.75 5.65 2.6 5.8 3.102 4.75v.3l1.1 3.7-1.2 7.8-4.45 9.55-3.25 3.5-2.1.8v3.2l2 1.95 1.75 3.65-1.2 4.15 1.3 3 7.65 11.6.65 2.8-3.75 2.6 1.55 2.5 3.1 2.6 4.6.15 5 2.65 7.75 1.55 8.1-1.75v.15l15.2-2.4 13.45 3.35 5.3 5.15 7.35 9.3 4.9 2.9 5.1 4.45 9.25 10.25-9.648-5.15-1.6-1.95-4.9-1.65-.85-2.85-2.25-.15-2 1.9V424h.25l-1.8 1.05-.2.05-2.75 1.5-1.4 2.55 1.75 2.6-1.35 3.65v.35l-.1.15-.5 3.05-1.85 1.2.5 4.05.898 2.75-1.8 3v4.75l-2.95 1.7-2.1.75h-7.6l-2.05-.8-1.95 1.65h-7.85l-1.95 3.35 1.75 1.6h-.2l.4.5 2.45 7.8.2.2v.25l2.448 5.15 5.75 3.05 2.4 3.5.35 10.25-2.4 1.1-.3 1.05 5 10.35 5.25 3.55.9 7.15-1.25 2.3-.3 3.75.45 2.35 5.45 8-1.5 3 1.05 4.05.65 11.15 2.4 1.2 5.25.45 2.15-1.95 1 1.85c.032.168.165.317.398.45l.2.15v1.4l1-.75.15.15.6.95.45 1.2.1.6-2.548 3.95-3.15 1.6-.15 11.85-2.6 3.602-7.15 13.6 1.5 7.55 1.75.85 9.2.2 2.8 5.65 2.8 2.05 4.85-.35 3.352 1.4 4.5 4.15-2.75 4.6 1.25 4.25 1.15 2.25-.25 6.95-.05.25-1.05 2.7 1.55 3.5 3.55 1.25.7 2.7c.3.8.482 1.3.55 1.5l.15.25c.1-.067.4-.067.9 0l3.8.6.35.25 9.65 9.5-4.9 1.65-.5 7.35-7.1.6-2.95-1.1-3.15 2.95-2.05 4.9-6.65 5.35-4.2 1.2-6.35 7.8-4.7-2.95-1.1-5.1-2.6-4.15 1.8-4.6 3.95-2.05-1.2-4.25-3.35-5.4-5.352-1.75h-.4l-.15-.15-4.25-.65h-5.25l-3 2.1-3.1 4.45-4.4 4.25-12.9.75-6.698 1.05-3.15-2.45-6.15 1.05-11.7-7.35-2.6 1.7-7.75-2.75-3.7-.7h-7.65l-5.05 2.45-3.7 2.75-6.45-1.55-2.55-1.3-3.3-1-4.9 4.75-7.9 11.7-.948 5.55-8.65 1.4-4.4 2.2-4.5-.25L1259.2 679l-.2-.75 1.4-.35h-1.4l-.85-6.5-2.6-1.85-6-.55-3.15-.9-3.15 4.75-10.1 7.35h-.2l-6.85 2.65-15.8 3.4-4.7.45-5.1 3.25h-.3l-5.4 1.55-14.25.2-5.55.85-8.4-1.9-15.75-2.2-5.8 1.3v-.15l-4 .5-5.8 2.35-5.15 4.15-6.15 3.4h-5.2l-4.5 2.1-1.3 3.15c-.3.434-.533.7-.7.8l-.85-1.05h-.05l.45 1.3c-.634.2-1.768.733-3.4 1.6l-2.6 1.35-.05.05-9.35 7.15-3.552.35.05.2-4.2.45-1.6 3.15-12.65 4.55-3.65 2.7-7.35.7-4.8 2.55h-.35l-6.4 1.05-4.35 1.6L1032.2 736l-3.25 1.9-13.85-3.1-16.1.2-5.25.7-8.2-3.3-.2-.2-6.35-4.8-5.4-5.6-7.75-3.3-9.7-.7-5-1.2-13.1 4.7-3.45 3.5-9.1 2.85-7.35 4.2-9.3 1.9-4.55 2.15h-.2l-4.95.948-8.35 7.95-6.3-2.6-.6-.1-.602-.25-14.05-.35-7.9 3.15-.15-2.9-2.8-1.85 1.05-5.302-15.6-4.05-.35-.15-3.2-1.9h-.25l-.25-.2-6.75-2.2-2.1 4.552-2.45 1.7-.75 2.8 2.05 3-5.05 3.85.15 6.1 2.2 2.25-2.3 2.3-1.1 4.4-.352 7.9 3.4 4.2 2.1 4.15 2.95 3.2 1.25 2.45-1.45 4.648-9.5.2-3.1-1.2-7.35 4.4-2.3 2.2.55 8.85.9 1.55-.75 2.65v.3l-2.75 3.55-4.35-1.3-.8 4.05-6.45.5-1.55 3.7-.2 9.5L791.1 822l-.45-3.1-1.25-1.3-8.35-2.9-1.95-4.8-5.65 2.25 4.7-6.6.1-4.2-3.35-7.35-.2-.2-.05-.3-10.25-18.3 6.3-6.1 3.5-6.6 7.15-3.3 7.35-7.05 6.7-3.302 1.35-5-1.2-5.2v-.15l1-8.3-3.6-5.9-5.1-4.148-5.45-3.15-4.75.7-9.95 13.25-7.9 1.95-.15.1-.35.05-3.3 1.35-1.8 2.7-1.6 11-4 .9h-8.55l-3.7.4-3.45 3.5-7-3-34.2-20.2-7.15-1.7-9.45 1.95-3.5 2.55-1.9 3.2-4.6.5-6.85 7.398-7.2 3.25-9.8 11.25-3.6 3.1-.2 1.8-2.95 1.75.3 8.75-4.75 2.25-4.15 3-4-4.05-5.6-.45-3.55 3.65-.3 3.85-5 2.1-2.2 1.9-9.45-.2-1.05 3.55-5.45-1.1h-5.8l-.9 1.65-5.05-2.1-3.15 1.4-14.9.5-2.95 4.75-4.7-2.45-6.55.7-4.35 2.2-4.2 2.85-10.15-1.25-6.8-4.4-.6-.3h-.1l-7.4-3.05-14.4-11-1.85-5.6-4.05-5.8-5.1-9.05-.3-.3v-.1l-4.9-6.25-5.8-3.9-9.45-3.85L454.8 736l-6.25-1.55-9.45-7.85-8.6-3.55-4.25-4.35-23.95-4.95h-11.6l-10.45-1.05-1.2-3.45-3.9.3-5.85 7.8-2 16 1.55 5.85-4.2 5.3-2 3.3v.2l-.25.3-2.1 5.1 1.5 5.4-1.55 6.5-3.45 4.9-3.9-1.95.2-3.5h-3.4l-5.75-3-6.65-.7-4.85 3.2-1.05 3.8-7.8-.8-4.2 2.9-2.05-1.25-1.45.8-8.35 3.5-12.45.6-3.5-4.1-9.95-2.8-12.65-4.75-3.3-5.25.2-1.2-5.3-2.9-4.65-3.45L257 736l.85-3-6.85-2.55 2.15-4.9 3.1-1.45v-2.75l-3.85-.9-5.9-4.7-5.25.2-3.15 2.9v3.55l1.85 1.15-3.35 5.35-1.15-6.55-2.1-2.1-1.2-2.6-5.2-1.7-3.5-.2-3.65-3.35v-5.6l-1-1.35h-4.05l-1.4 1.75-4.15-2.5-.4-4.55-2.3-.5-1 6.25-3.9-1-4.75-1.9-.5-3h-2.65l-2 5.25 1.3 3 3.5 1.05-4.1 2.35-4.2 3.85h-3.6l-.25 2.45-1.6 3.9-3.05 1.4h-.3l-3.4.3-.65.25-3.65 1.95.45-.95-3.1-4.15h4.55l.3.45.35-.7 4.3-.3 1.2-1.95-.2-2.2L178 715l-3.65-.2-.05-2.75 4.25-.4.95-1.55-.15-3.1-18.4-.55-5.5-1-4.25.5-1.6 3.7-1.9 3.05-4.35-2.2-3.85.7-3.15 1.6-6.75-.8-2.2-2.6 2.95-2.05.85-2.95 9-.35 4.55-.9 2.3-1.55 6.4.7 4.75-1.15 6.85.05 10.1 2.4 3.05-.45v-2l-4.1-3.6 4.4-1.65-.2-1.75-1.85-2.2 2.75-2.1h4.35l1.1 1.2 5.05-1.4 2.7-2.25 3.8-2.3 4.55-.6v-2.45l-14.2.6v.3l-10.1-1.15h-8.75l-8.75 1.2-9.85-.25-5.1-1.4-2.65.9h-3.75l-2.5-3-3.15-.5h-2L128.1 677l-2.5 1.75-.8 3.9-3.75.45-1.55-3.1.3-4.35-.85-2.602 5.45-4.4 3.8-1.05 3.25.8 3.8 2.5 1.4 2.05 1.55.1 1.85-2.35 2.55-.7.2-5 4.9-4.95-.4-3.55-6.45-.25-2.9-3.85-3.4-1.25-2.45-3.05 3.7-4.3v-2.35l-1.45-.15-7.15 4.95-5.8-.75-2.25-2.25.85-1.8.5-6.05-1-2.45v-9.1l1.1-.6-.75-2.65-5.8-2.8-.85-.25-.4.15-.25-.2-2.35-.5-1.95-1.3V613.1h3.95l1.5 1.45 4.6-1.45 7-1.4 1.95-2.65.7-5.2-1.25-4.448 2.1-5.25V587.6l-8.95-3.05-8.9-7-7.05-1-3.25 1.55-.8-5.75-2-4.4-4.25-6.45h-10l-.7 6.25-3.45.35h-.2l-3.5-.35.3-5.05-3.8-3.1-5.05-3-2.85-.95-1.45 1.15-5.15-5.7 4-4.3 3 .7.5 2.25 1.95-.35 3.6-2.5 2.95-1.35 2.1-4.2h1.75l.2-3.65-7.7-5.7-1-5.15-.05-.05-.1-.4-1.45-3.45.75-5.05 3.65-1.45 1.7-1.15 6.65 2.75 3.05 8.45 1.7 3.15 2.65 3.15-.25 3.5h-4.2v1.2l1.75 1.05-1.5 2.4 1.7 1.3 1.05 1.4-.3 4.45 1.15 1.1 1.3-5.6 3.55-1.75 3.45 1.25.3 2.95 1.6.55 10 .55 5.05-.45 3.3-2.4 3.05 1.35 4.5-.25 3.05-3.35v-1.25l-2.2-.85-1.05 1.7-2.95-2.1-11 .55-.9-2.65-2.3-2.05v-2.35l-1.4-5.05-8.4-6.6.8-7.2 3.95-2.3h.25l2-.55 6.4 1.95 1.35-2.1v-2.9l-1-2 7.65-3.45 4.4-1.1.45-2.1-6.55-4.85h-8.6l-2.3-2.9-.3-2.55v-.25l.35-2.1.8-2.45 4.7-1.9.7-3.7-.95-2.7-3.5-3-2.45-1.25.3-2.45-.85-1.05-2.8-.85.2-5.15-1.5-.95h-6.1l3.3-3.6H99l3-2.75 5.8-3.3v-3.5l5.75-.2.3-4.25 4.3-2.3 2.25-4.3-1.6-2.8-2.75-.2-5.25 1.25-2.2-1.55-7 .3-5.4 1.2.05-.3L81.9 437l-9.15 1.75-15.55.55-1.9-3.75 7.1-10.85 2.95-9.8-1.4-3.2 1.8-11.2 3.45-10.65 1.85-1.35 3.6 1.5 3.85-.7 3.3-3.45 2.35-4.75 3-1.5.95-6.9h5.55l4.9-3.85 2.25-4.25 3.35.1 5.9-4.9 4.55-4.9 7.9 1.9 5.2 2.3 4 .5 10.9-5.15 5.25.55 5.5-1 3.05 2.6-1.65 2.8-.1 2.3.9 2.25 5.25 2.95 6.55 2.55 1.15-2.2.5 3.25 6.65-.9 10.2 2.45c.733-.733 1.85-1.45 3.35-2.15l2.3-1.05-2.25-5.45-.6-.2c-.767-.4-1.15-.95-1.15-1.65V361l-.8-2.25-.15-.1-1.35-1.65-.7-.55-.5-.25-1.6-1.3.1-1.05.5-.8 1.5-1.7h2.4l.5.2 1.15.8 3.95.05.25.05 3.65 1.3 2.2.35-.35 1.4.45-1.35 1.2.4.45.25 5.5 2.15.45 1.9-2.8 1.9-3.25 1.6-3.7 2.5 1.35 2.6 1.65.6h6.1l2.3-1.3 4.55.05 2.05 1.15 4.9-2.9 5.15 1.75 10.25 1 13.5 3.7h.05l.3.05 5.95-.4.5-.3 3.7-1.6.35-.05h.55l5.4 1.4h.05l4.4 2.5 1.15.45h7.75l2.85-1.4 1.9-2.4 3.8-1.55-.3-.9-3.7-2.85-4.7-.9-1.45-.8-1.2.7-6.35-.2-6.65-6.15-.55-2.65 5.15-1 6.65-2.6 1.5-3.2 6.05-.8 21.55-.1 2.55-2.8 2.1 1.5 2.7.15 3.05-2.6 2.8 1.55.9-.25v.9l1.2.75 15-1.6h6.6l4.5 1 1.85-2.6-.6-1.05-13.15-.7-2.2-2.6h-5.7l-1.4-1.35-3.4 1.7-5.6-1.4-3.5 1.55-6.4-.8v-4.05l-.35-.15h-1l.15-.35-5.4-2.3-1.6-3.7-5.05-2.8-4.7-4.95-.2 1.85 1.95 1L292 326l-.6 7.45-5.85-1.05-2.55-2.55-2.25-3.15-2.25-6.35 7.2-1.4-.85-1-2.7-2.65.95-5.4 2.6-2.7 2.65-5-.95-2.85 3.65-3.9 4.6-2.1 8.6.55 7.85 3.2h1.1v.45l6.6 2.2h.35l.15.25 22.65 5.35.9-4.4 1.5 4.55 2.45-.75 4.8 1.8 13.2-.15 4.95-5.15 4.95.55 2.8 2.45 11.65 4.05h.35l.1.15 7.45 1.75 5.8 2.95 7 1.75 11.05 1.3.15.25 16.65-1.2 6.6-1.9 4.65-4.2 3.3-4.7 1.5-8.05 7-5.15 11.1-2.8 12.75-8.35 19.25-9v.05l.35-.2 15.1-11.7 19.45-8.35h.35l8.75-1.1 12.6-3.55.75-.15.1.05 27.15-10.55.15-.2 5.5-.8 16.45 2.9 16.8 1.75h16.2l13.7 2.45v.05l.85.15 6.4.5 7.95-1.4 4.05 1.15h.4l.15.15 6.35.85c.567.1 1.184.117 1.85.05l7-.6 7.2-3.1 4.4-4.2 1.55-4.25 2.6-1.9 2.9 2.5 2.55 2.95.75.55c.3.1 1 .6 2.1 1.5l.15.05 1.4 1.35-1.8 4.05-.15 4.95 3.2 3.8-.2 2.1 3.7 4 .15 2.95 3.15 1.75 2.45 3.7 11.5 4.05 2.55 2.7 6.2 1.4 7.8-1.15 6.4-3.45.75-.15.15 1.35v-1.35l10.648-4.9 2.7 1.05 4.85.95 6.8 9.7 1.1 14.65 3.8 3.4 4.95 7.45 4 1.4 6.15 6.9 8.8-.15 3.65-5.85 5.9-7.35 5.1 1.9 9.95 1.25L854.7 309.7l1.05 5.75 7.75 3.15h.1l1.1.35h6.85l4.15 2.85 6 .35 4.75 4.5 4.85 3.35 4-1.75 4.102-6.35c.366-.4.7-.683 1-.85.7-.466 1.45-.7 2.25-.7 1.233 0 2.7.283 4.4.85l.85.2.9 5.05 3 3.75 4.55 2.55 7.2.7c.366 0 .7.066 1 .2l1.6.4c.833.3 1.433.45 1.8.45l2.35.35.8.2v-.1l9.05 2.35 3.4-1.05 4.2 2.15 15.3.35 3.95-4 2.9-1.6 4 1 3.9-.5 5.65-4.75 4.05-1.05 2.6-1.85 10.85-.55 2.9-.4 4.8-3.6 5.9 3.45 12.15-6.05 4.8 1.85h.25l.5.35 3.3 3.2 6.4 4.2 2.398-.6 3.35-1.75 6.4 2.5h.25l3 2.5 5.6.35 4.15-1.25 4.35.45 4.2 3.5 1.9.1c.267.067.634.1 1.1.1h.75l6.1-1.9 8.6-8.05 7.802-3.35 7.2-.35 8.05-4.85 5.4-4.1 4.25-4.65 8.75-1.6 9.3-5.65 7.4-6.1 7.95-5.4c.398-.1 1.682-.733 3.85-1.9l2.65-1.45.85-.65.05-.05v-.3l.2-.25 1.95-3.45 5.9-8.3 20.1 5.85 4.9-3.2 2.698-3.65.45-.4.1-.2 1.05-.25h.1l5.15.85 6.2-.7 12.5 1.45v-.05l6.3 1.05 5.65 2.4 5.35-4.35 1.55-5.55V265l3.75-5 5.6-.8h.352l-.05 1.3.35-1.3v.05l8.75 2.3-1.85 4.85 1.3 2.85h2.5l.85-2 4.45 3.4 4.4 4.75 1.4 1.95 5 2.35 6.9 4.55c.432.167.865.6 1.3 1.3l.55 1.15 1.45 5.35 1.848 2.8z"/></svg>