<svg xmlns="http://www.w3.org/2000/svg" width="126.66" height="126.66" viewBox="37.46 0.223 126.66 126.66"><g fill="#C52026"><path d="M100.78.223c-34.9 0-63.32 28.42-63.32 63.318 0 34.923 28.42 63.343 63.32 63.343 34.922 0 63.34-28.396 63.34-63.342 0-34.896-28.42-63.317-63.34-63.317zM88.617 22.898l2.953.832v-3.882l1.158-1.094 1.217 2.4 2.356 2.84-.937 1.308-3.792.87V23.86L88.6 26.17l-.85-1.305.87-1.967zM43.004 62.145c.284-12.264 4.406-23.552 11.22-32.802.24.043.39.08.39.08 0 .88-1.18 1.1 0 3.275 1.534 2.84.218 4.148.218 4.148s-3.71 2.622-4.363 3.056c-.656.437-2.405 2.84-1.308 2.185 1.09-.654 2.396-1.306 1.307.437-1.093 1.75-3.06 4.58-3.494 5.677-.415 1.09-2.6 3.688-2.6 4.998 0 1.333-.87 3.947-.653 5.02.135.76-.345 3.013-.72 3.927zm22.523 36.407l-.895 3.274.895 2.618s-1.33 1.09-2.18 1.09c-.81 0-1.09.504-1.967.263-8.314-7.77-14.338-17.92-16.957-29.372.283.06.676.256 1.246.76.826.72 1.306 1.09 2.395 1.526 1.097.44 1.53 1.092 2.837 1.747 1.315.654.874.22 2.623 2.184 1.75 1.964 1.525 1.964 1.967 3.057.437 1.09 1.09 2.182 1.525 2.837.437.654 1.744 1.09 2.405 1.528.63.436 1.718.872 2.373.872.66 0 2.62 1.965 3.716 2.16 1.09.24 1.09 2.423 1.09 2.423l-1.073 3.035zm8.712-84.164c-2.838 3.056-2.188 2.186-2.838 3.056-.655.873-.437 1.09-1.96 2.18-1.532 1.093-2.188 2.404-2.188 2.404l-2.403.87-1.937-.87s-1.773.65-1.555-.218c.07-.24.158-.48.265-.72 5.345-4.936 11.586-8.862 18.486-11.5-.698.87-1.51 1.765-1.51 1.765s-1.525-.022-4.36 3.033zm66.503 78.27c-.24.873-.655 2.4-.873 3.273-.22.875-1.31 2.62-1.964 3.057-.655.437-1.746 1.746-2.4 1.965-.634.218-1.092-1.528-.874-2.4.24-.874 1.31-3.27 1.31-3.27s.22-1.313.438-2.188c.24-.846 2.837-1.942 2.837-1.942l1.768-3.274s.218.874.218 1.528c-.022.633-.24 2.402-.46 3.25zm.655-20.495c-.436.655-1.746 2.4-2.4 3.274-.655.873-1.527 2.183-2.837 3.273s-1.31 2.16-1.964 3.062c-.655.868-1.527 2.83-1.527 2.83s.436 4.366.652 5.24c.22.872-1.526 3.252-1.526 3.252l-1.965 1.965-2.62 3.49.22 3.253-3.076 2.4c-1.093.873-.918 1.528-1.79 2.4-.874.873-3.188 2.407-4.062 2.62-.85.218-4.56.873-4.56.873v-1.965l-1.2-2.18s-1.224-2.6-1.88-3.493c-.653-.852-.653-2.184-1.745-3.253-1.09-1.09-1.615-1.964-1.833-2.62-.22-.654.152-2.617.152-2.617s.852-2.402 1.288-3.274c.438-.874-.022-2.184-.458-3.056-.437-.874-.655-3.056-.655-3.71 0-.634-1.768-1.747-2.4-2.387-.654-.67-.436-1.544-.436-2.394 0-.874-.655-2.838-.458-4.36.217-1.534-1.943-.442-3.253 0-1.313.43-2.182-.442-2.182-1.75 0-1.313-2.404-.22-3.93.63-1.523.874-3.273.874-5.017 1.53-1.75.653-2.6-.656-2.6-.656s-1.53-1.31-2.62-1.942c-1.088-.655-2.185-1.965-3.056-3.056-.873-1.092-3.06-4.366-3.274-5.677-.22-1.31 0-2.18 0-3.71 0-1.526 0-2.397.215-3.494.218-1.087.878-2.395 1.534-3.49.652-1.09 3.056-2.396 3.708-2.832.633-.42 2.18-1.727 2.18-2.598 0-.878.88-1.315 1.29-2.185.46-.874 1.963-3.056 3.93-2.186 0 0 1.748-.22 2.403-.438.65-.215 2.396-.87 3.252-1.307.87-.437 3.056-.63 3.056-.63s1.698.673 2.354.673c.66 0 2.797-.374 2.797-.374s.982 3.147.982 3.823c0 .654.653 1.284 1.746 1.727 1.09.437 6.11 1.525 8.294-.225.502-.39 2.16.66 2.16.66s5.457 1.09 6.33 1.744c.873.65 2.4 1.088 2.838 1.75.437.65 1.965 2.612 2.184 3.272.217.652 1.31 3.05 1.526 3.93.218.868.873 3.055 1.53 4.143.652 1.092 4.363 5.87 5.673 8.075l3.93-.654c-.02.026-.46 1.996-.895 2.623zm15.912-8.275c-.218-.87-1.527-3.927-1.527-3.927s-1.31-1.742-2.184-2.178c-.853-.442-1.528-1.53-3.057-2.404-1.527-.87-2.16-1.306-3.47-1.306s-2.62-1.75-4.148-2.622c-1.527-.854-1.744-.413-1.744-.413s1.745 2.593 1.745 3.253c0 .654 1.965 1.743 3.93 1.307 0 0 1.31 2.404 1.965 3.056.633.655-.22 1.31-1.527 2.18-1.312.88-1.093.66-1.77 1.313-.633.655-2.814 1.743-3.47 2.18-.655.42-3.274 1.728-4.583.42-.633-.617-.438-1.944-.874-2.818-.436-.87-4.998-7.636-7.18-10.69-.394-.528-1.31-2.187-1.965-2.602-.654-.458 1.528-.458 1.528-.458s0-1.53-.218-2.62c-.22-1.066.218-2.597.218-2.597s-2.183 1.29-2.837 1.75c-.654.433-1.31-.88-2.182-1.967-.852-1.09-1.747-2.403-1.942-3.493-.22-1.09 1.09-1.525 1.09-1.525l1.943-1.097s2.4-.437 3.928-.22c1.528.22 3.93.438 3.93.438s.654-1.525-.218-2.18c-.874-.652-2.84-1.75-3.712-1.53-.873.217.438-1.09 1.528-1.963l-2.423-.434s-2.183 1.088-2.86 1.307c-.653.217-1.767.65-2.66 1.748-.853 1.09.348 2.614-.524 3.05-.853.442-1.465.66-2.12.88-.654.214-2.706 0-2.706 0-2.27 0-.828 2.047-.24 2.77l-1.745-2.118-1.29-3.056s-1.854-1.307-2.728-1.742c-.873-.443-3.558-1.968-3.558-1.968l.175 1.968 2.53 2.553.22.06 1.548 1.75-2.662.22v-1.727c-4.474-.654-2.27-1.33-2.554-1.55l-2.29-1.53s-2.62.44-3.272.66c-.66.218-.88.87-2.187 1.308-1.306.437-1.92 1.09-2.336 1.75-.435.654-1.876 2.613-2.725 3.49-.878.872-2.51.63-3.17.63-.652 0-3.815-.868-3.815-.868v-3.694s.434-2.074.215-2.727l1.924-.322 3.185-.662.94-.652 1.33-1.742s-1.503-1.1-.415-2.6c.526-.743 2.404-.872 3.273-1.532.874-.653 2.18-1.088 2.18-1.088s1.532-1.308 3.057-2.84c0 0 1.094-.652 2.404-1.09 0 0 3.71 3.275 4.364 3.275.654 0 3.056-1.53 3.056-1.53s.654-1.962.436-2.615c-.217-.654-1.31-2.84-1.31-2.84s-.653 1.093-1.287 1.962c-.656.878-1.114 1.968-1.114 1.968s-3.056-.218-3.273-.874c-.22-.65-.633-1.724-.873-2.38-.197-.653-1.945-.628-3.253-.195-1.306.437.22-2.335.22-2.335s1.306-1.66 2.183-1.66c.85 0 2.837-1.11 3.688-1.328.872-.22 3.492-1.902 4.583-1.902s2.4-.193 3.057-.193h3.274l4.562.3s3.93 1.795 2.62 2.666c0 0 1.528 1.114 2.182 1.766.612.617 2.206-.48 3.1-.977 16.327 10.236 27.24 28.395 27.24 49.04 0 1.114-.11 2.205-.176 3.296-.415-1.026-1.025-2.358-1.178-2.928zm0 0"/><path d="M89.865 23.73v.13l.07-.084-.07-.046zm0 0"/></g></svg>