<svg xmlns="http://www.w3.org/2000/svg" viewBox="36.774 2.02 83.205 77.996">
    <g fill="#C52026">
        <path
            d="M57.57 64.44v15.576h41.614v-26H57.57V64.44zm5.204-5.22H93.98v5.22H62.773v-5.22zm0 10.386H93.98v5.205H62.773v-5.203zm36.41-51.996V2.02H57.57v26h41.614V17.61zm0 0" />
        <path
            d="M109.57 17.61h-5.206v15.62H52.36V17.61h-5.173c-5.208 0-10.413 5.205-10.413 10.41v25.997c0 5.205 5.205 10.423 10.413 10.423h5.174V48.81h52.005v15.63h5.205c5.204 0 10.41-5.22 10.41-10.423V28.02c0-5.205-5.206-10.41-10.41-10.41zm0 0" />
    </g>
</svg>