<svg xmlns="http://www.w3.org/2000/svg" viewBox="28.32 -9.038 100.113 100.113">
    <path fill="#C52026"
        d="M122.925-3.53c-3.672-3.672-8.094-5.508-13.262-5.508H47.09c-5.168 0-9.59 1.836-13.262 5.507C30.156.14 28.32 4.56 28.32 9.73v62.575c0 5.168 1.836 9.59 5.508 13.262 3.672 3.672 8.094 5.508 13.262 5.508h62.574c5.168 0 9.59-1.836 13.262-5.508s5.508-8.094 5.508-13.262V9.73c0-5.167-1.837-9.59-5.51-13.26zm-12.613 70.483c-.914 2-2.965 3.738-6.16 5.215-3.19 1.48-6.027 2.22-8.504 2.22-.695 0-1.438-.056-2.22-.165s-1.44-.215-1.983-.324-1.262-.31-2.152-.59c-.89-.29-1.53-.5-1.922-.65s-1.1-.43-2.15-.82a69.817 69.817 0 0 0-1.95-.72c-7.12-2.61-14.09-7.31-20.89-14.11-6.8-6.81-11.5-13.77-14.11-20.89a73.453 73.453 0 0 0-.71-1.96 201.484 201.484 0 0 0-.81-2.15 39.204 39.204 0 0 1-.65-1.92c-.283-.9-.48-1.61-.59-2.16a38 38 0 0 1-.322-1.99c-.11-.78-.166-1.52-.166-2.216 0-2.478.74-5.314 2.218-8.51 1.48-3.19 3.22-5.247 5.22-6.157 2.3-.957 4.494-1.438 6.58-1.438.476 0 .823.044 1.042.13.22.086.574.477 1.074 1.172s1.043 1.57 1.63 2.64c.59 1.064 1.163 2.095 1.73 3.095a149.018 149.018 0 0 1 2.6 4.825c.13.22.416.63.85 1.24.433.61.76 1.15.976 1.63.22.48.33.93.33 1.37 0 .65-.45 1.443-1.34 2.38a22.605 22.605 0 0 1-2.93 2.57 25.594 25.594 0 0 0-2.934 2.51c-.89.89-1.333 1.62-1.333 2.18 0 .31.074.668.226 1.08s.29.75.425 1.01c.13.26.33.63.612 1.11.28.48.47.78.554.913 2.39 4.3 5.137 8.006 8.247 11.115 3.104 3.1 6.807 5.85 11.112 8.24.13.09.43.27.91.56.475.28.85.487 1.103.62.26.13.597.27 1.01.42s.77.23 1.08.23c.69 0 1.647-.72 2.866-2.15a211.175 211.175 0 0 1 3.712-4.27c1.26-1.41 2.28-2.113 3.065-2.113.435 0 .892.11 1.372.323.472.22 1.02.54 1.63.98.6.433 1.02.714 1.232.85l3.45 1.884c2.3 1.22 4.224 2.29 5.77 3.225 1.54.94 2.38 1.57 2.51 1.92.085.22.13.563.13 1.04 0 2.087-.48 4.28-1.44 6.58zm0 0" />
</svg>