<svg xmlns="http://www.w3.org/2000/svg" viewBox="37.46 .223 126.66 126.66">
    <g fill="#C52026">
        <path
            d="M100.78.223c-34.9 0-63.32 28.42-63.32 63.318 0 34.93 28.42 63.35 63.32 63.35 34.922 0 63.34-28.39 63.34-63.34 0-34.9-28.42-63.32-63.34-63.32zM88.617 22.898l2.953.832v-3.882l1.158-1.094 1.217 2.4 2.356 2.84-.93 1.308-3.79.87V23.86l-2.98 2.31-.85-1.305.87-1.967zM43.004 62.145c.284-12.264 4.406-23.552 11.22-32.802.24.043.39.08.39.08 0 .88-1.18 1.1 0 3.275 1.534 2.84.218 4.148.218 4.148s-3.71 2.622-4.363 3.056c-.66.437-2.41 2.84-1.31 2.185 1.09-.654 2.39-1.306 1.3.437-1.1 1.75-3.06 4.58-3.5 5.677-.42 1.09-2.6 3.69-2.6 5 0 1.34-.87 3.95-.66 5.02.13.76-.35 3.02-.72 3.93zm22.523 36.407l-.895 3.274.895 2.618s-1.33 1.09-2.18 1.09c-.81 0-1.09.504-1.967.263-8.314-7.77-14.338-17.92-16.957-29.372.283.06.676.256 1.246.76.82.72 1.3 1.09 2.39 1.526 1.09.44 1.53 1.1 2.83 1.75 1.31.66.87.22 2.62 2.19s1.52 1.97 1.96 3.06c.44 1.09 1.09 2.18 1.52 2.84.43.66 1.74 1.09 2.4 1.53.63.44 1.72.88 2.37.88.66 0 2.62 1.97 3.71 2.16 1.09.24 1.09 2.42 1.09 2.42l-1.06 3.04zm8.712-84.164c-2.84 3.056-2.19 2.186-2.84 3.056-.66.873-.44 1.09-1.96 2.18-1.53 1.093-2.19 2.404-2.19 2.404l-2.41.87-1.94-.87s-1.78.65-1.56-.218a5.52 5.52 0 0 1 .26-.72c5.35-4.936 11.59-8.862 18.49-11.5-.7.87-1.51 1.765-1.51 1.765s-1.53-.022-4.36 3.033zm66.5 78.27c-.24.873-.66 2.4-.88 3.273-.22.88-1.31 2.62-1.97 3.06-.66.44-1.75 1.75-2.4 1.97-.64.22-1.09-1.53-.88-2.4.24-.87 1.31-3.27 1.31-3.27s.22-1.31.44-2.19c.24-.84 2.83-1.94 2.83-1.94l1.77-3.27s.22.88.22 1.53c-.02.64-.24 2.41-.46 3.25zm.65-20.495c-.44.655-1.75 2.4-2.4 3.274-.66.873-1.53 2.183-2.84 3.273s-1.31 2.16-1.97 3.062c-.66.868-1.53 2.83-1.53 2.83s.43 4.366.65 5.24c.22.872-1.53 3.252-1.53 3.252l-1.97 1.966-2.62 3.49.22 3.25-3.08 2.4c-1.1.87-.92 1.53-1.79 2.4-.88.87-3.19 2.4-4.07 2.62-.85.22-4.56.87-4.56.87v-1.97l-1.2-2.18s-1.22-2.6-1.88-3.5c-.65-.85-.65-2.19-1.75-3.26-1.09-1.09-1.617-1.966-1.83-2.62-.22-.656.15-2.62.15-2.62s.85-2.4 1.29-3.27c.433-.875-.027-2.185-.46-3.057-.44-.874-.658-3.056-.658-3.71 0-.634-1.77-1.747-2.4-2.387-.655-.67-.437-1.546-.437-2.396 0-.872-.65-2.84-.456-4.36.216-1.532-1.944-.44-3.254 0-1.31.43-2.18-.44-2.18-1.75s-2.4-.22-3.93.63c-1.52.876-3.27.876-5.013 1.53-1.75.655-2.6-.654-2.6-.654s-1.53-1.31-2.62-1.946c-1.09-.653-2.19-1.963-3.06-3.054-.875-1.09-3.06-4.366-3.276-5.677-.22-1.31 0-2.18 0-3.71 0-1.53 0-2.4.22-3.5.212-1.09.872-2.4 1.53-3.49.65-1.09 3.053-2.4 3.705-2.83.63-.42 2.18-1.73 2.18-2.6 0-.88.88-1.32 1.29-2.19.46-.88 1.96-3.06 3.93-2.19 0 0 1.75-.22 2.4-.44.65-.22 2.397-.87 3.25-1.31.87-.44 3.06-.63 3.06-.63s1.7.67 2.355.67c.66 0 2.794-.38 2.794-.38s.984 3.15.984 3.823c0 .652.65 1.282 1.744 1.725 1.09.44 6.11 1.53 8.29-.22.502-.39 2.16.66 2.16.66s5.46 1.09 6.33 1.74c.873.65 2.4 1.09 2.84 1.75.44.65 1.964 2.61 2.183 3.27.215.654 1.31 3.05 1.524 3.93.22.87.877 3.057 1.53 4.145.656 1.09 4.367 5.87 5.677 8.074l3.93-.65c-.02.024-.46 1.994-.895 2.62zm15.91-8.275c-.22-.87-1.53-3.927-1.53-3.927s-1.31-1.74-2.19-2.17c-.86-.44-1.53-1.53-3.06-2.4-1.53-.87-2.16-1.3-3.47-1.3s-2.62-1.75-4.15-2.62c-1.53-.85-1.75-.41-1.75-.41s1.74 2.6 1.74 3.26c0 .66 1.96 1.74 3.93 1.31 0 0 1.31 2.41 1.96 3.06.63.66-.22 1.31-1.53 2.18-1.32.88-1.1.66-1.77 1.32-.64.66-2.82 1.74-3.47 2.18-.66.42-3.28 1.73-4.59.42-.64-.62-.44-1.94-.88-2.82-.438-.87-5-7.63-7.18-10.69-.39-.53-1.31-2.18-1.967-2.6-.65-.46 1.53-.46 1.53-.46s0-1.53-.22-2.62c-.22-1.06.22-2.6.22-2.6s-2.18 1.29-2.833 1.75c-.65.43-1.31-.88-2.18-1.97-.85-1.09-1.747-2.4-1.94-3.49-.22-1.09 1.09-1.52 1.09-1.52l1.94-1.09s2.4-.436 3.93-.22c1.53.22 3.93.44 3.93.44s.655-1.526-.217-2.18c-.877-.653-2.84-1.75-3.71-1.53-.87.216.44-1.09 1.53-1.964l-2.427-.43s-2.186 1.09-2.86 1.31c-.656.217-1.77.65-2.66 1.75-.856 1.09.345 2.61-.527 3.05-.85.44-1.46.66-2.12.88-.65.21-2.7 0-2.7 0-2.27 0-.83 2.044-.24 2.77l-1.748-2.12-1.29-3.06s-1.85-1.31-2.724-1.742c-.87-.44-3.557-1.966-3.557-1.966l.174 1.966 2.53 2.555.22.06 1.55 1.75-2.66.22v-1.73c-4.47-.65-2.27-1.33-2.55-1.55l-2.29-1.53s-2.62.44-3.275.66c-.66.22-.88.87-2.185 1.31-1.307.44-1.92 1.09-2.337 1.75-.433.656-1.874 2.615-2.723 3.49-.88.87-2.51.63-3.17.63-.65 0-3.81-.87-3.81-.87v-3.7s.436-2.07.217-2.724l1.924-.33 3.18-.66.94-.65 1.33-1.743s-1.508-1.1-.42-2.6c.52-.745 2.4-.87 3.27-1.53.87-.66 2.18-1.09 2.18-1.09s1.53-1.31 3.055-2.84c0 0 1.09-.656 2.4-1.09 0 0 3.71 3.27 4.367 3.27.654 0 3.056-1.53 3.056-1.53s.654-1.97.44-2.62c-.22-.66-1.31-2.84-1.31-2.84s-.65 1.09-1.29 1.96c-.653.874-1.11 1.964-1.11 1.964s-3.056-.22-3.273-.874c-.22-.65-.64-1.723-.88-2.38-.19-.65-1.94-.627-3.25-.194-1.304.43.22-2.34.22-2.34s1.308-1.66 2.18-1.66c.85 0 2.84-1.11 3.69-1.33.87-.22 3.49-1.9 4.58-1.9s2.4-.19 3.057-.19h3.275l4.56.3s3.93 1.793 2.62 2.664c0 0 1.53 1.12 2.18 1.77.61.62 2.206-.48 3.1-.97 16.327 10.24 27.24 28.396 27.24 49.04 0 1.115-.11 2.206-.176 3.3-.42-1.03-1.03-2.36-1.18-2.93zm0 0" />
        <path d="M89.865 23.73v.13l.07-.084-.07-.046zm0 0" />
    </g>
</svg>