<?xml version="1.0" encoding="utf-8"?>
<!-- Generator: Adobe Illustrator 16.0.0, SVG Export Plug-In . SVG Version: 6.00 Build 0)  -->
<!DOCTYPE svg PUBLIC "-//W3C//DTD SVG 1.1//EN" "http://www.w3.org/Graphics/SVG/1.1/DTD/svg11.dtd">
<svg version="1.1" id="Layer_1"
	xmlns="http://www.w3.org/2000/svg"
	xmlns:xlink="http://www.w3.org/1999/xlink" x="0px" y="0px" width="155.203px" height="148.458px" viewBox="15.654 -18.397 155.203 148.458" enable-background="new 15.654 -18.397 155.203 148.458" xml:space="preserve">
	<path fill="#F72432" d="M92.805,28.011v6.55c0,1.167,0.583,1.75,1.75,1.75c1.033,0,1.549-0.583,1.549-1.75v-6.55
	c0-1.133-0.516-1.7-1.549-1.7C93.388,26.311,92.805,26.878,92.805,28.011z"/>
	<path fill="#F72432" d="M128.306,56.961l5.6-3.15c1.033-0.6,1.25-1.317,0.65-2.15c-0.434-1.067-1.217-1.283-2.35-0.65l-5.451,3.2
	c-1,0.6-1.217,1.333-0.65,2.2C126.706,57.378,127.439,57.561,128.306,56.961z"/>
	<polygon fill="#F72432" points="87.155,102.811 102.056,102.811 102.755,97.362 86.355,97.362 "/>
	<path fill="#F72432" d="M75.555,41.711c0.934-0.6,1.15-1.333,0.65-2.2l-3.351-5.7c-0.433-0.967-1.217-1.183-2.35-0.65
	c-1.033,0.767-1.167,1.5-0.4,2.2l2.95,5.7C73.822,41.928,74.655,42.145,75.555,41.711z"/>
	<path fill="#F72432" d="M80.006,51.361c-4.033,4-6.05,8.85-6.05,14.55c0,3.033,0.583,5.833,1.75,8.399
	c0.866,1.9,2.05,3.684,3.55,5.351c0.066,0.167,0.133,0.3,0.2,0.399c0.232,0.334,0.5,0.75,0.8,1.25c0.5,0.834,0.95,1.667,1.35,2.5
	c0.067,0.201,0.15,0.4,0.25,0.601c0.101,0.2,0.184,0.384,0.25,0.55c0.601,1.334,1.083,2.6,1.45,3.801l0.3,1.149
	c0.101,0.399,0.15,0.667,0.15,0.8l0.05,0.301v4.25h21.1v-4.351l0.051-0.351c0.033-0.232,0.066-0.383,0.1-0.449
	c0.033-0.1,0.082-0.316,0.15-0.65c0.066-0.3,0.133-0.533,0.199-0.699c0.4-1.201,0.883-2.467,1.449-3.801
	c0.068-0.166,0.15-0.35,0.25-0.55c0.068-0.2,0.15-0.399,0.25-0.601c0.4-0.866,0.801-1.633,1.201-2.299
	c0.232-0.434,0.467-0.851,0.699-1.25c0.168-0.234,0.268-0.351,0.301-0.351c1.6-1.733,2.85-3.601,3.75-5.601
	c1.133-2.566,1.699-5.366,1.699-8.399c0-5.7-2.033-10.55-6.1-14.55c-4.033-4-8.9-6-14.6-6
	C88.888,45.361,84.039,47.361,80.006,51.361z M110.505,65.911c0,3.167-0.799,5.967-2.4,8.399c-0.5,0.801-1.1,1.551-1.799,2.25
	c-0.168,0.234-0.4,0.601-0.701,1.101c-0.299,0.433-0.633,0.917-1,1.45c-0.633,1.199-1.25,2.5-1.85,3.9
	c-0.1,0.266-0.217,0.533-0.35,0.799c-0.066,0.201-0.133,0.4-0.199,0.601c-0.434,0.967-0.818,1.967-1.15,3
	c-0.367,1.333-0.566,2.384-0.6,3.149H88.805c-0.066-0.766-0.3-1.816-0.7-3.149c-0.333-1-0.717-2-1.149-3
	c-0.067-0.2-0.134-0.399-0.2-0.601c-0.134-0.232-0.267-0.5-0.4-0.799c-0.533-1.301-1.2-2.634-2-4l-0.8-1.5l-0.85-1.051
	c-0.601-0.666-1.134-1.383-1.601-2.15c-1.633-2.467-2.45-5.266-2.45-8.399c0-4.399,1.567-8.134,4.7-11.2
	c3.134-3.066,6.867-4.6,11.201-4.6c4.4,0,8.184,1.534,11.35,4.6C108.972,57.778,110.505,61.512,110.505,65.911z"/>
	<path fill="#F72432" d="M113.255,41.711c1.133,0.567,1.918,0.35,2.35-0.65l3.25-5.7c0.602-0.867,0.385-1.6-0.648-2.2
	c-1-0.367-1.717-0.15-2.15,0.65l-3.301,5.7C112.056,40.278,112.222,41.011,113.255,41.711z"/>
	<path fill="#F72432" d="M91.305,108.561c0.934,0.934,2.016,1.4,3.25,1.4c1.299,0,2.434-0.467,3.4-1.4
	c0.932-1.033,1.5-2.283,1.699-3.75h-10C89.789,106.278,90.339,107.528,91.305,108.561z"/>
	<path fill="#F72432" d="M62.405,54.211l-5.649-3.2c-1-0.467-1.717-0.25-2.15,0.65c-0.733,0.667-0.6,1.383,0.4,2.15l5.7,3.15
	c0.866,0.5,1.649,0.316,2.35-0.55C63.655,55.545,63.438,54.811,62.405,54.211z"/>
	<path fill="#F72432" d="M15.654,59.262h20.751v70.799h113.651V59.262h20.801L93.256-18.397L15.654,59.262z M142.056,51.261v70.799
	H44.405V51.261h-9.447L93.256-7.08l58.298,58.341H142.056z"/>
</svg>
