<?xml version="1.0" encoding="utf-8"?>
<!-- Generator: Adobe Illustrator 16.0.0, SVG Export Plug-In . SVG Version: 6.00 Build 0)  -->
<!DOCTYPE svg PUBLIC "-//W3C//DTD SVG 1.1//EN" "http://www.w3.org/Graphics/SVG/1.1/DTD/svg11.dtd">
<svg version="1.1" id="Layer_1" xmlns="http://www.w3.org/2000/svg" xmlns:xlink="http://www.w3.org/1999/xlink" x="0px" y="0px"
	 width="114.25px" height="163.301px" viewBox="36.554 -25.398 114.25 163.301"
	 enable-background="new 36.554 -25.398 114.25 163.301" xml:space="preserve">
<path fill="#C52026" d="M150.429,23.802v-0.05c-0.628-5.68-2.103-11.047-4.425-16.1h-0.024c-2.767-5.991-6.741-11.542-11.926-16.65
	v-0.025c-11.134-10.914-24.567-16.372-40.3-16.375c-0.233,0-0.467,0-0.7,0h-0.05c-15.405,0.186-28.622,5.644-39.649,16.375
	l-0.025,0.025c-5.152,5.115-9.094,10.69-11.825,16.725V7.702c-3.188,6.935-4.805,14.509-4.85,22.725l-0.101,5.025h52.95v10.2
	c-9.663,0.89-18.071,4.814-25.225,11.775h-0.025l-0.024,0.024c-3.751,3.715-6.626,7.773-8.625,12.176
	c-2.319,5.059-3.503,10.592-3.551,16.6l-0.1,5.025h37.55v9.9c-7.199,0.849-13.482,3.891-18.85,9.125v0.024
	c-2.961,2.913-5.228,6.104-6.8,9.575v-0.025c-1.824,3.975-2.741,8.324-2.75,13.051l-0.075,5h65.325v-5c0-0.4,0-0.783,0-1.15v-0.225
	c-0.04-0.83-0.098-1.621-0.176-2.375v-0.051c-0.366-3.279-1.233-6.38-2.6-9.3h0.025c-1.564-3.425-3.839-6.593-6.825-9.5
	l-0.025-0.024c-5.435-5.357-11.852-8.415-19.25-9.176v-9.85h37.9v-5c0.003-0.608-0.013-1.217-0.05-1.825
	c-0.043-1.042-0.117-2.052-0.226-3.024c-0.463-4.174-1.538-8.1-3.225-11.775l-0.025-0.025c-2.033-4.402-4.942-8.46-8.725-12.175
	v0.024c-7.203-7.107-15.753-11.058-25.65-11.85v-10.15h53.3v-5c0.002-0.818-0.015-1.618-0.05-2.4
	C150.682,26.6,150.573,25.183,150.429,23.802z M109.73,117.403h0.024v0.024c2.068,2.019,3.651,4.21,4.75,6.575h0.025
	c0.578,1.25,1.02,2.551,1.325,3.9h-44.2c0.299-1.338,0.732-2.621,1.3-3.851v-0.024c1.094-2.396,2.66-4.605,4.7-6.625v0.024
	c4.363-4.253,9.597-6.429,15.7-6.524h0.05c0.049,0,0.082,0,0.1,0c0.101,0,0.184,0,0.25,0
	C100.009,110.894,105.334,113.061,109.73,117.403z M116.155,64.552v0.024c2.884,2.819,5.108,5.895,6.675,9.226l-0.025-0.024
	c1.078,2.354,1.811,4.846,2.2,7.475h-62.55c0.42-2.629,1.17-5.121,2.25-7.475c1.534-3.332,3.726-6.406,6.575-9.226l-0.05,0.024
	c6.136-5.953,13.478-8.995,22.024-9.125h0.05c0.088,0,0.154,0,0.2,0c0.101,0,0.184,0,0.25,0
	C102.519,55.443,109.986,58.477,116.155,64.552z M46.929,25.452c0.503-4.809,1.729-9.326,3.676-13.55v-0.025
	c2.264-4.956,5.514-9.539,9.75-13.75l0.024-0.025c9.089-8.841,19.981-13.341,32.675-13.5h0.025c0.244,0,0.469,0,0.675,0
	c13.001-0.002,24.101,4.506,33.3,13.525v-0.025c4.283,4.225,7.574,8.808,9.875,13.75h-0.024c1.871,4.065,3.063,8.382,3.575,12.95
	c0.021,0.216,0.038,0.433,0.05,0.65H46.929z"/>
</svg>
