<?xml version="1.0" encoding="utf-8"?>
<!-- Generator: Adobe Illustrator 16.0.0, SVG Export Plug-In . SVG Version: 6.00 Build 0)  -->
<!DOCTYPE svg PUBLIC "-//W3C//DTD SVG 1.1//EN" "http://www.w3.org/Graphics/SVG/1.1/DTD/svg11.dtd">
<svg version="1.1" id="Layer_1"
	xmlns="http://www.w3.org/2000/svg"
	xmlns:xlink="http://www.w3.org/1999/xlink" x="0px" y="0px" width="159px" height="129.201px" viewBox="14.144 -9.251 159 129.201" enable-background="new 14.144 -9.251 159 129.201" xml:space="preserve">
	<path fill-rule="evenodd" clip-rule="evenodd" fill="#F72432" d="M151.544,59.449c0.233,0.133,0.483,0.184,0.75,0.149l9.25-1.851
	c0.268-0.066,0.483-0.216,0.65-0.449c0.133-0.233,0.184-0.483,0.15-0.75c-0.067-0.267-0.217-0.467-0.451-0.6
	c-0.232-0.167-0.482-0.217-0.75-0.15l-9.25,1.85c-0.266,0.033-0.467,0.167-0.6,0.4c-0.166,0.233-0.217,0.483-0.15,0.75
	C151.177,59.066,151.312,59.282,151.544,59.449z"/>
	<path fill-rule="evenodd" clip-rule="evenodd" fill="#F72432" d="M172.595,71.699c0.366-0.4,0.549-0.884,0.549-1.451
	c0-0.566-0.183-1.033-0.549-1.399c-0.4-0.399-0.884-0.601-1.451-0.601h-18c-0.566,0-1.033,0.201-1.399,0.601
	c-0.399,0.366-0.601,0.833-0.601,1.399c0,0.567,0.201,1.051,0.601,1.451c0.366,0.366,0.833,0.549,1.399,0.549h18
	C171.711,72.248,172.195,72.066,172.595,71.699z"/>
	<path fill-rule="evenodd" clip-rule="evenodd" fill="#F72432" d="M115.744,16.999c0.5,0.2,1.017,0.2,1.55,0
	c0.5-0.2,0.85-0.55,1.051-1.05l6.899-16.7c0.2-0.533,0.2-1.05,0-1.55c-0.233-0.533-0.601-0.9-1.101-1.1c-0.5-0.2-1-0.2-1.5,0
	c-0.533,0.2-0.899,0.567-1.1,1.1l-6.9,16.7c-0.199,0.5-0.199,1.017,0,1.55C114.878,16.449,115.244,16.799,115.744,16.999z"/>
	<path fill-rule="evenodd" clip-rule="evenodd" fill="#F72432" d="M93.644,12.749c0.567,0,1.051-0.183,1.451-0.55
	c0.366-0.4,0.549-0.883,0.549-1.45v-18c0-0.566-0.183-1.033-0.549-1.4c-0.4-0.4-0.884-0.6-1.451-0.6c-0.566,0-1.033,0.2-1.399,0.6
	c-0.4,0.367-0.6,0.833-0.6,1.4v18c0,0.567,0.2,1.05,0.6,1.45C92.611,12.566,93.078,12.749,93.644,12.749z"/>
	<path fill-rule="evenodd" clip-rule="evenodd" fill="#F72432" d="M142.994,38.149c0.267,0.033,0.517-0.017,0.75-0.15l7.851-5.25
	c0.232-0.167,0.383-0.383,0.449-0.65c0.033-0.267-0.017-0.517-0.15-0.75c-0.166-0.233-0.383-0.367-0.649-0.4
	c-0.267-0.066-0.517-0.017-0.75,0.15l-7.851,5.25c-0.232,0.133-0.366,0.333-0.399,0.6c-0.067,0.267-0.017,0.517,0.149,0.75
	C142.528,37.932,142.728,38.082,142.994,38.149z"/>
	<path fill-rule="evenodd" clip-rule="evenodd" fill="#F72432" d="M105.144,12.799c0.268,0.033,0.518-0.017,0.75-0.15
	c0.234-0.167,0.384-0.384,0.451-0.65l1.85-9.3c0.033-0.267-0.018-0.517-0.15-0.75c-0.166-0.233-0.383-0.367-0.65-0.4
	c-0.266-0.067-0.516-0.017-0.75,0.15c-0.232,0.133-0.366,0.333-0.399,0.6l-1.851,9.3c-0.066,0.267-0.016,0.517,0.15,0.75
	C104.677,12.582,104.878,12.732,105.144,12.799z"/>
	<path fill-rule="evenodd" clip-rule="evenodd" fill="#F72432" d="M150.445,15.449c0-0.533-0.184-1-0.551-1.4
	c-0.399-0.4-0.883-0.6-1.449-0.6c-0.533,0-1,0.2-1.4,0.6l-12.75,12.75c-0.4,0.367-0.6,0.833-0.6,1.4c0,0.533,0.199,1,0.6,1.4
	c0.367,0.4,0.834,0.6,1.4,0.6c0.533,0,1-0.184,1.4-0.55l12.75-12.75C150.244,16.499,150.445,16.015,150.445,15.449z"/>
	<path fill-rule="evenodd" clip-rule="evenodd" fill="#F72432" d="M151.294,82.449c0.133,0.232,0.334,0.383,0.6,0.449l9.25,1.85
	c0.268,0.033,0.518-0.016,0.75-0.148c0.234-0.168,0.384-0.385,0.451-0.65c0.033-0.268-0.018-0.518-0.15-0.75
	c-0.167-0.234-0.383-0.367-0.65-0.4l-9.25-1.85c-0.267-0.066-0.517-0.018-0.75,0.15c-0.232,0.133-0.367,0.332-0.4,0.6
	C151.077,81.965,151.128,82.215,151.294,82.449z"/>
	<path fill-rule="evenodd" clip-rule="evenodd" fill="#F72432" d="M167.294,41.249c0.2-0.5,0.2-1,0-1.5c-0.232-0.533-0.6-0.9-1.1-1.1
	c-0.5-0.2-1-0.2-1.5,0l-16.65,6.95c-0.533,0.233-0.9,0.6-1.1,1.1c-0.2,0.5-0.2,1.017,0,1.55c0.232,0.5,0.6,0.85,1.1,1.05
	c0.5,0.2,1.018,0.2,1.551,0l16.649-6.95C166.744,42.115,167.095,41.749,167.294,41.249z"/>
	<path fill-rule="evenodd" clip-rule="evenodd" fill="#F72432" d="M148.044,94.949l16.65,6.9c0.5,0.199,1,0.199,1.5,0
	c0.5-0.201,0.867-0.551,1.1-1.051c0.2-0.533,0.2-1.051,0-1.551c-0.199-0.5-0.55-0.865-1.05-1.1l-16.649-6.9
	c-0.533-0.199-1.051-0.199-1.551,0c-0.5,0.201-0.867,0.566-1.1,1.102c-0.2,0.5-0.2,1,0,1.5
	C147.144,94.35,147.511,94.715,148.044,94.949z"/>
	<path fill-rule="evenodd" clip-rule="evenodd" fill="#F72432" d="M81.144,11.999c0.033,0.267,0.167,0.483,0.4,0.65
	c0.233,0.133,0.483,0.183,0.75,0.15c0.267-0.067,0.483-0.217,0.65-0.45c0.133-0.233,0.183-0.483,0.15-0.75l-1.85-9.25
	c-0.067-0.267-0.217-0.466-0.45-0.6c-0.233-0.167-0.483-0.216-0.75-0.15c-0.267,0.034-0.466,0.167-0.6,0.4
	c-0.167,0.233-0.217,0.483-0.15,0.75L81.144,11.999z"/>
	<path fill-rule="evenodd" clip-rule="evenodd" fill="#F72432" d="M140.244,89.549c1.267-3.033,2.233-6.184,2.899-9.449
	c0.601-3.168,0.918-6.451,0.951-9.852c0-0.133,0-0.266,0-0.399c0-3.3-0.268-6.466-0.801-9.5c-0.6-3.3-1.517-6.466-2.75-9.5
	c-1.267-3.066-2.85-5.983-4.75-8.75c-1.833-2.667-3.949-5.216-6.35-7.65l2.55-21.65l-18.899,10.55c-3.033-1.233-6.201-2.15-9.5-2.75
	c-0.5-0.1-0.984-0.183-1.451-0.25c-2.633-0.4-5.35-0.6-8.149-0.6c-0.134,0-0.25,0-0.351,0c-2.666,0.034-5.25,0.233-7.75,0.6
	c-0.7,0.1-1.383,0.217-2.05,0.35c-3.3,0.633-6.467,1.6-9.5,2.9c-3,1.267-5.85,2.85-8.55,4.75l-0.05,0.05
	c-2.533,1.733-4.933,3.733-7.2,6c-0.133,0.133-0.25,0.267-0.35,0.4c-2.367,2.4-4.434,4.933-6.2,7.6c-1.867,2.767-3.4,5.667-4.6,8.7
	c-1.233,3-2.133,6.134-2.7,9.399c-0.534,3-0.8,6.117-0.8,9.351c0,0.134,0,0.267,0,0.399c0.033,3.367,0.35,6.602,0.95,9.701
	c0.6,3.232,1.533,6.35,2.8,9.35c1.267,2.967,2.833,5.816,4.7,8.551c1.767,2.566,3.833,5.033,6.2,7.398l0.05,0.051
	c9.8,9.766,21.6,14.65,35.4,14.65c13.634,0,25.317-4.768,35.05-14.301c0.1-0.133,0.217-0.266,0.35-0.4
	c2.268-2.266,4.283-4.648,6.051-7.148C137.345,95.365,138.945,92.516,140.244,89.549z M132.445,70.248
	c-0.033,2.635-0.283,5.168-0.75,7.602c-0.5,2.5-1.25,4.916-2.25,7.25c-1,2.266-2.233,4.449-3.7,6.549
	c-1.333,1.867-2.866,3.65-4.601,5.35c-0.133,0.135-0.25,0.268-0.35,0.4c-7.434,7.268-16.367,10.9-26.8,10.9
	c-10.567,0-19.617-3.75-27.15-11.25l-0.05-0.051c-1.8-1.799-3.383-3.684-4.75-5.648c-1.433-2.068-2.633-4.234-3.6-6.5
	c-0.967-2.301-1.684-4.684-2.15-7.15c-0.466-2.4-0.716-4.884-0.75-7.451c0-0.133,0-0.266,0-0.399c0-2.433,0.2-4.783,0.6-7.05
	c0.434-2.533,1.117-4.95,2.05-7.25c0.9-2.333,2.066-4.55,3.5-6.65c1.333-2.067,2.917-4.017,4.75-5.85
	c0.1-0.133,0.216-0.267,0.35-0.4v-0.05c1.7-1.7,3.5-3.2,5.4-4.5c2.1-1.5,4.3-2.733,6.6-3.7c2.333-1,4.784-1.75,7.35-2.25
	c2.4-0.467,4.9-0.717,7.5-0.75c0.101,0,0.217,0,0.351,0c2.5,0,4.933,0.216,7.3,0.65c2.533,0.433,4.967,1.133,7.301,2.1
	c2.332,0.966,4.582,2.183,6.75,3.65c2.033,1.4,3.967,3.017,5.799,4.85l0.051,0.05c1.867,1.867,3.5,3.833,4.9,5.9
	c1.467,2.133,2.683,4.383,3.649,6.75c0.933,2.3,1.634,4.733,2.101,7.3c0.399,2.301,0.6,4.7,0.6,7.2
	C132.445,69.983,132.445,70.115,132.445,70.248z"/>
	<path fill-rule="evenodd" clip-rule="evenodd" fill="#F72432" d="M55.544,11.949c-0.267-0.066-0.517-0.017-0.75,0.15
	c-0.233,0.133-0.367,0.333-0.4,0.6c-0.066,0.267-0.017,0.517,0.15,0.75l5.25,7.8c0.133,0.233,0.333,0.384,0.6,0.45
	c0.267,0.033,0.517-0.017,0.75-0.15c0.233-0.167,0.383-0.383,0.45-0.65c0.033-0.267-0.017-0.517-0.15-0.75l-5.25-7.8
	C56.028,12.115,55.811,11.982,55.544,11.949z"/>
	<path fill-rule="evenodd" clip-rule="evenodd" fill="#F72432" d="M26.294,55.849c-0.267-0.066-0.517-0.017-0.75,0.149
	c-0.233,0.135-0.367,0.334-0.4,0.601c-0.066,0.267-0.017,0.517,0.15,0.75c0.133,0.233,0.333,0.384,0.6,0.45l9.1,1.8
	c0.267,0.034,0.517-0.017,0.75-0.149c0.233-0.167,0.383-0.384,0.45-0.65c0.033-0.267-0.017-0.517-0.15-0.75
	c-0.167-0.233-0.383-0.367-0.65-0.4L26.294,55.849z"/>
	<path fill-rule="evenodd" clip-rule="evenodd" fill="#F72432" d="M39.294,49.249c0.5-0.233,0.85-0.6,1.05-1.1c0.2-0.5,0.2-1,0-1.5
	c-0.2-0.534-0.55-0.9-1.05-1.1l-16.65-6.9c-0.533-0.2-1.05-0.2-1.55,0c-0.533,0.233-0.9,0.6-1.1,1.1s-0.2,1.017,0,1.55
	c0.2,0.5,0.567,0.85,1.1,1.05l16.65,6.9C38.244,49.449,38.761,49.449,39.294,49.249z"/>
	<path fill-rule="evenodd" clip-rule="evenodd" fill="#F72432" d="M14.744,68.849c-0.4,0.366-0.6,0.833-0.6,1.399
	c0,0.567,0.2,1.051,0.6,1.451c0.367,0.366,0.833,0.549,1.4,0.549h18c0.567,0,1.05-0.183,1.45-0.549c0.367-0.4,0.55-0.884,0.55-1.451
	c0-0.566-0.183-1.033-0.55-1.399c-0.4-0.399-0.883-0.601-1.45-0.601h-18C15.578,68.248,15.111,68.449,14.744,68.849z"/>
	<path fill-rule="evenodd" clip-rule="evenodd" fill="#F72432" d="M51.594,30.199c0.566,0,1.05-0.184,1.45-0.55
	c0.367-0.4,0.55-0.884,0.55-1.45s-0.184-1.033-0.55-1.4l-12.75-12.75c-0.4-0.4-0.883-0.6-1.45-0.6c-0.567,0-1.033,0.2-1.4,0.6
	c-0.4,0.367-0.6,0.833-0.6,1.4s0.2,1.05,0.6,1.45l12.75,12.75C50.561,30.015,51.028,30.199,51.594,30.199z"/>
	<path fill-rule="evenodd" clip-rule="evenodd" fill="#F72432" d="M62.044-2.301c-0.2,0.5-0.2,1.017,0,1.55l6.9,16.7
	c0.2,0.5,0.566,0.85,1.1,1.05c0.5,0.2,1.017,0.2,1.55,0c0.5-0.2,0.85-0.55,1.05-1.05c0.2-0.533,0.2-1.05,0-1.55l-6.9-16.7
	c-0.2-0.533-0.55-0.9-1.05-1.1c-0.534-0.2-1.05-0.2-1.55,0C62.644-3.201,62.278-2.834,62.044-2.301z"/>
	<path fill-rule="evenodd" clip-rule="evenodd" fill="#F72432" d="M35.744,81.1c-0.233-0.168-0.483-0.217-0.75-0.15l-9.05,1.799
	c-0.267,0.033-0.467,0.168-0.6,0.4c-0.167,0.234-0.217,0.484-0.15,0.75c0.033,0.268,0.167,0.484,0.4,0.65
	c0.233,0.133,0.483,0.184,0.75,0.15l9.05-1.801c0.267-0.066,0.483-0.217,0.65-0.449c0.133-0.234,0.184-0.484,0.15-0.75
	C36.128,81.432,35.978,81.233,35.744,81.1z"/>
	<path fill-rule="evenodd" clip-rule="evenodd" fill="#F72432" d="M44.294,38.149c0.267-0.067,0.483-0.217,0.65-0.45
	c0.133-0.233,0.183-0.483,0.15-0.75c-0.067-0.267-0.217-0.467-0.45-0.6l-7.75-5.2c-0.233-0.167-0.483-0.217-0.75-0.15
	c-0.267,0.034-0.467,0.167-0.6,0.4c-0.167,0.233-0.216,0.483-0.15,0.75c0.033,0.267,0.167,0.483,0.4,0.65l7.75,5.2
	C43.778,38.133,44.028,38.182,44.294,38.149z"/>
	<path fill-rule="evenodd" clip-rule="evenodd" fill="#F72432" d="M21.094,101.85c0.5,0.199,1.017,0.199,1.55,0l16.7-6.9
	c0.5-0.201,0.85-0.551,1.05-1.051c0.2-0.533,0.2-1.049,0-1.549c-0.2-0.5-0.55-0.867-1.05-1.102c-0.533-0.199-1.05-0.199-1.55,0
	l-16.7,6.9c-0.533,0.201-0.9,0.566-1.1,1.1c-0.2,0.5-0.2,1,0,1.5S20.561,101.615,21.094,101.85z"/>
	<polygon fill-rule="evenodd" clip-rule="evenodd" fill="#F72432" points="85.594,73.699 85.594,80.949 90.945,86.299 90.945,72.399
	88.945,70.349 "/>
	<polygon fill-rule="evenodd" clip-rule="evenodd" fill="#F72432" points="73.494,64.899 73.494,57.649 68.144,52.349 68.144,66.248
	70.144,68.299 "/>
	<polygon fill-rule="evenodd" clip-rule="evenodd" fill="#F72432" points="74.544,82.049 69.144,87.399 89.994,87.399 84.594,82.049
	"/>
	<polygon fill-rule="evenodd" clip-rule="evenodd" fill="#F72432" points="71.195,69.349 73.844,72.049 85.244,72.049 87.945,69.349
	85.244,66.699 73.844,66.699 "/>
	<polygon fill-rule="evenodd" clip-rule="evenodd" fill="#F72432" points="85.594,64.899 88.945,68.299 90.945,66.248 90.945,52.349
	85.594,57.649 "/>
	<polygon fill-rule="evenodd" clip-rule="evenodd" fill="#F72432" points="84.594,56.699 89.994,51.349 69.144,51.349 74.544,56.699
	"/>
	<polygon fill-rule="evenodd" clip-rule="evenodd" fill="#F72432" points="73.494,73.699 70.144,70.299 68.144,72.349 68.144,86.248
	73.494,80.949 "/>
	<polygon fill-rule="evenodd" clip-rule="evenodd" fill="#F72432" points="115.044,64.899 118.394,68.299 120.445,66.248
	120.445,52.349 115.044,57.649 "/>
	<polygon fill-rule="evenodd" clip-rule="evenodd" fill="#F72432" points="102.945,64.899 102.945,57.649 97.595,52.349
	97.595,66.248 99.595,68.299 "/>
	<polygon fill-rule="evenodd" clip-rule="evenodd" fill="#F72432" points="102.945,73.699 99.595,70.299 97.595,72.349
	97.595,86.248 102.945,80.949 "/>
	<polygon fill-rule="evenodd" clip-rule="evenodd" fill="#F72432" points="100.644,69.349 103.294,72.049 114.744,72.049
	117.445,69.349 114.744,66.699 103.294,66.699 "/>
	<polygon fill-rule="evenodd" clip-rule="evenodd" fill="#F72432" points="114.044,56.699 119.445,51.349 98.644,51.349
	103.994,56.699 "/>
	<polygon fill-rule="evenodd" clip-rule="evenodd" fill="#F72432" points="115.044,73.699 115.044,80.949 120.394,86.299
	120.394,72.399 118.394,70.349 "/>
	<polygon fill-rule="evenodd" clip-rule="evenodd" fill="#F72432" points="103.994,82.049 98.644,87.399 119.445,87.399
	114.095,82.049 "/>
</svg>
