<?xml version="1.0" encoding="utf-8"?>
<!-- Generator: Adobe Illustrator 16.0.0, SVG Export Plug-In . SVG Version: 6.00 Build 0)  -->
<!DOCTYPE svg PUBLIC "-//W3C//DTD SVG 1.1//EN" "http://www.w3.org/Graphics/SVG/1.1/DTD/svg11.dtd">
<svg version="1.1" id="Layer_1" xmlns="http://www.w3.org/2000/svg" xmlns:xlink="http://www.w3.org/1999/xlink" x="0px" y="0px"
	 width="210.274px" height="107.7px" viewBox="-11.871 2.352 210.274 107.7" enable-background="new -11.871 2.352 210.274 107.7"
	 xml:space="preserve">
<rect x="58.654" y="34.052" fill="#C52026" width="17.2" height="55.5"/>
<path fill="#C52026" d="M116.504,34.052h-28.45v55.5h17.2V68.951h9.35c6.934,0,12.083-1.6,15.45-4.8c3.367-3.1,5.05-7.45,5.05-13.05
	c0-5.433-1.55-9.65-4.649-12.65C127.354,35.518,122.704,34.052,116.504,34.052z M116.404,56.002c-1.3,1.133-3.616,1.699-6.949,1.699
	h-4.2v-12.35h4.85c3.2,0,5.384,0.617,6.55,1.85c1.167,1.167,1.75,2.633,1.75,4.4S117.738,54.835,116.404,56.002z"/>
<path fill="#C52026" d="M198.229,100.527l0.025,0.175c-0.104-2.711-0.297-5.369-0.575-7.975v-0.025
	c-1.162-10.413-3.871-20.246-8.125-29.5h-0.025c-5.091-11.023-12.407-21.256-21.949-30.7l-0.025-0.025
	c-20.501-20.08-45.234-30.122-74.2-30.125c-0.467,0-0.917,0-1.35,0h-0.05C63.547,2.67,39.197,12.712,18.904,32.477l-0.024,0.025
	C9.394,41.951,2.136,52.226-2.896,63.326v-0.024c-5.854,12.699-8.821,26.607-8.899,41.725l-0.075,5.025h210.274v-5
	C198.4,103.526,198.342,102.017,198.229,100.527z M-1.646,100.052c0.61-11.687,3.228-22.537,7.851-32.55v-0.025
	c4.563-10.023,11.13-19.307,19.699-27.85l0.025-0.025c18.359-17.876,40.385-26.959,66.075-27.25h0.05c0.418,0,0.852,0,1.3,0
	c26.223-0.003,48.614,9.08,67.175,27.25l0.025,0.025c8.646,8.55,15.287,17.808,19.925,27.775h-0.024
	c3.809,8.272,6.233,17.064,7.274,26.375c0.219,2.057,0.377,4.148,0.476,6.275H-1.646z"/>
</svg>
