<svg xmlns="http://www.w3.org/2000/svg" width="117.351" height="89.869" viewBox="35.094 10.649 117.351 89.869"><path fill-rule="evenodd" clip-rule="evenodd" fill="#C52026" d="M42.594 25.65h102.35c2.067 0 3.833-.734 5.3-2.2 1.467-1.468 2.2-3.234 2.2-5.3 0-2.067-.733-3.834-2.2-5.3s-3.232-2.2-5.3-2.2H42.595c-2.067 0-3.833.732-5.3 2.2-1.466 1.466-2.2 3.232-2.2 5.3 0 2.066.733 3.832 2.2 5.3 1.466 1.465 3.233 2.2 5.3 2.2zM144.243 38.55c-2.066 0-3.832.732-5.3 2.2-1.466 1.466-2.2 3.232-2.2 5.3 0 2.065.734 3.832 2.2 5.3s3.233 2.2 5.3 2.2 3.834-.734 5.3-2.2 2.2-3.234 2.2-5.3c0-2.068-.732-3.834-2.2-5.3-1.466-1.468-3.233-2.2-5.3-2.2zM63.944 40.75c-1.467 1.466-2.2 3.232-2.2 5.3 0 2.065.733 3.832 2.2 5.3 1.466 1.466 3.233 2.2 5.3 2.2s3.833-.734 5.3-2.2 2.2-3.234 2.2-5.3c0-2.068-.733-3.834-2.2-5.3-1.467-1.467-3.233-2.2-5.3-2.2s-3.834.732-5.3 2.2zM88.944 40.75c-1.467 1.466-2.2 3.232-2.2 5.3 0 2.065.733 3.832 2.2 5.3s3.233 2.2 5.3 2.2c2.065 0 3.833-.734 5.3-2.2s2.2-3.234 2.2-5.3c0-2.068-.733-3.834-2.2-5.3-1.467-1.467-3.234-2.2-5.3-2.2-2.067 0-3.833.732-5.3 2.2zM150.195 77.3c1.2-1.7 1.633-3.567 1.3-5.602-.368-2.033-1.384-3.65-3.05-4.85-1.7-1.2-3.568-1.634-5.602-1.3-2.033.333-3.648 1.35-4.85 3.05-6.666 9.366-13.467 14.75-20.4 16.15-5.732.633-11.25-1.717-16.55-7.05-9.033-10.534-18.632-14.8-28.8-12.8-9.966 1.2-20.532 9.05-31.7 23.55-1.266 1.633-1.766 3.466-1.5 5.5.234 2.033 1.185 3.7 2.85 5 1.634 1.266 3.468 1.766 5.5 1.5 2.035-.3 3.7-1.25 5-2.85 8.068-10.468 15.468-16.435 22.2-17.9 5.2-.467 10.25 2.166 15.15 7.9.1.1.218.216.35.35 9.4 9.633 19.334 13.5 29.8 11.6 10.6-1.333 20.7-8.75 30.302-22.25zM113.945 40.75c-1.467 1.466-2.2 3.232-2.2 5.3 0 2.065.733 3.832 2.2 5.3s3.232 2.2 5.3 2.2 3.833-.734 5.3-2.2 2.2-3.234 2.2-5.3c0-2.068-.733-3.834-2.2-5.3-1.467-1.467-3.234-2.2-5.3-2.2s-3.834.732-5.3 2.2zM38.944 40.75c-1.467 1.466-2.2 3.232-2.2 5.3 0 2.065.733 3.832 2.2 5.3 1.466 1.466 3.233 2.2 5.3 2.2s3.833-.734 5.3-2.2c1.467-1.468 2.2-3.234 2.2-5.3 0-2.068-.733-3.834-2.2-5.3-1.466-1.467-3.233-2.2-5.3-2.2s-3.834.732-5.3 2.2z"/></svg>