<?xml version="1.0" standalone="no"?>
<!-- Generator: Adobe Fireworks 10, Export SVG Extension by Aaron Beall (http://fireworks.abeall.com) . Version: 0.6.1  -->
<!DOCTYPE svg PUBLIC "-//W3C//DTD SVG 1.1//EN" "http://www.w3.org/Graphics/SVG/1.1/DTD/svg11.dtd">
<svg id="Page%201%20Copy%209-Page%201%20Copy%209" viewBox="0 0 320 320" style="background-color:#ffffff" version="1.1"
	xmlns="http://www.w3.org/2000/svg" xmlns:xlink="http://www.w3.org/1999/xlink" xml:space="preserve"
	x="0px" y="0px" width="320px" height="320px"
>
	<rect x="9" y="9" width="302" height="302" fill="#c52228" rx="25" ry="25"/>
	<rect x="71" y="218" width="20" height="14" fill="#fdfdfd"/>
	<rect x="71" y="237" width="20" height="74" fill="#fdfdfd"/>
	<rect x="106" y="102" width="20" height="16" fill="#fdfdfd"/>
	<rect x="106" y="131" width="20" height="180" fill="#fdfdfd"/>
	<rect x="181" y="40" width="130" height="5" fill="#fdfdfd"/>
	<rect x="239" y="48" width="18" height="20" fill="#fdfdfd"/>
	<rect x="266" y="109" width="32" height="14" fill="#fdfdfd"/>
	<rect x="298" y="113" width="13" height="6" fill="#fdfdfd"/>
	<rect x="306" y="114" width="5" height="24" fill="#fdfdfd"/>
	<path opacity="0.7686" d="M 311 159 L 217 267 L 239 283 L 311 230 L 311 159 Z" fill="#fdfdfd"/>
	<path d="M 212 260 L 199 276 L 232 306 L 246 290 L 212 260 Z" stroke="#ffffff00" stroke-width="1" fill="#fdfdfd"/>
</svg>