<svg xmlns="http://www.w3.org/2000/svg" width="202.337" height="201.763" viewBox="-8.083 -46.065 202.337 201.763"><path fill-rule="evenodd" clip-rule="evenodd" fill="#C52026" d="M133.116 75.422c4.2 0 7.667-1.016 10.4-3.05 2.733-2.1 4.684-5.282 5.85-9.55l-7.65-2.45c-.666 2.866-1.75 4.968-3.25 6.3-1.533 1.334-3.35 2-5.45 2-2.833 0-5.15-1.05-6.95-3.148-1.766-2.068-2.648-5.584-2.648-10.55 0-4.667.916-8.034 2.75-10.1 1.8-2.1 4.15-3.15 7.05-3.15 2.1 0 3.883.583 5.35 1.75 1.467 1.2 2.417 2.8 2.85 4.8l7.85-1.85c-.9-3.134-2.232-5.534-4-7.2-3-2.834-6.9-4.25-11.7-4.25-5.466 0-9.883 1.816-13.25 5.45-3.332 3.6-5 8.65-5 15.15 0 6.13 1.668 10.983 5 14.55 3.332 3.532 7.6 5.298 12.798 5.298zM67.567 61.774l-16-26.15h-7.65v39.15h7.3v-25.5l15.75 25.5h7.95v-39.15h-7.35M80.517 42.273h11.6v32.5h7.85v-32.5h11.6v-6.65h-31.05"/><path fill-rule="evenodd" clip-rule="evenodd" fill="#C52026" d="M105.767-40.278c-4.167-4.166-8.384-6.083-12.65-5.75-4.333-.333-8.55 1.584-12.65 5.75l-82.2 82.15c-8.467 8.434-8.467 16.883 0 25.35l82.15 82.15c8.433 8.434 16.883 8.434 25.35 0l82.2-82.2c8.4-8.435 8.383-16.867-.05-25.3l-82.15-82.15zm-12.7 174l-79.2-79.2 79.25-79.15 79.2 79.2-79.25 79.15z"/></svg>