<svg xmlns="http://www.w3.org/2000/svg" width="202.338" height="201.763" viewBox="-7.634 -45.94 202.338 201.763"><path fill-rule="evenodd" clip-rule="evenodd" fill="#C52026" d="M106.216 149.498l82.2-82.2c8.4-8.435 8.384-16.867-.05-25.3l-82.15-82.15c-4.166-4.166-8.383-6.083-12.65-5.75-4.332-.333-8.55 1.584-12.65 5.75l-82.2 82.15c-8.466 8.434-8.466 16.883 0 25.35l82.15 82.15c8.434 8.434 16.883 8.434 25.35 0zm-12.65-174l79.2 79.2-79.25 79.15-79.2-79.2 79.25-79.15z"/><path fill-rule="evenodd" clip-rule="evenodd" fill="#C52026" d="M98.866 73.65V41.497h11.5v-6.55h-30.75v6.55h11.45v32.15M137.017 72.848c2.3-.734 4.133-1.768 5.5-3.1 1.8-1.734 3.183-4.018 4.15-6.85.766-2.3 1.15-5.05 1.15-8.25 0-3.634-.418-6.667-1.25-9.1-.834-2.5-2.068-4.6-3.7-6.3-1.6-1.7-3.55-2.885-5.85-3.55-1.7-.5-4.15-.75-7.352-.75h-14.3v38.7h14.7c2.9 0 5.218-.267 6.952-.8zm-13.85-5.7V41.5h3.55c3.166 0 5.3.116 6.4.35 1.466.334 2.683.95 3.65 1.85.932.9 1.665 2.15 2.198 3.75.533 1.6.8 3.884.8 6.85 0 3.034-.267 5.418-.8 7.15-.533 1.735-1.217 2.985-2.05 3.75-.833.735-1.883 1.25-3.15 1.552-.966.266-2.532.4-4.7.4h-5.9zM68.966 59.848c-1.133-1.2-2.533-2.283-4.2-3.25 3.4-.5 5.95-1.7 7.65-3.6s2.55-4.3 2.55-7.2c0-2.3-.566-4.333-1.7-6.1-1.133-1.8-2.633-3.033-4.5-3.7-1.866-.7-4.866-1.05-9-1.05h-16.5v38.7h7.85V57.5h1.55c1.8 0 3.118.15 3.95.45.834.3 1.634.834 2.4 1.6.733.8 2.1 2.7 4.1 5.7l5.65 8.4h9.35l-4.75-7.55c-1.867-3-3.333-5.084-4.4-6.25zm-12.05-8.5h-5.8v-9.85h6.1c3.167 0 5.067.05 5.7.15 1.267.198 2.267.698 3 1.5.667.8 1 1.85 1 3.148 0 1.167-.267 2.134-.8 2.9-.5.767-1.233 1.316-2.2 1.65-.932.335-3.266.5-7 .5z"/></svg>