<svg xmlns="http://www.w3.org/2000/svg" width="202.338" height="201.763" viewBox="-7.384 -46.002 202.338 201.763"><path fill-rule="evenodd" clip-rule="evenodd" fill="#C52026" d="M118.017 83.285c5.6 0 10.25-1.367 13.95-4.1 3.634-2.8 6.25-7.066 7.85-12.8l-10.3-3.3c-.867 3.865-2.316 6.682-4.35 8.45-2.033 1.8-4.467 2.698-7.3 2.698-3.8 0-6.9-1.416-9.3-4.25-2.367-2.766-3.55-7.467-3.55-14.1 0-6.266 1.216-10.8 3.65-13.6 2.398-2.8 5.548-4.2 9.448-4.2 2.8 0 5.184.784 7.15 2.35 2 1.6 3.283 3.75 3.85 6.45l10.55-2.5c-1.233-4.2-3.032-7.416-5.4-9.65-4-3.8-9.216-5.7-15.65-5.7-7.332 0-13.25 2.435-17.75 7.302-4.5 4.8-6.75 11.583-6.75 20.35 0 8.232 2.235 14.717 6.7 19.45 4.468 4.768 10.202 7.15 17.202 7.15zM47.467 38.836h15.55v43.55h10.55v-43.55h15.55v-8.9h-41.65"/><path fill-rule="evenodd" clip-rule="evenodd" fill="#C52026" d="M106.466-40.215c-4.166-4.166-8.383-6.083-12.65-5.75-4.332-.333-8.55 1.584-12.65 5.75l-82.2 82.15c-8.465 8.434-8.465 16.883 0 25.35l82.15 82.15c8.434 8.434 16.884 8.434 25.35 0l82.2-82.2c8.4-8.435 8.384-16.867-.05-25.3l-82.15-82.15zm-12.7 174l-79.2-79.2 79.25-79.15 79.2 79.2-79.25 79.15z"/></svg>