<svg xmlns="http://www.w3.org/2000/svg" width="170.85" height="71.4" viewBox="8.444 20.749 170.85 71.4"><path fill-rule="evenodd" clip-rule="evenodd" fill="#C52026" d="M60.794 92.15v-71.4H8.444v71.4h52.35zm-44-63.6h35.55v55.7h-35.55v-55.7zM120.044 92.15v-71.4h-52.35v71.4h52.35zm-44-63.6h35.55v55.7h-35.55v-55.7z"/><path fill-rule="evenodd" clip-rule="evenodd" fill="#C52026" d="M98.845 62.45c1.966-2.27 3.466-4.386 4.5-6.352 1.066-1.967 1.6-4.117 1.6-6.45 0-3.2-1.1-5.883-3.3-8.05-2.167-2.167-4.867-3.25-8.1-3.25-3.5 0-6.25 1.1-8.25 3.3-1.967 2.233-3.084 5.117-3.35 8.65h7.3c-.1-1.5.232-2.866 1-4.1.8-1.267 1.916-1.9 3.35-1.9 1.332 0 2.416.6 3.25 1.8.832 1.2 1.25 2.5 1.25 3.9 0 .367-.05.783-.15 1.25s-.234.9-.4 1.3c-.133.4-.334.884-.6 1.45-.3.566-.566 1.033-.8 1.4-.233.4-.55.916-.95 1.55-.434.634-.75 1.083-.95 1.35-.233.3-.6.784-1.1 1.45-.5.6-.816 1-.95 1.2l-.95 1.2s-.767.967-.8 1l-8.95 11.3h23.75V68.5h-11.6l5.2-6.05zM45.294 47.1c-.633-1.7-1.417-3.185-2.35-4.45-.933-1.268-2.133-2.317-3.6-3.15-1.5-.768-3.15-1.15-4.95-1.15s-3.433.382-4.9 1.15c-1.467.832-2.667 1.882-3.6 3.15s-1.717 2.75-2.35 4.45c-.6 1.666-1.05 3.315-1.35 4.95-.233 1.633-.35 3.25-.35 4.85 0 1.565.117 3.165.35 4.8.3 1.6.75 3.232 1.35 4.898.667 1.7 1.467 3.184 2.4 4.45.934 1.233 2.133 2.284 3.6 3.15 1.467.767 3.083 1.15 4.85 1.15 1.8 0 3.433-.384 4.9-1.15 1.5-.866 2.717-1.917 3.65-3.15.9-1.267 1.667-2.75 2.3-4.45.667-1.666 1.117-3.3 1.35-4.898.267-1.635.4-3.234.4-4.8 0-1.6-.133-3.217-.4-4.85-.233-1.635-.667-3.285-1.3-4.95zm-5.25 13.2c-.167 1.23-.45 2.582-.85 4.048-.4 1.467-1 2.668-1.8 3.602-.833.967-1.833 1.45-3 1.45-1.1 0-2.067-.483-2.9-1.45-.833-.934-1.45-2.135-1.85-3.602-.4-1.466-.683-2.832-.85-4.1-.167-1.266-.25-2.416-.25-3.45 0-1.066.083-2.233.25-3.5.167-1.232.45-2.582.85-4.05.4-1.433 1.017-2.616 1.85-3.55.833-.933 1.8-1.4 2.9-1.4 1.167 0 2.167.468 3 1.4.8.934 1.4 2.117 1.8 3.55.4 1.468.684 2.817.85 4.05.167 1.268.25 2.435.25 3.5 0 1.1-.083 2.267-.25 3.5zM179.294 20.75h-52.35v71.4h52.35v-71.4zm-31.95 63.498c.267-.9.7-1.766 1.3-2.6 1.033-1.367 2.384-2.05 4.05-2.05 1.667 0 3 .667 4 2 .634.833 1.084 1.716 1.35 2.65h-10.7zm23.5 0h-5.8c-.267-2.5-1.2-4.684-2.8-6.55-1.934-2.3-4.45-3.45-7.55-3.45-1.1 0-2.018.168-2.75.5l-.1-.15 7.2-10.2-5-3.65-9.35 13.85c-2.302 3.435-3.668 6.65-4.1 9.65h-5.302v-55.7h10.2l-1.85 9.2h1.05c1.633-1.532 3.516-2.3 5.65-2.3 1.933 0 3.55.684 4.85 2.05 1.333 1.368 2 3.018 2 4.95 0 1.9-.566 3.534-1.7 4.9-1.167 1.368-2.7 2.05-4.6 2.05-1.534 0-3-.416-4.4-1.25-1.366-.832-2.534-1.95-3.5-3.35l-2.05 5.9c2.732 3.1 6.2 4.65 10.4 4.65 3.8 0 6.9-1.166 9.3-3.5 2.366-2.332 3.55-5.366 3.55-9.1 0-3.4-1.066-6.3-3.2-8.7-2.134-2.365-4.85-3.55-8.15-3.55l-1.8.1.45-2.05h19.35v55.7z"/></svg>