<svg xmlns="http://www.w3.org/2000/svg" width="155" height="123.899" viewBox="15.244 -5.401 155 123.899"><path fill-rule="evenodd" clip-rule="evenodd" fill="#C52026" d="M101.594 26.3c.267.033.517-.018.75-.15.233-.168.384-.384.45-.65l1.45-7.35c.033-.268-.017-.518-.15-.75-.167-.234-.384-.368-.65-.4-.267-.067-.517-.018-.75.15-.233.132-.366.332-.4.6l-1.45 7.35c-.065.266-.016.516.15.75.134.232.333.382.6.45zM130.743 45.15c-.066.266-.016.516.15.75.134.232.334.382.6.45.268.032.518-.018.75-.15l6.2-4.15c.233-.168.384-.384.45-.65.033-.268-.016-.518-.15-.75-.166-.234-.383-.368-.65-.4-.266-.067-.516-.018-.75.15l-6.2 4.15c-.232.132-.365.332-.4.6zM137.894 61.748c-.166.234-.217.484-.15.75.034.268.168.484.4.65.234.133.484.184.75.15l7.3-1.5c.267-.066.483-.217.65-.45.134-.233.184-.483.15-.75-.067-.267-.217-.467-.45-.6-.233-.167-.483-.218-.75-.15l-7.3 1.5c-.266.034-.466.168-.6.4zM128.243 55.6c-.166.365-.166.75 0 1.148.135.367.4.634.8.8.368.134.75.134 1.15 0l13.4-5.55c.366-.166.634-.433.8-.8.134-.4.134-.783 0-1.15-.166-.4-.434-.666-.8-.8-.4-.166-.783-.166-1.15 0l-13.4 5.55c-.4.134-.665.4-.8.8zM107.344 35.85c.366.132.75.132 1.15 0 .366-.168.634-.435.8-.8l5.55-13.45c.134-.4.134-.785 0-1.15-.167-.4-.433-.668-.8-.8-.4-.168-.783-.168-1.15 0-.4.132-.666.4-.8.8l-5.55 13.45c-.166.366-.166.75 0 1.15.133.365.4.632.8.8zM118.243 33.2c.234.132.484.182.75.15.268-.068.484-.218.65-.45l4.15-6.15c.133-.234.184-.484.15-.75-.066-.268-.217-.468-.45-.6-.233-.168-.483-.217-.75-.15-.267.032-.467.166-.6.4l-4.15 6.15c-.167.232-.217.482-.15.75.035.265.168.482.4.65zM92.544 33.1c.4 0 .75-.15 1.05-.45.3-.3.45-.65.45-1.05V17.05c0-.4-.15-.75-.45-1.05s-.65-.45-1.05-.45-.75.15-1.05.45c-.3.3-.45.65-.45 1.05V31.6c0 .4.15.75.45 1.05.3.3.65.45 1.05.45zM63.144 25.65c-.167-.234-.384-.368-.65-.4-.267-.067-.517-.018-.75.15-.233.132-.366.332-.4.6-.066.266-.017.516.15.75l4.15 6.15c.133.232.333.382.6.45.267.032.517-.018.75-.15.233-.168.384-.385.45-.65.033-.268-.017-.518-.15-.75l-4.15-6.15zM47.244 81.248c.134-.232.184-.482.15-.75-.067-.266-.217-.467-.45-.6-.233-.166-.483-.217-.75-.15l-7.15 1.4c-.267.033-.467.166-.6.4-.167.232-.217.482-.15.75.033.266.167.482.4.65.233.133.483.184.75.148l7.15-1.398c.267-.065.483-.215.65-.45zM56.794 85.2c-.4-.17-.784-.17-1.15 0l-13.9 5.798c-.4.135-.667.4-.8.8-.167.368-.167.75 0 1.15.133.366.4.634.8.8.367.135.75.135 1.15 0l13.9-5.8c.367-.167.633-.433.8-.8.133-.4.133-.783 0-1.15-.167-.4-.433-.666-.8-.8zM82.444 25.5c.033.266.167.482.4.65.233.132.483.183.75.15.267-.067.483-.217.65-.45.134-.234.184-.484.15-.75l-1.45-7.3c-.066-.268-.217-.467-.45-.6-.233-.168-.483-.218-.75-.15-.267.033-.466.166-.6.4-.167.232-.217.482-.15.75l1.45 7.3zM54.294 72.55c.3-.302.45-.65.45-1.052 0-.4-.15-.75-.45-1.05-.3-.3-.65-.45-1.05-.45h-15c-.4 0-.75.15-1.05.45-.3.3-.45.65-.45 1.05s.15.75.45 1.05c.3.3.65.45 1.05.45h15c.4 0 .75-.15 1.05-.45zM55.144 31.95c-.3-.3-.65-.45-1.05-.45s-.75.15-1.05.45c-.3.3-.45.65-.45 1.05s.15.75.45 1.05l10.45 10.5c.3.3.65.45 1.05.45s.75-.15 1.05-.45c.3-.3.45-.65.45-1.05s-.15-.75-.45-1.05l-10.45-10.5zM38.994 61.85l7.2 1.45c.267.032.517-.02.75-.15.233-.167.383-.384.45-.65.033-.267-.017-.517-.15-.75-.167-.233-.383-.367-.65-.4l-7.2-1.45c-.267-.066-.517-.017-.75.15-.233.133-.367.333-.4.6-.066.267-.017.517.15.75.134.232.333.38.6.45zM75.944 35.25c.133.366.4.632.8.8.367.133.75.133 1.15 0 .366-.168.633-.434.8-.8.133-.4.133-.784 0-1.15l-5.65-13.55c-.167-.4-.434-.668-.8-.8-.4-.168-.783-.168-1.15 0-.4.132-.667.4-.8.8-.167.366-.167.75 0 1.15l5.65 13.55zM46.744 42.1l6.1 4.1c.233.132.483.182.75.15.267-.068.483-.218.65-.45.134-.234.184-.484.15-.75-.067-.268-.217-.467-.45-.6l-6.1-4.1c-.233-.168-.483-.218-.75-.15-.267.033-.466.166-.6.4-.167.232-.216.482-.15.75.034.266.166.482.4.65zM41.644 52.05l13.8 5.7c.367.133.75.133 1.15 0 .367-.167.633-.435.8-.8.133-.4.133-.784 0-1.15-.167-.4-.434-.668-.8-.8l-13.8-5.7c-.4-.168-.784-.168-1.15 0-.4.133-.667.4-.8.8-.167.366-.167.75 0 1.15.133.365.4.632.8.8zM80.394 94.55c-.434-.468-.983-.9-1.65-1.302 1.367-.2 2.384-.684 3.05-1.45.7-.767 1.05-1.733 1.05-2.9 0-.933-.233-1.75-.7-2.448-.434-.734-1.034-1.234-1.8-1.5-.767-.268-1.983-.4-3.65-.4h-6.6v15.55h3.15v-6.5h.6c.733 0 1.267.067 1.6.2.333.1.65.316.95.65.3.3.85 1.066 1.65 2.3l2.3 3.35h3.75l-1.9-3c-.767-1.235-1.367-2.084-1.8-2.55zm-4.8-3.4h-2.35v-4h2.45c1.267 0 2.033.032 2.3.1.5.065.9.267 1.2.6.267.3.4.716.4 1.25 0 .466-.117.866-.35 1.2-.2.3-.483.516-.85.65-.366.132-1.3.2-2.8.2zM132.394 69.998c-.4 0-.75.15-1.05.45-.3.3-.45.65-.45 1.05s.15.75.45 1.05c.3.3.65.45 1.05.45h14.55c.4 0 .75-.15 1.05-.45.3-.3.45-.65.45-1.05s-.15-.75-.45-1.05c-.3-.3-.65-.45-1.05-.45h-14.55z"/><path fill-rule="evenodd" clip-rule="evenodd" fill="#C52026" d="M92.744-5.4c-21.366 0-39.633 7.565-54.8 22.7-9.066 9.1-15.417 19.316-19.05 30.65-2.434 7.565-3.65 15.615-3.65 24.148 0 11.3 2.117 21.717 6.35 31.25 2.333 5.334 5.333 10.385 9 15.15h124.3c3.667-4.766 6.684-9.816 9.05-15.15 4.2-9.533 6.3-19.95 6.3-31.25 0-8.566-1.2-16.616-3.6-24.15-3.633-11.332-10-21.55-19.1-30.65-15.133-15.133-33.4-22.7-54.8-22.7zm59.5 77.498c0 11.602-2.917 22.018-8.75 31.25h-101.5c-5.834-9.232-8.75-19.648-8.75-31.25 0-6.466.9-12.566 2.7-18.3.632-2 1.382-3.95 2.25-5.85 2.866-6.5 7.016-12.466 12.45-17.9l.05-.05c2.332-2.332 4.766-4.433 7.3-6.3.7-.5 1.4-.982 2.1-1.45 9.566-6.433 20.45-9.65 32.65-9.65h1c13.466.2 25.316 4.384 35.55 12.55 1.9 1.5 3.733 3.134 5.5 4.9 5.434 5.435 9.6 11.4 12.5 17.9.867 1.967 1.633 3.984 2.3 6.05 1.767 5.667 2.65 11.7 2.65 18.1z"/><path fill-rule="evenodd" clip-rule="evenodd" fill="#C52026" d="M94.594 84.748c-.566-.133-1.816-.2-3.75-.2h-5.05v15.55h3.15v-5.85h2.05c1.434 0 2.534-.082 3.3-.25.533-.1 1.066-.332 1.6-.7s.984-.882 1.35-1.55c.334-.666.5-1.467.5-2.4 0-1.232-.3-2.25-.9-3.05-.6-.8-1.35-1.315-2.25-1.55zm-.45 5.85c-.232.334-.566.584-1 .75-.4.168-1.217.25-2.45.25h-1.75v-4.45h1.55c1.134 0 1.884.052 2.25.15.5.067.917.284 1.25.65.334.4.5.884.5 1.45 0 .434-.116.835-.35 1.2zM146.195 81.2l-7.3-1.452c-.267-.066-.517-.016-.75.15-.233.133-.367.334-.4.6-.067.268-.017.518.15.75.133.234.333.385.6.45l7.3 1.45c.267.033.517-.016.75-.15.233-.166.383-.383.45-.65.033-.266-.017-.516-.15-.75-.168-.233-.385-.365-.65-.4zM103.344 72.2c.233-1.77 0-3.485-.7-5.15l19.35-36.3-28.3 29.75c-1.766-.1-3.466.233-5.1 1-1.733.733-3.133 1.883-4.2 3.45-1.667 2.332-2.284 4.95-1.85 7.85.466 2.867 1.883 5.133 4.25 6.8 2.367 1.733 4.95 2.35 7.75 1.85 2.9-.433 5.233-1.833 7-4.2 1.067-1.502 1.666-3.185 1.8-5.05zM107.844 95.15l-2.85-10.6h-4.7v15.548h2.9v-12.25l3.1 12.25h3.05l3.1-12.25v12.25h2.9v-15.55h-4.7M143.544 90.998l-13.6-5.65c-.4-.166-.783-.166-1.15 0-.4.135-.666.4-.8.8-.167.368-.167.75 0 1.15.134.368.4.634.8.8l13.6 5.65c.367.135.75.135 1.15 0 .367-.166.633-.434.8-.8.134-.4.134-.782 0-1.15-.167-.4-.433-.665-.8-.8zM132.594 33c0-.4-.134-.75-.4-1.05-.3-.3-.666-.45-1.1-.45-.4 0-.75.15-1.05.45l-10.3 10.2c-.3.266-.45.616-.45 1.05 0 .4.15.75.45 1.05.267.3.616.45 1.05.45.4 0 .75-.135 1.05-.4l10.3-10.2c.3-.3.45-.668.45-1.1z"/></svg>