<?xml version="1.0" standalone="no"?>
<!-- Generator: Adobe Fireworks 10, Export SVG Extension by Aaron Beall (http://fireworks.abeall.com) . Version: 0.6.1  -->
<!DOCTYPE svg PUBLIC "-//W3C//DTD SVG 1.1//EN" "http://www.w3.org/Graphics/SVG/1.1/DTD/svg11.dtd">
<svg id="Page%201%20Copy%2018-Page%201%20Copy%2018" viewBox="0 0 320 320" style="background-color:#ffffff" version="1.1"
	xmlns="http://www.w3.org/2000/svg" xmlns:xlink="http://www.w3.org/1999/xlink" xml:space="preserve"
	x="0px" y="0px" width="320px" height="320px"
>
	<rect x="9" y="9" width="302" height="302" fill="#c52228" rx="25" ry="25"/>
	<path d="M 92 88 L 92 114 C 92 117.3138 94.6862 120 98 120 L 219 120 C 222.3138 120 225 117.3138 225 114 L 225 88 C 225 84.6862 222.3138 82 219 82 L 98 82 C 94.6862 82 92 84.6862 92 88 Z" fill="#ffffff"/>
	<path d="M 96 136 L 96 142 C 96 144.2092 97.7908 146 100 146 L 144 146 C 146.2092 146 148 147.7908 148 150 L 148 311 L 169 311 L 169 150 C 169 147.7908 170.7908 146 173 146 L 217 146 C 219.2092 146 221 144.2092 221 142 L 221 136 C 221 133.7908 219.2092 132 217 132 L 100 132 C 97.7908 132 96 133.7908 96 136 Z" fill="#ffffff"/>
</svg>