<?xml version="1.0" encoding="utf-8"?>
<!-- Generator: Adobe Illustrator 16.0.0, SVG Export Plug-In . SVG Version: 6.00 Build 0)  -->
<!DOCTYPE svg PUBLIC "-//W3C//DTD SVG 1.1//EN" "http://www.w3.org/Graphics/SVG/1.1/DTD/svg11.dtd">
<svg version="1.1" id="Layer_1" xmlns="http://www.w3.org/2000/svg" xmlns:xlink="http://www.w3.org/1999/xlink" x="0px" y="0px"
	 width="186.2px" height="91.701px" viewBox="0.404 9.852 186.2 91.701" enable-background="new 0.404 9.852 186.2 91.701"
	 xml:space="preserve">
<path fill="#C52026" d="M95.154,98.403V86.352c0-2.133-1.066-3.199-3.2-3.199c-1.933,0-2.9,1.066-2.9,3.199v12.051
	c0,2.1,0.967,3.15,2.9,3.15C94.087,101.553,95.154,100.502,95.154,98.403z"/>
<path fill="#C52026" d="M52.304,87.752l6.1-10.5c1.267-1.434,0.95-2.783-0.95-4.05c-2.066-1.067-3.5-0.683-4.3,1.149l-6,10.551
	c-1.1,1.566-0.7,2.916,1.2,4.05C50.187,89.619,51.504,89.219,52.304,87.752z"/>
<path fill="#C52026" d="M136.254,88.952c1.899-1.433,2.149-2.783,0.75-4.05l-5.45-10.551c-1.4-1.566-2.934-1.949-4.6-1.149
	c-1.734,1.101-2.134,2.45-1.2,4.05l6.149,10.5C132.704,89.52,134.154,89.919,136.254,88.952z"/>
<path fill="#C52026" d="M22.554,56.053l10.05-5.9c1.833-1.1,2.233-2.45,1.2-4.05c-1.1-1.8-2.45-2.15-4.05-1.05l-10.35,5.8
	c-1.9,1.133-2.3,2.467-1.2,4C19.004,56.819,20.454,57.219,22.554,56.053z"/>
<path fill="#C52026" d="M161.604,56.053c1.833,0.866,3.15,0.467,3.95-1.201c1.367-1.233,1.117-2.566-0.75-4l-10.5-5.8
	c-1.6-0.9-3.033-0.55-4.3,1.05c-1.101,1.6-0.7,2.95,1.2,4.05L161.604,56.053z"/>
<path fill="#C52026" d="M0.404,21.852h34.625c0.313,6.841,1.754,13.224,4.325,19.15v0.075l0.45,0.95
	c2.732,6,6.673,11.558,11.825,16.675l0.025,0.024c11.205,10.912,24.671,16.371,40.4,16.375c15.732-0.002,29.166-5.461,40.3-16.375
	v-0.024c5.185-5.109,9.159-10.659,11.925-16.65l0.476-0.975v-0.075c2.569-5.927,4.002-12.31,4.3-19.15h37.55v-12H0.404V21.852z
	 M139.029,21.852c-0.281,5.714-1.557,11.031-3.824,15.95l-0.45,1.05c-2.274,4.562-5.407,8.812-9.4,12.75v-0.025
	c-9.198,9.02-20.299,13.528-33.3,13.524c-12.993,0.006-24.118-4.494-33.375-13.5l-0.025-0.025c-4.021-3.996-7.154-8.313-9.4-12.95
	l-0.35-0.825c-2.268-4.92-3.56-10.237-3.875-15.95H139.029z"/>
</svg>
