<svg xmlns="http://www.w3.org/2000/svg" width="163.65" height="164.601" viewBox="11.679 -26.462 163.65 164.601"><path fill="#C52026" d="M38.63 27.088c.633.733 1.333.933 2.1.6.866-.567 1.066-1.217.6-1.95l-2.8-4.9c-.4-.833-1.083-1-2.05-.5-.9.633-1.033 1.25-.4 1.85l2.55 4.9zM73.23 27.688c.932.466 1.6.267 2-.6l2.8-4.9c.532-.733.35-1.35-.55-1.85-.868-.367-1.484-.2-1.852.5l-2.85 4.9c-.6.633-.45 1.283.45 1.95zM57.13 22.988c.9 0 1.35-.5 1.35-1.5v-5.65c0-.934-.45-1.4-1.35-1.4-.968 0-1.45.466-1.45 1.4v5.65c0 1 .482 1.5 1.45 1.5zM140.878 8.038l2.2-3.85c.4-.567.25-1.05-.45-1.45-.666-.267-1.148-.133-1.45.4l-2.198 3.85c-.467.5-.352 1 .35 1.5.732.367 1.25.217 1.548-.45z"/><path fill="#C52026" d="M99.48 69.037h16.5c1.582 2.918 3.332 4.793 5.25 5.625l.074.025c.85.46 1.7.783 2.55.975l-.15-.05c.628.176 1.304.267 2.026.275h.1c5.678.67 10.17-5.038 13.475-17.125v-.05c1.188-4.497 2.11-9.255 2.775-14.275l.025-.125v-.15c.06-.758.135-1.458.225-2.1l.025-.1v-.075c.516-5.164.773-11.764.773-19.8v-5l-34.898-.05v5c.002 6.49.193 12.008.574 16.55l-.025-.1c.073 1.145.165 2.236.274 3.275l.05.275c.112.706.194 1.397.25 2.075v.175c.452 3.79 1.077 7.39 1.876 10.8.006.034.016.067.023.1.248 1.167.53 2.318.852 3.45v-.05c.426 1.6.867 3.082 1.324 4.45H99.48v-89.5h-12v98.7h-15.4c.83-1.126 1.632-2.367 2.4-3.726l.05-.1c1.813-3.363 3.238-6.93 4.275-10.7l.1-.5c.063-.36.146-.702.25-1.024l.125-.525c.552-2.73.91-6.023 1.075-9.874h.125l.024-9.675h-.024v-.324l-46.3-.05v.325h-.025l.025 1.4c-.002.16-.002.32 0 .476-.003 1.042-.003 2.083 0 3.125v4.676h.125c.186 3.905.586 7.214 1.2 9.925l.05.276c.147.53.28 1.05.4 1.55l.024.025c.942 3.89 2.36 7.516 4.25 10.876l-.026-.024c3.657 6.576 7.948 10.426 12.875 11.55.592.156 1.184.28 1.774.374.292.062.584.104.875.125.51.085 1.06.126 1.648.126.858.002 1.717-.074 2.575-.225 2.06-.26 4.01-.952 5.85-2.073H87.48v47.9h-75.8v12h163.65v-12H99.48v-57.1zm33.625-41.95c-.094 5.412-.326 10.012-.7 13.8-.09.7-.165 1.45-.226 2.25-.605 4.58-1.446 8.923-2.526 13.025v-.05c-1.477 5.405-2.734 8.598-3.775 9.575-1.392-1.406-2.767-4.64-4.126-9.7v-.05c-.27-.96-.512-1.935-.725-2.925l-.026-.05v-.075c-.723-3.093-1.29-6.36-1.7-9.8v.175c-.077-.922-.194-1.864-.35-2.825l.05.275c-.09-.895-.164-1.837-.225-2.825v-.05l-.026-.05c-.252-3.103-.41-6.687-.475-10.75l14.825.05zM69.53 53.414c-.164.57-.306 1.163-.426 1.775-.81 2.95-1.917 5.742-3.325 8.375-2.21 3.9-4.718 6.2-7.526 6.9h-.05c-.274.05-.55.074-.825.074-.046.002-.087.002-.126 0l-.3-.024-.1-.024-.325-.052c-.284-.04-.567-.098-.85-.175-2.473-.874-4.714-3.124-6.727-6.75l-.024-.024c-1.445-2.575-2.528-5.35-3.25-8.327l.023.025c-.147-.632-.314-1.282-.5-1.95l.05.275c-.462-2.15-.778-4.733-.95-7.75l26.05.025c-.146 2.928-.422 5.47-.824 7.625z"/><path fill="#C52026" d="M127.78 3.638v-4.4c0-.733-.35-1.1-1.05-1.1-.768 0-1.15.367-1.15 1.1v4.4c0 .8.383 1.2 1.15 1.2.7 0 1.05-.4 1.05-1.2zM113.93 8.488c.665-.433.815-.933.448-1.5l-2.2-3.85c-.3-.633-.833-.767-1.6-.4-.7.5-.8.983-.3 1.45l2 3.85c.5.567 1.05.717 1.65.45z"/></svg>