<svg xmlns="http://www.w3.org/2000/svg" width="163.65" height="160.805" viewBox="11.279 -24.512 163.65 160.805"><path fill="#C52026" d="M151.48-21.858h-37.976c-.428-.212-.86-.412-1.3-.6-.03-.007-.056-.015-.075-.025-.673-.278-1.364-.537-2.076-.775l-.05-.025-.1-.025c-.288-.085-.605-.186-.95-.3l-.3-.075c-6.11-1.614-11.9-.872-17.376 2.225h-.025l-.05.025c-2.5 1.463-4.6 3.18-6.3 5.15l-.2.225-.175.275c-.01.017-.017.034-.025.05l-.6.7c-1.442 2.045-2.667 4.845-3.675 8.4l-1.425 4.875 44.9 12.05 1.225-4.9c.95-3.686 1.26-6.794.926-9.325l-.076-.4c-.06-.31-.115-.635-.174-.975v.1c-.41-2.615-1.36-5.207-2.85-7.775-.174-.297-.35-.59-.525-.875h19.25v138.15H11.28v12h163.65v-12h-23.45v-146.15zM91.704-8.633c.106-.193.214-.376.325-.55.18-.21.355-.434.524-.675 1.007-1.098 2.224-2.065 3.65-2.9.018-.007.033-.016.05-.025 3.014-1.698 6.196-2.14 9.55-1.325.395.132.762.25 1.1.35.05.018.102.035.15.05.41.14.81.29 1.2.45 2.47 1.088 4.42 2.863 5.85 5.325.844 1.432 1.394 2.874 1.65 4.325v.1l.15.775c.017.195.026.395.024.6l-24.224-6.5z"/><path fill="#C52026" d="M79.68 4.167l-66.4 112.976h114.325l-8.3-102.15L79.678 4.167zm-59.4 108.976L81.58 8.817l33.974 9.275 7.7 95.05H20.28z"/></svg>