<svg xmlns="http://www.w3.org/2000/svg" width="163.65" height="163.408" viewBox="10.979 -25.357 163.65 163.408"><path fill="#C52026" d="M112.83 51.752v-10.35c0-1.833-.9-2.75-2.7-2.75-1.668 0-2.5.917-2.5 2.75v10.35c0 1.8.832 2.7 2.5 2.7 1.8 0 2.7-.9 2.7-2.7z"/><path fill="#C52026" d="M151.18-20.098h-38.976c-.1-.067-.198-.134-.3-.2-.038-.014-.07-.03-.1-.05l-1.3-.8-.102-.075h-.024c-7.15-4.117-14.7-5.16-22.65-3.125h-.025l-.025.025c-3.638.99-6.88 2.456-9.725 4.4l-.35.25c-.24.203-.49.395-.75.575l-.25.15-.175.15c-1.81 1.497-3.442 3.255-4.9 5.275l-.175-.1-5 8.65 52 30.05 5-8.65-.2-.1c1.022-2.32 1.714-4.68 2.075-7.075.088-.565.154-1.173.2-1.825.333-3.41-.017-6.934-1.05-10.575l.023.025c-.907-3.32-2.258-6.312-4.048-8.975h20.824v138.15h-130.2v12h163.65v-12h-23.45V-20.1zM115.453 6.576v.175l-.025.026c-.022.348-.057.673-.1.975-.187 1.19-.495 2.363-.927 3.526l-34.15-19.75c.772-.946 1.606-1.796 2.5-2.55.366-.254.724-.52 1.076-.8 1.896-1.247 4.046-2.197 6.45-2.85l-.05.026c5.27-1.354 10.277-.688 15.024 2 .04.026.083.05.125.075l1.174.725-.1-.05c4.205 2.742 6.973 6.55 8.3 11.425l.024.025c.68 2.42.905 4.762.676 7.024z"/><path fill="#C52026" d="M46.83 14.35c.666 1.7 1.9 2.05 3.7 1.05l8.65-5.05c1.566-.965 1.9-2.132 1-3.5-.934-1.532-2.084-1.832-3.45-.9l-8.9 5c-1.634.968-1.967 2.102-1 3.4zM76.08 42.6l5.25-9c1.065-1.232.782-2.4-.85-3.5-1.768-.9-2.984-.565-3.65 1l-5.15 9.05c-.967 1.334-.634 2.5 1 3.5 1.566.568 2.7.218 3.4-1.05z"/></svg>