<svg xmlns="http://www.w3.org/2000/svg" width="202.75" height="163.151" viewBox="-8.271 -25.108 202.75 163.151"><path fill="#C52026" d="M73.33 38.193c-1.2-.6-2.035-.367-2.5.7l-3.5 6.15c-.634.9-.4 1.684.7 2.35 1.066.4 1.832.167 2.3-.7l3.55-6.1c.766-.833.583-1.633-.55-2.4zM116.58 38.893c-.802-.933-1.685-1.167-2.65-.7-1.034.667-1.267 1.467-.7 2.4l3.55 6.1c.466 1.034 1.316 1.267 2.55.7 1.133-.833 1.283-1.617.45-2.35l-3.2-6.15zM93.48 43.993c-1.134 0-1.7.633-1.7 1.9v7.05c0 1.2.566 1.8 1.7 1.8 1.232 0 1.85-.6 1.85-1.8v-7.05c0-1.267-.618-1.9-1.85-1.9z"/><path fill="#C52026" d="M193.804 86.893c-1.083-12.762-3.625-24.813-7.625-36.15-4.85-13.636-11.807-26.277-20.876-37.925v-.025c-19.916-25.367-43.975-38-72.175-37.9h-1.35c-27.58.323-51.212 12.948-70.9 37.875l-.05.05C11.79 24.47 4.883 37.155.103 50.868l.025-.025c-5.565 15.608-8.365 32.675-8.4 51.2v30c-.003 1.66.58 3.075 1.75 4.25 1.173 1.17 2.59 1.752 4.25 1.75h190.75c1.657.002 3.075-.58 4.25-1.75 1.167-1.175 1.75-2.59 1.75-4.25v-30c0-1.793-.033-3.55-.102-5.275-.103-3.377-.296-6.67-.574-9.875zM94.43 7.393c5.032-.002 9.332 1.723 12.9 5.175l.024.025c1.613 1.59 2.847 3.333 3.7 5.225v.025l.024.025c.142.32.283.652.425 1l-.024-.1c.335.86.593 1.75.773 2.675H76.68c.176-.887.418-1.746.724-2.575.142-.348.284-.68.425-1v.025c.89-1.93 2.157-3.704 3.8-5.325 3.532-3.456 7.798-5.18 12.8-5.175zm-77.126 118.65l61.9-29.45h29.975l60.2 29.45H17.303zm88.45-44.525v.025c.546 1.563.888 3.213 1.024 4.95l.025.074v.075c.05.37.075.754.075 1.15v2.8h-25.3v-1.95c0-2.568.375-4.918 1.125-7.05.656-1.858 1.58-3.575 2.775-5.15l.025-.024c2.387-3.002 5.23-4.56 8.524-4.676H94.228c3.404.05 6.32 1.616 8.75 4.7h-.025c1.232 1.565 2.165 3.256 2.8 5.076zm76.726 44.25l-69.6-34.05v-3.075-.85c0-.672-.043-1.32-.126-1.95l.024.15c-.194-2.264-.652-4.413-1.375-6.45v.024c-.83-2.447-2.064-4.722-3.7-6.825h-.024c-3.705-4.716-8.19-7.05-13.45-7h-.25c-5.14.033-9.54 2.367-13.2 7h-.026v.025c-1.593 2.086-2.827 4.36-3.7 6.825-.983 2.734-1.475 5.75-1.475 9.05v3.075L3.73 125.892v-23.85c.03-17.076 2.597-32.81 7.7-47.2l.024-.025C15.808 42.33 22.1 30.78 30.33 20.167l-.05.05c16.866-21.346 37-32.446 60.4-33.3v10.7c-6.14.74-11.49 3.34-16.05 7.8-2.56 2.52-4.526 5.288-5.9 8.3-.193.414-.384.848-.576 1.3l-.025.1-.026.05c-.75 1.986-1.26 4.078-1.525 6.275h-.25v10h56.3v-10h-.275c-.266-2.215-.79-4.323-1.576-6.325v-.025l-.025-.075c-.184-.434-.366-.85-.55-1.25l-.025-.05c-1.34-3.012-3.29-5.78-5.85-8.3l-.025-.025c-4.463-4.33-9.67-6.905-15.625-7.725v-10.55c22.094 1.64 41.152 12.666 57.176 33.075v-.025c8.264 10.62 14.605 22.145 19.024 34.575 3.667 10.396 5.99 21.445 6.976 33.15v.025c.255 2.986.43 6.053.524 9.2v.074c.065 1.586.1 3.203.1 4.852v23.726z"/></svg>