<?xml version="1.0" encoding="utf-8"?>
<!-- Generator: Adobe Illustrator 16.0.0, SVG Export Plug-In . SVG Version: 6.00 Build 0)  -->
<!DOCTYPE svg PUBLIC "-//W3C//DTD SVG 1.1//EN" "http://www.w3.org/Graphics/SVG/1.1/DTD/svg11.dtd">
<svg version="1.1" id="Layer_1"
	xmlns="http://www.w3.org/2000/svg"
	xmlns:xlink="http://www.w3.org/1999/xlink" x="0px" y="0px" width="128.6px" height="155.5px" viewBox="29.502 -21.989 128.6 155.5" enable-background="new 29.502 -21.989 128.6 155.5" xml:space="preserve">
	<path fill="#F72432" d="M150.675-1.279c-2.639-1.732-5.657-2.61-8.973-2.61c-3.323,0-6.33,0.881-8.937,2.62
	c-0.934,0.622-1.819,1.35-2.632,2.163c-2.596,2.596-4.137,5.659-4.637,9.118h-17.646L96.073,30.601l-0.001,0l-1.95,3.411h-26.32
	V10.635c3.46-0.499,6.502-2.06,9.057-4.646c3.214-3.174,4.843-7.07,4.843-11.579c0-4.502-1.626-8.411-4.832-11.618
	c-3.173-3.173-7.065-4.782-11.568-4.782c-4.497,0-8.402,1.605-11.629,4.793c-3.166,3.206-4.771,7.11-4.771,11.607
	c0,4.502,1.609,8.395,4.782,11.567c2.598,2.598,5.656,4.158,9.118,4.657v23.376h-33.25v7.8h20.45l-20.5,26.15v7.801h33.3v25.125
	c-3.462,0.498-6.52,2.059-9.118,4.656c-3.173,3.174-4.782,7.066-4.782,11.568c0,4.496,1.605,8.4,4.793,11.628
	c3.205,3.167,7.11,4.772,11.607,4.772c4.503,0,8.395-1.609,11.567-4.783c3.207-3.207,4.833-7.115,4.833-11.617
	c0-4.509-1.629-8.404-4.821-11.557c-2.572-2.604-5.617-4.168-9.079-4.668V75.762h58.65v-7.801h-20.4l20.45-26.15v-7.8H99.884
	l10.868-19h14.745c0.5,3.457,2.042,6.504,4.626,9.057c3.175,3.214,7.069,4.843,11.579,4.843c4.502,0,8.41-1.626,11.617-4.833
	c3.174-3.173,4.782-7.065,4.782-11.567c0-4.497-1.605-8.402-4.823-11.658C152.455,0.068,151.598-0.637,150.675-1.279z M57.219,2.444
	c-2.232-2.232-3.317-4.86-3.317-8.032c0-3.178,1.089-5.826,3.307-8.072c2.267-2.239,4.915-3.328,8.093-3.328
	c3.173,0,5.8,1.085,8.032,3.317c2.266,2.267,3.368,4.91,3.368,8.083c0,3.167-1.098,5.79-3.379,8.043
	c-2.231,2.259-4.854,3.357-8.021,3.357C62.13,5.811,59.486,4.71,57.219,2.444z M73.345,109.09c2.259,2.231,3.357,4.855,3.357,8.021
	c0,3.172-1.102,5.815-3.368,8.082c-2.232,2.232-4.859,3.318-8.032,3.318c-3.178,0-5.826-1.09-8.071-3.308
	c-2.24-2.268-3.329-4.915-3.329-8.093c0-3.172,1.085-5.8,3.317-8.033c2.267-2.266,4.91-3.367,8.083-3.367
	C68.469,105.711,71.092,106.809,73.345,109.09z M105.902,67.961h-35.35l-20.4-26.15h35.3L105.902,67.961z M149.784,20.544
	c-2.267,2.266-4.91,3.368-8.082,3.368c-3.167,0-5.791-1.098-8.043-3.378c-2.26-2.232-3.357-4.855-3.357-8.021
	c0-3.172,1.102-5.816,3.369-8.083c0.579-0.58,1.207-1.097,1.867-1.537c1.797-1.198,3.813-1.78,6.164-1.78
	c2.356,0,4.394,0.585,6.172,1.752c0.658,0.458,1.314,0.998,1.899,1.555c2.239,2.267,3.328,4.915,3.328,8.093
	C153.102,15.684,152.017,18.311,149.784,20.544z"/>
</svg>
