<?xml version="1.0" standalone="no"?>
<!-- Generator: Adobe Fireworks 10, Export SVG Extension by Aaron Beall (http://fireworks.abeall.com) . Version: 0.6.1  -->
<!DOCTYPE svg PUBLIC "-//W3C//DTD SVG 1.1//EN" "http://www.w3.org/Graphics/SVG/1.1/DTD/svg11.dtd">
<svg id="Page%201%20Copy%207-Page%201%20Copy%207" viewBox="0 0 320 320" style="background-color:#ffffff" version="1.1"
	xmlns="http://www.w3.org/2000/svg" xmlns:xlink="http://www.w3.org/1999/xlink" xml:space="preserve"
	x="0px" y="0px" width="320px" height="320px"
>
	<g id="Layer%201">
		<g>
			<path d="M 246.5441 155.3011 C 242.9411 151.719 238.1839 149.7897 233.0808 149.8682 C 229.1045 149.9301 225.4227 151.2781 222.4157 153.5186 C 219.3607 145.8426 211.8396 140.4025 203.0684 140.4025 C 198.4208 140.4025 194.1226 141.9323 190.6531 144.5105 C 188.2454 135.7145 180.1592 129.2299 170.5832 129.2299 C 166.2576 129.2299 162.2333 130.554 158.9009 132.8184 L 158.9043 76.0038 C 158.9043 64.5679 149.5719 55.2657 138.1019 55.2657 C 132.5492 55.2657 127.3262 57.4208 123.3915 61.3379 C 119.4597 65.2576 117.2951 70.4651 117.2951 76.0038 L 117.2951 163.896 C 115.6405 163.5955 113.9494 163.4452 112.2336 163.4452 C 101.8904 163.4452 93.4749 171.825 93.4749 182.1205 C 93.4749 182.9605 93.5362 183.821 93.653 184.6755 C 94.2254 188.8654 92.9749 193.1125 90.2213 196.3335 L 84.0085 203.583 C 78.0937 210.4833 76.7751 220.2529 80.6414 228.4654 L 98.8345 267.1647 C 101.8998 273.6869 106.6912 279.2358 112.6955 283.214 C 116.3289 285.6214 119.3055 287.3731 121.5386 288.4181 C 123.1449 289.1727 124.4977 290.3645 125.4537 291.8635 C 126.4019 293.3524 126.9054 295.0734 126.9054 296.8422 L 126.9054 313.455 C 126.9054 314.6604 127.3849 315.818 128.2407 316.6717 C 129.0974 317.5219 130.2545 318 131.464 318 L 239.7971 318 C 242.3144 318 244.3556 315.9648 244.3556 313.455 C 244.3556 303.3072 245.8044 293.2201 248.6607 283.4803 C 250.8758 275.9175 252 268.0833 252 260.202 L 252 168.4342 C 252 163.4725 250.0615 158.8084 246.5441 155.3011 L 246.5441 155.3011 Z" fill="#c52228"/>
			<path d="M 138.1019 37.1615 C 140.6192 37.1615 142.66 35.1259 142.66 32.6161 L 142.66 7.5455 C 142.66 5.0356 140.6192 3 138.1019 3 C 135.5837 3 133.5424 5.0356 133.5424 7.5455 L 133.5424 32.6161 C 133.5424 35.1259 135.5837 37.1615 138.1019 37.1615 L 138.1019 37.1615 ZM 138.1019 37.1615 L 138.1019 37.1615 Z" fill="#c52228"/>
			<path d="M 171.2271 51.165 C 172.3916 51.165 173.5594 50.7211 174.4499 49.8337 L 192.2286 32.1073 C 194.0095 30.3316 194.0095 27.453 192.2286 25.6777 C 190.4476 23.9021 187.5604 23.9021 185.7829 25.6777 L 168.0043 43.4033 C 166.2233 45.1789 166.2233 48.0576 168.0008 49.8337 C 168.8913 50.7211 170.0592 51.165 171.2271 51.165 L 171.2271 51.165 ZM 171.2271 51.165 L 171.2271 51.165 Z" fill="#c52228"/>
			<path d="M 180.1592 79.8732 C 180.1592 82.3826 182.2005 84.4178 184.7178 84.4178 L 209.86 84.4178 C 212.3807 84.4178 214.4185 82.3826 214.4185 79.8732 C 214.4185 77.3633 212.3807 75.3281 209.86 75.3281 L 184.7178 75.3281 C 182.2005 75.3281 180.1592 77.3633 180.1592 79.8732 L 180.1592 79.8732 ZM 180.1592 79.8732 L 180.1592 79.8732 Z" fill="#c52228"/>
			<path d="M 95.2627 79.0908 C 95.2627 76.5809 93.2215 74.5457 90.7008 74.5457 L 65.5585 74.5457 C 63.0412 74.5457 61 76.5809 61 79.0908 C 61 81.6002 63.0412 83.6362 65.5585 83.6362 L 90.7008 83.6362 C 93.2215 83.6362 95.2627 81.6002 95.2627 79.0908 L 95.2627 79.0908 ZM 95.2627 79.0908 L 95.2627 79.0908 Z" fill="#c52228"/>
			<path d="M 101.5235 49.2805 C 102.4135 50.1679 103.5814 50.6118 104.7467 50.6118 C 105.9146 50.6118 107.0825 50.1679 107.9725 49.2805 C 109.7531 47.5048 109.7531 44.6262 107.9725 42.8535 L 90.1905 25.1241 C 88.4134 23.3489 85.5262 23.3489 83.7444 25.1241 C 81.9638 26.8998 81.9638 29.7784 83.7444 31.5537 L 101.5235 49.2805 ZM 101.5235 49.2805 L 101.5235 49.2805 Z" fill="#c52228"/>
		</g>
		<path d="M 246.5441 155.3011 C 242.9411 151.719 238.1839 149.7897 233.0808 149.8682 C 229.1045 149.9301 225.4227 151.2781 222.4157 153.5186 C 219.3607 145.8426 211.8396 140.4025 203.0684 140.4025 C 198.4208 140.4025 194.1226 141.9323 190.6531 144.5105 C 188.2454 135.7145 180.1592 129.2299 170.5832 129.2299 C 166.2576 129.2299 162.2333 130.554 158.9009 132.8184 L 158.9043 76.0038 C 158.9043 64.5679 149.5719 55.2657 138.1019 55.2657 C 132.5492 55.2657 127.3262 57.4208 123.3915 61.3379 C 119.4597 65.2576 117.2951 70.4651 117.2951 76.0038 L 117.2951 163.896 C 115.6405 163.5955 113.9494 163.4452 112.2336 163.4452 C 101.8904 163.4452 93.4749 171.825 93.4749 182.1205 C 93.4749 182.9605 93.5362 183.821 93.653 184.6755 C 94.2254 188.8654 92.9749 193.1125 90.2213 196.3335 L 84.0085 203.583 C 78.0937 210.4833 76.7751 220.2529 80.6414 228.4654 L 98.8345 267.1647 C 101.8998 273.6869 106.6912 279.2358 112.6955 283.214 C 116.3289 285.6214 119.3055 287.3731 121.5386 288.4181 C 123.1449 289.1727 124.4977 290.3645 125.4537 291.8635 C 126.4019 293.3524 126.9054 295.0734 126.9054 296.8422 L 126.9054 313.455 C 126.9054 314.6604 127.3849 315.818 128.2407 316.6717 C 129.0974 317.5219 130.2545 318 131.464 318 L 239.7971 318 C 242.3144 318 244.3556 315.9648 244.3556 313.455 C 244.3556 303.3072 245.8044 293.2201 248.6607 283.4803 C 250.8758 275.9175 252 268.0833 252 260.202 L 252 168.4342 C 252 163.4725 250.0615 158.8084 246.5441 155.3011 L 246.5441 155.3011 ZM 239.9067 280.9295 C 237.2352 290.0435 235.6975 299.434 235.3276 308.9099 L 136.0221 308.9099 L 136.0221 296.8422 C 136.0221 293.3387 135.0263 289.9308 133.149 286.9881 C 131.2692 284.0335 128.5977 281.6842 125.4194 280.192 C 123.6107 279.3451 120.9564 277.7709 117.7404 275.6401 C 113.1304 272.5839 109.4453 268.3189 107.0885 263.306 L 88.8954 224.6033 C 86.5468 219.611 87.3478 213.6795 90.9401 209.4862 L 97.1528 202.2342 C 101.5919 197.0463 103.6096 190.1998 102.6845 183.442 C 102.6233 182.9878 102.5925 182.5541 102.5925 182.1171 C 102.5925 176.8344 106.9177 172.5353 112.2336 172.5353 C 113.9627 172.5353 115.658 172.7606 117.2951 173.208 L 117.2951 220.6593 C 117.2951 223.1691 119.3364 225.2043 121.8537 225.2043 C 124.3705 225.2043 126.4118 223.1691 126.4118 220.6593 L 126.4118 76.0038 C 126.4118 72.8934 127.6281 69.967 129.8337 67.7675 C 132.0423 65.5688 134.9779 64.3566 138.1019 64.3566 C 144.5402 64.3566 149.7842 69.5803 149.7842 76.0038 L 149.7803 171.1728 C 149.7803 173.686 151.8216 175.7187 154.3423 175.7187 C 156.8596 175.7187 158.9009 173.686 158.9009 171.1728 L 158.9009 149.8515 C 158.9625 143.483 164.1786 138.3195 170.5832 138.3195 C 177.0255 138.3195 182.2655 143.5479 182.2655 149.9706 L 182.2655 161.1403 C 182.2655 163.6501 184.3068 165.6853 186.8241 165.6853 C 189.3414 165.6853 191.3826 163.6501 191.3826 161.1403 C 191.3826 154.7171 196.6262 149.493 203.0684 149.493 C 209.5107 149.493 214.7507 154.7171 214.7507 161.1403 L 214.7507 168.7483 C 214.7542 171.2616 216.7954 173.2934 219.3119 173.2934 C 221.83 173.2934 223.8713 171.2581 223.8713 168.7483 C 223.8713 163.4316 228.0634 159.0402 233.2213 158.9587 C 235.8071 158.9143 238.2627 159.9041 240.0985 161.7319 C 241.8931 163.5203 242.8795 165.9004 242.8795 168.4342 L 242.8795 260.202 L 242.8829 260.202 C 242.8829 267.2193 241.8794 274.1922 239.9067 280.9295 L 239.9067 280.9295 ZM 239.9067 280.9295 L 239.9067 280.9295 Z" fill="#c52228"/>
	</g>
</svg>