<?xml version="1.0" standalone="no"?>
<!-- Generator: Adobe Fireworks 10, Export SVG Extension by Aaron Beall (http://fireworks.abeall.com) . Version: 0.6.1  -->
<!DOCTYPE svg PUBLIC "-//W3C//DTD SVG 1.1//EN" "http://www.w3.org/Graphics/SVG/1.1/DTD/svg11.dtd">
<svg id="Page%201%20Copy%2030-Page%201%20Copy%2030" viewBox="0 0 320 320" style="background-color:#ffffff" version="1.1"
	xmlns="http://www.w3.org/2000/svg" xmlns:xlink="http://www.w3.org/1999/xlink" xml:space="preserve"
	x="0px" y="0px" width="320px" height="320px"
>
	<path id="icon" d="M 253.0171 271.8718 L 66.9921 271.8718 L 66.9921 29.46 L 253.0171 29.46 L 253.0171 271.8718 L 253.0171 271.8718 ZM 160.0046 308.061 C 153.0247 308.061 147.3801 302.4348 147.3801 295.487 C 147.3801 288.53 153.0247 282.8947 160.0046 282.8947 C 166.966 282.8947 172.6291 288.53 172.6291 295.487 C 172.6291 302.4348 166.966 308.061 160.0046 308.061 L 160.0046 308.061 ZM 253.2658 4 L 66.725 4 C 54.9661 4 45.5 13.481 45.5 25.1922 L 45.5 294.817 C 45.5 306.4915 54.9661 316 66.725 316 L 253.2658 316 C 264.9879 316 274.5 306.5007 274.5 294.817 L 274.5 25.1922 C 274.5184 13.481 264.9971 4 253.2658 4 L 253.2658 4 Z" fill="#c52228"/>
	<path d="M 160 60 C 126.0913 60 98.5 87.6893 98.5 121.7179 C 98.5 137.0158 105.4424 151.0098 112.169 164.5351 C 117.7917 175.8774 123.0996 182.3187 123.0996 191.5176 C 123.0996 198.3396 128.6023 203.86 135.4004 203.86 L 184.5996 203.86 C 191.3994 203.86 196.9004 198.3396 196.9004 191.5176 C 196.9004 181.861 202.27 175.3708 207.9624 164.004 C 214.6177 150.6974 221.5 136.931 221.5 121.7179 C 221.5 87.6893 193.9087 60 160 60 L 160 60 ZM 184.5996 191.5176 L 135.4004 191.5176 C 135.4004 167.2151 110.801 146.4047 110.801 121.7179 C 110.801 94.4508 132.8291 72.3446 160 72.3446 C 187.1709 72.3446 209.1992 94.4508 209.1992 121.7179 C 209.1992 146.4047 184.5996 166.4447 184.5996 191.5176 L 184.5996 191.5176 ZM 184.5996 225.4835 C 187.9986 225.4835 190.75 228.2447 190.75 231.6557 C 190.75 235.0667 187.9986 237.8279 184.5996 237.8279 L 172.3008 237.8279 C 169.3935 241.7097 164.8403 244 160 244 C 155.1597 244 150.6065 241.7078 147.699 237.8279 L 135.4004 237.8279 C 132.0017 237.8279 129.25 235.0667 129.25 231.6557 C 129.25 228.2447 132.0017 225.4835 135.4004 225.4835 C 132.0017 225.4835 187.9986 225.4835 184.5996 225.4835 Z" fill="#c52228"/>
	<path d="M 160 60 C 126.0913 60 98.5 87.6893 98.5 121.7179 C 98.5 137.0158 105.4424 151.0098 112.169 164.5351 C 117.7917 175.8774 123.0996 182.3187 123.0996 191.5176 C 123.0996 198.3396 128.6023 203.86 135.4004 203.86 L 184.5996 203.86 C 191.3994 203.86 196.9004 198.3396 196.9004 191.5176 C 196.9004 181.861 202.27 175.3708 207.9624 164.004 C 214.6177 150.6974 221.5 136.931 221.5 121.7179 C 221.5 87.6893 193.9087 60 160 60 L 160 60 ZM 184.5996 191.5176 L 135.4004 191.5176 C 135.4004 167.2151 110.801 146.4047 110.801 121.7179 C 110.801 94.4508 132.8291 72.3446 160 72.3446 C 187.1709 72.3446 209.1992 94.4508 209.1992 121.7179 C 209.1992 146.4047 184.5996 166.4447 184.5996 191.5176 L 184.5996 191.5176 ZM 184.5996 208.4333 C 187.9986 208.4333 190.75 211.1945 190.75 214.6055 C 190.75 218.0164 187.9986 220.7776 184.5996 220.7776 L 135.4004 220.7776 C 132.0017 220.7776 129.25 218.0164 129.25 214.6055 C 129.25 211.1945 132.0017 208.4333 135.4004 208.4333 C 132.0017 208.4333 187.9986 208.4333 184.5996 208.4333 Z" fill="#c52228"/>
</svg>