<?xml version="1.0" encoding="utf-8"?>
<!-- Generator: Adobe Illustrator 16.0.0, SVG Export Plug-In . SVG Version: 6.00 Build 0)  -->
<!DOCTYPE svg PUBLIC "-//W3C//DTD SVG 1.1//EN" "http://www.w3.org/Graphics/SVG/1.1/DTD/svg11.dtd">
<svg version="1.1" id="Layer_1"
	xmlns="http://www.w3.org/2000/svg"
	xmlns:xlink="http://www.w3.org/1999/xlink" x="0px" y="0px" width="173.8px" height="174.8px" viewBox="6.515 -31.539 173.8 174.8" enable-background="new 6.515 -31.539 173.8 174.8" xml:space="preserve">
	<path fill="#F72432" d="M35.565,44.786c2.048-11.462,7.423-21.545,16.125-30.25C59.8,6.449,69.075,1.224,79.515-1.139v10.65
	l26.25-20.5l-26.25-20.55v12.05C64.149-16.931,50.641-9.84,38.99,1.786l-1.175,2.825l-0.05,0.05l1.175-2.825
	c-12.551,12.551-19.818,27.318-21.8,44.3l12.875-11.675L35.565,44.786z"/>
	<path fill="#F72432" d="M147.14,1.836c-11.548-11.55-24.932-18.641-40.15-21.275l10.325,11.4l-12.25,6.575
	c11.097,2.183,20.89,7.516,29.375,16c8.612,8.617,13.978,18.592,16.101,29.925h-11.275l20.5,26.25l9.775-12.45v-0.024l10.774-13.775
	H168.79C166.509,28.198,159.292,13.989,147.14,1.836z"/>
	<path fill="#F72432" d="M150.065,69.66c-1.785,7.732-5.144,14.816-10.075,21.25c-1.666,2.184-3.517,4.292-5.55,6.326l-1.175,2.824
	l-0.051,0.051l1.176-2.826c-8.413,8.412-18.105,13.729-29.075,15.951v-11.025l-26.25,20.5l26.25,20.55v-11.75
	c15.915-2.38,29.856-9.555,41.825-21.524c5.883-5.883,10.607-12.24,14.175-19.076c3.08-5.902,5.297-12.16,6.649-18.774
	l-11.149,10.125L150.065,69.66z"/>
	<path fill="#F72432" d="M18.19,72.261c2.937,14.222,9.87,26.797,20.8,37.726c0.521,0.521,1.046,1.029,1.575,1.524
	c10.819,10.304,23.194,16.796,37.125,19.476l-10.175-11.226l12.475-6.7c-10.65-2.301-20.083-7.56-28.3-15.775
	c-2.048-2.048-3.915-4.173-5.6-6.375c-4.349-5.703-7.466-11.92-9.35-18.649h10.825l-20.5-26.25c-3.146,4.017-6.296,8.034-9.45,12.05
	l-0.625,0.801l-0.375-0.076c0.006,0.184,0.014,0.367,0.025,0.551L6.515,72.261H18.19z"/>
</svg>
