<?xml version="1.0" encoding="utf-8"?>
<!-- Generator: Adobe Illustrator 16.0.0, SVG Export Plug-In . SVG Version: 6.00 Build 0)  -->
<!DOCTYPE svg PUBLIC "-//W3C//DTD SVG 1.1//EN" "http://www.w3.org/Graphics/SVG/1.1/DTD/svg11.dtd">
<svg version="1.1" id="Layer_1"
	xmlns="http://www.w3.org/2000/svg"
	xmlns:xlink="http://www.w3.org/1999/xlink" x="0px" y="0px" width="202.338px" height="201.763px" viewBox="-7.384 -46.002 202.338 201.763" enable-background="new -7.384 -46.002 202.338 201.763" xml:space="preserve">
	<path fill-rule="evenodd" clip-rule="evenodd" fill="#F72432" d="M118.017,83.285c5.6,0,10.25-1.367,13.949-4.1
	c3.635-2.801,6.25-7.066,7.851-12.801l-10.3-3.299c-0.867,3.865-2.316,6.682-4.35,8.449c-2.033,1.801-4.467,2.699-7.301,2.699
	c-3.8,0-6.9-1.416-9.3-4.25c-2.366-2.766-3.55-7.467-3.55-14.1c0-6.266,1.217-10.799,3.65-13.6c2.399-2.8,5.549-4.199,9.449-4.199
	c2.801,0,5.184,0.783,7.15,2.35c2,1.6,3.283,3.75,3.85,6.45l10.551-2.5c-1.234-4.2-3.033-7.417-5.4-9.65c-4-3.8-9.217-5.7-15.65-5.7
	c-7.333,0-13.25,2.434-17.75,7.301c-4.5,4.8-6.75,11.583-6.75,20.35c0,8.232,2.234,14.717,6.7,19.449
	C105.283,80.903,111.017,83.285,118.017,83.285z"/>
	<polygon fill-rule="evenodd" clip-rule="evenodd" fill="#F72432" points="47.467,38.836 63.017,38.836 63.017,82.385 73.567,82.385
	73.567,38.836 89.117,38.836 89.117,29.935 47.467,29.935 "/>
	<path fill-rule="evenodd" clip-rule="evenodd" fill="#F72432" d="M106.466-40.215c-4.166-4.166-8.383-6.083-12.649-5.75
	c-4.333-0.333-8.55,1.584-12.65,5.75l-82.2,82.15c-8.466,8.434-8.466,16.883,0,25.35l82.15,82.15c8.433,8.434,16.883,8.434,25.349,0
	l82.201-82.201c8.4-8.434,8.383-16.866-0.051-25.299L106.466-40.215z M93.767,133.785l-79.2-79.2l79.25-79.15l79.2,79.2
	L93.767,133.785z"/>
</svg>
