<?xml version="1.0" standalone="no"?>
<!-- Generator: Adobe Fireworks 10, Export SVG Extension by Aaron Beall (http://fireworks.abeall.com) . Version: 0.6.1  -->
<!DOCTYPE svg PUBLIC "-//W3C//DTD SVG 1.1//EN" "http://www.w3.org/Graphics/SVG/1.1/DTD/svg11.dtd">
<svg id="Page%201%20Copy%203-Page%201%20Copy%203" viewBox="0 0 320 320" style="background-color:#ffffff" version="1.1"
	xmlns="http://www.w3.org/2000/svg" xmlns:xlink="http://www.w3.org/1999/xlink" xml:space="preserve"
	x="0px" y="0px" width="320px" height="320px"
>
	<path d="M 170 33.2807 C 117.9446 33.2807 75.5874 75.6753 75.5874 127.7759 C 75.5874 151.1983 86.2452 172.6243 96.5715 193.3326 C 105.2034 210.6987 113.3519 220.5608 113.3519 234.6451 C 113.3519 245.0901 121.7993 253.5424 132.2355 253.5424 L 207.7645 253.5424 C 218.2032 253.5424 226.6481 245.0901 226.6481 234.6451 C 226.6481 219.86 234.8913 209.9229 243.6302 192.5194 C 253.847 172.1459 264.4126 151.0685 264.4126 127.7759 C 264.4126 75.6753 222.0554 33.2807 170 33.2807 L 170 33.2807 ZM 207.7645 234.6451 L 132.2355 234.6451 C 132.2355 197.4359 94.4715 165.5735 94.4715 127.7759 C 94.4715 86.0277 128.2883 52.1813 170 52.1813 C 211.7117 52.1813 245.5289 86.0277 245.5289 127.7759 C 245.5289 165.5735 207.7645 196.2564 207.7645 234.6451 L 207.7645 234.6451 ZM 207.7645 286.6497 C 212.9824 286.6497 217.2063 290.8773 217.2063 296.0998 C 217.2063 301.3223 212.9824 305.5499 207.7645 305.5499 L 188.8837 305.5499 C 184.4206 311.4933 177.4307 315 170 315 C 162.5693 315 155.5794 311.4905 151.116 305.5499 L 132.2355 305.5499 C 127.018 305.5499 122.7937 301.3223 122.7937 296.0998 C 122.7937 290.8773 127.018 286.6497 132.2355 286.6497 C 127.018 286.6497 212.9824 286.6497 207.7645 286.6497 Z" fill="#c52228"/>
	<path d="M 170 33.2807 C 117.9446 33.2807 75.5874 75.6753 75.5874 127.7759 C 75.5874 151.1983 86.2452 172.6243 96.5715 193.3326 C 105.2034 210.6987 113.3519 220.5608 113.3519 234.6451 C 113.3519 245.0901 121.7993 253.5424 132.2355 253.5424 L 207.7645 253.5424 C 218.2032 253.5424 226.6481 245.0901 226.6481 234.6451 C 226.6481 219.86 234.8913 209.9229 243.6302 192.5194 C 253.847 172.1459 264.4126 151.0685 264.4126 127.7759 C 264.4126 75.6753 222.0554 33.2807 170 33.2807 L 170 33.2807 ZM 207.7645 234.6451 L 132.2355 234.6451 C 132.2355 197.4359 94.4715 165.5735 94.4715 127.7759 C 94.4715 86.0277 128.2883 52.1813 170 52.1813 C 211.7117 52.1813 245.5289 86.0277 245.5289 127.7759 C 245.5289 165.5735 207.7645 196.2564 207.7645 234.6451 L 207.7645 234.6451 ZM 207.7645 260.5444 C 212.9824 260.5444 217.2063 264.772 217.2063 269.9945 C 217.2063 275.217 212.9824 279.4446 207.7645 279.4446 L 132.2355 279.4446 C 127.018 279.4446 122.7937 275.217 122.7937 269.9945 C 122.7937 264.772 127.018 260.5444 132.2355 260.5444 C 127.018 260.5444 212.9824 260.5444 207.7645 260.5444 Z" fill="#c52228"/>
	<path d="M 259.8493 201.8772 L 266.6209 201.8772 C 279.4376 177.3777 291 152.7166 291 125.7971 C 291 59.0851 236.8236 5 169.9997 5 C 103.1758 5 49 59.0851 49 125.7971 C 49 152.4909 59.2808 177.3321 71.9683 201.8772 L 79.912 201.8772 C 68.1314 178.0764 56.5964 153.425 56.5964 126.6036 C 56.5964 63.7546 107.4737 12.614 170 12.614 C 232.5263 12.614 283.4036 63.7546 283.4036 126.6036 C 283.4036 153.6257 271.6638 178.1765 259.8493 201.8772 Z" fill="#c52228"/>
	<rect x="58.7668" y="201.8772" width="21.704" height="6.5263" fill="#c52228"/>
	<path d="M 267.4647 196.0987 L 284.4036 192.2632 L 283.3184 197.9737 L 256.3797 209.4035 L 267.4647 196.0987 Z" fill="#c52228"/>
	<path d="M 264.1413 195.0789 L 260.1626 179.0351 L 256.3014 181.1842 L 256.3571 209.0636 L 264.1413 195.0789 Z" fill="#c52228"/>
	<path d="M 260.6143 191 C 260.6143 191 256.764 208.5877 257.1031 208.3158 C 257.4423 208.0439 273.6368 200.7895 273.6368 200.7895 L 260.6143 191 Z" fill="#c52228"/>
</svg>