<?xml version="1.0" encoding="utf-8"?>
<!-- Generator: Adobe Illustrator 16.0.0, SVG Export Plug-In . SVG Version: 6.00 Build 0)  -->
<!DOCTYPE svg PUBLIC "-//W3C//DTD SVG 1.1//EN" "http://www.w3.org/Graphics/SVG/1.1/DTD/svg11.dtd">
<svg version="1.1" id="Layer_1"
	xmlns="http://www.w3.org/2000/svg"
	xmlns:xlink="http://www.w3.org/1999/xlink" x="0px" y="0px" width="162.888px" height="188.25px" viewBox="12.607 -38.689 162.888 188.25" enable-background="new 12.607 -38.689 162.888 188.25" xml:space="preserve">
	<path fill="#F72432" d="M111.01-1.539c-4.366-2.366-8.5-4.833-12.399-7.399l-4.551-3.101v135.101c2.566-1.567,5.75-3.9,9.551-7
	c7.566-6.167,14.467-13.051,20.699-20.65c8.634-10.733,15.25-22.167,19.851-34.3c5.8-15.134,8.216-30.967,7.25-47.5
	C138.41,11.011,124.944,5.961,111.01-1.539z"/>
	<path fill="#F72432" d="M175.26,1.761c-0.134-1.833-0.783-3.449-1.95-4.85c-1.266-1.5-2.866-2.417-4.8-2.75h0.05
	c-15.566-3.167-31.783-9.283-48.649-18.35c-5.3-2.867-10.351-5.867-15.15-9v0.05c-2.933-2.034-5.033-3.367-6.3-4l0.65,0.2
	c-1.5-1.167-3.184-1.75-5.051-1.75c-1.899,0-3.583,0.55-5.05,1.65v0.1c-5.633,4.167-12.566,8.483-20.8,12.95
	C51.777-15.155,35.56-9.105,19.56-5.839h0.15c-1.933,0.333-3.533,1.217-4.8,2.65l-0.05,0.1c-1.233,1.434-1.9,3.066-2,4.9v0.1
	c-1.4,25.3,3,49.333,13.2,72.1c7.767,17.301,18.583,33.317,32.45,48.051c6.7,7.1,13.883,13.6,21.55,19.5
	c2.5,1.933,4.783,3.616,6.85,5.05v-0.101c1.7,1.167,2.833,1.9,3.4,2.2c1.133,0.566,2.333,0.851,3.6,0.851h0.2
	c1.232,0,2.399-0.267,3.5-0.801c0-0.033,0.05-0.05,0.149-0.05c0.567-0.3,1.601-0.967,3.101-2l-0.051,0.101
	c1.934-1.267,3.95-2.733,6.051-4.4h0.1c6.566-4.967,13.017-10.6,19.35-16.9v-0.05c14.601-14.666,26.051-30.8,34.351-48.399
	c5.6-11.801,9.6-24,12-36.601c2.433-12.6,3.3-25.45,2.6-38.55C175.26,1.845,175.26,1.795,175.26,1.761z M154.91,56.461
	c-5.467,16.033-13.934,31.25-25.4,45.65c-6.333,7.934-13.366,15.283-21.1,22.05c-4.866,4.366-9.65,8.15-14.351,11.35
	c-4.667-3.199-9.466-6.983-14.399-11.35c-7.7-6.767-14.733-14.15-21.1-22.15c-11.4-14.333-19.85-29.517-25.35-45.55
	s-7.95-32.767-7.35-50.2c14.2-3.233,28.6-8.533,43.2-15.899c9.133-4.566,17.483-9.517,25.05-14.85
	c7.699,5.333,16.116,10.3,25.25,14.9c14.666,7.366,28.982,12.634,42.949,15.8C162.876,23.678,160.41,40.428,154.91,56.461z"/>
</svg>
