<?xml version="1.0" encoding="utf-8"?>
<!-- Generator: Adobe Illustrator 16.0.0, SVG Export Plug-In . SVG Version: 6.00 Build 0)  -->
<!DOCTYPE svg PUBLIC "-//W3C//DTD SVG 1.1//EN" "http://www.w3.org/Graphics/SVG/1.1/DTD/svg11.dtd">
<svg version="1.1" id="Layer_1"
	xmlns="http://www.w3.org/2000/svg"
	xmlns:xlink="http://www.w3.org/1999/xlink" x="0px" y="0px" width="242.099px" height="235.659px" viewBox="-28.534 -62.527 242.099 235.659" enable-background="new -28.534 -62.527 242.099 235.659" xml:space="preserve">
	<path fill-rule="evenodd" clip-rule="evenodd" fill="#F72432" d="M213.439,97.273c-0.015-0.081-0.031-0.164-0.05-0.25
	c-0.042-0.173-0.092-0.349-0.15-0.524c-0.073-0.22-0.157-0.428-0.25-0.625c-0.151-0.339-0.335-0.655-0.55-0.95
	c-0.07-0.102-0.146-0.201-0.225-0.3c-0.134-0.164-0.275-0.322-0.426-0.476c-0.11-0.109-0.227-0.218-0.35-0.324
	c-0.263-0.229-0.547-0.428-0.85-0.601c-0.283-0.181-0.583-0.331-0.9-0.45l-20-10.05v-9.875c0.041-0.463,0.024-0.93-0.05-1.399
	c-0.105-0.72-0.331-1.387-0.675-2l0.725-0.375V58.798c0.041-0.463,0.024-0.93-0.05-1.4c-0.105-0.719-0.331-1.386-0.675-2
	l0.725-0.375V44.623c0.028-0.409,0.012-0.817-0.05-1.226c-0.096-0.728-0.313-1.402-0.65-2.024l0.7-0.351V30.698
	c0.002-0.029,0.002-0.055,0-0.075c0.013-0.179,0.021-0.354,0.025-0.525c-0.006-0.113-0.014-0.229-0.025-0.35
	c-0.003-0.035-0.003-0.068,0-0.101c-0.018-0.107-0.034-0.216-0.05-0.324c-0.141-0.949-0.49-1.808-1.05-2.575
	c-0.12-0.167-0.245-0.325-0.375-0.476c-0.068-0.067-0.135-0.134-0.2-0.199l-0.075-0.075c-0.025-0.025-0.051-0.051-0.075-0.075
	l-0.05-0.05c-0.041-0.041-0.082-0.082-0.125-0.125c-0.364-0.316-0.747-0.583-1.15-0.8l15.051-7.601V-3.427
	c0.04-0.51,0.007-1.026-0.101-1.551c-0.047-0.255-0.113-0.513-0.2-0.774c-0.073-0.22-0.157-0.428-0.25-0.625
	c-0.151-0.339-0.335-0.655-0.55-0.95c-0.07-0.102-0.146-0.201-0.225-0.3c-0.134-0.164-0.274-0.322-0.425-0.476
	c-0.11-0.109-0.228-0.218-0.351-0.324c-0.263-0.228-0.546-0.428-0.85-0.601c-0.282-0.18-0.582-0.33-0.9-0.45l-105.3-53.05
	l-105.4,53.101c-0.508,0.197-0.983,0.473-1.425,0.824l-0.3,0.25c-0.092,0.076-0.184,0.159-0.275,0.25
	c-0.27,0.271-0.512,0.555-0.725,0.851l-0.4,0.7c-0.123,0.258-0.232,0.524-0.324,0.8c-0.047,0.141-0.089,0.282-0.125,0.425
	c-0.111,0.423-0.178,0.839-0.2,1.25v0.25c0.006,0.145,0.015,0.286,0.024,0.425v20.75l15.125,7.601
	c-0.215,0.12-0.424,0.254-0.625,0.399l-0.75,0.65c-0.146,0.145-0.288,0.295-0.425,0.45l-0.325,0.425
	c-0.505,0.746-0.821,1.571-0.949,2.475c-0.053,0.348-0.078,0.689-0.075,1.025c0.008,0.112,0.017,0.22,0.024,0.325v10.35l0.7,0.35
	c-0.271,0.496-0.463,1.021-0.575,1.575c-0.019,0.091-0.035,0.183-0.05,0.275c-0.085,0.466-0.109,0.933-0.075,1.399v10.4l0.726,0.375
	c-0.155,0.281-0.288,0.582-0.4,0.9c-0.025,0.074-0.051,0.148-0.075,0.225l-0.1,0.375c-0.068,0.272-0.118,0.548-0.15,0.825v0.975
	l-23.8,11.976v3.25c-0.03,0.33-0.03,0.663,0,1v25.949l7.125,3.575c0.489,0.296,1.015,0.513,1.575,0.65
	c0.338,0.093,0.68,0.151,1.025,0.175l1.725-0.125h0.025l0.3-0.075c0.431-0.108,0.839-0.267,1.225-0.475l12.7-6.425l109,54.85v15.65
	l7.2,3.6c0.065,0.047,0.132,0.088,0.2,0.125c0.346,0.186,0.704,0.336,1.074,0.45c0.834,0.255,1.676,0.321,2.525,0.2
	c0.088-0.02,0.171-0.035,0.25-0.051c0.78-0.129,1.497-0.404,2.15-0.824l93.949-47.301V98.823l0.025-0.25
	c0.005-0.393-0.029-0.784-0.1-1.176L213.439,97.273z M195.089-3.027v16.375l-22.051,11.125l-0.024,0.025L96.439,63.023V48.048
	c0-0.477-0.075-0.926-0.225-1.35L195.089-3.027z M183.189,31.073v5.975l-6.5,3.325l-0.025,0.024h-0.1L96.439,80.623v-4.476
	c0-0.476-0.075-0.926-0.225-1.35L183.189,31.073z M183.189,45.073v5.975l-6.575,3.325l-0.024,0.024h-0.025L96.439,94.673v-4.525
	c0-0.476-0.075-0.926-0.225-1.35L183.189,45.073z M116.389,166.548l-3.7-1.85v-15.351c0-0.09-0.025-0.174-0.075-0.25
	c-0.049-0.085-0.116-0.151-0.2-0.2L-2.561,91.073l-0.025-0.025h-0.1l-0.025-0.025l-15.375-7.824
	c-0.104-0.057-0.212-0.073-0.324-0.051c-0.121,0.025-0.221,0.084-0.301,0.176c-0.07,0.096-0.104,0.204-0.1,0.324v14.851l-3.2-1.601
	V75.273l57.525,28.976c0.104,0.056,0.212,0.072,0.325,0.05c0.12-0.025,0.22-0.083,0.3-0.175c0.07-0.096,0.104-0.204,0.1-0.325v-7.05
	c0-0.091-0.025-0.174-0.075-0.25c-0.049-0.085-0.115-0.152-0.199-0.2L1.788,79.148v-5.975l32.976,16.625
	c0.112,0.052,0.229,0.06,0.35,0.025c0.116-0.031,0.208-0.098,0.275-0.2c0.075-0.098,0.108-0.206,0.1-0.325l-0.8-7.4
	c-0.014-0.082-0.047-0.156-0.1-0.225c-0.026-0.043-0.06-0.085-0.101-0.125c-0.02-0.016-0.045-0.032-0.075-0.05L8.464,68.448
	c-0.016-0.011-0.032-0.02-0.051-0.025H8.389c-0.038-0.015-0.071-0.023-0.101-0.025l-1.625-0.824
	c-1.623-0.828-3.248-1.653-4.875-2.476v-5.975l31.426,15.825c0.111,0.051,0.229,0.06,0.35,0.024l0.05-0.024
	c0.093-0.029,0.167-0.087,0.226-0.176c0.075-0.098,0.108-0.206,0.1-0.324l-0.8-7.351c-0.014-0.082-0.047-0.157-0.101-0.225
	c-0.044-0.074-0.103-0.133-0.175-0.175l-24.2-12.125c-0.035-0.051-0.077-0.093-0.125-0.125c-0.024-0.021-0.05-0.037-0.074-0.051
	c-0.018-0.008-0.034-0.017-0.051-0.024l-0.425-0.2c-0.13-0.066-0.263-0.133-0.399-0.2l-5.801-2.925v-5.975l0.926,0.475
	c0.309,0.161,0.617,0.319,0.925,0.475c4.337,2.184,8.67,4.367,13,6.551l15.024,7.574c0.035,0.017,0.068,0.024,0.101,0.025
	c0.083,0.023,0.167,0.023,0.25,0c0.115-0.022,0.207-0.081,0.274-0.175c0.075-0.106,0.108-0.223,0.101-0.351l-0.7-7.35
	c-0.005-0.082-0.029-0.157-0.075-0.225l-0.024-0.025c-0.047-0.063-0.105-0.113-0.176-0.15l-2.149-1.074
	c-0.245-0.113-0.486-0.229-0.726-0.351c-6.674-3.346-13.35-6.695-20.024-10.05H8.489l-0.024-0.025
	c-0.016-0.008-0.032-0.016-0.051-0.024c-0.018-0.007-0.035-0.016-0.05-0.025l-7.075-3.55v-6.025l0.5,0.25v0.051l28.375,14.274
	c0.053,0.024,0.103,0.041,0.15,0.05c0.068,0.002,0.135-0.006,0.2-0.024c0.115-0.031,0.207-0.098,0.274-0.2
	c0.076-0.098,0.109-0.206,0.101-0.325l-1.2-11.149c-0.014-0.082-0.047-0.157-0.1-0.226c-0.029-0.048-0.063-0.089-0.101-0.125
	c-0.024-0.018-0.049-0.034-0.075-0.05l-17.375-8.75c-0.021-0.018-0.045-0.034-0.074-0.05l-0.301-0.125l-21.875-11.025V-3.027
	l98.875,49.726c-0.14,0.396-0.215,0.813-0.225,1.25v15.074l-0.95-0.475c-0.096-0.047-0.196-0.098-0.3-0.15
	c-0.13-0.063-0.263-0.13-0.4-0.199l-15.975-8.025c-2.771-1.395-5.537-2.786-8.3-4.175l-10.525-5.3l-1.25,10.975l0.275,0.15
	c0.035,0.049,0.085,0.09,0.149,0.125l37.275,18.725v5.95l-0.975-0.476c-0.326-0.169-0.651-0.336-0.976-0.5
	c-9.796-4.916-19.587-9.832-29.375-14.75c-0.015-0.01-0.032-0.019-0.05-0.024l-6.2-3.175c-0.063-0.034-0.129-0.051-0.2-0.051
	l-0.574-0.274l-0.851,7.6l0.226,0.125c0.039,0.04,0.089,0.073,0.149,0.101c0.016,0.01,0.032,0.019,0.05,0.024l38.775,19.476v5.949
	l-32.975-16.6c0.023,0.013,0.048,0.029,0.074,0.05l-6.949-3.5l-0.825,7.375l40.675,20.226v6.5l-41.35-20.801l-0.851,7.351
	c-0.01,0.095,0.007,0.187,0.05,0.274c0.039,0.085,0.097,0.151,0.176,0.2c0.076,0.046,0.16,0.071,0.25,0.075l41.949,21.1
	c-0.149,0.424-0.225,0.874-0.225,1.351v4.5l-35.275-17.75c-0.015-0.011-0.031-0.019-0.05-0.025l-6.899-3.475
	c-0.104-0.056-0.213-0.073-0.325-0.05c-0.12,0.024-0.221,0.083-0.3,0.175c-0.07,0.096-0.104,0.204-0.101,0.325v6.875
	c-0.002,0.027-0.002,0.053,0,0.074c0.001,0.054,0.009,0.104,0.025,0.15c0.008,0.025,0.017,0.051,0.024,0.075
	c0.051,0.097,0.126,0.172,0.226,0.225l46.45,23.4c0.071,0.034,0.146,0.051,0.225,0.05c0.058,0.001,0.116-0.008,0.175-0.025
	l23.55,11.976c0.074,0.037,0.149,0.054,0.226,0.05V166.548z M183.689,78.898l-7,3.575l-0.025,0.025h-0.024h-0.075l-80.125,40.274
	v-4.524c0-0.477-0.075-0.927-0.225-1.351l87.475-43.975V78.898z M183.689,65.398l-87.25,43.9v-5.1
	c-0.001-0.658-0.143-1.258-0.425-1.801l87.675-44.1V65.398z"/>
</svg>
