<svg xmlns="http://www.w3.org/2000/svg" width="246.45" height="166.051" viewBox="-29.561 -26.952 246.45 166.051"><path fill-rule="evenodd" clip-rule="evenodd" fill="#C52026" d="M158.34-26.952H13.69v18.5h-26.7v15.8h-16.55v97.45h16.55v15.85h26.7v18.45h144.65v-34.3h58.55v-8h-75.852v-81.45h75.85v-8h-58.55v-34.3zm-101.95 8h19.45v10.5H56.39v-10.5zm10.9 34.3V96.8H47.84v-81.45h19.45zm-18.15-8H29.69v-7.8h19.45v7.8zm-16.55 8V96.8H13.14v-81.45h19.45zm-10.9-34.3h19.45v10.5H21.69v-10.5zm-26.7 18.5h19.45v7.8H-5.01v-7.8zm-16.55 97.25v-81.45h19.45V96.8h-19.45zm36 15.85H-5.01v-7.85h19.45v7.85zm26.7 18.45H21.69v-10.45h19.45v10.45zm8-18.45H29.69v-7.85h19.45v7.85zm26.7 18.45H56.39v-10.45h19.45v10.45zm8-18.45H64.39v-7.85h19.45v7.85zm0-105.3H64.39v-7.8h19.45v7.8zm26.698 123.75h-19.45v-10.45h19.45v10.45zm0-139.55h-19.45v-10.5h19.45v10.5z"/></svg>