<svg xmlns="http://www.w3.org/2000/svg" width="118.5" height="127.101" viewBox="33.939 -7.552 118.5 127.101"><path fill-rule="evenodd" clip-rule="evenodd" fill="#C52026" d="M97.74 14.9c1.332-1.334 2-2.95 2-4.85 0-2.034-.7-3.718-2.1-5.05-1.435-1.3-3.118-1.95-5.052-1.95-1.9 0-3.517.65-4.85 1.95-1.333 1.332-2 3.016-2 5.05.1 1.966.8 3.616 2.1 4.95 1.434 1.266 3.117 1.9 5.05 1.9 1.9 0 3.518-.668 4.85-2z"/><path fill-rule="evenodd" clip-rule="evenodd" fill="#C52026" d="M152.44 119.55V-7.553h-47.9v17.55c0 3.3-1.15 6.117-3.45 8.45-2.334 2.3-5.15 3.45-8.45 3.45-3.3 0-6.1-1.15-8.4-3.45-2.333-2.333-3.5-5.15-3.5-8.45v-17.55h-46.8v127.1h46.8v-15c0-3.3 1.167-6.1 3.5-8.4 2.3-2.333 5.1-3.5 8.4-3.5 3.3 0 6.116 1.167 8.45 3.5 2.3 2.3 3.45 5.1 3.45 8.4v15h47.9zm-17.45-12.65c-2.5 2.532-5.5 3.8-9 3.8s-6.5-1.268-9-3.8c-2.5-2.5-3.75-5.484-3.75-8.95-.067-3.6 1.15-6.6 3.65-9 2.565-2.5 5.6-3.75 9.1-3.75s6.5 1.25 9 3.75c2.5 2.4 3.75 5.4 3.75 9 0 3.465-1.25 6.45-3.75 8.95zM116.89 4.947c2.565-2.5 5.6-3.75 9.1-3.75s6.5 1.25 9 3.75c2.5 2.4 3.75 5.4 3.75 9 0 3.467-1.25 6.45-3.75 8.95-2.5 2.533-5.5 3.8-9 3.8s-6.5-1.267-9-3.8c-2.5-2.5-3.75-5.483-3.75-8.95-.068-3.6 1.15-6.6 3.65-9zm8.35 36.25v-8h4v12H57.49v-12h4v8h63.75zM50.89 4.948c2.565-2.5 5.6-3.75 9.1-3.75s6.5 1.25 9 3.75c2.5 2.4 3.75 5.4 3.75 9 0 3.467-1.25 6.45-3.75 8.95-2.5 2.533-5.5 3.8-9 3.8s-6.5-1.267-9-3.8c-2.5-2.5-3.75-5.483-3.75-8.95-.068-3.6 1.15-6.6 3.65-9zm18.1 101.95c-2.5 2.534-5.5 3.8-9 3.8s-6.5-1.266-9-3.8c-2.5-2.5-3.75-5.482-3.75-8.95-.067-3.6 1.15-6.6 3.65-9 2.565-2.5 5.6-3.75 9.1-3.75s6.5 1.25 9 3.75c2.5 2.4 3.75 5.4 3.75 9 0 3.467-1.25 6.45-3.75 8.95zm-7.5-36.2v8h-4v-12h71.75v12h-4v-8H61.49z"/><path fill-rule="evenodd" clip-rule="evenodd" fill="#C52026" d="M126.14 20.8c1.898 0 3.516-.668 4.85-2 1.332-1.334 2-2.95 2-4.85 0-2.034-.7-3.717-2.1-5.05-1.435-1.3-3.118-1.95-5.052-1.95-1.9 0-3.517.65-4.85 1.95-1.333 1.332-2 3.016-2 5.05.1 1.966.8 3.616 2.1 4.95 1.434 1.265 3.117 1.9 5.05 1.9zM125.838 90.948c-1.9 0-3.517.65-4.85 1.95-1.333 1.334-2 3.017-2 5.05.1 1.967.8 3.616 2.1 4.95 1.434 1.267 3.117 1.9 5.05 1.9 1.9 0 3.518-.667 4.85-2 1.334-1.334 2-2.95 2-4.85 0-2.034-.7-3.717-2.1-5.05-1.433-1.3-3.116-1.95-5.05-1.95zM60.14 20.8c1.898 0 3.516-.668 4.85-2 1.332-1.334 2-2.95 2-4.85 0-2.034-.7-3.717-2.1-5.05-1.435-1.3-3.118-1.95-5.052-1.95-1.9 0-3.517.65-4.85 1.95-1.333 1.332-2 3.016-2 5.05.1 1.966.8 3.616 2.1 4.95 1.434 1.265 3.117 1.9 5.05 1.9zM87.74 98.8c-1.334 1.332-2 3.015-2 5.05.1 1.965.8 3.615 2.1 4.95 1.433 1.265 3.116 1.898 5.05 1.898 1.9 0 3.517-.667 4.85-2s2-2.95 2-4.85c0-2.034-.7-3.717-2.1-5.05-1.434-1.3-3.117-1.95-5.05-1.95-1.9 0-3.518.65-4.85 1.95zM59.838 90.948c-1.9 0-3.517.65-4.85 1.95-1.333 1.334-2 3.017-2 5.05.1 1.967.8 3.616 2.1 4.95 1.434 1.267 3.117 1.9 5.05 1.9 1.9 0 3.518-.667 4.85-2 1.334-1.334 2-2.95 2-4.85 0-2.034-.7-3.717-2.1-5.05-1.433-1.3-3.116-1.95-5.05-1.95z"/></svg>