<svg xmlns="http://www.w3.org/2000/svg" width="242.099" height="235.659" viewBox="-28.534 -62.527 242.099 235.659"><path fill-rule="evenodd" clip-rule="evenodd" fill="#C52026" d="M213.44 97.273l-.05-.25c-.043-.173-.093-.35-.15-.524-.074-.22-.158-.43-.25-.626-.152-.34-.336-.655-.55-.95-.07-.102-.147-.2-.226-.3-.134-.164-.275-.322-.426-.476-.11-.11-.227-.218-.35-.324-.263-.23-.547-.428-.85-.6-.283-.182-.583-.332-.9-.45l-20-10.05v-9.876c.04-.463.024-.93-.05-1.4-.105-.72-.33-1.386-.675-2l.725-.374V58.798c.04-.463.024-.93-.05-1.4-.105-.72-.33-1.386-.675-2l.725-.375v-10.4c.028-.41.012-.817-.05-1.226-.096-.728-.313-1.402-.65-2.024l.7-.35V30.697c.002-.03.002-.055 0-.075.013-.18.02-.354.025-.525-.006-.113-.014-.23-.025-.35-.003-.035-.003-.068 0-.1-.018-.108-.034-.217-.05-.325-.14-.95-.49-1.808-1.05-2.575-.12-.167-.245-.325-.375-.476l-.2-.2-.075-.074-.075-.075-.05-.05-.125-.125c-.364-.316-.747-.583-1.15-.8l15.05-7.6V-3.428c.04-.51.008-1.026-.1-1.55-.047-.256-.113-.514-.2-.775-.073-.22-.157-.428-.25-.625-.15-.34-.335-.655-.55-.95-.07-.102-.146-.2-.225-.3-.134-.164-.274-.322-.425-.476-.11-.11-.228-.218-.35-.324-.264-.228-.547-.428-.85-.6-.283-.18-.583-.33-.9-.45l-105.3-53.05-105.4 53.1c-.51.197-.984.473-1.426.824l-.3.25c-.092.076-.184.16-.275.25-.27.27-.512.555-.725.85l-.4.7c-.123.26-.232.525-.324.8-.047.142-.09.283-.125.426-.11.423-.178.84-.2 1.25v.25c.006.145.015.286.024.425v20.75l15.125 7.6c-.215.12-.424.255-.625.4l-.75.65c-.146.145-.288.295-.425.45l-.325.425c-.505.746-.82 1.57-.95 2.475-.052.348-.077.69-.074 1.025l.024.325v10.35l.7.35c-.27.496-.463 1.02-.575 1.575-.02.09-.035.183-.05.275-.085.466-.11.933-.075 1.4v10.4l.726.374c-.155.28-.288.582-.4.9l-.075.225-.1.375c-.068.272-.118.548-.15.825v.975l-23.8 11.976v3.25c-.03.33-.03.663 0 1v25.95l7.125 3.574c.49.296 1.015.513 1.575.65.338.093.68.15 1.025.175l1.725-.125h.025l.3-.075c.43-.108.84-.267 1.225-.475l12.7-6.425 109 54.85v15.65l7.2 3.6c.065.047.132.088.2.125.346.186.704.336 1.074.45.834.255 1.676.32 2.525.2.088-.02.17-.035.25-.05.78-.13 1.497-.405 2.15-.825l93.95-47.3V98.822l.024-.25c.006-.393-.028-.784-.1-1.176l-.02-.124zm-18.35-100.3v16.375l-22.052 11.125-.024.025L96.44 63.023V48.048c0-.477-.076-.926-.226-1.35L195.09-3.027zm-11.9 34.1v5.975l-6.5 3.325-.026.024h-.1L96.44 80.623v-4.476c0-.476-.076-.926-.226-1.35l86.975-43.724zm0 14v5.975l-6.576 3.325-.024.024h-.025L96.44 94.673v-4.525c0-.476-.076-.926-.226-1.35l86.975-43.725zm-66.8 121.475l-3.7-1.85v-15.35c0-.09-.026-.175-.076-.25-.05-.086-.116-.152-.2-.2L-2.56 91.072l-.026-.025h-.1l-.025-.025-15.376-7.824c-.104-.058-.212-.074-.324-.052-.12.025-.22.084-.3.176-.07.096-.105.204-.1.324v14.85l-3.2-1.6V75.273l57.524 28.976c.104.055.212.07.325.05.12-.026.22-.084.3-.176.07-.096.103-.204.1-.325v-7.05c0-.092-.026-.175-.076-.25-.05-.086-.115-.153-.2-.2L1.79 79.147v-5.975l32.976 16.625c.112.052.23.06.35.025.116-.03.208-.098.275-.2.074-.098.107-.206.1-.325l-.8-7.4c-.015-.082-.048-.156-.1-.225-.027-.043-.06-.085-.102-.125-.02-.016-.045-.032-.075-.05l-25.95-13.05c-.015-.01-.03-.02-.05-.025H8.39c-.04-.015-.072-.023-.102-.025l-1.625-.824c-1.623-.828-3.248-1.653-4.875-2.476v-5.975l31.426 15.825c.11.05.23.06.35.024l.05-.024c.093-.03.167-.087.226-.176.075-.098.108-.206.1-.324l-.8-7.35c-.014-.083-.047-.158-.1-.226-.045-.074-.104-.133-.176-.175l-24.2-12.125c-.035-.05-.077-.093-.125-.125-.025-.02-.05-.037-.075-.05l-.05-.025-.426-.2-.4-.2-5.8-2.925v-5.975l.925.475c.31.16.617.32.925.475 4.337 2.184 8.67 4.367 13 6.55l15.024 7.575c.035.017.068.024.1.025.084.023.168.023.25 0 .116-.022.208-.08.275-.175.074-.106.107-.223.1-.35l-.7-7.35c-.005-.083-.03-.158-.075-.226l-.024-.024c-.046-.063-.104-.113-.175-.15l-2.15-1.074c-.244-.113-.485-.23-.725-.35-6.674-3.347-13.35-6.696-20.024-10.05H8.49l-.025-.026-.05-.024c-.02-.007-.036-.016-.05-.025l-7.076-3.55v-6.025l.5.25v.05l28.374 14.275c.053.024.103.04.15.05.068.002.135-.006.2-.024.115-.03.207-.098.274-.2.076-.098.11-.206.1-.325l-1.2-11.15c-.013-.08-.046-.156-.1-.225-.028-.048-.062-.09-.1-.125-.024-.018-.05-.034-.075-.05l-17.375-8.75c-.02-.018-.045-.034-.074-.05l-.3-.125-21.876-11.025V-3.027L88.663 46.7c-.14.395-.215.812-.225 1.25v15.073l-.95-.475-.3-.15c-.13-.063-.263-.13-.4-.2l-15.975-8.024c-2.77-1.395-5.537-2.786-8.3-4.175l-10.525-5.3-1.25 10.974.275.15c.035.05.085.09.15.125l37.274 18.724v5.95l-.975-.476c-.326-.17-.65-.336-.976-.5-9.796-4.916-19.587-9.832-29.375-14.75-.014-.01-.03-.02-.05-.024l-6.2-3.175c-.062-.035-.128-.052-.2-.052l-.573-.274-.85 7.6.225.125c.04.04.09.072.15.1.015.01.03.02.05.024L88.435 88.7v5.95L55.46 78.05c.024.012.05.028.075.05l-6.95-3.5-.824 7.374L88.437 102.2v6.5l-41.35-20.8-.85 7.35c-.01.095.006.187.05.274.038.085.096.15.175.2.077.046.16.07.25.075l41.95 21.1c-.15.423-.225.873-.225 1.35v4.5L53.16 105c-.015-.01-.03-.02-.05-.025l-6.9-3.475c-.103-.056-.212-.073-.324-.05-.12.024-.22.083-.3.175-.07.096-.104.204-.1.325v6.875c-.003.027-.003.053 0 .074 0 .053.008.103.024.15l.024.074c.05.097.126.172.226.225l46.45 23.4c.07.033.146.05.225.05.058 0 .116-.01.175-.026l23.55 11.976c.074.037.15.054.226.05v21.748zm67.3-87.65l-7 3.575-.026.025h-.099L96.44 122.772v-4.524c0-.477-.075-.927-.225-1.35L183.69 72.92v5.976zm0-13.5l-87.25 43.9v-5.1c-.002-.658-.144-1.258-.426-1.8l87.675-44.1v7.1z"/></svg>