<svg xmlns="http://www.w3.org/2000/svg" width="234.75" height="156.849" viewBox="-24.284 -23.24 234.75 156.849"><path fill-rule="evenodd" clip-rule="evenodd" fill="#C52026" d="M152.316 35.41v52.6h12.5V21.16h-20.2l-12 45.6-12.15-45.6h-20.2v66.85h12.55v-52.6l13.25 52.6h13"/><path fill-rule="evenodd" clip-rule="evenodd" fill="#C52026" d="M187.366 110.76l.1-.15c.033 0 .05-.016.05-.05 15.3-15.3 22.95-33.767 22.95-55.4 0-21.633-7.65-40.116-22.95-55.45-15.333-15.3-33.817-22.95-55.45-22.95S91.95-15.59 76.616-.29c-3.1 3.1-5.883 6.334-8.35 9.7l-23.45-23.45h-69.1v10h64.95l22.1 22.1c-5.6 10.268-8.634 21.6-9.1 34h-77.95v10h78.2c.866 10.968 3.816 21.067 8.85 30.3l-22.1 22.05h-64.95v10h69.1l23.45-23.45c2.468 3.333 5.25 6.55 8.35 9.65 15.3 15.333 33.785 23 55.45 23 21.566 0 40-7.616 55.3-22.85zm-5.2 2.05l.05-.05h.1l-.15.05zm-.05-15l.1-.05-.05.05h-.05zm-104.9-10.4l.05.05c-5.5-9.1-8.366-19.284-8.6-30.55v-.25c-.033-.5-.05-1-.05-1.5-.033-11.933 2.85-22.666 8.65-32.2 2.666-4.466 5.982-8.683 9.95-12.65 12.4-12.365 27.35-18.55 44.85-18.55s32.45 6.185 44.85 18.55c12.366 12.4 18.55 27.35 18.55 44.85 0 17.435-6.133 32.335-18.4 44.7l-.15.103c0 .033-.016.05-.05.05-12.366 12.4-27.3 18.6-44.8 18.6-17.533 0-32.482-6.2-44.85-18.6-3.967-3.97-7.3-8.17-10-12.603z"/></svg>