<?xml version="1.0" encoding="utf-8"?>
<!-- Generator: Adobe Illustrator 16.0.0, SVG Export Plug-In . SVG Version: 6.00 Build 0)  -->
<!DOCTYPE svg PUBLIC "-//W3C//DTD SVG 1.1//EN" "http://www.w3.org/Graphics/SVG/1.1/DTD/svg11.dtd">
<svg version="1.1" id="Layer_1" xmlns="http://www.w3.org/2000/svg" xmlns:xlink="http://www.w3.org/1999/xlink" x="0px" y="0px"
	 width="186.2px" height="141.65px" viewBox="-0.296 -15.698 186.2 141.65" enable-background="new -0.296 -15.698 186.2 141.65"
	 xml:space="preserve">
<path fill="#C52026" d="M94.655,45.152h53.75v-5c0.002-0.818-0.016-1.618-0.051-2.4c-0.072-1.452-0.181-2.869-0.324-4.25v-0.05
	c-0.629-5.68-2.104-11.047-4.426-16.1h-0.024c-2.767-5.991-6.741-11.542-11.925-16.65V0.677
	c-11.135-10.914-24.568-16.372-40.301-16.375c-0.232,0-0.467,0-0.699,0h-0.051c-15.405,0.186-28.622,5.644-39.649,16.375
	l-0.025,0.025c-5.151,5.115-9.094,10.69-11.825,16.725v-0.025c-3.188,6.935-4.805,14.509-4.85,22.725l-0.1,5.025h52.5v68.8h-86.95
	v12h186.2v-12h-91.25V45.152z M44.53,35.152c0.502-4.809,1.728-9.326,3.675-13.55v-0.025c2.264-4.956,5.514-9.539,9.75-13.75
	l0.024-0.025c9.093-8.844,19.984-13.344,32.676-13.5h0.05c0.217,0,0.433,0,0.649,0c13.001-0.002,24.102,4.506,33.301,13.525V7.802
	c4.282,4.225,7.574,8.808,9.875,13.75h-0.025c1.871,4.065,3.063,8.382,3.575,12.95c0.021,0.216,0.038,0.433,0.05,0.65H44.53z"/>
</svg>
