<?xml version="1.0" encoding="utf-8"?>
<!-- Generator: Adobe Illustrator 16.0.0, SVG Export Plug-In . SVG Version: 6.00 Build 0)  -->
<!DOCTYPE svg PUBLIC "-//W3C//DTD SVG 1.1//EN" "http://www.w3.org/Graphics/SVG/1.1/DTD/svg11.dtd">
<svg version="1.1" id="Layer_1"
	xmlns="http://www.w3.org/2000/svg"
	xmlns:xlink="http://www.w3.org/1999/xlink" x="0px" y="0px" width="164.6px" height="178.9px" viewBox="11.152 -33.539 164.6 178.9" enable-background="new 11.152 -33.539 164.6 178.9" xml:space="preserve">
	<path fill="#F72432" d="M141.527-1.614l14.801,11.15c1.986,1.495,4.203,2.069,6.649,1.725c2.458-0.337,4.441-1.496,5.95-3.475
	c1.498-1.983,2.072-4.199,1.725-6.65c-0.34-2.455-1.499-4.438-3.475-5.95l-14.8-11.15c-1.986-1.495-4.203-2.069-6.65-1.725
	c-2.458,0.337-4.44,1.496-5.95,3.475c-1.497,1.983-2.072,4.199-1.725,6.65C138.393-5.109,139.551-3.126,141.527-1.614z"/>
	<path fill="#F72432" d="M106.702-7.314v-8.225h16.6v-18h-48.2v18h16.6v8.225C73.828-5.728,58.32,1.622,45.177,14.737l-1.175,2.825
	l-0.05,0.05l1.175-2.825C33.011,26.903,25.819,41.077,23.552,57.311l11.1-10.049l6.75,12.575
	c1.752-12.333,7.244-23.116,16.475-32.35c11.451-11.417,25.226-17.126,41.325-17.125h0.05c16.163-0.001,29.954,5.707,41.375,17.125
	c11.072,11.079,16.78,24.404,17.125,39.975c0,0.467,0,0.934,0,1.4c0.001,16.131-5.708,29.905-17.125,41.324l-1.175,2.826
	l-0.051,0.049l1.176-2.824c-1.406,1.405-2.848,2.723-4.325,3.949c-10.522,8.785-22.855,13.176-37,13.176h-0.05
	c-16.131,0-29.906-5.708-41.325-17.125c-1.705-1.705-3.28-3.464-4.725-5.275c-4.846-6.045-8.271-12.678-10.275-19.9h9.325
	l-20.5-26.25l-20.55,26.25h13.175c1.444,7.036,3.861,13.67,7.25,19.9c3.501,6.419,8.035,12.41,13.6,17.975
	c14.948,14.951,32.957,22.426,54.025,22.426h0.05c13.614,0,25.948-3.109,37-9.325c6.079-3.429,11.771-7.796,17.075-13.101
	c14.949-14.947,22.424-32.972,22.425-54.074c0-0.5,0-1,0-1.5c0-0.033,0-0.066,0-0.1v-0.076
	c-0.421-20.404-7.896-37.871-22.425-52.399C140.17,1.627,124.628-5.74,106.702-7.314z"/>
	<path fill="#F72432" d="M148.652,67.762c0-13.667-4.833-25.317-14.5-34.951c-9.633-9.667-21.283-14.5-34.949-14.5v50.701h49.449
	C148.652,68.612,148.652,68.195,148.652,67.762z"/>
</svg>
