<svg xmlns="http://www.w3.org/2000/svg" xml:space="preserve" id="Layer_1" x="0" y="0" style="enable-background:new 0 0 551.15 551.15" version="1.1" viewBox="0 0 551.15 551.15"><style>.st0{fill:#e44847}</style><path d="M504.73 240.65v7.28c0 31.81.05 63.62-.02 95.44-.04 18.29-8.8 30.9-24.61 35.84-22.5 7.03-44.41-9.06-44.63-33.03-.3-32.97-.34-65.94-.49-98.9v-6.98c-5.97 0-11.53.77-16.81-.14-19.17-3.28-30.87-18.64-29.39-37.77 1.38-17.82 15.89-30.97 35.35-31.15 30.64-.29 61.28-.32 91.92.01 21.94.24 37.02 17.21 35.35 38.88-1.17 15.18-16.96 29.88-32.88 30.49-4.31.17-8.62.03-13.79.03zm-48.33 47.7h.11c0 18.99-.07 37.99.04 56.98.04 7.62 5.14 13.31 12.18 14.15 6.63.79 12.52-3.81 14.15-11.31.56-2.57.72-5.28.73-7.92.05-35.16.03-70.31.03-105.47 0-12.41 2.77-15.06 15.37-15.18 6.65-.06 13.37.15 19.92-.77 7.12-1 11.39-7.13 10.89-13.92-.48-6.55-6.01-12.18-12.94-12.22-31.32-.15-62.64-.16-93.96-.01-7.58.04-12.97 6.23-12.79 13.79.18 7.53 5.89 12.73 14.77 13.09 5.82.24 11.66 0 17.49.08 10.61.14 13.97 3.57 13.98 14.23.05 18.15.03 36.32.03 54.48zM243.23 183.84c50.65-.06 92.18 41.01 91.82 91.86-.39 54.33-44.32 91.84-91.43 91.89-50.84.05-92.17-41-92.19-91.5-.02-51.28 40.68-92.19 91.8-92.25zm.04 162.33c38.73.01 70.58-31.86 70.44-70.61-.13-37.02-28.98-70.17-70.64-70.44-38.67-.25-70.51 31.89-70.56 70.12-.05 39 31.79 70.91 70.76 70.93zM79.51 276.05c0 21.82.07 43.65-.02 65.47-.09 20.61-15.37 37.37-35.42 39.06-21.34 1.8-38.85-11.37-42.38-32.31C.67 342.24.5 336.02.49 329.88c-.1-38.65-.24-77.31.13-115.96.07-6.98 1.3-14.41 3.98-20.8 6.98-16.65 25.38-25.48 43.31-21.93 18.18 3.6 31.25 18.73 31.51 37.39.31 22.49.07 44.98.07 67.47h.02zm-21.09-.27c0-21.31.1-42.63-.03-63.94-.1-15.34-13.78-24.69-26.47-18.13-7.85 4.05-10.4 11.22-10.4 19.59 0 41.64-.02 83.27.04 124.91 0 2.63.3 5.35.99 7.88 2.03 7.52 7.29 11.75 14.76 13.14 7.29 1.36 13.54-1.24 17.2-7.41a28.86 28.86 0 0 0 3.76-13.6c.37-20.81.16-41.63.15-62.44zm184.63 196.71c-38.04-.51-73.24-10.66-105.34-31.08a18.38 18.38 0 0 1-6.8-8.09c-1.66-4.12-.05-8.34 3.8-10.97 4.16-2.85 8.49-2.09 12.74.15 9.4 4.97 18.45 10.88 28.32 14.65 66.95 25.64 128.21 15.52 183.45-30.34 2.94-2.44 5.69-5.16 8.78-7.39 5.47-3.92 11.16-3.57 14.87.59 3.84 4.29 3.97 10.04-.99 14.75-7.58 7.21-15.45 14.23-23.9 20.38-30.95 22.54-65.84 34.28-103.98 36.58-3.65.24-7.3.52-10.95.77zm-5.12-393.34c40.93.08 74.15 8.82 104.82 26.94 4.09 2.41 7.91 5.3 7.89 10.64-.03 7.49-6.71 12.31-13.79 9.82-3.89-1.37-7.49-3.57-11.18-5.47-25.86-13.36-53.41-20.52-82.43-21.04-38.36-.69-72.46 12.16-103.15 34.6-6.44 4.71-12.43 10.04-18.64 15.07-1.42 1.15-2.8 2.4-4.37 3.3-5.12 2.93-10.56 1.91-13.84-2.44a10.32 10.32 0 0 1 1.21-14.05c16.29-15.41 33.98-28.85 54.35-38.57 26.74-12.78 54.94-18.77 79.13-18.8z" class="st0"/><path d="M228.03 419.89c-25.27-.18-57.78-14.52-85.41-40.61-3.1-2.93-5.52-6.39-4.49-11.01 1.66-7.51 9.01-10.7 15.94-6.58 4.12 2.45 7.86 5.59 11.54 8.7 24 20.23 51.73 29.73 82.98 28.17 30.11-1.5 56.66-12.11 78.84-32.94a29.79 29.79 0 0 1 5.94-4.5c4.54-2.49 9.48-1.53 12.7 2.13 3.36 3.8 3.65 9.11.43 13.28-1.51 1.95-3.5 3.53-5.33 5.22-28.26 26.11-61.91 38.07-113.14 38.14zm11.52-288.85c43.3.75 76.04 14.24 103.69 40.17a20.73 20.73 0 0 1 4.48 5.9c1.92 3.96 1.21 7.86-1.85 11.06-3 3.13-6.77 4.65-10.84 2.59a40.42 40.42 0 0 1-8.45-6c-48.76-43.3-118.21-43.17-166.86.37-1.98 1.77-3.97 3.63-6.25 4.95a10.05 10.05 0 0 1-13.37-2.72c-3.25-4.37-3.11-9.8.85-13.64 19.76-19.16 42.57-33.09 69.78-38.64 11.21-2.28 22.68-3.21 28.82-4.04z" class="st0"/><path d="M456.4 288.35c0-18.16.01-36.32-.01-54.48-.01-10.66-3.38-14.09-13.98-14.23-5.83-.08-11.67.16-17.49-.08-8.88-.36-14.59-5.57-14.77-13.09-.18-7.56 5.2-13.75 12.79-13.79 31.32-.15 62.64-.14 93.96.01 6.93.03 12.46 5.66 12.94 12.22.5 6.8-3.77 12.92-10.89 13.92-6.55.92-13.27.71-19.92.77-12.61.12-15.37 2.78-15.37 15.18 0 35.16.01 70.31-.03 105.47 0 2.64-.17 5.35-.73 7.92-1.64 7.51-7.53 12.1-14.15 11.31-7.04-.84-12.14-6.52-12.18-14.15-.11-18.99-.04-37.99-.04-56.98h-.13zM58.42 275.78c0 20.81.22 41.63-.17 62.44a28.83 28.83 0 0 1-3.76 13.6c-3.66 6.17-9.9 8.77-17.2 7.41-7.47-1.39-12.73-5.62-14.76-13.14a30.78 30.78 0 0 1-.99-7.88c-.06-41.64-.04-83.27-.04-124.91 0-8.37 2.56-15.54 10.4-19.59 12.69-6.56 26.37 2.79 26.47 18.13.16 21.31.05 42.63.05 63.94z" style="fill:#fff"/><path d="M282.72 275.56c.12 21.66-17.32 39.29-39.24 39.65-21.76.36-39.76-17.52-39.82-39.54-.06-21.66 17.66-39.6 39.22-39.72 21.87-.13 39.71 17.61 39.84 39.61zm-57.54.21a17.89 17.89 0 0 0 17.93 18.07c10.02.03 18.64-8.52 18.49-18.36-.14-9.73-8.53-18.03-18.29-18.08-10.23-.07-18.18 7.98-18.13 18.37z" class="st0"/></svg>
