<svg xmlns="http://www.w3.org/2000/svg" width="303" height="272.396" viewBox="-58.321 -80.204 303 272.396"><path fill="#C52026" d="M226.265-80.204h-266.1c-10.16 0-18.485 8.326-18.485 18.422v191.367c0 10.096 8.326 18.414 18.484 18.414h266.1c10.16 0 18.415-8.32 18.415-18.415V-61.782c0-10.096-8.255-18.422-18.415-18.422zm-4.635 196.2H-35.208V-54.362H221.63v170.358zM111.427 156.76H71.48l-20.257 35.432h80.42"/><g fill="#C52026"><path d="M159.92 62.397c-.595-.646-1.42-1.03-2.296-1.064l-6.223-.27c-.57-2.937-1.606-5.77-3.058-8.39l4.588-4.21c1.346-1.234 1.432-3.325.2-4.67l-4.558-4.966c-.592-.645-1.418-1.03-2.293-1.064-.876-.032-1.73.274-2.376.865l-4.588 4.214c-2.484-1.675-5.22-2.946-8.1-3.77l.27-6.223c.076-1.824-1.34-3.363-3.162-3.444l-6.73-.287c-1.816-.07-3.365 1.335-3.443 3.158l-.267 6.224c-2.936.57-5.772 1.607-8.39 3.062l-4.214-4.59c-.59-.647-1.417-1.03-2.292-1.07-.873-.035-1.73.278-2.374.87l-4.966 4.555c-1.346 1.235-1.436 3.326-.2 4.668l4.21 4.588c-1.67 2.484-2.945 5.22-3.768 8.1l-6.22-.27c-1.817-.07-3.366 1.336-3.444 3.162l-.29 6.73c-.036.88.274 1.73.868 2.375.59.648 1.417 1.033 2.294 1.068l6.22.27c.576 2.935 1.607 5.77 3.063 8.388l-4.587 4.215c-.645.59-1.03 1.416-1.067 2.29-.04.878.274 1.73.868 2.375l4.556 4.966c.59.645 1.416 1.03 2.294 1.068.87.035 1.73-.275 2.375-.87l4.587-4.21c2.484 1.672 5.22 2.947 8.1 3.77l-.27 6.225c-.076 1.822 1.336 3.36 3.16 3.44l6.732.288c.045 0 .093.004.142.004.826 0 1.623-.312 2.232-.872.646-.59 1.03-1.416 1.068-2.29l.264-6.226c2.94-.574 5.773-1.605 8.393-3.06l4.21 4.59c.594.645 1.416 1.028 2.295 1.065.877.037 1.73-.275 2.373-.865l4.967-4.56c1.346-1.232 1.432-3.323.2-4.665l-4.214-4.592c1.675-2.484 2.946-5.217 3.77-8.096l6.224.265c1.82.07 3.36-1.336 3.443-3.16l.287-6.73c.038-.878-.275-1.734-.865-2.378zM122.7 81.934c-8.484-.365-15.096-7.566-14.732-16.053.355-8.27 7.11-14.748 15.38-14.748.224 0 .446.006.673.016 8.487.365 15.1 7.566 14.733 16.053-.365 8.494-7.496 15.09-16.053 14.734z"/><path d="M91.933 48.687l-3.92-8.702c3.736-2.743 6.947-6.153 9.454-10.05l8.928 3.384c1.707.644 3.614-.214 4.26-1.92l3.28-8.66c.31-.82.282-1.727-.077-2.527-.36-.8-1.022-1.423-1.842-1.732l-8.928-3.38c.703-4.58.56-9.26-.42-13.79l8.702-3.92c.8-.362 1.423-1.024 1.733-1.844.31-.82.283-1.73-.078-2.53l-3.805-8.44c-.748-1.664-2.707-2.403-4.368-1.654l-8.702 3.92c-2.742-3.736-6.156-6.947-10.05-9.454l3.385-8.924c.645-1.707-.213-3.617-1.92-4.263l-8.657-3.28c-.82-.31-1.73-.28-2.53.078-.797.36-1.423 1.022-1.732 1.842l-3.38 8.924c-4.583-.707-9.274-.56-13.792.423l-3.92-8.702c-.36-.8-1.023-1.423-1.843-1.732-.818-.31-1.728-.284-2.525.078l-8.443 3.802c-1.665.75-2.404 2.707-1.655 4.372l3.92 8.702c-3.736 2.743-6.947 6.153-9.454 10.047l-8.925-3.38c-.82-.31-1.73-.282-2.53.077-.796.36-1.42 1.022-1.732 1.842L17.088-4.05c-.65 1.703.212 3.61 1.916 4.258l8.928 3.38c-.704 4.58-.562 9.26.42 13.79l-8.703 3.92c-.8.362-1.424 1.024-1.733 1.843-.31.82-.284 1.73.078 2.53l3.8 8.44c.362.798 1.023 1.424 1.843 1.734.82.31 1.73.284 2.53-.078l8.7-3.92c2.744 3.736 6.154 6.947 10.048 9.454l-3.38 8.924c-.646 1.707.212 3.614 1.92 4.262l8.66 3.278c.374.146.773.217 1.167.217.464 0 .926-.097 1.358-.293.798-.358 1.424-1.022 1.734-1.843l3.38-8.924c4.586.707 9.274.56 13.79-.42l3.92 8.703c.362.798 1.024 1.423 1.843 1.733.82.31 1.73.283 2.526-.078l8.444-3.804c1.666-.747 2.404-2.702 1.656-4.367zM86.457 17.28c-3.278 8.657-11.7 14.474-20.953 14.474-2.707 0-5.375-.494-7.93-1.462-5.6-2.12-10.032-6.292-12.49-11.748S42.44 7.002 44.56 1.404c3.278-8.653 11.7-14.47 20.953-14.47 2.707 0 5.375.493 7.93 1.46 5.6 2.12 10.032 6.292 12.49 11.748s2.644 11.543.524 17.138z"/></g></svg>